<svg width="1440" height="880" viewBox="0 0 1440 880" fill="none" xmlns="http://www.w3.org/2000/svg">
<rect width="1440" height="880" fill="white"/>
<rect width="1440" height="880" fill="#246FF4" fill-opacity="0.2"/>
<path d="M80 116C80 96.1177 96.1177 80 116 80H1324C1343.88 80 1360 96.1178 1360 116V260H80V116Z" fill="#F5F5F5"/>
<path d="M137.879 167.879C136.707 169.05 136.707 170.95 137.879 172.121L156.971 191.213C158.142 192.385 160.042 192.385 161.213 191.213C162.385 190.042 162.385 188.142 161.213 186.971L144.243 170L161.213 153.029C162.385 151.858 162.385 149.958 161.213 148.787C160.042 147.615 158.142 147.615 156.971 148.787L137.879 167.879ZM188 170V167H140V170V173H188V170Z" fill="black"/>
<path d="M338.938 148.578H348.547L355.695 178.227H356.047L363.84 148.578H372.102L379.895 178.285H380.246L387.395 148.578H397.004L384.875 191H376.262L368.176 162.992H367.824L359.68 191H351.066L338.938 148.578ZM401.34 159.184H410.012V191H401.34V159.184ZM405.676 155.023C404.816 155.023 404.016 154.828 403.273 154.438C402.551 154.027 401.975 153.49 401.545 152.826C401.135 152.143 400.93 151.41 400.93 150.629C400.93 149.828 401.135 149.086 401.545 148.402C401.975 147.719 402.551 147.182 403.273 146.791C404.016 146.381 404.816 146.176 405.676 146.176C406.516 146.176 407.297 146.381 408.02 146.791C408.742 147.182 409.309 147.719 409.719 148.402C410.148 149.086 410.363 149.828 410.363 150.629C410.363 151.41 410.148 152.143 409.719 152.826C409.309 153.49 408.742 154.027 408.02 154.438C407.297 154.828 406.516 155.023 405.676 155.023ZM436.496 176.996H417.16V170.082H436.496V176.996ZM443.879 148.578H471.828V155.844H452.668V166.156H470.012V173.422H452.668V191H443.879V148.578ZM477.453 159.184H486.125V191H477.453V159.184ZM481.789 155.023C480.93 155.023 480.129 154.828 479.387 154.438C478.664 154.027 478.088 153.49 477.658 152.826C477.248 152.143 477.043 151.41 477.043 150.629C477.043 149.828 477.248 149.086 477.658 148.402C478.088 147.719 478.664 147.182 479.387 146.791C480.129 146.381 480.93 146.176 481.789 146.176C482.629 146.176 483.41 146.381 484.133 146.791C484.855 147.182 485.422 147.719 485.832 148.402C486.262 149.086 486.477 149.828 486.477 150.629C486.477 151.41 486.262 152.143 485.832 152.826C485.422 153.49 484.855 154.027 484.133 154.438C483.41 154.828 482.629 155.023 481.789 155.023Z" fill="#737373"/>
<rect width="1280" height="180" transform="translate(80 260)" fill="#008577"/>
<path d="M335.938 328.578H345.547L352.695 358.227H353.047L360.84 328.578H369.102L376.895 358.285H377.246L384.395 328.578H394.004L381.875 371H373.262L365.176 342.992H364.824L356.68 371H348.066L335.938 328.578ZM398.34 339.184H407.012V371H398.34V339.184ZM402.676 335.023C401.816 335.023 401.016 334.828 400.273 334.438C399.551 334.027 398.975 333.49 398.545 332.826C398.135 332.143 397.93 331.41 397.93 330.629C397.93 329.828 398.135 329.086 398.545 328.402C398.975 327.719 399.551 327.182 400.273 326.791C401.016 326.381 401.816 326.176 402.676 326.176C403.516 326.176 404.297 326.381 405.02 326.791C405.742 327.182 406.309 327.719 406.719 328.402C407.148 329.086 407.363 329.828 407.363 330.629C407.363 331.41 407.148 332.143 406.719 332.826C406.309 333.49 405.742 334.027 405.02 334.438C404.297 334.828 403.516 335.023 402.676 335.023ZM433.496 356.996H414.16V350.082H433.496V356.996ZM440.879 328.578H468.828V335.844H449.668V346.156H467.012V353.422H449.668V371H440.879V328.578ZM474.453 339.184H483.125V371H474.453V339.184ZM478.789 335.023C477.93 335.023 477.129 334.828 476.387 334.438C475.664 334.027 475.088 333.49 474.658 332.826C474.248 332.143 474.043 331.41 474.043 330.629C474.043 329.828 474.248 329.086 474.658 328.402C475.088 327.719 475.664 327.182 476.387 326.791C477.129 326.381 477.93 326.176 478.789 326.176C479.629 326.176 480.41 326.381 481.133 326.791C481.855 327.182 482.422 327.719 482.832 328.402C483.262 329.086 483.477 329.828 483.477 330.629C483.477 331.41 483.262 332.143 482.832 332.826C482.422 333.49 481.855 334.027 481.133 334.438C480.41 334.828 479.629 335.023 478.789 335.023ZM521.094 337.66C521.094 340.648 521.699 343.637 522.91 346.625C524.121 349.594 525.752 352.25 527.803 354.594C529.873 356.938 532.129 358.715 534.57 359.926L531.758 363.617C528.887 362.113 526.309 359.906 524.023 356.996C521.758 354.086 520.049 350.824 518.896 347.211C517.744 351.059 516.006 354.535 513.682 357.641C511.357 360.727 508.73 363.051 505.801 364.613L502.871 360.922C505.391 359.691 507.686 357.846 509.756 355.385C511.846 352.904 513.496 350.111 514.707 347.006C515.938 343.881 516.562 340.766 516.582 337.66V328.168H521.094V337.66ZM543.945 344.809H552.676V348.793H543.945V375.746H539.375V323.656H543.945V344.809ZM602.949 353.246H555.488V349.438H567.266V342.113C565.156 341.293 563.545 340.229 562.432 338.92C561.318 337.592 560.762 336.059 560.762 334.32C560.762 332.289 561.504 330.551 562.988 329.105C564.473 327.66 566.592 326.557 569.346 325.795C572.119 325.033 575.41 324.652 579.219 324.652C582.988 324.652 586.25 325.033 589.004 325.795C591.777 326.557 593.906 327.66 595.391 329.105C596.875 330.551 597.617 332.289 597.617 334.32C597.617 336.039 597.061 337.562 595.947 338.891C594.854 340.199 593.262 341.264 591.172 342.084V349.438H602.949V353.246ZM579.219 357.23C582.949 357.23 586.152 357.582 588.828 358.285C591.504 358.988 593.555 360.033 594.98 361.42C596.406 362.787 597.129 364.457 597.148 366.43C597.129 368.383 596.406 370.043 594.98 371.41C593.555 372.797 591.504 373.842 588.828 374.545C586.152 375.268 582.949 375.629 579.219 375.629C575.449 375.629 572.217 375.268 569.521 374.545C566.846 373.842 564.795 372.797 563.369 371.41C561.943 370.043 561.23 368.383 561.23 366.43C561.23 364.457 561.934 362.787 563.34 361.42C564.766 360.033 566.826 358.988 569.521 358.285C572.217 357.582 575.449 357.23 579.219 357.23ZM579.219 360.746C575 360.785 571.719 361.303 569.375 362.299C567.051 363.275 565.898 364.652 565.918 366.43C565.898 367.602 566.416 368.607 567.471 369.447C568.525 370.287 570.049 370.932 572.041 371.381C574.053 371.83 576.445 372.055 579.219 372.055C581.953 372.055 584.316 371.83 586.309 371.381C588.32 370.932 589.854 370.287 590.908 369.447C591.982 368.607 592.52 367.602 592.52 366.43C592.52 364.652 591.338 363.275 588.975 362.299C586.631 361.303 583.379 360.785 579.219 360.746ZM579.219 328.285C576.406 328.285 573.965 328.529 571.895 329.018C569.824 329.506 568.232 330.209 567.119 331.127C566.025 332.025 565.488 333.09 565.508 334.32C565.488 335.57 566.025 336.654 567.119 337.572C568.232 338.471 569.814 339.164 571.865 339.652C573.936 340.121 576.387 340.355 579.219 340.355C582.031 340.355 584.463 340.121 586.514 339.652C588.564 339.164 590.146 338.471 591.26 337.572C592.373 336.654 592.93 335.57 592.93 334.32C592.93 333.09 592.373 332.025 591.26 331.127C590.146 330.209 588.555 329.506 586.484 329.018C584.434 328.529 582.012 328.285 579.219 328.285ZM586.602 349.438V343.344C584.355 343.734 581.895 343.93 579.219 343.93C576.543 343.93 574.082 343.734 571.836 343.344V349.438H586.602Z" fill="white"/>
<rect width="1280" height="180" transform="translate(80 440)" fill="#FAFAFA"/>
<path d="M174.86 502.25C162.23 502.25 149.96 506.48 140 514.25C152.09 529.43 162.53 542.36 174.86 557.75C187.1 542.51 199.58 526.97 209.81 514.25C199.82 506.48 187.52 502.25 174.86 502.25Z" fill="#737373"/>
<path d="M358.263 524.926H351.994V541.449C351.994 542.855 352.287 543.822 352.873 544.35C353.478 544.877 354.318 545.141 355.392 545.141C356.33 545.141 357.423 545.102 358.673 545.023V551.117C357.697 551.312 356.291 551.41 354.455 551.41C352.521 551.41 350.802 551.098 349.298 550.473C347.814 549.828 346.642 548.852 345.783 547.543C344.943 546.234 344.533 544.613 344.552 542.68V524.926H339.982V519.184H344.552V511.566H351.994V519.184H358.263V524.926ZM377.541 551.645C374.494 551.645 371.818 550.961 369.513 549.594C367.208 548.227 365.431 546.312 364.181 543.852C362.931 541.371 362.306 538.5 362.306 535.238C362.306 531.957 362.931 529.076 364.181 526.596C365.431 524.115 367.208 522.191 369.513 520.824C371.818 519.457 374.494 518.773 377.541 518.773C380.607 518.773 383.292 519.457 385.597 520.824C387.902 522.191 389.669 524.115 390.9 526.596C392.15 529.076 392.775 531.957 392.775 535.238C392.775 538.5 392.15 541.371 390.9 543.852C389.65 546.332 387.873 548.256 385.568 549.623C383.283 550.971 380.607 551.645 377.541 551.645ZM377.599 545.668C379.24 545.668 380.626 545.209 381.759 544.291C382.912 543.373 383.771 542.123 384.337 540.541C384.923 538.959 385.216 537.172 385.216 535.18C385.216 533.207 384.923 531.43 384.337 529.848C383.771 528.246 382.912 526.986 381.759 526.068C380.626 525.15 379.24 524.691 377.599 524.691C375.919 524.691 374.494 525.15 373.322 526.068C372.169 526.986 371.3 528.236 370.714 529.818C370.148 531.4 369.865 533.188 369.865 535.18C369.865 537.172 370.148 538.959 370.714 540.541C371.3 542.123 372.169 543.373 373.322 544.291C374.494 545.209 375.919 545.668 377.599 545.668ZM398.576 519.184H405.841V524.457H406.193C406.74 522.66 407.726 521.254 409.152 520.238C410.578 519.223 412.208 518.715 414.044 518.715C415.138 518.715 416.037 518.773 416.74 518.891V525.805C416.408 525.688 415.9 525.58 415.216 525.482C414.533 525.385 413.888 525.336 413.283 525.336C411.916 525.336 410.685 525.629 409.591 526.215C408.498 526.801 407.638 527.621 407.013 528.676C406.388 529.73 406.076 530.922 406.076 532.25V551H398.576V519.184ZM431.974 551.586C429.455 551.586 427.199 550.941 425.207 549.652C423.234 548.344 421.681 546.449 420.548 543.969C419.416 541.488 418.849 538.539 418.849 535.121C418.849 531.684 419.425 528.734 420.578 526.273C421.73 523.812 423.302 521.947 425.294 520.678C427.287 519.408 429.533 518.773 432.033 518.773C436.251 518.773 439.279 520.648 441.115 524.398H441.408V508.578H448.849V551H441.525V545.961H441.115C439.24 549.711 436.193 551.586 431.974 551.586ZM434.025 545.434C435.607 545.434 436.964 545.004 438.097 544.145C439.23 543.285 440.089 542.074 440.675 540.512C441.281 538.949 441.583 537.133 441.583 535.062C441.583 533.012 441.291 531.225 440.705 529.701C440.119 528.158 439.259 526.967 438.126 526.127C436.994 525.287 435.626 524.867 434.025 524.867C432.404 524.867 431.027 525.297 429.894 526.156C428.761 527.016 427.902 528.217 427.316 529.76C426.75 531.303 426.466 533.07 426.466 535.062C426.466 537.094 426.759 538.891 427.345 540.453C427.931 542.016 428.791 543.236 429.923 544.115C431.056 544.994 432.423 545.434 434.025 545.434ZM470.529 551.645C467.365 551.645 464.611 550.98 462.267 549.652C459.943 548.305 458.156 546.4 456.906 543.939C455.675 541.479 455.06 538.598 455.06 535.297C455.06 532.035 455.685 529.164 456.935 526.684C458.185 524.184 459.943 522.24 462.208 520.854C464.494 519.467 467.13 518.773 470.119 518.773C472.814 518.773 475.255 519.35 477.443 520.502C479.65 521.654 481.398 523.441 482.687 525.863C483.996 528.266 484.65 531.254 484.65 534.828V537.172H462.443C462.462 538.949 462.814 540.492 463.498 541.801C464.181 543.09 465.128 544.076 466.339 544.76C467.55 545.443 468.966 545.785 470.587 545.785C472.169 545.785 473.517 545.482 474.63 544.877C475.744 544.271 476.544 543.48 477.033 542.504H484.357C483.908 544.34 483.058 545.951 481.808 547.338C480.558 548.705 478.966 549.77 477.033 550.531C475.119 551.273 472.951 551.645 470.529 551.645ZM477.501 532.074C477.482 530.629 477.169 529.34 476.564 528.207C475.958 527.074 475.109 526.186 474.015 525.541C472.921 524.896 471.662 524.574 470.236 524.574C468.771 524.574 467.462 524.916 466.31 525.6C465.177 526.264 464.279 527.172 463.615 528.324C462.951 529.457 462.57 530.707 462.472 532.074H477.501ZM490.451 519.184H497.716V524.457H498.068C498.615 522.66 499.601 521.254 501.027 520.238C502.453 519.223 504.083 518.715 505.919 518.715C507.013 518.715 507.912 518.773 508.615 518.891V525.805C508.283 525.688 507.775 525.58 507.091 525.482C506.408 525.385 505.763 525.336 505.158 525.336C503.791 525.336 502.56 525.629 501.466 526.215C500.373 526.801 499.513 527.621 498.888 528.676C498.263 529.73 497.951 530.922 497.951 532.25V551H490.451V519.184ZM513.009 545.492L528.009 531.02C529.63 529.398 530.88 528.07 531.759 527.035C532.658 525.98 533.341 524.945 533.81 523.93C534.279 522.895 534.513 521.801 534.513 520.648C534.513 519.359 534.201 518.227 533.576 517.25C532.951 516.273 532.082 515.521 530.968 514.994C529.875 514.467 528.634 514.203 527.248 514.203C525.802 514.203 524.533 514.496 523.439 515.082C522.365 515.648 521.535 516.469 520.949 517.543C520.363 518.598 520.08 519.828 520.099 521.234H512.833C512.814 518.598 513.419 516.283 514.65 514.291C515.88 512.279 517.589 510.727 519.777 509.633C521.984 508.539 524.494 507.992 527.306 507.992C530.158 507.992 532.677 508.52 534.865 509.574C537.072 510.629 538.781 512.094 539.992 513.969C541.222 515.824 541.837 517.934 541.837 520.297C541.837 521.938 541.515 523.52 540.871 525.043C540.246 526.566 539.171 528.256 537.648 530.111C536.125 531.947 533.966 534.184 531.173 536.82L523.615 544.32V544.613H542.482V551H513.009V545.492ZM568.498 532.895H549.396V526.742H568.498V532.895ZM590.822 551.586C588.029 551.586 585.509 551.068 583.263 550.033C581.017 548.998 579.24 547.572 577.931 545.756C576.642 543.92 575.958 541.84 575.88 539.516H583.322C583.4 540.648 583.771 541.664 584.435 542.562C585.119 543.461 586.017 544.164 587.13 544.672C588.263 545.18 589.494 545.434 590.822 545.434C592.384 545.434 593.781 545.082 595.011 544.379C596.261 543.676 597.228 542.709 597.912 541.479C598.615 540.229 598.966 538.832 598.966 537.289C598.966 535.688 598.605 534.262 597.882 533.012C597.16 531.742 596.164 530.756 594.894 530.053C593.625 529.33 592.189 528.969 590.587 528.969C587.228 528.91 584.884 530.121 583.556 532.602H576.466L579.044 508.578H604.123V514.965H585.314L584.025 526.215H584.435C585.275 525.258 586.427 524.486 587.892 523.9C589.357 523.295 590.939 522.992 592.638 522.992C595.236 522.992 597.58 523.598 599.669 524.809C601.759 526.02 603.39 527.699 604.562 529.848C605.753 531.977 606.349 534.379 606.349 537.055C606.349 539.848 605.685 542.348 604.357 544.555C603.048 546.762 601.212 548.49 598.849 549.74C596.505 550.971 593.83 551.586 590.822 551.586ZM641.623 522.113C640.939 519.828 639.728 518.051 637.99 516.781C636.271 515.492 634.142 514.848 631.603 514.848C629.298 514.848 627.257 515.434 625.48 516.605C623.703 517.758 622.316 519.457 621.32 521.703C620.324 523.949 619.826 526.625 619.826 529.73C619.826 532.895 620.324 535.609 621.32 537.875C622.316 540.121 623.712 541.83 625.509 543.002C627.306 544.154 629.396 544.73 631.779 544.73C633.888 544.73 635.734 544.33 637.316 543.529C638.898 542.709 640.128 541.557 641.007 540.072C641.886 538.568 642.345 536.82 642.384 534.828H632.541V528.793H649.767V533.891C649.767 537.465 648.996 540.59 647.453 543.266C645.929 545.922 643.81 547.973 641.095 549.418C638.38 550.863 635.275 551.586 631.779 551.586C627.892 551.586 624.464 550.707 621.496 548.949C618.527 547.172 616.222 544.643 614.582 541.361C612.96 538.08 612.15 534.223 612.15 529.789C612.15 525.355 612.98 521.498 614.64 518.217C616.32 514.916 618.625 512.387 621.554 510.629C624.503 508.871 627.833 507.992 631.544 507.992C634.63 507.992 637.453 508.588 640.011 509.779C642.57 510.971 644.669 512.641 646.31 514.789C647.951 516.918 648.986 519.359 649.416 522.113H641.623Z" fill="#737373"/>
<path d="M80 620H1360V764C1360 783.882 1343.88 800 1324 800H116C96.1177 800 80 783.882 80 764V620Z" fill="#FAFAFA"/>
<path d="M174.86 682.25C162.23 682.25 149.96 686.48 140 694.25C152.09 709.43 162.53 722.36 174.86 737.75C187.1 722.51 199.58 706.97 209.81 694.25C199.82 686.48 187.52 682.25 174.86 682.25ZM174.86 688.25C184.07 688.25 193.13 690.83 200.99 695.6L195.17 702.89C190.64 700.25 183.5 697.25 174.86 697.25C165.86 697.25 158.9 700.25 154.49 702.77L148.67 695.57C156.59 690.8 165.65 688.25 174.86 688.25Z" fill="#737373"/>
<path d="M358.263 704.926H351.994V721.449C351.994 722.855 352.287 723.822 352.873 724.35C353.478 724.877 354.318 725.141 355.392 725.141C356.33 725.141 357.423 725.102 358.673 725.023V731.117C357.697 731.312 356.291 731.41 354.455 731.41C352.521 731.41 350.802 731.098 349.298 730.473C347.814 729.828 346.642 728.852 345.783 727.543C344.943 726.234 344.533 724.613 344.552 722.68V704.926H339.982V699.184H344.552V691.566H351.994V699.184H358.263V704.926ZM377.541 731.645C374.494 731.645 371.818 730.961 369.513 729.594C367.208 728.227 365.431 726.312 364.181 723.852C362.931 721.371 362.306 718.5 362.306 715.238C362.306 711.957 362.931 709.076 364.181 706.596C365.431 704.115 367.208 702.191 369.513 700.824C371.818 699.457 374.494 698.773 377.541 698.773C380.607 698.773 383.292 699.457 385.597 700.824C387.902 702.191 389.669 704.115 390.9 706.596C392.15 709.076 392.775 711.957 392.775 715.238C392.775 718.5 392.15 721.371 390.9 723.852C389.65 726.332 387.873 728.256 385.568 729.623C383.283 730.971 380.607 731.645 377.541 731.645ZM377.599 725.668C379.24 725.668 380.626 725.209 381.759 724.291C382.912 723.373 383.771 722.123 384.337 720.541C384.923 718.959 385.216 717.172 385.216 715.18C385.216 713.207 384.923 711.43 384.337 709.848C383.771 708.246 382.912 706.986 381.759 706.068C380.626 705.15 379.24 704.691 377.599 704.691C375.919 704.691 374.494 705.15 373.322 706.068C372.169 706.986 371.3 708.236 370.714 709.818C370.148 711.4 369.865 713.188 369.865 715.18C369.865 717.172 370.148 718.959 370.714 720.541C371.3 722.123 372.169 723.373 373.322 724.291C374.494 725.209 375.919 725.668 377.599 725.668ZM398.576 699.184H405.841V704.457H406.193C406.74 702.66 407.726 701.254 409.152 700.238C410.578 699.223 412.208 698.715 414.044 698.715C415.138 698.715 416.037 698.773 416.74 698.891V705.805C416.408 705.688 415.9 705.58 415.216 705.482C414.533 705.385 413.888 705.336 413.283 705.336C411.916 705.336 410.685 705.629 409.591 706.215C408.498 706.801 407.638 707.621 407.013 708.676C406.388 709.73 406.076 710.922 406.076 712.25V731H398.576V699.184ZM431.974 731.586C429.455 731.586 427.199 730.941 425.207 729.652C423.234 728.344 421.681 726.449 420.548 723.969C419.416 721.488 418.849 718.539 418.849 715.121C418.849 711.684 419.425 708.734 420.578 706.273C421.73 703.812 423.302 701.947 425.294 700.678C427.287 699.408 429.533 698.773 432.033 698.773C436.251 698.773 439.279 700.648 441.115 704.398H441.408V688.578H448.849V731H441.525V725.961H441.115C439.24 729.711 436.193 731.586 431.974 731.586ZM434.025 725.434C435.607 725.434 436.964 725.004 438.097 724.145C439.23 723.285 440.089 722.074 440.675 720.512C441.281 718.949 441.583 717.133 441.583 715.062C441.583 713.012 441.291 711.225 440.705 709.701C440.119 708.158 439.259 706.967 438.126 706.127C436.994 705.287 435.626 704.867 434.025 704.867C432.404 704.867 431.027 705.297 429.894 706.156C428.761 707.016 427.902 708.217 427.316 709.76C426.75 711.303 426.466 713.07 426.466 715.062C426.466 717.094 426.759 718.891 427.345 720.453C427.931 722.016 428.791 723.236 429.923 724.115C431.056 724.994 432.423 725.434 434.025 725.434ZM470.529 731.645C467.365 731.645 464.611 730.98 462.267 729.652C459.943 728.305 458.156 726.4 456.906 723.939C455.675 721.479 455.06 718.598 455.06 715.297C455.06 712.035 455.685 709.164 456.935 706.684C458.185 704.184 459.943 702.24 462.208 700.854C464.494 699.467 467.13 698.773 470.119 698.773C472.814 698.773 475.255 699.35 477.443 700.502C479.65 701.654 481.398 703.441 482.687 705.863C483.996 708.266 484.65 711.254 484.65 714.828V717.172H462.443C462.462 718.949 462.814 720.492 463.498 721.801C464.181 723.09 465.128 724.076 466.339 724.76C467.55 725.443 468.966 725.785 470.587 725.785C472.169 725.785 473.517 725.482 474.63 724.877C475.744 724.271 476.544 723.48 477.033 722.504H484.357C483.908 724.34 483.058 725.951 481.808 727.338C480.558 728.705 478.966 729.77 477.033 730.531C475.119 731.273 472.951 731.645 470.529 731.645ZM477.501 712.074C477.482 710.629 477.169 709.34 476.564 708.207C475.958 707.074 475.109 706.186 474.015 705.541C472.921 704.896 471.662 704.574 470.236 704.574C468.771 704.574 467.462 704.916 466.31 705.6C465.177 706.264 464.279 707.172 463.615 708.324C462.951 709.457 462.57 710.707 462.472 712.074H477.501ZM490.451 699.184H497.716V704.457H498.068C498.615 702.66 499.601 701.254 501.027 700.238C502.453 699.223 504.083 698.715 505.919 698.715C507.013 698.715 507.912 698.773 508.615 698.891V705.805C508.283 705.688 507.775 705.58 507.091 705.482C506.408 705.385 505.763 705.336 505.158 705.336C503.791 705.336 502.56 705.629 501.466 706.215C500.373 706.801 499.513 707.621 498.888 708.676C498.263 709.73 497.951 710.922 497.951 712.25V731H490.451V699.184ZM530.236 731H522.56V696.02H522.326L512.423 702.348V695.375L522.912 688.578H530.236V731ZM559.884 712.895H540.783V706.742H559.884V712.895ZM565.685 725.492L580.685 711.02C582.306 709.398 583.556 708.07 584.435 707.035C585.333 705.98 586.017 704.945 586.486 703.93C586.955 702.895 587.189 701.801 587.189 700.648C587.189 699.359 586.876 698.227 586.251 697.25C585.626 696.273 584.757 695.521 583.644 694.994C582.55 694.467 581.31 694.203 579.923 694.203C578.478 694.203 577.208 694.496 576.115 695.082C575.041 695.648 574.21 696.469 573.625 697.543C573.039 698.598 572.755 699.828 572.775 701.234H565.509C565.49 698.598 566.095 696.283 567.326 694.291C568.556 692.279 570.265 690.727 572.453 689.633C574.66 688.539 577.169 687.992 579.982 687.992C582.833 687.992 585.353 688.52 587.541 689.574C589.748 690.629 591.457 692.094 592.667 693.969C593.898 695.824 594.513 697.934 594.513 700.297C594.513 701.938 594.191 703.52 593.546 705.043C592.921 706.566 591.847 708.256 590.324 710.111C588.8 711.947 586.642 714.184 583.849 716.82L576.291 724.32V724.613H595.158V731H565.685V725.492ZM630.666 702.113C629.982 699.828 628.771 698.051 627.033 696.781C625.314 695.492 623.185 694.848 620.646 694.848C618.341 694.848 616.3 695.434 614.523 696.605C612.746 697.758 611.359 699.457 610.363 701.703C609.367 703.949 608.869 706.625 608.869 709.73C608.869 712.895 609.367 715.609 610.363 717.875C611.359 720.121 612.755 721.83 614.552 723.002C616.349 724.154 618.439 724.73 620.822 724.73C622.931 724.73 624.777 724.33 626.359 723.529C627.941 722.709 629.171 721.557 630.05 720.072C630.929 718.568 631.388 716.82 631.427 714.828H621.583V708.793H638.81V713.891C638.81 717.465 638.039 720.59 636.496 723.266C634.972 725.922 632.853 727.973 630.138 729.418C627.423 730.863 624.318 731.586 620.822 731.586C616.935 731.586 613.507 730.707 610.539 728.949C607.57 727.172 605.265 724.643 603.625 721.361C602.003 718.08 601.193 714.223 601.193 709.789C601.193 705.355 602.023 701.498 603.683 698.217C605.363 694.916 607.667 692.387 610.597 690.629C613.546 688.871 616.876 687.992 620.587 687.992C623.673 687.992 626.496 688.588 629.054 689.779C631.613 690.971 633.712 692.641 635.353 694.789C636.994 696.918 638.029 699.359 638.458 702.113H630.666Z" fill="#737373"/>
</svg>
