<svg width="1440" height="1328" viewBox="0 0 1440 1328" fill="none" xmlns="http://www.w3.org/2000/svg">
<rect width="1440" height="1327.6" fill="white"/>
<rect width="1440" height="1327.6" fill="#246FF4" fill-opacity="0.2"/>
<g clip-path="url(#clip0_214_15438)">
<path d="M412.753 1246.83C384.762 1246.83 356.417 1245.91 328.487 1244.11L173.619 1234.06C116.05 1232.09 97.5634 1220.85 94.0048 1154.45C84.392 781.875 93.2037 467.024 120.933 191.918C127.126 116.355 140.097 80.7695 232.004 80.7695H596.244C685.687 80.7695 698.396 116.355 704.574 191.887C732.303 467.008 741.115 781.859 731.502 1154.45C727.943 1220.81 709.457 1232.06 651.903 1234.03L497.004 1244.08C469.075 1245.89 440.729 1246.8 412.753 1246.8V1246.83Z" fill="white"/>
<path d="M596.244 81.5405C685.054 81.5405 697.656 116.895 703.803 191.98C731.532 467.055 740.344 781.875 730.731 1154.4C728.913 1188.31 722.982 1207.43 710.889 1218.33C698.472 1229.52 679.108 1232.35 651.841 1233.29L496.973 1243.34C469.058 1245.16 440.728 1246.06 412.768 1246.06C384.808 1246.06 356.477 1245.14 328.563 1243.34L173.649 1233.29C146.428 1232.35 127.064 1229.53 114.647 1218.33C102.554 1207.43 96.6229 1188.31 94.8051 1154.45C85.1923 781.891 94.004 467.07 121.733 191.965C127.849 116.895 140.728 81.5405 232.004 81.5405H596.244ZM596.244 80H232.004C139.341 80 126.339 116.51 120.177 191.826C90.5687 485.572 84.3604 810.098 93.2492 1154.48C96.9002 1222.6 117.096 1232.88 173.587 1234.82L328.455 1244.86C356.524 1246.68 384.654 1247.59 412.768 1247.59C440.882 1247.59 468.997 1246.68 497.08 1244.86L651.949 1234.82C708.44 1232.88 728.636 1222.6 732.287 1154.48C741.176 810.098 734.967 485.572 705.359 191.826C699.181 116.51 686.179 80 596.244 80Z" fill="black"/>
<path d="M400.428 1236.42L174.419 1221.75H174.019C149.401 1220.89 132.163 1218.6 122.35 1209.75C112.891 1201.22 107.946 1184.01 106.313 1153.96C96.7307 781.983 105.512 467.686 133.195 193.15V192.904C136.153 157.01 140.605 131.638 153.668 116.109C167.055 100.196 191.226 93.0938 232.004 93.0938H596.244C634.603 93.0938 658.635 100.411 671.837 116.109C684.9 131.638 689.353 157.01 692.279 192.904V193.15C719.978 467.686 728.759 781.983 719.177 1153.99C717.559 1184.03 712.599 1201.23 703.14 1209.75C693.327 1218.6 676.104 1220.89 651.471 1221.74H651.071L425.03 1236.42H400.413H400.428Z" fill="white"/>
<path d="M596.243 93.8647C634.356 93.8647 658.203 101.09 671.251 116.603C684.191 131.977 688.597 157.211 691.524 192.966L691.555 193.228C719.223 467.733 728.019 781.999 718.422 1153.91C716.804 1183.75 711.936 1200.79 702.631 1209.17C692.988 1217.86 675.904 1220.12 651.456 1220.95C651.317 1220.95 651.178 1220.95 651.04 1220.97L425.03 1235.63H400.474L174.465 1220.97C174.326 1220.97 174.188 1220.97 174.049 1220.95C149.601 1220.11 132.517 1217.84 122.873 1209.17C113.568 1200.79 108.7 1183.73 107.098 1153.96C97.5161 781.983 106.297 467.733 133.965 193.228L133.996 192.966C136.923 157.211 141.328 131.977 154.269 116.603C167.502 100.874 191.472 93.8647 232.019 93.8647H596.259M596.243 92.3242H232.003C190.979 92.3242 166.639 99.503 153.083 115.601C139.88 131.284 135.413 156.779 132.455 192.828C132.455 192.905 132.455 192.982 132.44 193.059C104.757 467.641 95.9602 781.983 105.558 1153.99C107.191 1184.26 112.228 1201.64 121.841 1210.31C131.823 1219.31 149.2 1221.65 173.987 1222.49C174.111 1222.49 174.234 1222.49 174.357 1222.51L400.413 1237.18H425.061L651.117 1222.51C651.24 1222.51 651.363 1222.51 651.486 1222.49C676.273 1221.65 693.65 1219.31 703.633 1210.31C713.261 1201.64 718.283 1184.26 719.916 1153.99C729.514 781.983 720.717 467.641 693.034 193.059C693.034 192.982 693.034 192.905 693.019 192.828C690.076 156.779 685.593 131.284 672.391 115.601C658.835 99.503 634.494 92.3242 596.213 92.3242H596.243Z" fill="black"/>
<path d="M269.005 944.384C224.346 937.529 187.219 927.377 161.6 914.991C133.039 901.204 118.404 884.89 118.111 866.496C115.092 678.075 124.998 469.951 147.566 247.901C148.49 228.552 166.022 213.439 187.481 213.439H638.052C659.511 213.439 677.042 228.552 677.966 247.87C700.535 469.966 710.441 678.09 707.421 866.511C707.129 884.905 692.509 901.219 663.932 915.007C638.298 927.377 601.172 937.529 556.527 944.4C556.45 943.845 556.358 943.306 556.235 942.798L537.795 863.8C534.945 851.568 519.725 842.679 501.608 842.679H323.94C305.824 842.679 290.603 851.553 287.753 863.8L269.313 942.798C269.19 943.306 269.098 943.845 269.021 944.4L269.005 944.384Z" fill="white"/>
<path d="M638.052 214.195C659.095 214.195 676.287 228.999 677.196 247.886V247.932V247.978C699.765 470.013 709.671 678.106 706.651 866.481C706.374 884.567 691.893 900.65 663.609 914.299C638.191 926.561 601.418 936.652 557.175 943.507C557.113 943.199 557.067 942.906 556.99 942.598L538.55 863.6C535.607 851.014 520.079 841.894 501.608 841.894H323.925C305.454 841.894 289.926 851.029 286.983 863.6L268.543 942.598C268.482 942.891 268.42 943.199 268.358 943.507C224.115 936.667 187.343 926.577 161.924 914.299C133.64 900.65 119.159 884.551 118.882 866.481C115.863 678.106 125.768 469.998 148.337 247.978V247.932V247.886C149.23 228.999 166.422 214.195 187.481 214.195H638.052ZM638.052 212.654H187.466C165.59 212.654 147.72 228.106 146.781 247.809C125.013 461.987 114.153 669.079 117.326 866.496C117.942 905.841 183.045 932.061 269.668 945.263C269.745 944.493 269.853 943.722 270.038 942.952L288.478 863.954C291.235 852.123 306.24 843.435 323.909 843.435H501.593C519.262 843.435 534.267 852.123 537.025 863.954L555.465 942.952C555.65 943.722 555.757 944.493 555.834 945.263C642.458 932.061 707.56 905.857 708.176 866.496C711.35 669.079 700.489 461.987 678.722 247.809C677.782 228.106 659.927 212.654 638.036 212.654H638.052Z" fill="black"/>
<path d="M119.977 417.481L159.676 360.174H665.844L705.543 417.481H119.977Z" fill="white"/>
<path d="M665.428 360.945L704.064 416.712H121.44L160.077 360.945H665.428ZM666.245 359.404H159.276L118.498 418.252H707.007L666.229 359.404H666.245Z" fill="black"/>
<path d="M133.271 410.518L163.327 367.137H662.193L692.233 410.518H133.271Z" fill="white"/>
<path d="M661.778 367.908L690.755 409.733H134.751L163.728 367.908H661.778ZM662.594 366.367H162.927L131.809 411.273H693.713L662.594 366.367Z" fill="black"/>
<path d="M88.3809 632.891L132.47 569.252H693.049L737.139 632.891H88.3809Z" fill="white"/>
<path d="M692.65 570.023L735.676 632.106H89.845L132.856 570.023H692.634M693.451 568.482H132.071L86.918 633.646H738.619L693.466 568.482H693.451Z" fill="black"/>
<path d="M103.123 625.174L136.506 576.971H689.013L722.396 625.174H103.123Z" fill="white"/>
<path d="M688.597 577.742L720.917 624.389H104.587L136.907 577.742H688.597ZM689.414 576.201H136.106L101.645 625.929H723.875L689.414 576.201Z" fill="black"/>
<path d="M74.2227 818.956L120.284 752.498H705.234L751.28 818.956H74.2227Z" fill="white"/>
<path d="M704.834 753.253L749.817 818.171H75.7022L120.685 753.253H704.834ZM705.635 751.713H119.869L72.7598 819.727H752.76L705.651 751.728L705.635 751.713Z" fill="black"/>
<path d="M89.6133 810.899L124.491 760.539H701.014L735.907 810.899H89.6133Z" fill="white"/>
<path d="M700.614 761.31L734.428 810.129H91.0772L124.892 761.31H700.614ZM701.43 759.77H124.09L88.1348 811.67H737.371L701.415 759.77H701.43Z" fill="black"/>
<path d="M415.664 1158.73C309.815 1158.73 202.056 1143.85 200.901 1115.43L183.616 991.956C182.168 981.588 184.818 971.652 190.887 964.673C196.11 958.665 203.427 955.353 211.53 955.322C268.838 972.545 341.319 982.019 415.68 982.019C490.041 982.019 562.522 972.545 619.829 955.322C627.917 955.353 635.25 958.665 640.472 964.673C646.542 971.652 649.191 981.588 647.743 991.956L630.474 1115.35C629.303 1143.85 521.544 1158.73 415.695 1158.73H415.664Z" fill="white"/>
<path d="M211.406 956.107C268.76 973.33 341.287 982.804 415.664 982.804C490.04 982.804 562.567 973.315 619.921 956.107C627.747 956.169 634.818 959.388 639.871 965.196C645.786 972.005 648.374 981.726 646.957 991.862L629.688 1115.26V1115.33V1115.41C629.164 1128.04 605.455 1139.26 562.922 1146.99C523.993 1154.08 471.708 1157.98 415.694 1157.98C359.681 1157.98 307.396 1154.08 268.467 1146.99C225.933 1139.24 202.209 1128.03 201.701 1115.41V1115.33V1115.26L184.432 991.862C183.015 981.726 185.587 972.005 191.518 965.196C196.571 959.388 203.642 956.169 211.468 956.107M619.705 954.566C560.518 972.375 488.114 981.264 415.679 981.264C343.244 981.264 270.824 972.359 211.637 954.566C192.843 954.566 179.995 971.574 182.861 992.078L200.13 1115.47C201.331 1144.84 308.505 1159.52 415.664 1159.52C522.822 1159.52 629.996 1144.84 631.197 1115.47L648.467 992.078C651.332 971.574 638.484 954.566 619.69 954.566H619.705Z" fill="black"/>
<path d="M412.723 960.821C379.432 960.821 345.649 957.062 312.327 949.652H312.25L312.173 949.637C307.952 949.637 304.024 947.757 301.389 944.461C298.755 941.164 297.769 936.928 298.678 932.814L312.25 871.871C313.282 867.08 320.892 861.904 331.353 861.904H494.17C504.63 861.904 512.225 867.08 513.272 871.871L526.675 932.861C527.584 936.974 526.582 941.21 523.948 944.491C521.314 947.773 517.385 949.652 513.18 949.652H513.01C479.766 957.078 446.029 960.836 412.753 960.836L412.723 960.821Z" fill="white"/>
<path d="M494.169 862.66C504.814 862.66 511.669 868.098 512.517 872.011L525.919 933C526.766 936.882 525.827 940.887 523.346 943.984C520.851 947.08 517.154 948.852 513.179 948.852H513.01L512.84 948.882C479.642 956.277 445.966 960.036 412.737 960.036C379.508 960.036 345.786 956.292 312.511 948.882L312.342 948.852H312.172C308.198 948.852 304.485 947.065 301.989 943.968C299.494 940.856 298.57 936.851 299.432 932.969L313.02 872.011C313.867 868.082 320.722 862.66 331.367 862.66H494.184M494.169 861.119H331.352C320.506 861.119 312.604 866.603 311.494 871.687L297.923 932.63C295.889 941.75 302.821 950.392 312.172 950.392C345.694 957.848 379.231 961.576 412.737 961.576C446.244 961.576 479.704 957.848 513.179 950.392C522.499 950.392 529.432 941.781 527.429 932.676L514.026 871.687C512.933 866.603 505.03 861.119 494.169 861.119Z" fill="black"/>
<path d="M412.752 173.309C397.054 173.309 382.665 166.469 379.292 157.395L355.383 93.0938H470.136L446.227 157.395C442.853 166.469 428.465 173.309 412.767 173.309H412.752Z" fill="white"/>
<path d="M469.027 93.8647L445.503 157.134C442.237 165.915 428.157 172.554 412.767 172.554C397.377 172.554 383.297 165.93 380.031 157.134L356.507 93.8647H469.042M471.245 92.3242H354.273L378.567 157.673C382.234 167.532 397.238 174.095 412.751 174.095C428.265 174.095 443.269 167.532 446.936 157.673L471.23 92.3242H471.245Z" fill="black"/>
<path d="M412.751 159.629C400.72 159.629 390.922 149.847 390.922 137.8C390.922 125.753 400.72 115.971 412.751 115.971C424.782 115.971 434.58 125.753 434.58 137.8C434.58 149.847 424.798 159.629 412.751 159.629Z" fill="white"/>
<path d="M412.752 116.742C424.367 116.742 433.811 126.185 433.811 137.801C433.811 149.416 424.367 158.859 412.752 158.859C401.136 158.859 391.693 149.416 391.693 137.801C391.693 126.185 401.136 116.742 412.752 116.742ZM412.752 115.201C400.274 115.201 390.152 125.322 390.152 137.801C390.152 150.279 400.274 160.4 412.752 160.4C425.23 160.4 435.351 150.279 435.351 137.801C435.351 125.322 425.23 115.201 412.752 115.201Z" fill="black"/>
<path d="M488.73 908.89H336.542C333.43 908.89 330.688 906.826 329.841 903.822L324.449 884.904C323.186 880.452 326.528 876.016 331.15 876.016H494.121C498.758 876.016 502.101 880.452 500.823 884.904L495.431 903.822C494.584 906.826 491.841 908.89 488.73 908.89Z" fill="white" stroke="black" stroke-width="1.6" stroke-miterlimit="10"/>
<path d="M336.62 899.54L332.939 886.615C332.523 885.167 333.616 883.734 335.126 883.734H490.164C491.674 883.734 492.752 885.167 492.351 886.615L488.67 899.54C488.392 900.511 487.499 901.188 486.482 901.188H338.808C337.791 901.188 336.898 900.511 336.62 899.54Z" fill="white" stroke="black" stroke-width="1.6" stroke-miterlimit="10"/>
<path d="M546.899 1078.98H284.441C280.204 1078.98 276.77 1082.41 276.77 1086.65V1121.34C276.77 1125.58 280.204 1129.01 284.441 1129.01H546.899C551.136 1129.01 554.571 1125.58 554.571 1121.34V1086.65C554.571 1082.41 551.136 1078.98 546.899 1078.98Z" fill="white"/>
<path d="M546.9 1079.75C550.705 1079.75 553.802 1082.85 553.802 1086.65V1121.34C553.802 1125.15 550.705 1128.25 546.9 1128.25H284.442C280.637 1128.25 277.541 1125.15 277.541 1121.34V1086.65C277.541 1082.85 280.637 1079.75 284.442 1079.75H546.9ZM546.9 1078.21H284.442C279.774 1078.21 276 1081.98 276 1086.65V1121.34C276 1126.01 279.774 1129.79 284.442 1129.79H546.9C551.568 1129.79 555.342 1126.01 555.342 1121.34V1086.65C555.342 1081.98 551.568 1078.21 546.9 1078.21Z" fill="black"/>
<path d="M542.248 1086.68H345.663C343.11 1086.68 341.041 1088.75 341.041 1091.3V1116.69C341.041 1119.24 343.11 1121.31 345.663 1121.31H542.248C544.8 1121.31 546.87 1119.24 546.87 1116.69V1091.3C546.87 1088.75 544.8 1086.68 542.248 1086.68Z" fill="white"/>
<path d="M542.249 1087.45C544.375 1087.45 546.1 1089.18 546.1 1091.3V1116.69C546.1 1118.82 544.375 1120.54 542.249 1120.54H345.663C343.537 1120.54 341.812 1118.82 341.812 1116.69V1091.3C341.812 1089.18 343.537 1087.45 345.663 1087.45H542.249ZM542.249 1085.91H345.663C342.69 1085.91 340.271 1088.33 340.271 1091.3V1116.69C340.271 1119.66 342.69 1122.08 345.663 1122.08H542.249C545.222 1122.08 547.641 1119.66 547.641 1116.69V1091.3C547.641 1088.33 545.222 1085.91 542.249 1085.91Z" fill="black"/>
<path d="M366.983 1110.42C363.439 1110.42 360.559 1107.54 360.559 1104C360.559 1100.45 363.439 1097.57 366.983 1097.57C370.526 1097.57 373.407 1100.45 373.407 1104C373.407 1107.54 370.526 1110.42 366.983 1110.42Z" fill="white"/>
<path d="M366.983 1098.34C370.095 1098.34 372.637 1100.87 372.637 1104C372.637 1107.12 370.111 1109.65 366.983 1109.65C363.856 1109.65 361.33 1107.12 361.33 1104C361.33 1100.87 363.856 1098.34 366.983 1098.34ZM366.983 1096.8C363.009 1096.8 359.789 1100.02 359.789 1104C359.789 1107.97 363.009 1111.19 366.983 1111.19C370.958 1111.19 374.177 1107.97 374.177 1104C374.177 1100.02 370.958 1096.8 366.983 1096.8Z" fill="black"/>
<path d="M391.276 1110.42C387.732 1110.42 384.852 1107.54 384.852 1104C384.852 1100.45 387.732 1097.57 391.276 1097.57C394.819 1097.57 397.699 1100.45 397.699 1104C397.699 1107.54 394.819 1110.42 391.276 1110.42Z" fill="white"/>
<path d="M391.276 1098.34C394.388 1098.34 396.93 1100.87 396.93 1104C396.93 1107.12 394.403 1109.65 391.276 1109.65C388.149 1109.65 385.623 1107.12 385.623 1104C385.623 1100.87 388.149 1098.34 391.276 1098.34ZM391.276 1096.8C387.302 1096.8 384.082 1100.02 384.082 1104C384.082 1107.97 387.302 1111.19 391.276 1111.19C395.251 1111.19 398.47 1107.97 398.47 1104C398.47 1100.02 395.251 1096.8 391.276 1096.8Z" fill="black"/>
</g>
<g clip-path="url(#clip1_214_15438)">
<path d="M1366.65 876.68L1366.16 1140.81L761.346 1225.81L761.838 961.673L1366.65 876.68Z" fill="white"/>
<mask id="mask0_214_15438" style="mask-type:luminance" maskUnits="userSpaceOnUse" x="761" y="876" width="606" height="350">
<path d="M1366.65 876.68L1366.16 1140.81L761.346 1225.81L761.838 961.673L1366.65 876.68Z" fill="white"/>
</mask>
<g mask="url(#mask0_214_15438)">
<path d="M1366.65 876.68L1366.16 1140.81L761.346 1225.81L761.838 961.673L1366.65 876.68Z" fill="white" stroke="black" stroke-width="1.17167" stroke-miterlimit="10"/>
</g>
<path d="M1366.65 876.68L1366.16 1140.81L761.346 1225.81L761.838 961.673L1366.65 876.68Z" stroke="black" stroke-width="1.17167" stroke-miterlimit="10"/>
<path d="M977.178 974.139L976.897 1127.24L880.691 1140.76V987.695L977.178 974.139Z" fill="white" stroke="black" stroke-width="1.17167" stroke-miterlimit="10"/>
<path d="M892.408 997.889L965.438 987.625L965.204 1117.05L892.408 1127.28V997.889Z" fill="white" stroke="black" stroke-width="1.17167" stroke-miterlimit="10"/>
<path d="M1366.16 1140.81L1339.46 1126.28" stroke="black" stroke-width="1.17167" stroke-miterlimit="10"/>
<path d="M1098.29 1086.64L1098.25 1110.18L1002.04 1123.7V970.648L1098.53 957.092L1098.36 1047.74" fill="white"/>
<path d="M1098.29 1086.64L1098.25 1110.18L1002.04 1123.7V970.648L1098.53 957.092L1098.36 1047.74" stroke="black" stroke-width="1.17167" stroke-miterlimit="10"/>
<path d="M1086.54 1100L1013.75 1110.23V980.83L1086.78 970.566C1089.64 1009.72 1096.06 1045.34 1106.74 1076.71L1086.54 1100Z" fill="white" stroke="black" stroke-width="1.17167" stroke-miterlimit="10"/>
<path d="M1014.25 980.619C1017.11 1019.78 1023.53 1055.4 1034.22 1086.76L1014.25 980.619Z" fill="white"/>
<path d="M1014.25 980.619C1017.11 1019.78 1023.53 1055.4 1034.22 1086.76" stroke="black" stroke-width="1.17167" stroke-miterlimit="10"/>
<path d="M1150.84 1112.37V959.318" stroke="black" stroke-width="1.17167" stroke-miterlimit="10"/>
<path d="M1291 1044.69C1296.21 1043.96 1300.45 1038.78 1300.45 1033.16C1300.45 1027.53 1296.24 1023.55 1291.03 1024.29C1285.83 1025.03 1281.58 1030.19 1281.57 1035.82C1281.55 1041.44 1285.78 1045.42 1291 1044.69Z" fill="white" stroke="black" stroke-width="1.17167" stroke-miterlimit="10"/>
<path d="M1269.12 1083.96C1274.34 1083.23 1278.58 1078.07 1278.59 1072.44C1278.6 1066.82 1274.37 1062.83 1269.16 1063.57C1263.94 1064.31 1259.7 1069.48 1259.69 1075.1C1259.68 1080.73 1263.91 1084.7 1269.12 1083.96Z" fill="white" stroke="black" stroke-width="1.17167" stroke-miterlimit="10"/>
<path d="M1304.5 994.701L1304.61 937.699L1150.84 959.317L1136.84 951.689" fill="white"/>
<path d="M1304.5 994.701L1304.61 937.699L1150.84 959.317L1136.84 951.689" stroke="black" stroke-width="1.17167" stroke-miterlimit="10"/>
<path d="M1304.61 937.7L1290.6 930.084L1136.84 951.69V1104.76L1150.84 1112.37L1223.5 1102.17" stroke="black" stroke-width="1.17167" stroke-miterlimit="10"/>
<path d="M1224.66 1102.71L1191.16 1082.93C1180.82 1072.56 1174.96 1058.16 1174.55 1042.2C1174.55 1041.82 1177.27 1041.12 1177.27 1032.88C1177.27 1022.76 1175.89 1026.38 1176.36 1024.35C1182.95 995.569 1206.51 971.585 1234.45 967.66C1237.1 967.285 1239.76 967.098 1242.37 967.098C1256.34 967.098 1268.53 974.022 1268.53 974.022L1299.21 990.801" stroke="black" stroke-width="1.17167" stroke-miterlimit="10"/>
<mask id="mask1_214_15438" style="mask-type:luminance" maskUnits="userSpaceOnUse" x="761" y="880" width="579" height="328">
<path d="M1339.95 880.43L1339.46 1126.28L761.346 1207.52" fill="white"/>
</mask>
<g mask="url(#mask1_214_15438)">
<path d="M1339.95 880.43L1339.46 1126.28L761.346 1207.52" stroke="black" stroke-width="1.17167" stroke-miterlimit="10"/>
</g>
<path d="M1339.95 880.43L1339.46 1126.28L761.346 1207.52" stroke="black" stroke-width="1.17167" stroke-miterlimit="10"/>
<path d="M1013.76 1110.23L1034.22 1086.94" stroke="black" stroke-width="1.17167" stroke-miterlimit="10"/>
<path d="M1106.75 1076.71L1034.22 1086.94" stroke="black" stroke-width="1.17167" stroke-miterlimit="10"/>
<path d="M1203.63 1057.92L1174.54 1042.1" stroke="black" stroke-width="1.17167" stroke-miterlimit="10"/>
<path d="M1205.14 1040.02L1176.05 1024.19" stroke="black" stroke-width="1.17167" stroke-miterlimit="10"/>
<path d="M1263.84 1107.32C1294.05 1103.08 1318.67 1073.1 1318.73 1040.5C1318.79 1007.91 1294.26 984.824 1264.06 989.077C1233.86 993.319 1209.24 1023.3 1209.18 1055.91C1209.12 1088.52 1233.65 1111.58 1263.85 1107.33" stroke="black" stroke-width="1.17167" stroke-miterlimit="10"/>
<path d="M1247.38 1050.81C1252.59 1050.09 1256.83 1044.91 1256.84 1039.28C1256.86 1033.66 1252.63 1029.68 1247.41 1030.41C1242.2 1031.15 1237.96 1036.32 1237.96 1041.94C1237.96 1047.57 1242.18 1051.55 1247.38 1050.81Z" fill="white" stroke="black" stroke-width="1.17167" stroke-miterlimit="10"/>
<path d="M1256.73 1113.68C1242.76 1113.68 1229.7 1108.31 1219.95 1098.53C1209.19 1087.76 1203.28 1072.61 1203.31 1055.89C1203.38 1020.48 1230.26 987.905 1263.24 983.266C1265.89 982.891 1268.55 982.703 1271.16 982.703C1285.13 982.703 1298.19 988.081 1307.94 997.853C1318.71 1008.63 1324.61 1023.78 1324.59 1040.51C1324.52 1075.91 1297.64 1108.48 1264.66 1113.12C1262.01 1113.5 1259.35 1113.68 1256.74 1113.68H1256.73Z" stroke="black" stroke-width="1.17167" stroke-miterlimit="10"/>
</g>
<path d="M526.093 1104C526.093 1109.89 530.869 1114.67 536.76 1114.67C542.651 1114.67 547.426 1109.89 547.426 1104C547.426 1098.11 542.651 1093.33 536.76 1093.33C530.869 1093.33 526.093 1098.11 526.093 1104ZM804.76 1104L784.76 1092.45V1115.55L804.76 1104ZM536.76 1104V1106H786.76V1104V1102H536.76V1104Z" fill="black"/>
<rect x="449" y="106.852" width="60" height="60" rx="30" fill="#333333"/>
<path d="M482.887 150.852H479.332V126.242H479.176L472.301 130.812V127.258L479.332 122.57H482.887V150.852Z" fill="white"/>
<rect x="597" y="333.852" width="60" height="60" rx="30" fill="#333333"/>
<path d="M617.879 375.273L627.527 365.117C628.803 363.776 629.773 362.695 630.438 361.875C631.115 361.042 631.622 360.241 631.961 359.473C632.312 358.691 632.488 357.878 632.488 357.031C632.488 356.094 632.241 355.26 631.746 354.531C631.251 353.802 630.574 353.236 629.715 352.832C628.868 352.428 627.918 352.227 626.863 352.227C625.757 352.227 624.786 352.448 623.953 352.891C623.12 353.333 622.475 353.958 622.02 354.766C621.577 355.573 621.355 356.497 621.355 357.539H618.035C618.022 355.898 618.4 354.447 619.168 353.184C619.949 351.921 621.023 350.938 622.391 350.234C623.758 349.531 625.288 349.18 626.98 349.18C628.66 349.18 630.164 349.525 631.492 350.215C632.833 350.905 633.882 351.849 634.637 353.047C635.392 354.245 635.77 355.573 635.77 357.031C635.77 358.112 635.574 359.147 635.184 360.137C634.793 361.113 634.135 362.201 633.211 363.398C632.299 364.583 630.991 366.055 629.285 367.812L622.801 374.492V374.727H636.277V377.852H617.918L617.879 375.273Z" fill="white"/>
<rect x="597" y="547.852" width="60" height="60" rx="30" fill="#333333"/>
<path d="M617.879 589.273L627.527 579.117C628.803 577.776 629.773 576.695 630.438 575.875C631.115 575.042 631.622 574.241 631.961 573.473C632.312 572.691 632.488 571.878 632.488 571.031C632.488 570.094 632.241 569.26 631.746 568.531C631.251 567.802 630.574 567.236 629.715 566.832C628.868 566.428 627.918 566.227 626.863 566.227C625.757 566.227 624.786 566.448 623.953 566.891C623.12 567.333 622.475 567.958 622.02 568.766C621.577 569.573 621.355 570.497 621.355 571.539H618.035C618.022 569.898 618.4 568.447 619.168 567.184C619.949 565.921 621.023 564.938 622.391 564.234C623.758 563.531 625.288 563.18 626.98 563.18C628.66 563.18 630.164 563.525 631.492 564.215C632.833 564.905 633.882 565.849 634.637 567.047C635.392 568.245 635.77 569.573 635.77 571.031C635.77 572.112 635.574 573.147 635.184 574.137C634.793 575.113 634.135 576.201 633.211 577.398C632.299 578.583 630.991 580.055 629.285 581.812L622.801 588.492V588.727H636.277V591.852H617.918L617.879 589.273Z" fill="white"/>
<rect x="597" y="733.852" width="60" height="60" rx="30" fill="#333333"/>
<path d="M617.879 775.273L627.527 765.117C628.803 763.776 629.773 762.695 630.438 761.875C631.115 761.042 631.622 760.241 631.961 759.473C632.312 758.691 632.488 757.878 632.488 757.031C632.488 756.094 632.241 755.26 631.746 754.531C631.251 753.802 630.574 753.236 629.715 752.832C628.868 752.428 627.918 752.227 626.863 752.227C625.757 752.227 624.786 752.448 623.953 752.891C623.12 753.333 622.475 753.958 622.02 754.766C621.577 755.573 621.355 756.497 621.355 757.539H618.035C618.022 755.898 618.4 754.447 619.168 753.184C619.949 751.921 621.023 750.938 622.391 750.234C623.758 749.531 625.288 749.18 626.98 749.18C628.66 749.18 630.164 749.525 631.492 750.215C632.833 750.905 633.882 751.849 634.637 753.047C635.392 754.245 635.77 755.573 635.77 757.031C635.77 758.112 635.574 759.147 635.184 760.137C634.793 761.113 634.135 762.201 633.211 763.398C632.299 764.583 630.991 766.055 629.285 767.812L622.801 774.492V774.727H636.277V777.852H617.918L617.879 775.273Z" fill="white"/>
<rect x="1021" y="933.852" width="60" height="60" rx="30" fill="#333333"/>
<path d="M1051.08 978.242C1049.22 978.242 1047.55 977.93 1046.08 977.305C1044.62 976.68 1043.46 975.801 1042.6 974.668C1041.76 973.535 1041.3 972.227 1041.23 970.742H1044.79C1044.85 971.615 1045.17 972.383 1045.73 973.047C1046.3 973.711 1047.05 974.225 1047.97 974.59C1048.9 974.941 1049.92 975.117 1051.04 975.117C1052.26 975.117 1053.36 974.909 1054.34 974.492C1055.33 974.062 1056.1 973.477 1056.64 972.734C1057.2 971.979 1057.48 971.12 1057.48 970.156C1057.48 969.115 1057.21 968.197 1056.66 967.402C1056.13 966.608 1055.35 965.99 1054.32 965.547C1053.29 965.104 1052.05 964.883 1050.61 964.883H1048.3V961.797H1050.61C1051.74 961.797 1052.75 961.595 1053.64 961.191C1054.52 960.788 1055.21 960.221 1055.69 959.492C1056.18 958.763 1056.43 957.917 1056.43 956.953C1056.43 956.029 1056.21 955.208 1055.77 954.492C1055.34 953.776 1054.72 953.223 1053.93 952.832C1053.14 952.428 1052.21 952.227 1051.16 952.227C1050.14 952.227 1049.19 952.409 1048.3 952.773C1047.42 953.138 1046.7 953.659 1046.14 954.336C1045.58 955 1045.27 955.781 1045.22 956.68H1041.82C1041.89 955.221 1042.34 953.926 1043.19 952.793C1044.03 951.647 1045.16 950.762 1046.57 950.137C1047.97 949.499 1049.52 949.18 1051.2 949.18C1052.94 949.18 1054.46 949.525 1055.77 950.215C1057.08 950.892 1058.09 951.81 1058.79 952.969C1059.5 954.128 1059.84 955.391 1059.83 956.758C1059.84 958.346 1059.42 959.707 1058.56 960.84C1057.7 961.973 1056.52 962.747 1055.02 963.164V963.359C1056.23 963.555 1057.28 963.965 1058.17 964.59C1059.07 965.202 1059.75 965.99 1060.22 966.953C1060.7 967.904 1060.93 968.971 1060.92 970.156C1060.93 971.68 1060.51 973.06 1059.65 974.297C1058.79 975.521 1057.61 976.484 1056.1 977.188C1054.6 977.891 1052.93 978.242 1051.08 978.242Z" fill="white"/>
<rect x="1192" y="903.852" width="60" height="60" rx="30" fill="#333333"/>
<path d="M1211.47 939.18L1224.21 919.57H1228.54V938.984H1232.49V942.07H1228.54V947.852H1225.18V942.07H1211.47V939.18ZM1225.18 938.984V924.023H1224.83L1215.26 938.75V938.984H1225.18Z" fill="white"/>
<defs>
<clipPath id="clip0_214_15438">
<rect width="680" height="1167.6" fill="white" transform="translate(72.7598 80)"/>
</clipPath>
<clipPath id="clip1_214_15438">
<rect width="606.48" height="350.482" fill="white" transform="translate(760.76 876)"/>
</clipPath>
</defs>
</svg>
