<svg width="1440" height="408" viewBox="0 0 1440 408" fill="none" xmlns="http://www.w3.org/2000/svg">
<rect width="1440" height="407" transform="translate(0 0.604492)" fill="white"/>
<rect width="1440" height="407" transform="translate(0 0.604492)" fill="#246FF4" fill-opacity="0.2"/>
<rect x="514" y="80.6045" width="412" height="247" rx="21.6471" fill="#2D2C3A"/>
<g clip-path="url(#clip0_214_15437)">
<path d="M810.1 195.354C812.709 195.354 814.824 193.239 814.824 190.63C814.824 188.02 812.709 185.905 810.1 185.905C807.491 185.905 805.375 188.02 805.375 190.63C805.375 193.239 807.491 195.354 810.1 195.354Z" fill="#00CFFF"/>
<path d="M667.17 180.204C665.46 179.47 663.47 180.252 662.726 181.972C660.9 186.214 659.47 190.648 658.475 195.17C658.079 196.996 659.229 198.793 661.055 199.198C661.296 199.256 661.538 199.276 661.779 199.276C663.335 199.276 664.736 198.194 665.083 196.619C665.982 192.522 667.277 188.503 668.938 184.658C669.682 182.948 668.89 180.958 667.17 180.214V180.204Z" fill="white"/>
<path d="M670.329 175.837C670.928 176.272 671.614 176.475 672.3 176.475C673.353 176.475 674.387 175.991 675.044 175.074C682.512 164.726 692.705 156.794 704.531 152.137C706.27 151.451 707.12 149.49 706.434 147.751C705.748 146.012 703.787 145.162 702.048 145.848C689.014 150.978 677.778 159.722 669.547 171.122C668.455 172.639 668.793 174.745 670.31 175.847L670.329 175.837Z" fill="white"/>
<path d="M794.14 201.595H792.855C792.778 200.02 792.662 198.455 792.488 196.909H785.676C785.87 198.455 786.024 200.02 786.102 201.595H653.905C655.673 166.669 684.637 138.796 719.998 138.796C749.292 138.796 774.179 157.925 782.865 184.349H789.947C781.512 155.8 756.055 134.497 725.38 132.245C725.554 131.695 725.65 131.115 725.65 130.516C725.65 127.395 723.119 124.854 719.989 124.854C716.858 124.854 714.327 127.386 714.327 130.516C714.327 131.125 714.424 131.714 714.607 132.265C678.019 134.941 648.832 164.737 647.142 201.595H645.857C643.992 201.595 642.475 203.112 642.475 204.977C642.475 206.841 643.992 208.358 645.857 208.358H794.14C796.004 208.358 797.521 206.841 797.521 204.977C797.521 203.112 796.004 201.595 794.14 201.595Z" fill="white"/>
<path d="M799.058 194.01H772.653C770.789 194.01 769.272 192.493 769.272 190.629C769.272 188.764 770.789 187.247 772.653 187.247H799.058C800.923 187.247 802.44 188.764 802.44 190.629C802.44 192.493 800.923 194.01 799.058 194.01Z" fill="#00CFFF"/>
</g>
<path d="M686.812 247.792C686.812 251.084 687.458 254.334 688.75 257.542C690.042 260.75 691.792 263.604 694 266.104C696.208 268.584 698.646 270.438 701.312 271.667L698.375 275.667C695.229 274.042 692.417 271.657 689.938 268.511C687.458 265.365 685.604 261.813 684.375 257.854C683.125 262.042 681.26 265.802 678.781 269.136C676.323 272.469 673.521 274.979 670.375 276.667L667.188 272.729C669.875 271.417 672.333 269.448 674.562 266.823C676.792 264.177 678.552 261.188 679.844 257.854C681.156 254.5 681.812 251.146 681.812 247.792V237.667H686.812V247.792ZM713.312 288.542H708.438V255.854H695.25V251.854H708.438V232.854H713.312V288.542ZM729.095 244.979H745.47V236.354H750.345V262.104H724.22V236.354H729.095V244.979ZM745.47 258.042V248.854H729.095V258.042H745.47ZM767.158 266.604H762.283V232.917H767.158V266.604ZM748.595 267.604C752.47 267.625 755.803 268.052 758.595 268.886C761.408 269.698 763.564 270.886 765.064 272.448C766.564 273.99 767.324 275.854 767.345 278.042C767.324 280.188 766.564 282.032 765.064 283.573C763.564 285.115 761.408 286.282 758.595 287.073C755.783 287.886 752.449 288.292 748.595 288.292C744.72 288.292 741.376 287.886 738.564 287.073C735.751 286.282 733.595 285.115 732.095 283.573C730.595 282.032 729.845 280.188 729.845 278.042C729.845 275.854 730.595 273.99 732.095 272.448C733.595 270.886 735.741 269.698 738.533 268.886C741.345 268.052 744.699 267.625 748.595 267.604ZM748.595 271.479C745.72 271.479 743.241 271.74 741.158 272.261C739.095 272.782 737.512 273.532 736.408 274.511C735.324 275.49 734.783 276.667 734.783 278.042C734.783 279.354 735.324 280.49 736.408 281.448C737.512 282.407 739.095 283.136 741.158 283.636C743.241 284.157 745.72 284.417 748.595 284.417C751.449 284.417 753.918 284.157 756.001 283.636C758.085 283.136 759.678 282.407 760.783 281.448C761.908 280.49 762.47 279.354 762.47 278.042C762.47 276.688 761.908 275.521 760.783 274.542C759.678 273.542 758.085 272.782 756.001 272.261C753.918 271.74 751.449 271.479 748.595 271.479Z" fill="white"/>
<defs>
<clipPath id="clip0_214_15437">
<rect width="172.35" height="83.5035" fill="white" transform="translate(642.475 124.854)"/>
</clipPath>
</defs>
</svg>
