<svg width="1440" height="321" viewBox="0 0 1440 321" fill="none" xmlns="http://www.w3.org/2000/svg">
<rect width="1440" height="320" transform="translate(0 0.604492)" fill="white"/>
<rect width="1440" height="320" transform="translate(0 0.604492)" fill="#246FF4" fill-opacity="0.2"/>
<rect x="100" y="80.6045" width="600" height="160" rx="16" fill="#2D2C3A"/>
<g clip-path="url(#clip0_214_15436)">
<path d="M220.335 201.788H181.287C180.025 201.788 178.863 201.083 178.276 199.97L160.372 165.681C159.189 163.425 160.829 160.713 163.382 160.713H238.24C240.794 160.713 242.423 163.415 241.251 165.681L223.346 199.96C222.76 201.083 221.597 201.778 220.335 201.778V201.788Z" stroke="white" stroke-width="4.96799" stroke-miterlimit="10"/>
<path d="M183.592 127.549C183.592 127.817 179.617 131.752 179.617 137.276C179.617 140.177 183.592 143.516 183.592 147.003C183.592 150.213 179.617 153.531 179.617 156.731C179.617 160.208 183.592 163.557 183.592 166.458C183.592 172.171 179.617 171.317 179.617 176.185" stroke="white" stroke-width="4.96799" stroke-miterlimit="10" stroke-linecap="round"/>
<path d="M196.398 127.549C196.398 127.817 192.424 131.752 192.424 137.276C192.424 140.177 196.398 143.516 196.398 147.003C196.398 150.213 192.424 153.531 192.424 156.731C192.424 160.208 196.398 163.557 196.398 166.458C196.398 172.171 192.424 171.317 192.424 176.185" stroke="white" stroke-width="4.96799" stroke-miterlimit="10" stroke-linecap="round"/>
<path d="M209.207 127.549C209.207 127.817 205.232 131.752 205.232 137.276C205.232 140.177 209.207 143.516 209.207 147.003C209.207 150.213 205.232 153.531 205.232 156.731C205.232 160.208 209.207 163.557 209.207 166.458C209.207 172.171 205.232 171.317 205.232 176.185" stroke="white" stroke-width="4.96799" stroke-miterlimit="10" stroke-linecap="round"/>
<path d="M222.004 127.549C222.004 127.817 218.029 131.752 218.029 137.276C218.029 140.177 222.004 143.516 222.004 147.003C222.004 150.213 218.029 153.531 218.029 156.731C218.029 160.208 222.004 163.557 222.004 166.458C222.004 172.171 218.029 171.317 218.029 176.185" stroke="white" stroke-width="4.96799" stroke-miterlimit="10" stroke-linecap="round"/>
<path d="M261.5 132.545C261.5 133.966 260.318 135.108 258.897 135.058L176.617 133.707C175.991 133.687 175.504 133.171 175.504 132.545C175.504 131.919 176.001 131.412 176.617 131.382L258.897 130.031C260.318 129.981 261.5 131.114 261.5 132.545Z" fill="white"/>
<path d="M261.322 119.221C261.451 120.642 260.378 121.874 258.957 121.953L176.885 127.985C176.26 128.014 175.723 127.557 175.673 126.931C175.614 126.305 176.061 125.759 176.687 125.679L258.51 116.956C259.921 116.777 261.202 117.81 261.322 119.221Z" fill="white"/>
</g>
<path d="M309.062 133.854C313.083 133.854 316.562 134.271 319.5 135.104C322.458 135.938 324.729 137.146 326.312 138.729C327.896 140.313 328.688 142.209 328.688 144.417C328.688 146.584 327.896 148.448 326.312 150.011C324.729 151.552 322.458 152.74 319.5 153.573C316.562 154.386 313.083 154.792 309.062 154.792C305.042 154.792 301.552 154.386 298.594 153.573C295.635 152.74 293.354 151.552 291.75 150.011C290.167 148.448 289.375 146.584 289.375 144.417C289.375 142.209 290.167 140.313 291.75 138.729C293.354 137.146 295.635 135.938 298.594 135.104C301.552 134.271 305.042 133.854 309.062 133.854ZM309.062 137.792C306.083 137.792 303.49 138.063 301.281 138.604C299.073 139.125 297.375 139.886 296.188 140.886C295 141.886 294.417 143.063 294.438 144.417C294.417 145.75 294.99 146.907 296.156 147.886C297.344 148.844 299.042 149.584 301.25 150.104C303.458 150.625 306.062 150.896 309.062 150.917C312.021 150.896 314.594 150.625 316.781 150.104C318.99 149.584 320.688 148.844 321.875 147.886C323.083 146.907 323.688 145.75 323.688 144.417C323.688 143.063 323.083 141.886 321.875 140.886C320.688 139.886 318.99 139.125 316.781 138.604C314.573 138.063 312 137.792 309.062 137.792ZM328.188 187.417H289.938V169.167H328.188V187.417ZM294.812 183.417H323.375V173.104H294.812V183.417ZM334.375 163.667H283.75V159.604H334.375V163.667ZM388.658 181.292H337.783V177.167H352.095V166.604H344.158V149.479H377.408V140.792H344.033V136.729H382.22V153.542H349.033V162.542H383.533V166.604H374.845V177.167H388.658V181.292ZM370.033 177.167V166.604H356.908V177.167H370.033ZM395.378 189.917H390.503L405.065 135.729H410.003L395.378 189.917ZM456.098 139.354C456.098 142.25 456.014 144.875 455.848 147.229C455.702 149.563 455.327 152.209 454.723 155.167H462.785V159.167H439.66V169.417H456.473V188.167H451.535V173.479H417.16V169.417H434.785V159.167H411.91V155.167H449.785C450.41 152.167 450.806 149.5 450.973 147.167C451.139 144.834 451.223 142.229 451.223 139.354H418.348V135.354H456.098V139.354ZM516.568 160.104H493.63V165.604H510.068V178.042H477.068V183.667H511.755V187.542H472.193V174.354H505.255V169.417H472.068V165.604H488.755V160.104H465.943V156.104H516.568V160.104ZM510.005 151.417H472.505V134.479H510.005V151.417ZM477.38 147.479H505.13V138.417H477.38V147.479ZM541.508 151.479H553.57V137.917H558.133V174.292H536.82V137.917H541.508V151.479ZM553.57 170.229V155.479H541.508V170.229H553.57ZM582.383 188.167H577.633V158.729H569.883V185.354H565.195V133.792H569.883V154.667H577.633V132.604H582.383V188.167ZM616.478 160.229H639.415V164.229H588.79V160.229H611.665V152.042H616.478V160.229ZM616.54 136.104C616.54 138.459 617.488 140.698 619.384 142.823C621.28 144.948 623.748 146.74 626.79 148.198C629.853 149.636 633.04 150.584 636.353 151.042L634.353 154.979C631.498 154.479 628.738 153.667 626.071 152.542C623.405 151.396 621.019 149.979 618.915 148.292C616.832 146.604 615.228 144.719 614.103 142.636C612.978 144.719 611.363 146.604 609.259 148.292C607.155 149.979 604.759 151.396 602.071 152.542C599.384 153.667 596.603 154.479 593.728 154.979L591.853 151.042C595.165 150.584 598.342 149.636 601.384 148.198C604.425 146.74 606.884 144.948 608.759 142.823C610.655 140.698 611.603 138.459 611.603 136.104V133.479H616.54V136.104ZM614.103 168.854C618.082 168.854 621.498 169.229 624.353 169.979C627.207 170.729 629.394 171.823 630.915 173.261C632.436 174.698 633.207 176.438 633.228 178.479C633.207 180.521 632.436 182.25 630.915 183.667C629.394 185.104 627.207 186.188 624.353 186.917C621.498 187.667 618.082 188.042 614.103 188.042C610.082 188.042 606.634 187.667 603.759 186.917C600.905 186.188 598.717 185.104 597.196 183.667C595.675 182.25 594.915 180.521 594.915 178.479C594.915 176.438 595.675 174.698 597.196 173.261C598.717 171.823 600.905 170.729 603.759 169.979C606.634 169.229 610.082 168.854 614.103 168.854ZM614.103 172.729C609.582 172.729 606.082 173.229 603.603 174.229C601.123 175.229 599.894 176.646 599.915 178.479C599.894 179.688 600.436 180.719 601.54 181.573C602.665 182.427 604.29 183.084 606.415 183.542C608.561 184 611.123 184.229 614.103 184.229C617.04 184.229 619.571 184 621.696 183.542C623.842 183.084 625.478 182.427 626.603 181.573C627.728 180.719 628.29 179.688 628.29 178.479C628.29 176.646 627.04 175.229 624.54 174.229C622.04 173.229 618.561 172.729 614.103 172.729Z" fill="white"/>
<rect x="740" y="80.6045" width="600" height="160" rx="16" fill="#2D2C3A"/>
<g clip-path="url(#clip1_214_15436)">
<path d="M825.528 169.347C824.429 168.875 823.149 169.378 822.671 170.484C821.496 173.211 820.577 176.063 819.937 178.971C819.682 180.145 820.422 181.3 821.596 181.561C821.751 181.599 821.906 181.611 822.062 181.611C823.062 181.611 823.963 180.915 824.186 179.903C824.764 177.268 825.597 174.684 826.665 172.211C827.144 171.111 826.634 169.832 825.528 169.353V169.347Z" fill="white"/>
<path d="M850.784 148.48C850.343 147.362 849.082 146.815 847.964 147.256C839.583 150.555 832.357 156.178 827.064 163.509C826.362 164.484 826.579 165.839 827.555 166.547C827.94 166.826 828.381 166.957 828.822 166.957C829.499 166.957 830.164 166.646 830.586 166.056C835.389 159.402 841.943 154.302 849.548 151.307C850.666 150.866 851.213 149.605 850.772 148.486L850.784 148.48Z" fill="white"/>
<path d="M907.176 183.102H906.349C906.349 183.04 906.337 182.978 906.337 182.916C906.306 182.357 906.269 181.798 906.219 181.239C906.2 180.996 906.176 180.754 906.151 180.518C906.138 180.375 906.126 180.232 906.113 180.089H906.101C905.797 177.318 905.25 174.616 904.479 172.013C904.448 171.907 904.411 171.808 904.38 171.708C904.082 170.72 903.753 169.751 903.392 168.794C903.367 168.732 903.349 168.67 903.324 168.614C903.169 168.21 903.007 167.813 902.839 167.415C902.758 167.216 902.678 167.011 902.591 166.812C902.429 166.44 902.268 166.073 902.094 165.707C901.994 165.489 901.889 165.272 901.789 165.054C901.622 164.7 901.448 164.346 901.267 163.998C901.156 163.781 901.038 163.557 900.92 163.34C900.739 162.998 900.553 162.65 900.36 162.314C900.242 162.103 900.118 161.898 899.994 161.693C899.627 161.066 899.248 160.451 898.857 159.842C898.72 159.63 898.583 159.413 898.441 159.202C898.254 158.922 898.055 158.649 897.863 158.376C897.683 158.121 897.509 157.866 897.322 157.618C897.13 157.357 896.937 157.102 896.738 156.847C896.539 156.586 896.334 156.325 896.129 156.064C895.937 155.822 895.744 155.586 895.552 155.35C895.322 155.07 895.086 154.803 894.85 154.53C894.669 154.319 894.483 154.107 894.303 153.902C894.005 153.573 893.7 153.25 893.39 152.927C893.259 152.79 893.129 152.647 892.992 152.504C892.545 152.045 892.085 151.597 891.619 151.156C891.513 151.057 891.402 150.957 891.296 150.858C890.923 150.51 890.544 150.175 890.159 149.839C890.01 149.709 889.861 149.584 889.712 149.46C889.351 149.156 888.991 148.858 888.624 148.566C888.475 148.447 888.32 148.329 888.171 148.211C887.779 147.907 887.376 147.609 886.972 147.317C886.848 147.224 886.723 147.137 886.599 147.043C886.083 146.677 885.568 146.323 885.04 145.975C885.021 145.962 885.009 145.956 884.99 145.944C883.841 145.192 882.654 144.496 881.436 143.85C881.38 143.819 881.318 143.788 881.262 143.757C880.722 143.471 880.175 143.198 879.622 142.937C879.535 142.893 879.448 142.856 879.367 142.812C878.814 142.552 878.255 142.303 877.69 142.061C877.628 142.036 877.572 142.011 877.51 141.986C874.944 140.911 872.26 140.066 869.489 139.458C869.446 139.445 869.402 139.439 869.359 139.433C868.7 139.29 868.035 139.166 867.364 139.048C867.327 139.048 867.296 139.035 867.259 139.029C865.842 138.793 864.407 138.613 862.953 138.501C863.065 138.147 863.127 137.774 863.127 137.389C863.127 135.382 861.499 133.748 859.486 133.748C857.48 133.748 855.846 135.376 855.846 137.389C855.846 137.78 855.908 138.153 856.02 138.501C854.566 138.606 853.131 138.787 851.714 139.029C851.677 139.029 851.646 139.041 851.609 139.048C850.938 139.159 850.273 139.29 849.614 139.433C849.571 139.439 849.527 139.451 849.484 139.458C846.713 140.06 844.029 140.911 841.463 141.986C841.401 142.011 841.345 142.036 841.283 142.061C840.718 142.303 840.159 142.552 839.606 142.812C839.519 142.85 839.432 142.893 839.351 142.937C838.798 143.204 838.251 143.477 837.711 143.757C837.655 143.788 837.593 143.819 837.537 143.85C836.319 144.496 835.132 145.198 833.983 145.944C833.964 145.956 833.952 145.962 833.933 145.975C833.405 146.317 832.883 146.677 832.374 147.043C832.25 147.13 832.125 147.224 832.001 147.317C831.597 147.609 831.2 147.907 830.808 148.211C830.653 148.329 830.504 148.447 830.355 148.572C829.988 148.864 829.622 149.162 829.268 149.466C829.118 149.591 828.969 149.721 828.82 149.845C828.435 150.181 828.056 150.516 827.683 150.864C827.578 150.964 827.466 151.063 827.36 151.162C826.894 151.604 826.434 152.051 825.987 152.511C825.85 152.647 825.72 152.79 825.59 152.933C825.285 153.256 824.974 153.579 824.676 153.909C824.49 154.114 824.31 154.325 824.13 154.536C823.893 154.809 823.657 155.083 823.427 155.356C823.229 155.592 823.036 155.828 822.85 156.071C822.645 156.332 822.44 156.592 822.241 156.853C822.042 157.108 821.849 157.363 821.657 157.624C821.47 157.872 821.297 158.127 821.116 158.382C820.924 158.655 820.725 158.928 820.539 159.208C820.396 159.419 820.265 159.637 820.122 159.848C819.731 160.457 819.352 161.072 818.985 161.699C818.861 161.904 818.737 162.109 818.619 162.321C818.426 162.662 818.246 163.004 818.06 163.346C817.942 163.563 817.83 163.781 817.712 164.004C817.532 164.352 817.358 164.706 817.19 165.06C817.084 165.278 816.985 165.495 816.885 165.713C816.718 166.079 816.55 166.446 816.388 166.819C816.301 167.017 816.221 167.216 816.14 167.421C815.978 167.819 815.811 168.217 815.655 168.62C815.63 168.683 815.612 168.738 815.587 168.801C815.227 169.757 814.897 170.727 814.599 171.714C814.568 171.82 814.531 171.919 814.5 172.019C813.729 174.622 813.189 177.324 812.878 180.095H812.866C812.847 180.238 812.841 180.381 812.828 180.524C812.804 180.766 812.779 181.002 812.76 181.245C812.71 181.804 812.673 182.357 812.642 182.922C812.642 182.984 812.63 183.046 812.63 183.109H811.803C810.604 183.109 809.629 184.084 809.629 185.283C809.629 186.482 810.604 187.458 811.803 187.458H907.157C908.356 187.458 909.332 186.482 909.332 185.283C909.332 184.084 908.356 183.109 907.157 183.109L907.176 183.102ZM816.997 183.102C817.028 182.549 817.072 181.997 817.122 181.444C817.165 181.002 817.215 180.561 817.264 180.12C817.606 177.312 818.221 174.591 819.079 171.981C819.948 169.335 821.073 166.806 822.421 164.421C822.682 163.955 822.955 163.501 823.235 163.048C823.254 163.016 823.272 162.985 823.297 162.954C824.695 160.693 826.304 158.574 828.087 156.624C828.162 156.543 828.236 156.462 828.311 156.381C828.615 156.052 828.926 155.729 829.243 155.412C829.342 155.313 829.441 155.213 829.535 155.12C829.852 154.809 830.162 154.499 830.485 154.194C830.566 154.12 830.653 154.045 830.734 153.971C831.765 153.026 832.84 152.132 833.958 151.287C834.113 151.169 834.269 151.051 834.424 150.933C834.716 150.715 835.014 150.51 835.313 150.305C835.518 150.162 835.716 150.026 835.921 149.889C836.207 149.696 836.493 149.51 836.785 149.323C837.015 149.181 837.245 149.038 837.475 148.895C837.754 148.727 838.034 148.553 838.32 148.392C838.587 148.236 838.86 148.087 839.133 147.938C839.407 147.789 839.674 147.634 839.953 147.491C840.444 147.236 840.941 146.987 841.445 146.751C841.681 146.64 841.923 146.54 842.159 146.428C842.488 146.279 842.811 146.136 843.147 146C843.395 145.894 843.65 145.795 843.905 145.695C844.234 145.565 844.57 145.434 844.905 145.316C845.154 145.223 845.402 145.136 845.657 145.049C846.017 144.925 846.378 144.807 846.744 144.695C846.974 144.62 847.204 144.546 847.434 144.478C847.912 144.335 848.403 144.204 848.887 144.074C849.006 144.043 849.117 144.012 849.235 143.98C849.838 143.831 850.447 143.695 851.062 143.57C851.261 143.533 851.46 143.496 851.652 143.459C852.081 143.378 852.516 143.303 852.944 143.235C853.174 143.198 853.41 143.167 853.646 143.136C854.056 143.08 854.473 143.03 854.883 142.98C855.119 142.955 855.355 142.931 855.591 142.906C856.032 142.862 856.473 142.831 856.921 142.806C857.126 142.794 857.331 142.775 857.542 142.769C858.194 142.738 858.847 142.719 859.499 142.719C860.151 142.719 860.81 142.738 861.456 142.769C861.661 142.781 861.866 142.794 862.077 142.806C862.525 142.831 862.966 142.862 863.407 142.906C863.643 142.924 863.879 142.955 864.115 142.98C864.531 143.024 864.941 143.073 865.351 143.136C865.587 143.167 865.817 143.198 866.053 143.235C866.488 143.303 866.917 143.378 867.346 143.459C867.544 143.496 867.743 143.527 867.936 143.57C868.551 143.695 869.16 143.831 869.762 143.98C869.88 144.012 869.992 144.043 870.11 144.074C870.601 144.198 871.086 144.335 871.564 144.478C871.794 144.546 872.024 144.62 872.254 144.695C872.62 144.807 872.981 144.925 873.341 145.049C873.596 145.136 873.844 145.223 874.093 145.316C874.428 145.441 874.757 145.565 875.093 145.695C875.348 145.795 875.602 145.894 875.851 146C876.18 146.136 876.509 146.285 876.839 146.428C877.075 146.534 877.317 146.64 877.553 146.751C878.056 146.987 878.553 147.236 879.044 147.491C879.318 147.634 879.591 147.789 879.864 147.938C880.138 148.087 880.411 148.236 880.678 148.392C880.964 148.553 881.244 148.727 881.523 148.895C881.753 149.038 881.989 149.174 882.213 149.323C882.505 149.51 882.791 149.696 883.076 149.889C883.281 150.026 883.486 150.168 883.685 150.305C883.983 150.51 884.282 150.721 884.574 150.933C884.729 151.051 884.884 151.169 885.04 151.287C886.158 152.132 887.233 153.026 888.264 153.971C888.345 154.045 888.432 154.12 888.513 154.194C888.836 154.499 889.152 154.803 889.463 155.12C889.563 155.219 889.662 155.313 889.755 155.412C890.072 155.729 890.383 156.052 890.687 156.381C890.762 156.462 890.836 156.543 890.911 156.624C892.694 158.581 894.297 160.699 895.701 162.954C895.719 162.985 895.738 163.016 895.763 163.048C896.042 163.501 896.316 163.961 896.577 164.421C897.925 166.806 899.049 169.341 899.919 171.981C900.783 174.591 901.392 177.312 901.733 180.12C901.789 180.561 901.833 181.002 901.876 181.444C901.926 181.99 901.976 182.543 902.001 183.102H816.997Z" fill="white"/>
</g>
<path d="M947.352 134.667C950.102 134.688 952.56 135.219 954.727 136.261C956.914 137.302 958.622 138.761 959.852 140.636C961.102 142.49 961.727 144.604 961.727 146.979C961.727 149.354 961.102 151.479 959.852 153.354C958.622 155.209 956.914 156.657 954.727 157.698C952.56 158.719 950.102 159.229 947.352 159.229C944.56 159.229 942.07 158.719 939.883 157.698C937.695 156.657 935.987 155.209 934.758 153.354C933.529 151.479 932.914 149.354 932.914 146.979C932.914 144.604 933.529 142.49 934.758 140.636C935.987 138.761 937.695 137.302 939.883 136.261C942.07 135.219 944.56 134.688 947.352 134.667ZM947.352 138.792C945.518 138.792 943.862 139.146 942.383 139.854C940.924 140.542 939.779 141.511 938.945 142.761C938.112 143.99 937.706 145.396 937.727 146.979C937.706 148.584 938.112 150.011 938.945 151.261C939.779 152.511 940.924 153.49 942.383 154.198C943.862 154.886 945.518 155.229 947.352 155.229C949.164 155.229 950.799 154.886 952.258 154.198C953.737 153.49 954.893 152.511 955.727 151.261C956.56 150.011 956.977 148.584 956.977 146.979C956.977 145.396 956.56 143.99 955.727 142.761C954.893 141.511 953.737 140.542 952.258 139.854C950.799 139.146 949.164 138.792 947.352 138.792ZM977.477 161.167H972.602V132.604H977.477V161.167ZM977.477 177.229H946.289V183.479H979.477V187.417H941.477V173.542H972.602V167.792H941.352V163.854H977.477V177.229ZM1029.07 149.479H1037.45V153.604H1029.07V173.479H1024.2V132.667H1029.07V149.479ZM1031.63 186.979H994.322V169.479H999.134V182.854H1031.63V186.979ZM992.822 146.042H1009.01V136.667H1013.88V164.104H988.009V136.667H992.822V146.042ZM1009.01 160.104V149.917H992.822V160.104H1009.01ZM1064.98 133.854C1069 133.854 1072.48 134.271 1075.42 135.104C1078.37 135.938 1080.65 137.146 1082.23 138.729C1083.81 140.313 1084.6 142.209 1084.6 144.417C1084.6 146.584 1083.81 148.448 1082.23 150.011C1080.65 151.552 1078.37 152.74 1075.42 153.573C1072.48 154.386 1069 154.792 1064.98 154.792C1060.96 154.792 1057.47 154.386 1054.51 153.573C1051.55 152.74 1049.27 151.552 1047.67 150.011C1046.08 148.448 1045.29 146.584 1045.29 144.417C1045.29 142.209 1046.08 140.313 1047.67 138.729C1049.27 137.146 1051.55 135.938 1054.51 135.104C1057.47 134.271 1060.96 133.854 1064.98 133.854ZM1064.98 137.792C1062 137.792 1059.41 138.063 1057.2 138.604C1054.99 139.125 1053.29 139.886 1052.1 140.886C1050.92 141.886 1050.33 143.063 1050.35 144.417C1050.33 145.75 1050.91 146.907 1052.07 147.886C1053.26 148.844 1054.96 149.584 1057.17 150.104C1059.37 150.625 1061.98 150.896 1064.98 150.917C1067.94 150.896 1070.51 150.625 1072.7 150.104C1074.91 149.584 1076.6 148.844 1077.79 147.886C1079 146.907 1079.6 145.75 1079.6 144.417C1079.6 143.063 1079 141.886 1077.79 140.886C1076.6 139.886 1074.91 139.125 1072.7 138.604C1070.49 138.063 1067.92 137.792 1064.98 137.792ZM1084.1 187.417H1045.85V169.167H1084.1V187.417ZM1050.73 183.417H1079.29V173.104H1050.73V183.417ZM1090.29 163.667H1039.67V159.604H1090.29V163.667ZM1113.39 140.667C1113.37 143.334 1113.95 145.875 1115.14 148.292C1116.32 150.709 1117.98 152.834 1120.11 154.667C1122.25 156.5 1124.7 157.896 1127.45 158.854L1124.95 162.729C1121.72 161.563 1118.89 159.823 1116.45 157.511C1114.01 155.198 1112.17 152.5 1110.92 149.417C1109.71 152.709 1107.87 155.604 1105.39 158.104C1102.93 160.584 1100.07 162.459 1096.82 163.729L1094.26 159.854C1097.01 158.834 1099.45 157.354 1101.57 155.417C1103.72 153.459 1105.39 151.198 1106.57 148.636C1107.78 146.073 1108.39 143.417 1108.39 140.667V135.354H1113.39V140.667ZM1139.57 188.167H1134.7V172.917H1102.2V168.854H1139.57V188.167ZM1139.57 166.104H1134.7V132.604H1139.57V166.104ZM1169.26 151.479H1181.33V137.917H1185.89V174.292H1164.58V137.917H1169.26V151.479ZM1181.33 170.229V155.479H1169.26V170.229H1181.33ZM1210.14 188.167H1205.39V158.729H1197.64V185.354H1192.95V133.792H1197.64V154.667H1205.39V132.604H1210.14V188.167ZM1244.23 160.229H1267.17V164.229H1216.55V160.229H1239.42V152.042H1244.23V160.229ZM1244.3 136.104C1244.3 138.459 1245.24 140.698 1247.14 142.823C1249.04 144.948 1251.5 146.74 1254.55 148.198C1257.61 149.636 1260.8 150.584 1264.11 151.042L1262.11 154.979C1259.25 154.479 1256.49 153.667 1253.83 152.542C1251.16 151.396 1248.78 149.979 1246.67 148.292C1244.59 146.604 1242.98 144.719 1241.86 142.636C1240.73 144.719 1239.12 146.604 1237.02 148.292C1234.91 149.979 1232.52 151.396 1229.83 152.542C1227.14 153.667 1224.36 154.479 1221.48 154.979L1219.61 151.042C1222.92 150.584 1226.1 149.636 1229.14 148.198C1232.18 146.74 1234.64 144.948 1236.52 142.823C1238.41 140.698 1239.36 138.459 1239.36 136.104V133.479H1244.3V136.104ZM1241.86 168.854C1245.84 168.854 1249.25 169.229 1252.11 169.979C1254.96 170.729 1257.15 171.823 1258.67 173.261C1260.19 174.698 1260.96 176.438 1260.98 178.479C1260.96 180.521 1260.19 182.25 1258.67 183.667C1257.15 185.104 1254.96 186.188 1252.11 186.917C1249.25 187.667 1245.84 188.042 1241.86 188.042C1237.84 188.042 1234.39 187.667 1231.52 186.917C1228.66 186.188 1226.47 185.104 1224.95 183.667C1223.43 182.25 1222.67 180.521 1222.67 178.479C1222.67 176.438 1223.43 174.698 1224.95 173.261C1226.47 171.823 1228.66 170.729 1231.52 169.979C1234.39 169.229 1237.84 168.854 1241.86 168.854ZM1241.86 172.729C1237.34 172.729 1233.84 173.229 1231.36 174.229C1228.88 175.229 1227.65 176.646 1227.67 178.479C1227.65 179.688 1228.19 180.719 1229.3 181.573C1230.42 182.427 1232.05 183.084 1234.17 183.542C1236.32 184 1238.88 184.229 1241.86 184.229C1244.8 184.229 1247.33 184 1249.45 183.542C1251.6 183.084 1253.23 182.427 1254.36 181.573C1255.48 180.719 1256.05 179.688 1256.05 178.479C1256.05 176.646 1254.8 175.229 1252.3 174.229C1249.8 173.229 1246.32 172.729 1241.86 172.729Z" fill="white"/>
<defs>
<clipPath id="clip0_214_15436">
<rect width="104" height="87.3373" fill="white" transform="translate(157.5 116.936)"/>
</clipPath>
<clipPath id="clip1_214_15436">
<rect width="99.7027" height="53.6971" fill="white" transform="translate(809.648 133.756)"/>
</clipPath>
</defs>
</svg>
