<svg width="1440" height="662" viewBox="0 0 1440 662" fill="none" xmlns="http://www.w3.org/2000/svg">
<rect width="1440" height="661.942" fill="white"/>
<rect width="1440" height="661.942" fill="#246FF4" fill-opacity="0.2"/>
<path d="M897.519 581.942C897.519 581.942 902.451 568.156 892.712 562.084C877.598 552.598 875.511 534.448 875.511 534.448L861.788 414.924H578.217L564.494 534.448C564.494 534.448 562.407 552.535 547.292 562.084C537.553 568.219 542.486 581.942 542.486 581.942H897.519Z" fill="#D9DBDC"/>
<path d="M897.519 581.942C897.519 581.942 902.451 568.156 892.712 562.084C877.598 552.598 875.511 534.448 875.511 534.448L861.788 414.924H578.217L564.494 534.448C564.494 534.448 562.407 552.535 547.292 562.084C537.553 568.219 542.486 581.942 542.486 581.942H897.519Z" stroke="#231916" stroke-width="5.05925" stroke-linecap="round" stroke-linejoin="round"/>
<path d="M884.553 568.282H555.449" stroke="#231916" stroke-width="1.89722" stroke-miterlimit="10"/>
<path d="M950.259 475.38H489.741C471.022 475.38 455.781 460.203 455.781 441.42V113.96C455.781 95.1777 470.958 80 489.741 80H950.259C968.978 80 984.219 95.1777 984.219 113.96V441.483C984.219 460.203 969.042 475.444 950.259 475.444" fill="#F2F3F3"/>
<path d="M950.259 80H489.741C470.985 80 455.781 95.2045 455.781 113.96V441.42C455.781 460.176 470.985 475.38 489.741 475.38H950.259C969.015 475.38 984.219 460.176 984.219 441.42V113.96C984.219 95.2045 969.015 80 950.259 80Z" stroke="#231916" stroke-width="5.05925" stroke-linecap="round" stroke-linejoin="round"/>
<path d="M700.396 432.566C698.815 431.871 696.981 431.555 694.83 431.555H684.08V455.08H690.72V448.946H694.767C696.917 448.946 698.815 448.63 700.332 447.871C701.85 447.112 703.115 446.163 703.937 444.898C704.759 443.634 705.202 442.053 705.202 440.219C705.202 438.385 704.759 436.93 703.937 435.602C703.115 434.274 701.913 433.262 700.332 432.566M697.487 442.748C696.791 443.381 695.779 443.634 694.388 443.634H690.72V436.804H694.388C695.779 436.804 696.854 437.12 697.487 437.752C698.182 438.385 698.562 439.207 698.562 440.282C698.562 441.357 698.182 442.242 697.487 442.811M757.945 444.835C757.439 444.013 756.806 443.381 755.984 442.875C755.162 442.369 754.34 441.989 753.391 441.673C752.443 441.357 751.494 441.104 750.545 440.914C749.597 440.725 748.711 440.535 747.953 440.345C747.194 440.155 746.561 439.902 746.055 439.586C745.549 439.27 745.296 438.891 745.296 438.321C745.296 437.942 745.423 437.626 745.676 437.31C745.929 436.993 746.308 436.74 746.877 436.551C747.447 436.361 748.142 436.234 749.091 436.234C750.103 436.234 751.178 436.361 752.253 436.677C753.328 436.993 754.466 437.436 755.605 438.068L757.628 433.136C756.49 432.44 755.162 431.934 753.707 431.555C752.253 431.175 750.672 431.049 749.154 431.049C746.877 431.049 744.917 431.428 743.336 432.124C741.818 432.819 740.617 433.768 739.858 434.906C739.099 436.045 738.719 437.31 738.719 438.701C738.719 439.966 738.972 440.977 739.415 441.8C739.921 442.622 740.553 443.317 741.312 443.823C742.071 444.329 742.957 444.772 743.968 445.088C744.917 445.404 745.866 445.657 746.814 445.847C747.763 446.037 748.585 446.226 749.407 446.479C750.229 446.732 750.862 446.985 751.368 447.238C751.873 447.555 752.126 447.934 752.126 448.503C752.126 448.883 752 449.262 751.747 449.515C751.494 449.831 751.115 450.021 750.545 450.211C749.976 450.337 749.281 450.464 748.332 450.464C746.941 450.464 745.613 450.274 744.221 449.831C742.83 449.388 741.628 448.819 740.553 448.187L738.34 453.12C739.415 453.879 740.87 454.448 742.64 454.954C744.411 455.46 746.308 455.649 748.269 455.649C750.609 455.649 752.569 455.333 754.087 454.637C755.668 453.942 756.806 452.993 757.565 451.855C758.324 450.717 758.703 449.452 758.703 448.06C758.703 446.796 758.45 445.784 757.945 444.962M731.384 434.527C730.245 433.452 728.854 432.566 727.273 431.934C725.692 431.365 723.921 431.049 722.087 431.049C720.253 431.049 718.482 431.365 716.838 431.934C715.257 432.566 713.866 433.389 712.728 434.527C711.589 435.665 710.641 436.93 710.008 438.385C709.376 439.839 708.996 441.483 708.996 443.254C708.996 445.025 709.313 446.669 710.008 448.124C710.704 449.641 711.589 450.906 712.728 452.045C713.866 453.183 715.257 454.005 716.901 454.637C718.482 455.27 720.253 455.523 722.087 455.523C723.921 455.523 725.692 455.207 727.273 454.637C728.854 454.005 730.245 453.183 731.447 452.108C732.648 451.033 733.534 449.705 734.166 448.25C734.798 446.732 735.115 445.088 735.115 443.317C735.115 441.547 734.798 439.902 734.103 438.448C733.47 436.993 732.522 435.665 731.384 434.59M727.905 446.037C727.589 446.859 727.146 447.555 726.577 448.187C726.008 448.756 725.312 449.262 724.554 449.578C723.795 449.894 722.973 450.021 722.024 450.021C721.075 450.021 720.316 449.894 719.494 449.578C718.735 449.262 718.04 448.819 717.471 448.187C716.901 447.618 716.459 446.859 716.143 446.037C715.826 445.215 715.637 444.266 715.637 443.254C715.637 442.242 715.826 441.294 716.143 440.472C716.459 439.649 716.901 438.954 717.471 438.385C718.04 437.815 718.735 437.31 719.494 436.993C720.253 436.677 721.075 436.487 722.024 436.487C722.973 436.487 723.731 436.677 724.554 436.993C725.312 437.31 726.008 437.752 726.577 438.385C727.146 438.954 727.589 439.713 727.905 440.472C728.221 441.294 728.411 442.242 728.411 443.254C728.411 444.266 728.221 445.215 727.905 446.037Z" fill="#595857"/>
<path d="M943.556 414.924H496.382C489.678 414.924 484.24 409.485 484.24 402.781V120.286C484.24 113.582 489.678 108.143 496.382 108.143H943.556C950.26 108.143 955.698 113.582 955.698 120.286V402.718C955.698 409.422 950.26 414.86 943.556 414.86" fill="white"/>
<path d="M943.556 108.143H496.382C489.676 108.143 484.24 113.58 484.24 120.286V402.781C484.24 409.487 489.676 414.924 496.382 414.924H943.556C950.262 414.924 955.698 409.487 955.698 402.781V120.286C955.698 113.58 950.262 108.143 943.556 108.143Z" stroke="#231916" stroke-width="3.16203" stroke-linecap="round" stroke-linejoin="round"/>
<path d="M636.398 208.252H524.336C521.427 208.252 519.024 205.849 519.024 202.94V141.091C519.024 138.182 521.427 135.779 524.336 135.779H636.462C639.371 135.779 641.774 138.182 641.774 141.091V202.94C641.774 205.849 639.371 208.252 636.462 208.252" fill="#F2F2F3"/>
<path d="M778.118 208.252H665.992C663.083 208.252 660.68 205.849 660.68 202.94V141.091C660.68 138.182 663.083 135.779 665.992 135.779H778.118C781.027 135.779 783.43 138.182 783.43 141.091V202.94C783.43 205.849 781.027 208.252 778.118 208.252Z" fill="#F2F2F3"/>
<path d="M915.667 208.252H803.541C800.632 208.252 798.229 205.849 798.229 202.94V141.091C798.229 138.182 800.632 135.779 803.541 135.779H915.667C918.576 135.779 920.979 138.182 920.979 141.091V202.94C920.979 205.849 918.576 208.252 915.667 208.252Z" fill="#F2F2F3"/>
<path d="M636.398 297.801H524.336C521.427 297.801 519.024 295.397 519.024 292.488V230.639C519.024 227.73 521.427 225.327 524.336 225.327H636.462C639.371 225.327 641.774 227.73 641.774 230.639V292.488C641.774 295.397 639.371 297.801 636.462 297.801" fill="#F2F2F3"/>
<path d="M778.118 297.801H665.992C663.083 297.801 660.68 295.397 660.68 292.488V230.639C660.68 227.73 663.083 225.327 665.992 225.327H778.118C781.027 225.327 783.43 227.73 783.43 230.639V292.488C783.43 295.397 781.027 297.801 778.118 297.801Z" fill="#F2F2F3"/>
<path d="M915.667 297.801H803.541C800.632 297.801 798.229 295.397 798.229 292.488V230.639C798.229 227.73 800.632 225.327 803.541 225.327H915.667C918.576 225.327 920.979 227.73 920.979 230.639V292.488C920.979 295.397 918.576 297.801 915.667 297.801Z" fill="#F2F2F3"/>
<path d="M636.398 387.287H524.336C521.427 387.287 519.024 384.884 519.024 381.975V320.125C519.024 317.216 521.427 314.813 524.336 314.813H636.462C639.371 314.813 641.774 317.216 641.774 320.125V381.975C641.774 384.884 639.371 387.287 636.462 387.287" fill="#F2F2F3"/>
<path d="M778.118 387.287H665.992C663.083 387.287 660.68 384.884 660.68 381.975V320.125C660.68 317.216 663.083 314.813 665.992 314.813H778.118C781.027 314.813 783.43 317.216 783.43 320.125V381.975C783.43 384.884 781.027 387.287 778.118 387.287Z" fill="#F2F2F3"/>
<path d="M915.667 387.287H803.541C800.632 387.287 798.229 384.884 798.229 381.975V320.125C798.229 317.216 800.632 314.813 803.541 314.813H915.667C918.576 314.813 920.979 317.216 920.979 320.125V381.975C920.979 384.884 918.576 387.287 915.667 387.287Z" fill="#F2F2F3"/>
<path d="M726.327 293.879C719.75 293.879 714.437 288.567 714.437 281.99V255.808C714.437 253.721 716.145 252.014 718.232 251.95H739.101V233.547H735.686C720.635 233.547 714.437 243.033 714.437 243.033V214.006C714.437 213.69 713.995 213.5 713.805 213.753L676.303 251.381C676.303 251.381 676.24 252.014 676.556 252.014H693.884V283.95C693.884 299.191 704.319 312.282 721.647 312.282H739.101V293.942H726.39L726.327 293.879Z" fill="white"/>
<path d="M769.267 217.105C767.244 214.892 764.335 213.627 761.299 213.627C757.884 213.627 754.785 215.208 752.698 217.864C751.686 219.192 750.991 220.646 750.675 222.354C750.422 223.808 750.485 225.832 750.485 227.287V241.516C755.354 241.516 760.667 240.63 764.967 237.911C767.117 236.52 768.888 234.812 770.153 232.536C771.354 230.385 772.05 227.793 772.05 225.326C772.05 223.808 771.924 222.354 771.481 220.899C771.038 219.508 770.216 218.18 769.204 217.105H769.267Z" fill="white"/>
<path d="M764.586 185.928H678.769C659.797 185.928 644.429 201.295 644.429 220.268V306.085C644.429 325.057 659.797 340.425 678.769 340.425H764.586C783.558 340.425 798.926 325.057 798.926 306.085V220.268C798.926 201.295 783.558 185.928 764.586 185.928ZM721.583 312.219C704.255 312.219 693.82 299.129 693.82 283.888V251.951H676.492C676.176 251.951 675.986 251.508 676.239 251.319L713.741 213.691C713.741 213.691 714.373 213.627 714.373 213.944V242.971C714.373 242.971 720.571 233.485 735.622 233.485H739.037V251.825H718.168C716.081 251.825 714.373 253.532 714.373 255.682V281.864C714.373 288.441 719.749 293.753 726.326 293.753H739.037V312.093H721.583V312.219ZM770.151 232.6C768.887 234.876 767.116 236.584 764.966 237.975C760.665 240.631 755.353 241.58 750.484 241.58V227.351C750.484 225.896 750.484 223.872 750.673 222.418C750.926 220.71 751.622 219.256 752.697 217.928C754.784 215.272 757.883 213.691 761.298 213.691C764.333 213.691 767.179 214.955 769.266 217.169C770.278 218.244 771.037 219.572 771.543 220.963C772.049 222.418 772.112 223.872 772.112 225.39C772.112 227.857 771.416 230.449 770.215 232.6H770.151Z" fill="#246FF4"/>
<path d="M677.755 231.02H636.775C630.325 231.02 625.076 225.771 625.076 219.32V178.34C625.076 171.89 630.325 166.641 636.775 166.641H677.755C684.206 166.641 689.455 171.89 689.455 178.34V219.32C689.455 225.771 684.206 231.02 677.755 231.02Z" fill="white"/>
<path d="M677.755 166.641H636.775C630.314 166.641 625.076 171.879 625.076 178.34V219.32C625.076 225.782 630.314 231.02 636.775 231.02H677.755C684.217 231.02 689.455 225.782 689.455 219.32V178.34C689.455 171.879 684.217 166.641 677.755 166.641Z" stroke="#231916" stroke-width="5.05925" stroke-miterlimit="10"/>
<path d="M673.33 183.336H641.204V189.533H673.33V183.336Z" fill="#231916"/>
<path d="M673.33 195.73H641.204V201.928H673.33V195.73Z" fill="#231916"/>
<path d="M673.33 208.062H641.204V214.26H673.33V208.062Z" fill="#231916"/>
</svg>
