<svg width="360" height="167" viewBox="0 0 360 167" fill="none" xmlns="http://www.w3.org/2000/svg">
<rect width="360" height="165.486" transform="translate(0 0.594971)" fill="white"/>
<rect width="360" height="165.486" transform="translate(0 0.594971)" fill="#246FF4" fill-opacity="0.2"/>
<path d="M224.38 146.081C224.38 146.081 225.613 142.634 223.178 141.116C219.399 138.745 218.878 134.207 218.878 134.207L215.447 104.326H144.554L141.123 134.207C141.123 134.207 140.602 138.729 136.823 141.116C134.388 142.65 135.621 146.081 135.621 146.081H224.38Z" fill="#D9DBDC"/>
<path d="M224.38 146.081C224.38 146.081 225.613 142.634 223.178 141.116C219.399 138.745 218.878 134.207 218.878 134.207L215.447 104.326H144.554L141.123 134.207C141.123 134.207 140.602 138.729 136.823 141.116C134.388 142.65 135.621 146.081 135.621 146.081H224.38Z" stroke="#231916" stroke-width="1.26481" stroke-linecap="round" stroke-linejoin="round"/>
<path d="M221.138 142.666H138.862" stroke="#231916" stroke-width="0.474305" stroke-miterlimit="10"/>
<path d="M237.565 119.44H122.435C117.755 119.44 113.945 115.646 113.945 110.95V29.085C113.945 24.3894 117.74 20.595 122.435 20.595H237.565C242.245 20.595 246.055 24.3894 246.055 29.085V110.966C246.055 115.646 242.26 119.456 237.565 119.456" fill="#F2F3F3"/>
<path d="M237.565 20.595H122.435C117.746 20.595 113.945 24.3961 113.945 29.085V110.95C113.945 115.639 117.746 119.44 122.435 119.44H237.565C242.254 119.44 246.055 115.639 246.055 110.95V29.085C246.055 24.3961 242.254 20.595 237.565 20.595Z" stroke="#231916" stroke-width="1.26481" stroke-linecap="round" stroke-linejoin="round"/>
<path d="M175.099 108.737C174.704 108.563 174.245 108.484 173.708 108.484H171.02V114.365H172.68V112.831H173.692C174.229 112.831 174.704 112.752 175.083 112.563C175.463 112.373 175.779 112.136 175.984 111.82C176.19 111.503 176.3 111.108 176.3 110.65C176.3 110.191 176.19 109.828 175.984 109.496C175.779 109.163 175.478 108.911 175.083 108.737M174.372 111.282C174.198 111.44 173.945 111.503 173.597 111.503H172.68V109.796H173.597C173.945 109.796 174.214 109.875 174.372 110.033C174.546 110.191 174.64 110.397 174.64 110.665C174.64 110.934 174.546 111.156 174.372 111.298M189.486 111.804C189.36 111.598 189.202 111.44 188.996 111.314C188.791 111.187 188.585 111.092 188.348 111.013C188.111 110.934 187.874 110.871 187.636 110.824C187.399 110.776 187.178 110.729 186.988 110.681C186.798 110.634 186.64 110.571 186.514 110.492C186.387 110.412 186.324 110.318 186.324 110.175C186.324 110.08 186.356 110.001 186.419 109.922C186.482 109.843 186.577 109.78 186.719 109.733C186.862 109.685 187.036 109.654 187.273 109.654C187.526 109.654 187.794 109.685 188.063 109.764C188.332 109.843 188.617 109.954 188.901 110.112L189.407 108.879C189.123 108.705 188.791 108.579 188.427 108.484C188.063 108.389 187.668 108.357 187.289 108.357C186.719 108.357 186.229 108.452 185.834 108.626C185.455 108.8 185.154 109.037 184.964 109.322C184.775 109.606 184.68 109.922 184.68 110.27C184.68 110.586 184.743 110.839 184.854 111.045C184.98 111.25 185.138 111.424 185.328 111.551C185.518 111.677 185.739 111.788 185.992 111.867C186.229 111.946 186.466 112.009 186.704 112.057C186.941 112.104 187.146 112.152 187.352 112.215C187.557 112.278 187.715 112.341 187.842 112.405C187.968 112.484 188.032 112.578 188.032 112.721C188.032 112.816 188 112.911 187.937 112.974C187.874 113.053 187.779 113.1 187.636 113.148C187.494 113.179 187.32 113.211 187.083 113.211C186.735 113.211 186.403 113.163 186.055 113.053C185.708 112.942 185.407 112.8 185.138 112.642L184.585 113.875C184.854 114.065 185.217 114.207 185.66 114.333C186.103 114.46 186.577 114.507 187.067 114.507C187.652 114.507 188.142 114.428 188.522 114.254C188.917 114.08 189.202 113.843 189.391 113.559C189.581 113.274 189.676 112.958 189.676 112.61C189.676 112.294 189.613 112.041 189.486 111.835M182.846 109.227C182.561 108.958 182.213 108.737 181.818 108.579C181.423 108.436 180.98 108.357 180.522 108.357C180.063 108.357 179.621 108.436 179.21 108.579C178.814 108.737 178.466 108.942 178.182 109.227C177.897 109.511 177.66 109.828 177.502 110.191C177.344 110.555 177.249 110.966 177.249 111.409C177.249 111.851 177.328 112.262 177.502 112.626C177.676 113.005 177.897 113.322 178.182 113.606C178.466 113.891 178.814 114.096 179.225 114.254C179.621 114.412 180.063 114.476 180.522 114.476C180.98 114.476 181.423 114.397 181.818 114.254C182.213 114.096 182.561 113.891 182.862 113.622C183.162 113.353 183.383 113.021 183.542 112.658C183.7 112.278 183.779 111.867 183.779 111.424C183.779 110.982 183.7 110.571 183.526 110.207C183.368 109.843 183.13 109.511 182.846 109.243M181.976 112.104C181.897 112.31 181.787 112.484 181.644 112.642C181.502 112.784 181.328 112.911 181.138 112.99C180.949 113.069 180.743 113.1 180.506 113.1C180.269 113.1 180.079 113.069 179.874 112.99C179.684 112.911 179.51 112.8 179.368 112.642C179.225 112.499 179.115 112.31 179.036 112.104C178.957 111.899 178.909 111.662 178.909 111.409C178.909 111.156 178.957 110.918 179.036 110.713C179.115 110.507 179.225 110.333 179.368 110.191C179.51 110.049 179.684 109.922 179.874 109.843C180.063 109.764 180.269 109.717 180.506 109.717C180.743 109.717 180.933 109.764 181.138 109.843C181.328 109.922 181.502 110.033 181.644 110.191C181.787 110.333 181.897 110.523 181.976 110.713C182.055 110.918 182.103 111.156 182.103 111.409C182.103 111.662 182.055 111.899 181.976 112.104Z" fill="#595857"/>
<path d="M235.889 104.326H124.095C122.42 104.326 121.06 102.966 121.06 101.29V30.6664C121.06 28.9905 122.42 27.6309 124.095 27.6309H235.889C237.565 27.6309 238.925 28.9905 238.925 30.6664V101.275C238.925 102.95 237.565 104.31 235.889 104.31" fill="white"/>
<path d="M235.889 27.6309H124.095C122.419 27.6309 121.06 28.9899 121.06 30.6664V101.29C121.06 102.967 122.419 104.326 124.095 104.326H235.889C237.566 104.326 238.925 102.967 238.925 101.29V30.6664C238.925 28.9899 237.566 27.6309 235.889 27.6309Z" stroke="#231916" stroke-width="0.790508" stroke-linecap="round" stroke-linejoin="round"/>
<path d="M159.1 52.658H131.084C130.357 52.658 129.756 52.0572 129.756 51.3299V35.8676C129.756 35.1403 130.357 34.5396 131.084 34.5396H159.115C159.843 34.5396 160.443 35.1403 160.443 35.8676V51.3299C160.443 52.0572 159.843 52.658 159.115 52.658" fill="#F2F2F3"/>
<path d="M194.53 52.658H166.498C165.771 52.658 165.17 52.0572 165.17 51.3299V35.8676C165.17 35.1403 165.771 34.5396 166.498 34.5396H194.53C195.257 34.5396 195.858 35.1403 195.858 35.8676V51.3299C195.858 52.0572 195.257 52.658 194.53 52.658Z" fill="#F2F2F3"/>
<path d="M228.917 52.658H200.885C200.158 52.658 199.557 52.0572 199.557 51.3299V35.8676C199.557 35.1403 200.158 34.5396 200.885 34.5396H228.917C229.644 34.5396 230.245 35.1403 230.245 35.8676V51.3299C230.245 52.0572 229.644 52.658 228.917 52.658Z" fill="#F2F2F3"/>
<path d="M159.1 75.0452H131.084C130.357 75.0452 129.756 74.4444 129.756 73.7171V58.2548C129.756 57.5275 130.357 56.9268 131.084 56.9268H159.115C159.843 56.9268 160.443 57.5275 160.443 58.2548V73.7171C160.443 74.4444 159.843 75.0452 159.115 75.0452" fill="#F2F2F3"/>
<path d="M194.53 75.0452H166.498C165.771 75.0452 165.17 74.4444 165.17 73.7171V58.2548C165.17 57.5275 165.771 56.9268 166.498 56.9268H194.53C195.257 56.9268 195.858 57.5275 195.858 58.2548V73.7171C195.858 74.4444 195.257 75.0452 194.53 75.0452Z" fill="#F2F2F3"/>
<path d="M228.917 75.0452H200.885C200.158 75.0452 199.557 74.4444 199.557 73.7171V58.2548C199.557 57.5275 200.158 56.9268 200.885 56.9268H228.917C229.644 56.9268 230.245 57.5275 230.245 58.2548V73.7171C230.245 74.4444 229.644 75.0452 228.917 75.0452Z" fill="#F2F2F3"/>
<path d="M159.1 97.4168H131.084C130.357 97.4168 129.756 96.816 129.756 96.0887V80.6264C129.756 79.8991 130.357 79.2983 131.084 79.2983H159.115C159.843 79.2983 160.443 79.8991 160.443 80.6264V96.0887C160.443 96.816 159.843 97.4168 159.115 97.4168" fill="#F2F2F3"/>
<path d="M194.53 97.4168H166.498C165.771 97.4168 165.17 96.816 165.17 96.0887V80.6264C165.17 79.8991 165.771 79.2983 166.498 79.2983H194.53C195.257 79.2983 195.858 79.8991 195.858 80.6264V96.0887C195.858 96.816 195.257 97.4168 194.53 97.4168Z" fill="#F2F2F3"/>
<path d="M228.917 97.4168H200.885C200.158 97.4168 199.557 96.816 199.557 96.0887V80.6264C199.557 79.8991 200.158 79.2983 200.885 79.2983H228.917C229.644 79.2983 230.245 79.8991 230.245 80.6264V96.0887C230.245 96.816 229.644 97.4168 228.917 97.4168Z" fill="#F2F2F3"/>
<path d="M181.582 74.0647C179.937 74.0647 178.609 72.7366 178.609 71.0924V64.547C178.609 64.0252 179.036 63.5984 179.558 63.5825H184.775V58.9818H183.922C180.159 58.9818 178.609 61.3533 178.609 61.3533V54.0965C178.609 54.0174 178.499 53.97 178.451 54.0332L169.076 63.4403C169.076 63.4403 169.06 63.5984 169.139 63.5984H173.471V71.5825C173.471 75.3927 176.08 78.6654 180.412 78.6654H184.775V74.0805H181.598L181.582 74.0647Z" fill="white"/>
<path d="M192.317 54.8713C191.811 54.3179 191.084 54.0017 190.325 54.0017C189.471 54.0017 188.696 54.397 188.175 55.061C187.922 55.393 187.748 55.7566 187.669 56.1835C187.605 56.5471 187.621 57.0531 187.621 57.4167V60.974C188.839 60.974 190.167 60.7526 191.242 60.0728C191.779 59.725 192.222 59.2981 192.538 58.7289C192.839 58.1914 193.013 57.5432 193.013 56.9266C193.013 56.5471 192.981 56.1835 192.87 55.8199C192.76 55.4721 192.554 55.14 192.301 54.8713H192.317Z" fill="white"/>
<path d="M191.147 47.0769H169.692C164.949 47.0769 161.107 50.9188 161.107 55.6618V77.1162C161.107 81.8592 164.949 85.7011 169.692 85.7011H191.147C195.89 85.7011 199.732 81.8592 199.732 77.1162V55.6618C199.732 50.9188 195.89 47.0769 191.147 47.0769ZM180.396 78.6498C176.064 78.6498 173.455 75.3771 173.455 71.5668V63.5827H169.123C169.044 63.5827 168.997 63.472 169.06 63.4246L178.435 54.0176C178.435 54.0176 178.593 54.0018 178.593 54.0808V61.3377C178.593 61.3377 180.143 58.9661 183.906 58.9661H184.759V63.5511H179.542C179.02 63.5511 178.593 63.978 178.593 64.5155V71.0609C178.593 72.7052 179.937 74.0332 181.581 74.0332H184.759V78.6182H180.396V78.6498ZM192.538 58.7448C192.222 59.314 191.779 59.7408 191.241 60.0887C190.166 60.7527 188.838 60.9898 187.621 60.9898V57.4326C187.621 57.0689 187.621 56.563 187.668 56.1994C187.732 55.7725 187.906 55.4089 188.174 55.0768C188.696 54.4128 189.471 54.0176 190.324 54.0176C191.083 54.0176 191.795 54.3338 192.317 54.8871C192.57 55.1559 192.759 55.4879 192.886 55.8357C193.012 56.1994 193.028 56.563 193.028 56.9424C193.028 57.559 192.854 58.2073 192.554 58.7448H192.538Z" fill="#246FF4"/>
<path d="M169.439 58.3499H159.194C157.581 58.3499 156.269 57.0376 156.269 55.425V45.18C156.269 43.5674 157.581 42.2551 159.194 42.2551H169.439C171.051 42.2551 172.364 43.5674 172.364 45.18V55.425C172.364 57.0376 171.051 58.3499 169.439 58.3499Z" fill="white"/>
<path d="M169.439 42.2551H159.194C157.578 42.2551 156.269 43.5646 156.269 45.18V55.425C156.269 57.0404 157.578 58.3499 159.194 58.3499H169.439C171.054 58.3499 172.364 57.0404 172.364 55.425V45.18C172.364 43.5646 171.054 42.2551 169.439 42.2551Z" stroke="#231916" stroke-width="1.26481" stroke-miterlimit="10"/>
<path d="M168.332 46.429H160.301V47.9783H168.332V46.429Z" fill="#231916"/>
<path d="M168.332 49.5276H160.301V51.077H168.332V49.5276Z" fill="#231916"/>
<path d="M168.332 52.6106H160.301V54.16H168.332V52.6106Z" fill="#231916"/>
</svg>
