<svg width="360" height="167" viewBox="0 0 360 167" fill="none" xmlns="http://www.w3.org/2000/svg">
<rect width="360" height="166.673" transform="translate(0 0.0805664)" fill="white"/>
<rect width="360" height="166.673" transform="translate(0 0.0805664)" fill="#246FF4" fill-opacity="0.2"/>
<g clip-path="url(#clip0_811_12849)">
<path d="M224.352 146.121C224.352 146.121 225.585 142.677 223.151 141.16C219.375 138.79 218.854 134.255 218.854 134.255L215.425 104.392H144.575L141.147 134.255C141.147 134.255 140.625 138.79 136.849 141.16C134.416 142.693 135.648 146.121 135.648 146.121H224.352Z" fill="#D9DBDC"/>
<path d="M224.352 146.121C224.352 146.121 225.585 142.677 223.151 141.16C219.375 138.79 218.854 134.255 218.854 134.255L215.425 104.392H144.575L141.147 134.255C141.147 134.255 140.625 138.79 136.849 141.16C134.416 142.693 135.648 146.121 135.648 146.121H224.352Z" stroke="#231F20" stroke-width="1.26404" stroke-linecap="round" stroke-linejoin="round"/>
<path d="M221.113 142.708H138.887" stroke="#231F20" stroke-width="0.474015" stroke-miterlimit="10"/>
<path d="M237.53 119.497H122.47C117.793 119.497 113.985 115.705 113.985 111.012V29.1973C113.985 24.5045 117.778 20.7124 122.47 20.7124H237.53C242.207 20.7124 246.015 24.5045 246.015 29.1973V111.028C246.015 115.705 242.222 119.513 237.53 119.513" fill="#F2F3F3"/>
<path d="M237.53 20.7124H122.47C117.784 20.7124 113.985 24.5112 113.985 29.1973V111.012C113.985 115.698 117.784 119.497 122.47 119.497H237.53C242.216 119.497 246.015 115.698 246.015 111.012V29.1973C246.015 24.5112 242.216 20.7124 237.53 20.7124Z" stroke="#231F20" stroke-width="1.26404" stroke-linecap="round" stroke-linejoin="round"/>
<path d="M175.102 108.8C174.707 108.627 174.249 108.532 173.711 108.532H171.025V114.41H172.684V112.877H173.696C174.233 112.877 174.707 112.782 175.086 112.608C175.481 112.434 175.781 112.182 175.987 111.866C176.192 111.55 176.303 111.155 176.303 110.696C176.303 110.238 176.192 109.875 175.987 109.543C175.781 109.211 175.481 108.958 175.086 108.785M174.375 111.344C174.201 111.502 173.948 111.565 173.601 111.565H172.684V109.859H173.601C173.948 109.859 174.217 109.938 174.375 110.096C174.549 110.254 174.644 110.459 174.644 110.728C174.644 110.997 174.549 111.218 174.375 111.36M189.48 111.866C189.354 111.66 189.196 111.486 188.991 111.376C188.785 111.249 188.58 111.155 188.343 111.076C188.106 110.997 187.869 110.933 187.632 110.886C187.395 110.839 187.174 110.791 186.984 110.744C186.794 110.696 186.636 110.633 186.51 110.554C186.383 110.475 186.32 110.38 186.32 110.238C186.32 110.143 186.352 110.064 186.415 109.985C186.478 109.906 186.573 109.843 186.715 109.796C186.858 109.748 187.031 109.717 187.268 109.717C187.521 109.717 187.79 109.748 188.058 109.827C188.327 109.906 188.611 110.017 188.896 110.175L189.401 108.943C189.117 108.769 188.785 108.642 188.422 108.548C188.043 108.469 187.663 108.421 187.284 108.421C186.715 108.421 186.225 108.516 185.83 108.69C185.451 108.864 185.151 109.101 184.961 109.385C184.772 109.669 184.677 109.985 184.677 110.333C184.677 110.649 184.74 110.902 184.851 111.107C184.977 111.313 185.135 111.486 185.325 111.613C185.514 111.739 185.736 111.85 185.988 111.929C186.225 112.008 186.462 112.071 186.699 112.118C186.937 112.166 187.142 112.213 187.347 112.276C187.553 112.34 187.711 112.403 187.837 112.466C187.964 112.545 188.027 112.64 188.027 112.782C188.027 112.877 187.995 112.972 187.932 113.035C187.869 113.114 187.774 113.161 187.632 113.209C187.49 113.24 187.316 113.272 187.079 113.272C186.731 113.272 186.399 113.225 186.052 113.114C185.704 113.003 185.404 112.861 185.135 112.703L184.582 113.936C184.851 114.125 185.214 114.267 185.657 114.394C186.099 114.52 186.573 114.568 187.063 114.568C187.648 114.568 188.137 114.489 188.517 114.299C188.912 114.125 189.196 113.888 189.386 113.604C189.575 113.319 189.67 113.003 189.67 112.656C189.67 112.34 189.607 112.087 189.48 111.881M182.844 109.29C182.56 109.022 182.212 108.8 181.817 108.658C181.422 108.5 180.98 108.437 180.521 108.437C180.063 108.437 179.621 108.516 179.21 108.658C178.815 108.816 178.467 109.022 178.183 109.306C177.899 109.59 177.662 109.906 177.504 110.27C177.346 110.633 177.251 111.044 177.251 111.486C177.251 111.929 177.33 112.34 177.504 112.703C177.677 113.082 177.899 113.398 178.183 113.683C178.467 113.951 178.815 114.173 179.226 114.331C179.621 114.489 180.063 114.552 180.521 114.552C180.98 114.552 181.422 114.473 181.817 114.331C182.212 114.173 182.56 113.967 182.86 113.699C183.16 113.43 183.381 113.098 183.539 112.735C183.697 112.355 183.776 111.945 183.776 111.502C183.776 111.06 183.697 110.649 183.524 110.286C183.366 109.922 183.129 109.59 182.844 109.322M181.975 112.166C181.896 112.371 181.786 112.545 181.643 112.703C181.501 112.845 181.327 112.972 181.138 113.051C180.948 113.13 180.743 113.161 180.506 113.161C180.269 113.161 180.079 113.13 179.874 113.051C179.684 112.972 179.51 112.861 179.368 112.703C179.226 112.561 179.115 112.371 179.036 112.166C178.957 111.96 178.91 111.723 178.91 111.471C178.91 111.218 178.957 110.981 179.036 110.775C179.115 110.57 179.226 110.396 179.368 110.254C179.51 110.112 179.684 109.985 179.874 109.922C180.063 109.843 180.269 109.796 180.506 109.796C180.743 109.796 180.932 109.827 181.138 109.922C181.327 110.001 181.501 110.112 181.643 110.254C181.786 110.396 181.896 110.586 181.975 110.775C182.054 110.981 182.102 111.218 182.102 111.471C182.102 111.723 182.054 111.96 181.975 112.166Z" fill="#58595B"/>
<path d="M235.855 104.392H124.13C122.455 104.392 121.096 103.033 121.096 101.358V30.7774C121.096 29.1025 122.455 27.7437 124.13 27.7437H235.855C237.53 27.7437 238.889 29.1025 238.889 30.7774V101.342C238.889 103.017 237.53 104.376 235.855 104.376" fill="white"/>
<path d="M235.871 27.7437H124.13C122.454 27.7437 121.096 29.1019 121.096 30.7774V101.358C121.096 103.034 122.454 104.392 124.13 104.392H235.871C237.546 104.392 238.904 103.034 238.904 101.358V30.7774C238.904 29.1019 237.546 27.7437 235.871 27.7437Z" stroke="#231F20" stroke-width="0.790026" stroke-linecap="round" stroke-linejoin="round"/>
<path d="M172.827 57.0063H131.113C130.386 57.0063 129.786 56.4059 129.786 55.6791V35.9601C129.786 35.2332 130.386 34.6328 131.113 34.6328H172.842C173.569 34.6328 174.17 35.2332 174.17 35.9601V55.6791C174.17 56.4059 173.569 57.0063 172.842 57.0063" fill="#EAEBEC"/>
<path d="M228.887 80.3437H179.747C179.02 80.3437 178.42 79.7433 178.42 79.0165V35.9601C178.42 35.2332 179.02 34.6328 179.747 34.6328H228.887C229.614 34.6328 230.214 35.2332 230.214 35.9601V79.0165C230.214 79.7433 229.614 80.3437 228.887 80.3437Z" fill="#EAEBEC"/>
<path d="M228.887 97.5029H179.747C179.02 97.5029 178.42 96.9025 178.42 96.1757V85.9527C178.42 85.2259 179.02 84.6255 179.747 84.6255H228.887C229.614 84.6255 230.214 85.2259 230.214 85.9527V96.1757C230.214 96.9025 229.614 97.5029 228.887 97.5029Z" fill="#C8CACB"/>
<path d="M158.527 97.503H131.113C130.386 97.503 129.786 96.9026 129.786 96.1758V62.5997C129.786 61.8729 130.386 61.2725 131.113 61.2725H158.527C159.254 61.2725 159.854 61.8729 159.854 62.5997V96.1758C159.854 96.9026 159.254 97.503 158.527 97.503Z" fill="#C8CACB"/>
<path d="M172.827 97.503H165.432C164.705 97.503 164.105 96.9026 164.105 96.1758V62.5997C164.105 61.8729 164.705 61.2725 165.432 61.2725H172.827C173.553 61.2725 174.154 61.8729 174.154 62.5997V96.1758C174.154 96.9026 173.553 97.503 172.827 97.503Z" fill="#EAEBEC"/>
<path d="M178.42 68.9199H230.214" stroke="#C8CACB" stroke-width="0.790026" stroke-miterlimit="10"/>
<path d="M178.42 57.4961H230.214" stroke="#C8CACB" stroke-width="0.790026" stroke-miterlimit="10"/>
<path d="M178.42 46.0564H230.214" stroke="#C8CACB" stroke-width="0.790026" stroke-miterlimit="10"/>
<path d="M204.317 34.6328V80.3437" stroke="#C8CACB" stroke-width="0.790026" stroke-miterlimit="10"/>
<path d="M191.376 34.6328V80.3437" stroke="#C8CACB" stroke-width="0.790026" stroke-miterlimit="10"/>
<path d="M175.292 70.2312V60.6719L172.748 61.8254V59.6923L175.639 58.3809H177.677V70.2312H175.292Z" fill="#231F20"/>
<path d="M191.645 64.8273C191.645 63.8635 191.234 63.3895 190.476 63.3895C189.496 63.3895 188.896 64.1479 188.896 65.4752V70.2311H186.573V64.8273C186.573 63.8635 186.162 63.3895 185.404 63.3895C184.44 63.3895 183.824 64.1479 183.824 65.4752V70.2311H181.485V61.762H183.824V63.1841C184.124 62.1887 184.914 61.5566 186.13 61.5566C187.347 61.5566 188.248 62.1413 188.627 63.1999C189.117 62.0939 190.017 61.5566 191.202 61.5566C192.956 61.5566 193.952 62.7259 193.952 64.8906V70.2311H191.629V64.8273H191.645Z" fill="#231F20"/>
<path d="M195.974 58.3809H198.313V60.4191H195.974V58.3809ZM195.974 61.7622H198.313V70.2312H195.974V61.7622Z" fill="#231F20"/>
<path d="M207.84 70.2313H205.502V64.9065C205.502 63.8637 205.075 63.3581 204.301 63.3581C203.306 63.3581 202.674 64.1165 202.674 65.4437V70.2155H200.319V61.7464H202.674V63.1527C202.974 62.173 203.827 61.541 205.044 61.541C206.845 61.541 207.84 62.6787 207.84 64.8591V70.2155V70.2313Z" fill="#231F20"/>
<path d="M159.728 71.8588C159.285 71.8588 158.954 71.4954 158.938 71.0214C158.938 70.8318 158.938 70.6264 158.938 70.4368V69.9311C158.938 69.7415 158.938 69.5519 158.938 69.3623C158.938 68.8725 159.27 68.5249 159.728 68.5249C160.202 68.5249 160.534 68.8725 160.534 69.3781C160.534 69.9153 160.534 70.4684 160.534 71.0056C160.534 71.4954 160.202 71.8588 159.744 71.8588H159.728Z" fill="#231F20"/>
<path d="M159.744 68.7303C160.091 68.7303 160.328 68.9831 160.328 69.3781C160.328 69.9154 160.328 70.4526 160.328 71.0056C160.328 71.3848 160.075 71.6534 159.744 71.6534C159.412 71.6534 159.175 71.3848 159.159 71.0214C159.159 70.737 159.159 70.4684 159.159 70.184C159.159 69.8996 159.159 69.6468 159.159 69.3781C159.159 68.9989 159.396 68.7461 159.744 68.7461V68.7303ZM159.744 68.3037C159.175 68.3037 158.764 68.7303 158.748 69.3465C158.748 69.5362 158.748 69.7258 158.748 69.9154V70.1682V70.421C158.748 70.6264 158.748 70.816 158.748 71.0214C158.748 71.6218 159.191 72.0642 159.744 72.0642C160.328 72.0642 160.755 71.606 160.771 70.9898C160.771 70.4526 160.771 69.8996 160.771 69.3623C160.771 68.7303 160.344 68.3037 159.759 68.3037" fill="#231F20"/>
<path d="M152.792 64.859C152.302 64.859 151.954 64.5114 151.954 64.069C151.954 63.8636 152.033 63.6582 152.175 63.516C152.333 63.358 152.57 63.2632 152.823 63.2632H154.451C154.704 63.2632 154.909 63.3422 155.067 63.4844C155.225 63.6266 155.304 63.832 155.304 64.069C155.304 64.5272 154.972 64.8432 154.467 64.859H154.135H152.807H152.792Z" fill="#231F20"/>
<path d="M153.613 63.4686C153.882 63.4686 154.15 63.4686 154.419 63.4686C154.814 63.4686 155.067 63.7056 155.067 64.0532C155.067 64.4008 154.814 64.622 154.435 64.6378C154.324 64.6378 154.213 64.6378 154.119 64.6378C153.945 64.6378 153.787 64.6378 153.613 64.6378C153.439 64.6378 153.281 64.6378 153.107 64.6378C152.997 64.6378 152.902 64.6378 152.791 64.6378C152.412 64.6378 152.159 64.385 152.159 64.0532C152.159 63.7214 152.428 63.4686 152.807 63.4528C153.076 63.4528 153.344 63.4528 153.629 63.4528M153.613 63.042H152.791C152.475 63.042 152.207 63.1684 152.001 63.358C151.827 63.5476 151.717 63.8004 151.733 64.069C151.733 64.6378 152.175 65.0487 152.776 65.0645H153.092H153.344H154.103H154.435C155.051 65.0645 155.477 64.6378 155.477 64.069C155.477 63.4686 155.051 63.0578 154.419 63.0578H153.613V63.042Z" fill="#231F20"/>
<path d="M165.037 64.859C164.784 64.859 164.563 64.7642 164.405 64.6062C164.262 64.464 164.183 64.2586 164.183 64.0374C164.183 63.595 164.547 63.2632 165.037 63.2632H166.696C167.186 63.2632 167.533 63.6108 167.533 64.069C167.533 64.5272 167.186 64.859 166.696 64.859H165.89H165.037Z" fill="#231F20"/>
<path d="M166.38 63.4686C166.491 63.4686 166.601 63.4686 166.696 63.4686C167.059 63.4686 167.328 63.7214 167.328 64.0532C167.328 64.385 167.075 64.6378 166.696 64.6378C166.427 64.6378 166.143 64.6378 165.874 64.6378C165.606 64.6378 165.321 64.6378 165.053 64.6378C164.658 64.6378 164.421 64.385 164.421 64.0374C164.421 63.7056 164.674 63.4686 165.053 63.4686C165.163 63.4686 165.258 63.4686 165.369 63.4686C165.543 63.4686 165.701 63.4686 165.874 63.4686C166.048 63.4686 166.206 63.4686 166.38 63.4686ZM166.38 63.042H166.127H165.874H165.369H165.053C164.437 63.042 164.01 63.4528 163.994 64.0216C163.994 64.2902 164.089 64.5588 164.263 64.7484C164.452 64.9539 164.737 65.0645 165.037 65.0645C165.306 65.0645 165.59 65.0645 165.874 65.0645C166.159 65.0645 166.427 65.0645 166.696 65.0645C167.296 65.0645 167.739 64.6378 167.739 64.0532C167.739 63.4844 167.296 63.0578 166.696 63.042H166.364H166.38Z" fill="#231F20"/>
<path d="M159.744 59.5976C159.285 59.5976 158.954 59.25 158.938 58.776C158.938 58.2071 158.938 57.6383 158.938 57.0695C158.938 56.6113 159.285 56.2637 159.728 56.2637C160.186 56.2637 160.518 56.6113 160.534 57.1011C160.534 57.2907 160.534 58.5863 160.534 58.776C160.534 59.25 160.202 59.5976 159.759 59.5976H159.744Z" fill="#231F20"/>
<path d="M159.744 56.485C160.075 56.485 160.312 56.7378 160.328 57.117C160.328 57.4014 160.328 57.67 160.328 57.9544C160.328 58.2388 160.328 58.5074 160.328 58.7918C160.328 59.1552 160.091 59.3923 159.759 59.4081C159.428 59.4081 159.175 59.1711 159.175 58.7918C159.175 58.223 159.175 57.6542 159.175 57.1012C159.175 56.7536 159.428 56.5008 159.759 56.5008L159.744 56.485ZM159.744 56.0583C159.175 56.0583 158.748 56.5008 158.732 57.0854C158.732 57.6542 158.732 58.223 158.732 58.7918C158.732 59.3923 159.175 59.8189 159.744 59.8189C160.328 59.8189 160.739 59.3765 160.755 58.7918C160.755 58.6022 160.755 58.3968 160.755 58.2072V57.9544V57.7016C160.755 57.4962 160.755 57.3066 160.755 57.1012C160.755 56.5008 160.312 56.0583 159.744 56.0583Z" fill="#231F20"/>
<path d="M154.862 69.8049C154.482 69.8049 154.229 69.6627 154.087 69.3782C153.929 69.0622 153.961 68.7462 154.182 68.5092C154.624 68.051 155.067 67.5928 155.525 67.1662C155.652 67.0398 155.825 66.9766 156.015 66.9766C156.22 66.9766 156.426 67.0556 156.584 67.1978C156.884 67.498 156.916 67.972 156.647 68.2564C156.205 68.7304 155.746 69.1728 155.288 69.6152C155.193 69.7101 155.067 69.7417 154.988 69.7733L154.877 69.8049H154.862Z" fill="#231F20"/>
<path d="M156.015 67.182C156.157 67.182 156.315 67.2452 156.426 67.3558C156.631 67.5612 156.679 67.9088 156.489 68.1142C156.046 68.5882 155.588 69.0306 155.13 69.4731C155.051 69.5521 154.909 69.5679 154.861 69.5837C154.561 69.5837 154.387 69.4731 154.277 69.2835C154.166 69.0622 154.166 68.841 154.34 68.6672C154.782 68.209 155.225 67.7666 155.683 67.3242C155.778 67.2294 155.904 67.182 156.031 67.182M156.015 66.7554C155.778 66.7554 155.541 66.8502 155.383 67.0082C154.925 67.4506 154.466 67.893 154.024 68.367C153.74 68.6672 153.692 69.0938 153.898 69.4731C154.087 69.8365 154.403 70.0103 154.861 70.0103H154.94L155.019 69.9787C155.114 69.9471 155.288 69.8997 155.414 69.7733C155.873 69.3309 156.347 68.8726 156.789 68.3986C157.137 68.0194 157.105 67.419 156.71 67.0398C156.52 66.8502 156.268 66.7554 155.999 66.7554" fill="#231F20"/>
<path d="M155.904 61.1617L155.999 60.9721L155.778 61.0985C155.667 61.0511 155.541 60.9879 155.446 60.8931C155.035 60.4981 154.64 60.1031 154.245 59.6923C153.913 59.3605 153.913 58.8864 154.229 58.5546C154.387 58.3966 154.577 58.3176 154.782 58.3176C154.988 58.3176 155.193 58.3966 155.367 58.5546C155.731 58.9022 156.094 59.2657 156.442 59.6291L156.584 59.7713C156.837 60.0241 156.884 60.3401 156.758 60.6561C156.631 60.9405 156.41 61.0985 156.047 61.1617H155.968L155.904 61.1301V61.1617Z" fill="#231F20"/>
<path d="M154.782 58.5231C154.925 58.5231 155.083 58.5863 155.209 58.7127C155.62 59.1077 156.015 59.5186 156.426 59.9294C156.615 60.119 156.663 60.3402 156.552 60.5772C156.457 60.7984 156.268 60.909 155.999 60.9564C155.857 60.8774 155.699 60.83 155.588 60.7194C155.177 60.3244 154.782 59.9294 154.387 59.5185C154.134 59.2657 154.134 58.9181 154.371 58.6811C154.482 58.5705 154.624 58.5073 154.782 58.5073M154.782 58.1123C154.514 58.1123 154.261 58.2229 154.071 58.4125C153.676 58.8075 153.676 59.4237 154.071 59.8346C154.466 60.2454 154.877 60.6562 155.288 61.0512C155.414 61.1776 155.557 61.2408 155.667 61.2882L155.778 61.3514L155.904 61.4304L156.046 61.3988C156.473 61.3198 156.757 61.1144 156.9 60.7668C157.073 60.3718 156.994 59.961 156.694 59.645C156.252 59.2025 155.873 58.8075 155.478 58.4283C155.272 58.2387 155.019 58.1281 154.751 58.1281" fill="#231F20"/>
<path d="M164.5 69.7732L164.594 69.5836L164.436 69.7416C164.342 69.71 164.215 69.6468 164.12 69.552C163.71 69.157 163.299 68.7462 162.888 68.3353C162.572 68.0035 162.556 67.5137 162.888 67.1977C163.046 67.0555 163.236 66.9607 163.441 66.9607C163.646 66.9607 163.852 67.0397 163.994 67.1977C164.421 67.6085 164.831 68.0351 165.242 68.4459C165.479 68.683 165.527 68.999 165.384 69.315C165.258 69.6152 164.989 69.7732 164.594 69.7732H164.531L164.484 69.7416L164.5 69.7732Z" fill="#231F20"/>
<path d="M163.441 67.1818C163.583 67.1818 163.725 67.245 163.852 67.3556C164.278 67.7664 164.689 68.1772 165.1 68.6039C165.274 68.7935 165.305 69.0147 165.195 69.2359C165.1 69.4571 164.91 69.5677 164.579 69.5677C164.515 69.5361 164.357 69.4887 164.247 69.3781C163.836 68.9831 163.425 68.5723 163.03 68.1614C162.777 67.9086 162.793 67.561 163.03 67.324C163.141 67.2134 163.283 67.1502 163.441 67.1502M163.441 66.771C163.172 66.771 162.935 66.8816 162.746 67.0712C162.351 67.4662 162.351 68.0982 162.746 68.5091C163.157 68.9199 163.552 69.3307 163.978 69.7257C164.105 69.8521 164.263 69.9153 164.357 69.9627L164.436 69.9943L164.594 70.0259C165.084 70.0259 165.416 69.8205 165.574 69.4413C165.748 69.0463 165.685 68.6355 165.384 68.3352C164.974 67.9086 164.547 67.482 164.12 67.0712C163.931 66.8816 163.678 66.771 163.409 66.771" fill="#231F20"/>
<path d="M163.441 61.1459C163.235 61.1459 163.03 61.0669 162.888 60.9089C162.572 60.5929 162.588 60.1189 162.919 59.7713C163.314 59.3605 163.725 58.9496 164.136 58.5546C164.294 58.3966 164.484 58.3176 164.673 58.3176C164.784 58.3176 164.91 58.3492 165.021 58.3966C165.29 58.523 165.463 58.76 165.511 59.1077V59.1709L165.416 59.3605C165.369 59.4711 165.305 59.5817 165.211 59.6923C164.816 60.1031 164.421 60.4981 164.025 60.8773C163.852 61.0511 163.646 61.1301 163.425 61.1301" fill="#231F20"/>
<path d="M164.674 58.5231C164.753 58.5231 164.847 58.5389 164.942 58.5863C165.163 58.6811 165.274 58.8707 165.321 59.1393C165.242 59.2815 165.179 59.4395 165.084 59.5502C164.705 59.961 164.31 60.3402 163.899 60.7352C163.773 60.8616 163.599 60.9248 163.457 60.9248C163.315 60.9248 163.173 60.8616 163.046 60.751C162.825 60.514 162.825 60.1664 163.062 59.9136C163.457 59.5027 163.868 59.1077 164.279 58.6969C164.389 58.5863 164.531 58.5231 164.674 58.5231ZM164.674 58.1123C164.421 58.1123 164.184 58.2229 163.978 58.4125C163.568 58.8233 163.157 59.2183 162.762 59.6292C162.351 60.04 162.351 60.6562 162.746 61.0512C162.936 61.2408 163.188 61.3514 163.457 61.3514C163.726 61.3514 163.994 61.2408 164.2 61.0354C164.61 60.6404 165.005 60.2454 165.385 59.8346C165.495 59.7082 165.574 59.566 165.622 59.4553L165.685 59.3447L165.764 59.2183V59.0761C165.669 58.6495 165.464 58.3651 165.116 58.2071C164.974 58.1439 164.832 58.1123 164.674 58.1123Z" fill="#231F20"/>
</g>
<defs>
<clipPath id="clip0_811_12849">
<rect width="133.293" height="126.673" fill="white" transform="translate(113.353 20.0806)"/>
</clipPath>
</defs>
</svg>
