<svg width="360" height="316" viewBox="0 0 360 316" fill="none" xmlns="http://www.w3.org/2000/svg">
<rect width="360" height="314.656" transform="translate(0 0.753174)" fill="white"/>
<rect width="360" height="314.656" transform="translate(0 0.753174)" fill="#246FF4" fill-opacity="0.2"/>
<g clip-path="url(#clip0_811_12892)">
<path d="M236.463 117.547H123.537C118.56 117.547 114.531 113.518 114.531 108.541V30.4863C114.531 25.5091 118.56 21.48 123.537 21.48H236.463C241.44 21.48 245.47 25.5091 245.47 30.4863V108.541C245.47 113.518 241.44 117.547 236.463 117.547Z" fill="white"/>
<path d="M123.537 21.48H236.463C241.425 21.48 245.47 25.5091 245.47 30.4863V108.541C245.47 113.502 241.44 117.547 236.463 117.547H123.537C118.576 117.547 114.531 113.518 114.531 108.541V30.4863C114.531 25.5091 118.56 21.48 123.537 21.48Z" stroke="#231F20" stroke-width="1.26404" stroke-miterlimit="10"/>
<path d="M197.483 52.7493C197.483 52.4807 197.12 52.0857 196.835 51.9593C191.463 49.684 186.075 47.4561 180.687 45.2283C180.34 45.086 179.834 45.0544 179.486 45.1967C174.051 47.4245 168.647 49.684 163.212 51.9277C162.659 52.1489 162.469 52.4649 162.485 53.0495C162.532 54.519 162.485 55.9884 162.485 57.4579C162.485 57.9635 162.485 58.4691 162.485 58.9589C162.833 71.0621 168.331 79.9578 179.044 85.6144C179.66 85.9304 180.182 86.0094 180.845 85.6776C188.983 81.5694 194.26 75.1386 196.63 66.3219C197.831 61.8504 197.436 57.284 197.467 52.7493" fill="#BBBDBF"/>
<path d="M197.483 52.7493C197.483 52.4807 197.12 52.0857 196.835 51.9593C191.463 49.684 186.075 47.4561 180.687 45.2283C180.34 45.086 179.834 45.0544 179.486 45.1967C174.051 47.4245 168.647 49.684 163.212 51.9277C162.659 52.1489 162.469 52.4649 162.485 53.0495C162.532 54.519 162.485 55.9884 162.485 57.4579C162.485 57.9635 162.485 58.4691 162.485 58.9589C162.833 71.0621 168.331 79.9578 179.044 85.6144C179.66 85.9304 180.182 86.0094 180.845 85.6776C188.983 81.5694 194.26 75.1386 196.63 66.3219C197.831 61.8504 197.436 57.284 197.467 52.7493H197.483Z" stroke="#231F20" stroke-width="1.45365" stroke-miterlimit="10"/>
<path d="M191.605 57.0312C191.605 56.8574 191.368 56.5888 191.179 56.5098C187.608 55.0087 184.037 53.5077 180.45 52.0382C180.213 51.9434 179.881 51.9276 179.66 52.0224C176.058 53.4919 172.455 55.0087 168.853 56.494C168.489 56.652 168.363 56.8416 168.363 57.2366C168.395 58.2162 168.363 59.1959 168.363 60.1597C168.363 60.4915 168.363 60.8233 168.363 61.1551C168.584 69.1976 172.25 75.0912 179.36 78.8517C179.755 79.0729 180.119 79.1203 180.561 78.8991C185.965 76.1656 189.457 71.8995 191.037 66.0533C191.842 63.0828 191.574 60.0491 191.605 57.0312Z" fill="white"/>
<path d="M191.605 57.0312C191.605 56.8574 191.368 56.5888 191.179 56.5098C187.608 55.0087 184.037 53.5077 180.45 52.0382C180.213 51.9434 179.881 51.9276 179.66 52.0224C176.058 53.4919 172.455 55.0087 168.853 56.494C168.489 56.652 168.363 56.8416 168.363 57.2366C168.395 58.2162 168.363 59.1959 168.363 60.1597C168.363 60.4915 168.363 60.8233 168.363 61.1551C168.584 69.1976 172.25 75.0912 179.36 78.8517C179.755 79.0729 180.119 79.1203 180.561 78.8991C185.965 76.1656 189.457 71.8995 191.037 66.0533C191.842 63.0828 191.574 60.0491 191.605 57.0312Z" stroke="#231F20" stroke-width="1.45365" stroke-miterlimit="10"/>
<path d="M175.947 64.2046L178.854 67.1751L185.807 60.2229" stroke="#231F20" stroke-width="1.45365" stroke-miterlimit="10"/>
<path d="M172.913 109.442H126.476C124.801 109.442 123.442 108.083 123.442 106.408V96.5484C123.442 94.8735 124.801 93.5146 126.476 93.5146H172.913C174.588 93.5146 175.947 94.8735 175.947 96.5484V106.408C175.947 108.083 174.588 109.442 172.913 109.442Z" fill="#DDDFE0"/>
<path d="M233.524 109.442H187.087C185.412 109.442 184.053 108.083 184.053 106.408V96.5484C184.053 94.8735 185.412 93.5146 187.087 93.5146H233.524C235.199 93.5146 236.558 94.8735 236.558 96.5484V106.408C236.558 108.083 235.199 109.442 233.524 109.442Z" fill="#DDDFE0"/>
<path d="M245.454 34.6576H114.531V30.4863C114.531 25.5091 118.56 21.48 123.537 21.48H236.463C241.44 21.48 245.47 25.5091 245.47 30.4863V34.6576H245.454Z" fill="#BBBDBF"/>
<path d="M245.454 34.6576H114.531V30.4863C114.531 25.5091 118.56 21.48 123.537 21.48H236.463C241.44 21.48 245.47 25.5091 245.47 30.4863V34.6576H245.454Z" stroke="#231F20" stroke-width="1.45365" stroke-miterlimit="10"/>
</g>
<path d="M149.188 137.164C149.885 137.164 150.497 137.27 151.023 137.484C151.555 137.692 151.966 137.989 152.258 138.375C152.549 138.76 152.698 139.21 152.703 139.726C152.698 140.236 152.549 140.687 152.258 141.078C151.966 141.463 151.555 141.763 151.023 141.976C150.497 142.184 149.885 142.289 149.188 142.289C148.49 142.289 147.875 142.184 147.344 141.976C146.812 141.763 146.401 141.463 146.109 141.078C145.818 140.687 145.672 140.236 145.672 139.726C145.672 139.21 145.818 138.76 146.109 138.375C146.401 137.989 146.812 137.692 147.344 137.484C147.875 137.27 148.49 137.164 149.188 137.164ZM149.188 138.101C148.729 138.101 148.32 138.169 147.961 138.304C147.607 138.44 147.331 138.63 147.133 138.875C146.94 139.119 146.844 139.403 146.844 139.726C146.844 140.044 146.943 140.328 147.141 140.578C147.339 140.822 147.615 141.013 147.969 141.148C148.323 141.283 148.729 141.351 149.188 141.351C149.651 141.351 150.06 141.283 150.414 141.148C150.768 141.013 151.044 140.822 151.242 140.578C151.44 140.328 151.542 140.044 151.547 139.726C151.542 139.403 151.44 139.119 151.242 138.875C151.044 138.625 150.768 138.434 150.414 138.304C150.06 138.169 149.651 138.101 149.188 138.101ZM155.938 147.117H154.719V136.554H155.938V147.117ZM144.578 143.351C146.396 143.351 148.036 143.325 149.5 143.273C150.969 143.216 152.365 143.091 153.688 142.898L153.781 143.804C152.672 143.997 151.417 144.14 150.016 144.234V146.632H148.797V144.296C147.708 144.343 146.365 144.367 144.766 144.367L144.578 143.351ZM156.344 150.148H146.562V146.148H147.781V149.117H156.344V150.148ZM169.289 144.07H164.993V147.664H170.789V148.695H158.071V147.664H163.789V144.07H159.696V137.695H169.149V138.695H160.93V143.07H169.289V144.07ZM184.282 145.554H178.485V150.445H177.282V145.554H171.563V144.523H184.282V145.554ZM177.891 137.117C178.86 137.117 179.714 137.242 180.454 137.492C181.193 137.736 181.766 138.091 182.173 138.554C182.579 139.018 182.782 139.559 182.782 140.179C182.782 140.783 182.579 141.315 182.173 141.773C181.766 142.226 181.193 142.578 180.454 142.828C179.714 143.072 178.86 143.195 177.891 143.195C176.923 143.195 176.068 143.072 175.329 142.828C174.589 142.578 174.016 142.226 173.61 141.773C173.204 141.315 173.001 140.783 173.001 140.179C173.001 139.559 173.204 139.018 173.61 138.554C174.016 138.091 174.589 137.736 175.329 137.492C176.068 137.242 176.923 137.117 177.891 137.117ZM177.891 138.117C177.173 138.117 176.537 138.203 175.985 138.375C175.438 138.541 175.014 138.781 174.712 139.093C174.409 139.406 174.261 139.768 174.266 140.179C174.261 140.585 174.409 140.942 174.712 141.25C175.014 141.557 175.438 141.794 175.985 141.96C176.537 142.127 177.173 142.21 177.891 142.21C178.605 142.21 179.238 142.127 179.79 141.96C180.342 141.794 180.769 141.557 181.071 141.25C181.378 140.942 181.532 140.585 181.532 140.179C181.532 139.768 181.378 139.406 181.071 139.093C180.769 138.781 180.342 138.541 179.79 138.375C179.238 138.203 178.605 138.117 177.891 138.117ZM193.72 140.289C193.715 141.111 193.881 141.929 194.22 142.742C194.559 143.549 195.017 144.268 195.595 144.898C196.173 145.528 196.803 145.997 197.486 146.304L196.736 147.273C195.944 146.882 195.225 146.302 194.579 145.531C193.939 144.755 193.454 143.875 193.126 142.89C192.803 143.937 192.319 144.875 191.673 145.703C191.027 146.526 190.298 147.143 189.486 147.554L188.704 146.523C189.387 146.205 190.017 145.723 190.595 145.078C191.173 144.427 191.634 143.682 191.978 142.843C192.322 142 192.496 141.148 192.501 140.289V137.757H193.72V140.289ZM200.236 150.476H199.001V136.554H200.236V150.476ZM206.994 139.132C206.994 139.742 207.134 140.328 207.416 140.89C207.702 141.447 208.103 141.942 208.619 142.375C209.134 142.807 209.733 143.143 210.416 143.382L209.791 144.335C209.004 144.054 208.317 143.643 207.728 143.101C207.14 142.554 206.697 141.921 206.4 141.203C206.103 141.984 205.65 142.671 205.041 143.265C204.431 143.854 203.718 144.299 202.9 144.601L202.244 143.648C202.931 143.403 203.543 143.052 204.08 142.593C204.616 142.135 205.033 141.606 205.33 141.007C205.632 140.408 205.785 139.783 205.791 139.132V138.539H202.619V137.539H210.119V138.539H206.994V139.132ZM213.15 140.226H215.244V141.273H213.15V144.929H211.931V136.554H213.15V140.226ZM213.15 150.445H211.931V146.664H204.056V145.664H213.15V150.445Z" fill="#333333"/>
<path d="M176.557 159.179L180 162.614L183.443 159.179L184.5 160.237L180 164.737L175.5 160.237L176.557 159.179Z" fill="black"/>
<path d="M178.078 180.299H176.844V176.69H173.75V175.674H176.844V173.112H178.078V180.299ZM178.078 184.315H170.312V185.831H178.594V186.815H169.109V183.377H176.859V181.987H169.078V181.002H178.078V184.315ZM171.297 174.877C171.292 175.476 171.435 176.052 171.727 176.604C172.018 177.156 172.427 177.643 172.953 178.065C173.479 178.487 174.078 178.81 174.75 179.034L174.094 179.987C173.323 179.711 172.643 179.31 172.055 178.784C171.466 178.258 171.018 177.646 170.711 176.948C170.419 177.734 169.971 178.422 169.367 179.01C168.763 179.594 168.047 180.034 167.219 180.331L166.547 179.346C167.24 179.117 167.852 178.781 168.383 178.338C168.919 177.89 169.336 177.37 169.633 176.776C169.935 176.177 170.089 175.544 170.094 174.877V173.565H171.297V174.877ZM191.586 181.393H190.352V177.752H187.555V176.737H190.352V173.112H191.586V181.393ZM186.977 181.831C187.94 181.831 188.771 181.932 189.469 182.135C190.167 182.338 190.701 182.633 191.071 183.018C191.446 183.403 191.633 183.867 191.633 184.409C191.633 184.95 191.446 185.414 191.071 185.799C190.701 186.19 190.167 186.487 189.469 186.69C188.771 186.893 187.94 186.997 186.977 187.002C186.013 186.997 185.183 186.893 184.485 186.69C183.787 186.487 183.25 186.19 182.875 185.799C182.506 185.414 182.321 184.95 182.321 184.409C182.321 183.867 182.506 183.403 182.875 183.018C183.25 182.633 183.787 182.338 184.485 182.135C185.183 181.932 186.013 181.831 186.977 181.831ZM186.977 182.784C186.274 182.784 185.662 182.849 185.141 182.979C184.62 183.109 184.222 183.297 183.946 183.542C183.67 183.786 183.534 184.075 183.539 184.409C183.534 184.737 183.67 185.023 183.946 185.268C184.222 185.508 184.62 185.693 185.141 185.823C185.662 185.953 186.274 186.018 186.977 186.018C187.68 186.018 188.289 185.953 188.805 185.823C189.326 185.693 189.724 185.508 190 185.268C190.276 185.023 190.414 184.737 190.414 184.409C190.414 184.075 190.276 183.786 190 183.542C189.724 183.297 189.326 183.109 188.805 182.979C188.289 182.849 187.68 182.784 186.977 182.784ZM184.899 175.659C184.899 176.258 185.042 176.838 185.328 177.401C185.615 177.958 186.016 178.456 186.532 178.893C187.052 179.325 187.649 179.659 188.321 179.893L187.68 180.877C186.904 180.596 186.222 180.18 185.633 179.627C185.05 179.075 184.61 178.437 184.313 177.713C184.011 178.526 183.55 179.245 182.93 179.87C182.315 180.489 181.597 180.956 180.774 181.268L180.133 180.284C180.815 180.034 181.425 179.674 181.961 179.206C182.498 178.732 182.914 178.187 183.211 177.573C183.513 176.958 183.664 176.325 183.664 175.674V175.159H180.524V174.127H188.008V175.159H184.899V175.659Z" fill="#333333"/>
<path d="M176.557 195.737L180 199.172L183.443 195.737L184.5 196.794L180 201.294L175.5 196.794L176.557 195.737Z" fill="black"/>
<path d="M171.938 223.56H170.766V209.669H171.938V223.56ZM169.125 222.841H167.969V215.685H165.625V214.685H167.969V210.013H169.125V222.841ZM164.141 213.638C164.141 214.445 164.258 215.235 164.492 216.005C164.727 216.771 165.07 217.464 165.523 218.083C165.977 218.698 166.516 219.185 167.141 219.544L166.391 220.451C165.719 220.05 165.143 219.495 164.664 218.787C164.185 218.073 163.82 217.266 163.57 216.365C163.315 217.339 162.938 218.211 162.438 218.982C161.943 219.753 161.354 220.352 160.672 220.779L159.891 219.857C160.521 219.482 161.068 218.969 161.531 218.318C161.995 217.667 162.346 216.938 162.586 216.13C162.831 215.318 162.953 214.487 162.953 213.638V212.326H160.281V211.31H166.688V212.326H164.141V213.638ZM177.305 210.748C177.93 210.753 178.49 210.927 178.985 211.271C179.485 211.615 179.888 212.104 180.196 212.74C180.503 213.375 180.688 214.123 180.75 214.982H183.868V209.669H185.086V223.591H183.868V215.998H180.766C180.719 216.893 180.545 217.675 180.243 218.341C179.94 219.008 179.534 219.521 179.024 219.88C178.519 220.24 177.946 220.419 177.305 220.419C176.628 220.419 176.024 220.222 175.493 219.826C174.966 219.43 174.555 218.867 174.258 218.138C173.966 217.409 173.821 216.56 173.821 215.591C173.821 214.623 173.966 213.774 174.258 213.044C174.555 212.315 174.966 211.753 175.493 211.357C176.019 210.956 176.623 210.753 177.305 210.748ZM177.305 211.841C176.852 211.847 176.448 212.005 176.094 212.318C175.745 212.625 175.474 213.063 175.282 213.63C175.089 214.193 174.993 214.847 174.993 215.591C174.993 216.336 175.089 216.992 175.282 217.56C175.474 218.123 175.745 218.557 176.094 218.865C176.448 219.172 176.852 219.326 177.305 219.326C177.753 219.326 178.151 219.172 178.5 218.865C178.854 218.557 179.128 218.123 179.321 217.56C179.519 216.992 179.618 216.336 179.618 215.591C179.618 214.847 179.519 214.193 179.321 213.63C179.128 213.063 178.857 212.625 178.508 212.318C178.159 212.005 177.758 211.847 177.305 211.841ZM195.016 211.998H193.594V216.599C194.402 216.537 195.094 216.472 195.673 216.404L195.766 217.326C194.506 217.524 193.157 217.656 191.719 217.724C190.282 217.792 188.798 217.826 187.266 217.826L187.126 216.81L188.923 216.787V211.998H187.516V210.998H195.016V211.998ZM197.938 213.904H200.032V214.951H197.938V219.904H196.719V209.685H197.938V213.904ZM198.579 223.263H189.251V218.935H190.454V222.232H198.579V223.263ZM190.126 216.763C191.157 216.732 191.912 216.703 192.391 216.677V211.998H190.126V216.763Z" fill="#333333"/>
<path d="M176.557 232.294L180 235.729L183.443 232.294L184.5 233.352L180 237.852L175.5 233.352L176.557 232.294Z" fill="black"/>
<path d="M141 249.961C140.995 250.784 141.161 251.602 141.5 252.414C141.839 253.221 142.297 253.94 142.875 254.57C143.453 255.201 144.083 255.669 144.766 255.977L144.016 256.945C143.224 256.555 142.505 255.974 141.859 255.203C141.219 254.427 140.734 253.547 140.406 252.562C140.083 253.609 139.599 254.547 138.953 255.375C138.307 256.198 137.578 256.815 136.766 257.227L135.984 256.195C136.667 255.878 137.297 255.396 137.875 254.75C138.453 254.099 138.914 253.354 139.258 252.516C139.602 251.672 139.776 250.82 139.781 249.961V247.43H141V249.961ZM147.516 260.148H146.281V246.227H147.516V260.148ZM156.493 248.273C156.493 249.029 156.745 249.76 157.25 250.469C157.761 251.172 158.414 251.771 159.211 252.266C160.008 252.755 160.815 253.076 161.633 253.227L161.071 254.258C160.362 254.091 159.664 253.82 158.977 253.445C158.289 253.07 157.672 252.607 157.125 252.055C156.578 251.503 156.159 250.896 155.868 250.234C155.576 250.891 155.157 251.495 154.61 252.047C154.063 252.599 153.446 253.065 152.758 253.445C152.076 253.82 151.378 254.091 150.664 254.258L150.102 253.227C150.92 253.065 151.724 252.742 152.516 252.258C153.308 251.768 153.953 251.172 154.453 250.469C154.959 249.766 155.211 249.034 155.211 248.273V247.211H156.493V248.273ZM162.289 258.227H149.571V257.211H162.289V258.227ZM169.032 248.164H164.907V249.883H168.454V250.852H164.907V252.742C165.959 252.737 166.834 252.711 167.532 252.664C168.23 252.612 168.938 252.518 169.657 252.383L169.782 253.367C168.995 253.513 168.225 253.612 167.469 253.664C166.719 253.716 165.766 253.742 164.61 253.742H163.735V247.133H169.032V248.164ZM174.876 254.602H173.704V246.227H174.876V254.602ZM172.173 254.477H170.985V250.742H169.11V249.727H170.985V246.477H172.173V254.477ZM174.876 259.93H165.704V255.242H174.876V259.93ZM166.907 258.93H173.673V256.242H166.907V258.93ZM187.533 252.789H181.017V247.133H187.533V252.789ZM182.22 251.82H186.329V248.133H182.22V251.82ZM191.736 254.211H190.533V246.227H191.736V254.211ZM187.97 256.117C187.97 256.56 188.186 256.995 188.618 257.422C189.051 257.844 189.621 258.208 190.329 258.516C191.038 258.818 191.788 259.018 192.579 259.117L192.158 260.07C191.465 259.977 190.801 259.81 190.165 259.57C189.53 259.331 188.967 259.034 188.478 258.68C187.988 258.326 187.608 257.938 187.337 257.516C187.061 257.943 186.673 258.333 186.173 258.688C185.678 259.042 185.108 259.336 184.462 259.57C183.822 259.81 183.152 259.977 182.454 260.07L182.017 259.117C182.809 259.029 183.566 258.833 184.29 258.531C185.014 258.229 185.598 257.865 186.04 257.438C186.483 257.005 186.704 256.565 186.704 256.117H182.595V255.164H186.72V253.805H187.939V255.164H192.095V256.117H187.97ZM210.205 258.336H197.486V257.32H203.205V254.32H198.986V247.211H200.221V249.727H207.439V247.211H208.643V254.32H204.408V257.32H210.205V258.336ZM207.439 253.32V250.727H200.221V253.32H207.439ZM221.854 250.461H223.948V251.492H221.854V256.477H220.635V246.227H221.854V250.461ZM222.494 259.82H213.166V255.414H214.369V258.789H222.494V259.82ZM214.901 247.211C215.588 247.211 216.208 247.357 216.76 247.648C217.317 247.94 217.755 248.346 218.073 248.867C218.39 249.383 218.552 249.971 218.557 250.633C218.552 251.294 218.39 251.885 218.073 252.406C217.755 252.922 217.317 253.326 216.76 253.617C216.208 253.909 215.588 254.055 214.901 254.055C214.213 254.055 213.591 253.909 213.033 253.617C212.481 253.326 212.046 252.922 211.729 252.406C211.411 251.885 211.255 251.294 211.26 250.633C211.255 249.971 211.411 249.383 211.729 248.867C212.046 248.346 212.481 247.94 213.033 247.648C213.591 247.357 214.213 247.211 214.901 247.211ZM214.901 248.289C214.448 248.289 214.033 248.391 213.658 248.594C213.283 248.792 212.989 249.07 212.776 249.43C212.562 249.784 212.458 250.185 212.463 250.633C212.458 251.081 212.562 251.484 212.776 251.844C212.989 252.198 213.283 252.477 213.658 252.68C214.033 252.878 214.448 252.977 214.901 252.977C215.364 252.977 215.781 252.878 216.151 252.68C216.526 252.477 216.82 252.198 217.033 251.844C217.247 251.49 217.354 251.086 217.354 250.633C217.354 250.18 217.247 249.776 217.033 249.422C216.82 249.068 216.526 248.792 216.151 248.594C215.781 248.391 215.364 248.289 214.901 248.289Z" fill="#333333"/>
<path d="M176.557 268.852L180 272.287L183.443 268.852L184.5 269.909L180 274.409L175.5 269.909L176.557 268.852Z" fill="black"/>
<path d="M51.75 284.097H53.1719L55.5312 293.253H55.6406L58.0312 284.097H59.6094L62.0156 293.253H62.1094L64.4688 284.097H65.8906L62.7969 295.409H61.3438L58.875 286.456H58.7812L56.2969 295.409H54.8438L51.75 284.097ZM66.8988 286.925H68.2425V295.409H66.8988V286.925ZM67.5706 285.519C67.3102 285.519 67.0889 285.433 66.9066 285.261C66.7243 285.089 66.6331 284.878 66.6331 284.628C66.6331 284.378 66.7243 284.167 66.9066 283.995C67.0889 283.823 67.3102 283.737 67.5706 283.737C67.831 283.737 68.055 283.823 68.2425 283.995C68.43 284.167 68.5238 284.378 68.5238 284.628C68.5238 284.878 68.43 285.089 68.2425 285.261C68.055 285.433 67.831 285.519 67.5706 285.519ZM71.4069 295.409H70.0631V286.925H71.36V288.253H71.4694C71.6829 287.8 71.9928 287.448 72.3991 287.198C72.8105 286.943 73.3288 286.815 73.9538 286.815C74.5371 286.815 75.0423 286.935 75.4694 287.175C75.8965 287.409 76.2272 287.766 76.4616 288.245C76.6959 288.724 76.8131 289.315 76.8131 290.019V295.409H75.4694V290.112C75.4694 289.456 75.3001 288.943 74.9616 288.573C74.623 288.203 74.1517 288.019 73.5475 288.019C73.1308 288.019 72.761 288.11 72.4381 288.292C72.1152 288.469 71.8626 288.732 71.6803 289.081C71.498 289.425 71.4069 289.836 71.4069 290.315V295.409ZM81.8525 295.581C81.1494 295.581 80.5244 295.401 79.9775 295.042C79.4358 294.683 79.0114 294.172 78.7041 293.511C78.3968 292.844 78.2431 292.071 78.2431 291.19C78.2431 290.31 78.3968 289.539 78.7041 288.878C79.0114 288.216 79.4384 287.709 79.9853 287.354C80.5322 286.995 81.1598 286.815 81.8681 286.815C82.3681 286.815 82.7822 286.899 83.1103 287.065C83.4384 287.227 83.6806 287.401 83.8369 287.589C83.9931 287.771 84.1546 287.998 84.3213 288.269H84.415V284.097H85.7744V295.409H84.4619V294.112H84.3213C84.1442 294.388 83.9749 294.62 83.8134 294.808C83.6572 294.995 83.415 295.172 83.0869 295.339C82.7588 295.5 82.3473 295.581 81.8525 295.581ZM82.04 294.378C82.5452 294.378 82.9801 294.245 83.3447 293.979C83.7093 293.709 83.9853 293.331 84.1728 292.847C84.3655 292.357 84.4619 291.795 84.4619 291.159C84.4619 290.529 84.3681 289.979 84.1806 289.511C83.9983 289.037 83.7249 288.67 83.3603 288.409C82.9957 288.149 82.5556 288.019 82.04 288.019C81.514 288.019 81.0686 288.157 80.7041 288.433C80.3395 288.703 80.0634 289.076 79.8759 289.55C79.6936 290.024 79.6025 290.56 79.6025 291.159C79.6025 291.774 79.6936 292.326 79.8759 292.815C80.0634 293.3 80.3395 293.683 80.7041 293.964C81.0739 294.24 81.5192 294.378 82.04 294.378ZM91.2513 295.581C90.4856 295.581 89.8085 295.401 89.22 295.042C88.6367 294.677 88.1835 294.164 87.8606 293.503C87.5377 292.841 87.3763 292.076 87.3763 291.206C87.3763 290.336 87.5377 289.571 87.8606 288.909C88.1835 288.243 88.6367 287.727 89.22 287.362C89.8085 286.998 90.4856 286.815 91.2513 286.815C92.0117 286.815 92.6809 286.998 93.2591 287.362C93.8424 287.727 94.2929 288.243 94.6106 288.909C94.9335 289.571 95.095 290.336 95.095 291.206C95.095 292.076 94.9335 292.841 94.6106 293.503C94.2929 294.164 93.8424 294.677 93.2591 295.042C92.6809 295.401 92.0117 295.581 91.2513 295.581ZM91.2513 294.394C91.7981 294.394 92.2591 294.25 92.6341 293.964C93.0091 293.672 93.2877 293.287 93.47 292.808C93.6575 292.323 93.7513 291.789 93.7513 291.206C93.7513 290.623 93.6575 290.089 93.47 289.604C93.2877 289.12 93.0091 288.732 92.6341 288.44C92.2591 288.149 91.7981 288.003 91.2513 288.003C90.694 288.003 90.2252 288.149 89.845 288.44C89.47 288.732 89.1888 289.12 89.0013 289.604C88.8138 290.089 88.72 290.623 88.72 291.206C88.72 291.789 88.8138 292.323 89.0013 292.808C89.1888 293.287 89.47 293.672 89.845 293.964C90.2252 294.25 90.694 294.394 91.2513 294.394ZM95.5875 286.925H97.0094L98.8219 293.394H98.9L100.697 286.925H102.134L103.9 293.362H103.994L105.806 286.925H107.213L104.634 295.409H103.306L101.463 288.94H101.338L99.5094 295.409H98.1656L95.5875 286.925ZM112.244 295.409V284.097H115.901C116.989 284.097 117.927 284.323 118.713 284.776C119.505 285.224 120.109 285.873 120.526 286.722C120.942 287.565 121.151 288.571 121.151 289.737C121.151 290.914 120.94 291.927 120.518 292.776C120.096 293.625 119.481 294.276 118.674 294.729C117.867 295.183 116.895 295.409 115.76 295.409H112.244ZM115.666 294.159C117.031 294.159 118.057 293.774 118.744 293.003C119.432 292.232 119.776 291.144 119.776 289.737C119.776 288.347 119.44 287.269 118.768 286.503C118.096 285.732 117.109 285.347 115.807 285.347H113.651V294.159H115.666ZM126.284 295.581C125.476 295.581 124.773 295.401 124.174 295.042C123.575 294.683 123.114 294.175 122.792 293.519C122.474 292.862 122.315 292.102 122.315 291.237C122.315 290.373 122.474 289.607 122.792 288.94C123.114 288.269 123.565 287.748 124.143 287.378C124.726 287.003 125.398 286.815 126.159 286.815C126.799 286.815 127.396 286.959 127.948 287.245C128.5 287.526 128.948 287.985 129.292 288.62C129.641 289.25 129.815 290.06 129.815 291.05V291.612H123.659C123.68 292.201 123.802 292.703 124.026 293.12C124.25 293.537 124.555 293.854 124.94 294.073C125.331 294.287 125.779 294.394 126.284 294.394C126.763 294.394 127.167 294.305 127.495 294.128C127.828 293.946 128.081 293.711 128.253 293.425H129.69C129.555 293.852 129.328 294.229 129.01 294.558C128.698 294.881 128.307 295.133 127.838 295.315C127.375 295.493 126.857 295.581 126.284 295.581ZM128.456 290.472C128.456 289.998 128.359 289.576 128.167 289.206C127.979 288.831 127.711 288.537 127.362 288.323C127.013 288.11 126.612 288.003 126.159 288.003C125.685 288.003 125.263 288.115 124.893 288.339C124.529 288.563 124.239 288.865 124.026 289.245C123.818 289.62 123.698 290.029 123.667 290.472H128.456ZM135.042 288.05H133.167V295.409H131.808V288.05H130.448V286.925H131.808V285.769C131.808 285.315 131.904 284.925 132.097 284.597C132.294 284.263 132.576 284.008 132.94 283.831C133.305 283.654 133.735 283.565 134.229 283.565C134.521 283.565 134.854 283.597 135.229 283.659V284.862C134.979 284.821 134.745 284.8 134.526 284.8C134.058 284.8 133.714 284.901 133.495 285.104C133.276 285.308 133.167 285.628 133.167 286.065V286.925H135.042V288.05ZM139.519 295.581C138.711 295.581 138.008 295.401 137.409 295.042C136.81 294.683 136.349 294.175 136.027 293.519C135.709 292.862 135.55 292.102 135.55 291.237C135.55 290.373 135.709 289.607 136.027 288.94C136.349 288.269 136.8 287.748 137.378 287.378C137.961 287.003 138.633 286.815 139.394 286.815C140.034 286.815 140.631 286.959 141.183 287.245C141.735 287.526 142.183 287.985 142.527 288.62C142.876 289.25 143.05 290.06 143.05 291.05V291.612H136.894C136.915 292.201 137.037 292.703 137.261 293.12C137.485 293.537 137.79 293.854 138.175 294.073C138.566 294.287 139.014 294.394 139.519 294.394C139.998 294.394 140.402 294.305 140.73 294.128C141.063 293.946 141.316 293.711 141.488 293.425H142.925C142.79 293.852 142.563 294.229 142.245 294.558C141.933 294.881 141.542 295.133 141.073 295.315C140.61 295.493 140.092 295.581 139.519 295.581ZM141.691 290.472C141.691 289.998 141.594 289.576 141.402 289.206C141.214 288.831 140.946 288.537 140.597 288.323C140.248 288.11 139.847 288.003 139.394 288.003C138.92 288.003 138.498 288.115 138.128 288.339C137.764 288.563 137.474 288.865 137.261 289.245C137.053 289.62 136.933 290.029 136.902 290.472H141.691ZM145.824 295.409H144.48V286.925H145.777V288.253H145.886C146.1 287.8 146.41 287.448 146.816 287.198C147.227 286.943 147.746 286.815 148.371 286.815C148.954 286.815 149.459 286.935 149.886 287.175C150.313 287.409 150.644 287.766 150.878 288.245C151.113 288.724 151.23 289.315 151.23 290.019V295.409H149.886V290.112C149.886 289.456 149.717 288.943 149.378 288.573C149.04 288.203 148.569 288.019 147.964 288.019C147.548 288.019 147.178 288.11 146.855 288.292C146.532 288.469 146.279 288.732 146.097 289.081C145.915 289.425 145.824 289.836 145.824 290.315V295.409ZM156.269 295.581C155.566 295.581 154.941 295.401 154.394 295.042C153.853 294.683 153.428 294.172 153.121 293.511C152.814 292.844 152.66 292.071 152.66 291.19C152.66 290.31 152.814 289.539 153.121 288.878C153.428 288.216 153.855 287.709 154.402 287.354C154.949 286.995 155.577 286.815 156.285 286.815C156.785 286.815 157.199 286.899 157.527 287.065C157.855 287.227 158.098 287.401 158.254 287.589C158.41 287.771 158.571 287.998 158.738 288.269H158.832V284.097H160.191V295.409H158.879V294.112H158.738C158.561 294.388 158.392 294.62 158.23 294.808C158.074 294.995 157.832 295.172 157.504 295.339C157.176 295.5 156.764 295.581 156.269 295.581ZM156.457 294.378C156.962 294.378 157.397 294.245 157.762 293.979C158.126 293.709 158.402 293.331 158.59 292.847C158.782 292.357 158.879 291.795 158.879 291.159C158.879 290.529 158.785 289.979 158.598 289.511C158.415 289.037 158.142 288.67 157.777 288.409C157.413 288.149 156.973 288.019 156.457 288.019C155.931 288.019 155.486 288.157 155.121 288.433C154.756 288.703 154.48 289.076 154.293 289.55C154.111 290.024 154.019 290.56 154.019 291.159C154.019 291.774 154.111 292.326 154.293 292.815C154.48 293.3 154.756 293.683 155.121 293.964C155.491 294.24 155.936 294.378 156.457 294.378ZM165.762 295.581C164.955 295.581 164.251 295.401 163.652 295.042C163.054 294.683 162.593 294.175 162.27 293.519C161.952 292.862 161.793 292.102 161.793 291.237C161.793 290.373 161.952 289.607 162.27 288.94C162.593 288.269 163.043 287.748 163.621 287.378C164.205 287.003 164.876 286.815 165.637 286.815C166.277 286.815 166.874 286.959 167.426 287.245C167.978 287.526 168.426 287.985 168.77 288.62C169.119 289.25 169.293 290.06 169.293 291.05V291.612H163.137C163.158 292.201 163.28 292.703 163.504 293.12C163.728 293.537 164.033 293.854 164.418 294.073C164.809 294.287 165.257 294.394 165.762 294.394C166.241 294.394 166.645 294.305 166.973 294.128C167.306 293.946 167.559 293.711 167.731 293.425H169.168C169.033 293.852 168.806 294.229 168.488 294.558C168.176 294.881 167.785 295.133 167.317 295.315C166.853 295.493 166.335 295.581 165.762 295.581ZM167.934 290.472C167.934 289.998 167.837 289.576 167.645 289.206C167.457 288.831 167.189 288.537 166.84 288.323C166.491 288.11 166.09 288.003 165.637 288.003C165.163 288.003 164.741 288.115 164.371 288.339C164.007 288.563 163.718 288.865 163.504 289.245C163.296 289.62 163.176 290.029 163.145 290.472H167.934ZM170.723 286.925H172.02V288.222H172.114C172.27 287.789 172.549 287.443 172.95 287.183C173.351 286.917 173.801 286.784 174.301 286.784C174.562 286.784 174.796 286.795 175.004 286.815V288.175C174.947 288.154 174.835 288.133 174.668 288.112C174.507 288.091 174.348 288.081 174.192 288.081C173.791 288.081 173.429 288.167 173.106 288.339C172.783 288.511 172.528 288.748 172.34 289.05C172.158 289.352 172.067 289.69 172.067 290.065V295.409H170.723V286.925ZM185.583 291.519C186.531 291.519 187.349 291.62 188.036 291.823C188.724 292.021 189.25 292.313 189.614 292.698C189.979 293.084 190.161 293.545 190.161 294.081C190.161 294.623 189.979 295.086 189.614 295.472C189.25 295.862 188.724 296.159 188.036 296.362C187.354 296.565 186.536 296.67 185.583 296.675C184.63 296.67 183.807 296.565 183.114 296.362C182.427 296.159 181.898 295.862 181.528 295.472C181.159 295.086 180.974 294.623 180.974 294.081C180.974 293.545 181.159 293.084 181.528 292.698C181.898 292.313 182.429 292.021 183.122 291.823C183.815 291.62 184.635 291.519 185.583 291.519ZM185.583 292.487C184.885 292.493 184.281 292.56 183.771 292.69C183.265 292.815 182.877 292.998 182.607 293.237C182.336 293.472 182.203 293.753 182.208 294.081C182.203 294.409 182.336 294.693 182.607 294.933C182.877 295.172 183.268 295.354 183.778 295.479C184.289 295.61 184.89 295.675 185.583 295.675C186.281 295.675 186.885 295.61 187.396 295.479C187.906 295.354 188.297 295.172 188.567 294.933C188.838 294.693 188.974 294.409 188.974 294.081C188.974 293.753 188.838 293.472 188.567 293.237C188.297 292.998 187.906 292.815 187.396 292.69C186.89 292.56 186.286 292.493 185.583 292.487ZM190.036 286.284H192.13V287.331H190.036V291.144H188.817V282.784H190.036V286.284ZM180.974 285.784H185.021V283.659H186.239V290.065H179.771V283.659H180.974V285.784ZM185.021 289.065V286.753H180.974V289.065H185.021ZM203.466 288.706H205.685V289.737H203.466V296.675H202.232V282.784H203.466V288.706ZM192.513 292.972C194.149 292.972 195.425 292.956 196.341 292.925V291.386C195.805 291.323 195.333 291.183 194.927 290.964C194.526 290.74 194.216 290.451 193.997 290.097C193.784 289.737 193.68 289.331 193.685 288.878C193.68 288.362 193.813 287.912 194.083 287.526C194.359 287.136 194.745 286.834 195.24 286.62C195.74 286.407 196.315 286.3 196.966 286.3C197.607 286.3 198.175 286.407 198.669 286.62C199.169 286.834 199.557 287.136 199.833 287.526C200.115 287.912 200.258 288.362 200.263 288.878C200.258 289.331 200.143 289.737 199.919 290.097C199.695 290.451 199.38 290.74 198.974 290.964C198.573 291.188 198.107 291.331 197.576 291.394V292.878C199.055 292.805 200.326 292.69 201.388 292.534L201.466 293.472C200.122 293.701 198.742 293.849 197.326 293.917C195.909 293.985 194.372 294.019 192.716 294.019L192.513 292.972ZM201.138 285.487H192.763V284.487H196.341V282.815H197.576V284.487H201.138V285.487ZM196.966 287.253C196.544 287.253 196.172 287.321 195.849 287.456C195.526 287.591 195.274 287.784 195.091 288.034C194.914 288.279 194.826 288.56 194.826 288.878C194.826 289.196 194.914 289.477 195.091 289.722C195.268 289.961 195.518 290.146 195.841 290.276C196.169 290.401 196.544 290.461 196.966 290.456C197.383 290.461 197.753 290.401 198.076 290.276C198.399 290.146 198.649 289.961 198.826 289.722C199.003 289.477 199.091 289.196 199.091 288.878C199.091 288.56 199.003 288.279 198.826 288.034C198.649 287.784 198.399 287.591 198.076 287.456C197.753 287.321 197.383 287.253 196.966 287.253ZM208.115 285.925H211.99V283.612H213.193V285.019H216.474V282.784H217.709V291.05H216.474V288.862H213.193V290.253H206.896V283.612H208.115V285.925ZM211.99 289.237V286.894H208.115V289.237H211.99ZM217.709 296.675H216.474V292.784H208.365V291.784H217.709V296.675ZM216.474 287.847V286.034H213.193V287.847H216.474ZM224.357 286.519C224.357 287.315 224.519 288.112 224.842 288.909C225.165 289.701 225.6 290.409 226.147 291.034C226.699 291.659 227.3 292.133 227.951 292.456L227.201 293.44C226.436 293.039 225.748 292.451 225.139 291.675C224.535 290.899 224.079 290.029 223.772 289.065C223.464 290.091 223.001 291.019 222.381 291.847C221.761 292.67 221.061 293.289 220.279 293.706L219.498 292.722C220.17 292.394 220.782 291.901 221.334 291.245C221.891 290.584 222.331 289.839 222.654 289.011C222.982 288.177 223.149 287.347 223.154 286.519V283.987H224.357V286.519ZM230.451 288.425H232.779V289.487H230.451V296.675H229.232V282.784H230.451V288.425ZM245.866 290.675H233.209V289.659H236.35V287.706C235.788 287.487 235.358 287.203 235.061 286.854C234.764 286.5 234.616 286.091 234.616 285.628C234.616 285.086 234.814 284.623 235.209 284.237C235.605 283.852 236.17 283.558 236.905 283.354C237.644 283.151 238.522 283.05 239.538 283.05C240.543 283.05 241.413 283.151 242.147 283.354C242.886 283.558 243.454 283.852 243.85 284.237C244.246 284.623 244.444 285.086 244.444 285.628C244.444 286.086 244.295 286.493 243.998 286.847C243.707 287.196 243.282 287.479 242.725 287.698V289.659H245.866V290.675ZM239.538 291.737C240.532 291.737 241.386 291.831 242.1 292.019C242.814 292.206 243.36 292.485 243.741 292.854C244.121 293.219 244.314 293.664 244.319 294.19C244.314 294.711 244.121 295.154 243.741 295.519C243.36 295.888 242.814 296.167 242.1 296.354C241.386 296.547 240.532 296.644 239.538 296.644C238.532 296.644 237.67 296.547 236.952 296.354C236.238 296.167 235.691 295.888 235.311 295.519C234.931 295.154 234.741 294.711 234.741 294.19C234.741 293.664 234.928 293.219 235.303 292.854C235.683 292.485 236.233 292.206 236.952 292.019C237.67 291.831 238.532 291.737 239.538 291.737ZM239.538 292.675C238.413 292.685 237.538 292.823 236.913 293.089C236.293 293.349 235.985 293.716 235.991 294.19C235.985 294.503 236.123 294.771 236.405 294.995C236.686 295.219 237.092 295.391 237.623 295.511C238.16 295.631 238.798 295.69 239.538 295.69C240.267 295.69 240.897 295.631 241.428 295.511C241.965 295.391 242.373 295.219 242.655 294.995C242.941 294.771 243.084 294.503 243.084 294.19C243.084 293.716 242.769 293.349 242.139 293.089C241.514 292.823 240.647 292.685 239.538 292.675ZM239.538 284.019C238.788 284.019 238.136 284.084 237.584 284.214C237.032 284.344 236.608 284.532 236.311 284.776C236.019 285.016 235.876 285.3 235.881 285.628C235.876 285.961 236.019 286.25 236.311 286.495C236.608 286.735 237.03 286.92 237.577 287.05C238.129 287.175 238.782 287.237 239.538 287.237C240.288 287.237 240.936 287.175 241.483 287.05C242.03 286.92 242.452 286.735 242.748 286.495C243.045 286.25 243.194 285.961 243.194 285.628C243.194 285.3 243.045 285.016 242.748 284.776C242.452 284.532 242.027 284.344 241.475 284.214C240.928 284.084 240.282 284.019 239.538 284.019ZM241.506 289.659V288.034C240.907 288.138 240.251 288.19 239.538 288.19C238.824 288.19 238.168 288.138 237.569 288.034V289.659H241.506ZM261.273 287.019H263.366V288.05H261.273V293.034H260.054V282.784H261.273V287.019ZM261.913 296.378H252.585V291.972H253.788V295.347H261.913V296.378ZM254.319 283.769C255.007 283.769 255.627 283.914 256.179 284.206C256.736 284.498 257.174 284.904 257.491 285.425C257.809 285.94 257.97 286.529 257.976 287.19C257.97 287.852 257.809 288.443 257.491 288.964C257.174 289.479 256.736 289.883 256.179 290.175C255.627 290.466 255.007 290.612 254.319 290.612C253.632 290.612 253.009 290.466 252.452 290.175C251.9 289.883 251.465 289.479 251.148 288.964C250.83 288.443 250.674 287.852 250.679 287.19C250.674 286.529 250.83 285.94 251.148 285.425C251.465 284.904 251.9 284.498 252.452 284.206C253.009 283.914 253.632 283.769 254.319 283.769ZM254.319 284.847C253.866 284.847 253.452 284.948 253.077 285.151C252.702 285.349 252.408 285.628 252.194 285.987C251.981 286.341 251.877 286.743 251.882 287.19C251.877 287.638 251.981 288.042 252.194 288.401C252.408 288.756 252.702 289.034 253.077 289.237C253.452 289.435 253.866 289.534 254.319 289.534C254.783 289.534 255.2 289.435 255.569 289.237C255.944 289.034 256.239 288.756 256.452 288.401C256.666 288.047 256.773 287.644 256.773 287.19C256.773 286.737 256.666 286.334 256.452 285.979C256.239 285.625 255.944 285.349 255.569 285.151C255.2 284.948 254.783 284.847 254.319 284.847ZM274.781 286.487H276.874V287.534H274.781V291.159H273.562V282.784H274.781V286.487ZM274.781 296.487H266.015V291.956H274.781V296.487ZM267.218 295.487H273.562V292.94H267.218V295.487ZM272.234 285.284H263.952V284.269H267.484V282.675H268.702V284.269H272.234V285.284ZM268.093 285.972C268.755 285.972 269.335 286.076 269.835 286.284C270.341 286.487 270.731 286.776 271.007 287.151C271.288 287.521 271.432 287.951 271.437 288.44C271.432 288.94 271.288 289.378 271.007 289.753C270.731 290.128 270.341 290.417 269.835 290.62C269.335 290.823 268.755 290.925 268.093 290.925C267.426 290.925 266.838 290.823 266.327 290.62C265.822 290.417 265.432 290.128 265.156 289.753C264.88 289.378 264.744 288.94 264.749 288.44C264.744 287.951 264.88 287.521 265.156 287.151C265.432 286.776 265.822 286.487 266.327 286.284C266.838 286.076 267.426 285.972 268.093 285.972ZM268.093 286.925C267.661 286.925 267.278 286.99 266.945 287.12C266.617 287.245 266.361 287.422 266.179 287.651C266.002 287.881 265.916 288.144 265.921 288.44C265.916 288.753 266.002 289.026 266.179 289.261C266.361 289.49 266.617 289.667 266.945 289.792C267.273 289.917 267.656 289.982 268.093 289.987C268.525 289.982 268.906 289.917 269.234 289.792C269.562 289.667 269.817 289.49 269.999 289.261C270.182 289.026 270.275 288.753 270.281 288.44C270.275 288.144 270.179 287.881 269.992 287.651C269.809 287.422 269.554 287.245 269.226 287.12C268.898 286.99 268.52 286.925 268.093 286.925ZM285.875 285.409C285.875 286.05 286.018 286.67 286.305 287.269C286.596 287.862 287.003 288.391 287.523 288.854C288.044 289.313 288.641 289.664 289.312 289.909L288.625 290.862C287.865 290.56 287.193 290.12 286.609 289.542C286.031 288.959 285.591 288.289 285.289 287.534C284.997 288.373 284.547 289.112 283.938 289.753C283.328 290.394 282.615 290.878 281.797 291.206L281.141 290.206C281.828 289.951 282.438 289.578 282.969 289.089C283.5 288.599 283.914 288.032 284.211 287.386C284.513 286.74 284.667 286.065 284.672 285.362V283.644H285.875V285.409ZM292.641 293.206H291.406V287.097H288.312V286.065H291.406V282.8H292.641V293.206ZM292.953 296.378H283.656V292.019H284.891V295.347H292.953V296.378ZM300.649 284.831H296.43V286.565H300.492V287.534H296.43V289.456C297.498 289.451 298.383 289.422 299.086 289.37C299.789 289.318 300.498 289.222 301.211 289.081L301.336 290.097C300.545 290.248 299.771 290.352 299.016 290.409C298.266 290.461 297.305 290.487 296.133 290.487H295.258V283.8H300.649V284.831ZM306.43 291.222H305.258V287.425H303.305V291.128H302.164V283.065H303.305V286.425H305.258V282.8H306.43V291.222ZM306.43 296.675H305.227V292.94H297.071V291.94H306.43V296.675Z" fill="#333333"/>
<defs>
<clipPath id="clip0_811_12892">
<rect width="132.393" height="97.426" fill="white" transform="translate(113.804 20.7532)"/>
</clipPath>
</defs>
</svg>
