<svg width="360" height="152" viewBox="0 0 360 152" fill="none" xmlns="http://www.w3.org/2000/svg">
<rect width="360" height="151.058" transform="translate(0 0.40918)" fill="white"/>
<rect width="360" height="151.058" transform="translate(0 0.40918)" fill="#246FF4" fill-opacity="0.2"/>
<g clip-path="url(#clip0_811_12919)">
<path d="M199.569 105.014C199.234 105.059 198.959 105.303 198.868 105.623C198.349 107.697 196.52 115 196.352 115.641C196.169 116.388 195.559 117.958 194.08 118.705C192.601 119.452 190.375 119.635 189.125 120.093C188.332 120.382 187.768 120.809 187.463 121.373C187.174 121.892 187.539 122.532 188.134 122.578L227.562 125.749C227.562 125.749 227.654 125.749 227.715 125.749L237.061 124.865C237.717 124.804 238.22 124.27 238.25 123.615L239.455 100.912C239.485 100.394 239.043 99.9821 238.525 100.043L199.584 104.998L199.569 105.014Z" fill="#D9DBDC"/>
<path d="M199.569 105.014C199.234 105.059 198.959 105.303 198.868 105.623C198.349 107.697 196.52 115 196.352 115.641C196.169 116.388 195.559 117.958 194.08 118.705C192.601 119.452 190.375 119.635 189.125 120.093C188.332 120.382 187.768 120.809 187.463 121.373C187.174 121.892 187.539 122.532 188.134 122.578L227.562 125.749C227.562 125.749 227.654 125.749 227.715 125.749L237.061 124.865C237.717 124.804 238.22 124.27 238.25 123.615L239.455 100.912C239.485 100.394 239.043 99.9821 238.525 100.043L199.584 104.998L199.569 105.014Z" stroke="#231F20" stroke-width="0.3" stroke-linecap="round" stroke-linejoin="round"/>
<path d="M189.14 122.669C189.14 122.669 189.369 123.432 189.887 123.615L192.495 123.737C192.495 123.737 193.15 123.508 193.272 123.005L189.125 122.669H189.14Z" fill="#231F20"/>
<path d="M189.14 122.669C189.14 122.669 189.369 123.432 189.887 123.615L192.495 123.737C192.495 123.737 193.15 123.508 193.272 123.005L189.125 122.669H189.14Z" stroke="#231F20" stroke-width="0.45" stroke-linecap="round" stroke-linejoin="round"/>
<path d="M237.412 106.035C237.412 106.035 236.924 117.028 236.893 117.653C236.863 118.278 236.756 119.498 235.597 120.962C234.439 122.426 231.542 122.487 229.666 123.051C227.791 123.615 227.654 125.765 227.654 125.765L237.076 124.865C237.732 124.804 238.235 124.27 238.265 123.615L239.516 99.9365L237.427 106.05L237.412 106.035Z" fill="#A6A8AB"/>
<path d="M237.412 106.035C237.412 106.035 236.924 117.028 236.893 117.653C236.863 118.278 236.756 119.498 235.597 120.962C234.439 122.426 231.542 122.487 229.666 123.051C227.791 123.615 227.654 125.765 227.654 125.765L237.076 124.865C237.732 124.804 238.235 124.27 238.265 123.615L239.516 99.9365L237.427 106.05L237.412 106.035Z" stroke="#231F20" stroke-width="0.3" stroke-linecap="round" stroke-linejoin="round"/>
<path d="M252.491 123.035L247.261 93.3345L240.934 93.5937L239.5 99.9211L238.25 123.599C238.22 124.209 238.738 124.697 239.333 124.636L252.201 123.416C252.399 123.401 252.521 123.218 252.491 123.035Z" fill="#808184"/>
<path d="M252.491 123.035L247.261 93.3345L240.934 93.5937L239.5 99.9211L238.25 123.599C238.22 124.209 238.738 124.697 239.333 124.636L252.201 123.416C252.399 123.401 252.521 123.218 252.491 123.035Z" stroke="#231F20" stroke-width="0.2025" stroke-linecap="round" stroke-linejoin="round"/>
<path d="M247.109 42.166C247.109 42.166 248.862 42.5014 250.097 43.8127C251.256 45.0477 251.454 46.1912 251.408 46.923C251.393 47.3652 251.225 48.219 251.225 48.219L238.632 103.794C238.632 103.794 238.464 104.83 237.412 106.05C236.375 107.27 233.341 106.782 233.341 106.782L173.955 103.855C173.955 103.855 172.766 103.839 171.759 103.031C170.753 102.238 170.189 101.659 169.67 100.942" fill="#BBBDBF"/>
<path d="M247.109 42.166C247.109 42.166 248.862 42.5014 250.097 43.8127C251.256 45.0477 251.454 46.1912 251.408 46.923C251.393 47.3652 251.225 48.219 251.225 48.219L238.632 103.794C238.632 103.794 238.464 104.83 237.412 106.05C236.375 107.27 233.341 106.782 233.341 106.782L173.955 103.855C173.955 103.855 172.766 103.839 171.759 103.031C170.753 102.238 170.189 101.659 169.67 100.942" stroke="#231F20" stroke-width="0.3" stroke-linecap="round" stroke-linejoin="round"/>
<path d="M239.653 93.3345L238.067 99.9363" stroke="#231F20" stroke-width="0.3" stroke-linecap="round" stroke-linejoin="round"/>
<path d="M235.918 101.857C236.405 102.101 237.32 102.62 237.869 103.275" stroke="#231F20" stroke-width="0.3" stroke-linecap="round" stroke-linejoin="round"/>
<path d="M253.985 55.5225L255.525 56.9709C256.409 57.9162 256.318 58.8463 256.15 59.7916L249.64 89.599C249.365 90.8188 249.258 91.5049 248.481 92.5264C247.703 93.5327 245.797 93.6089 245.797 93.6089H240.949L241.391 91.6573C241.391 91.6573 242.016 90.0107 238.281 88.0591L238.372 87.6779L254 55.5377L253.985 55.5225Z" fill="#BBBDBF"/>
<path d="M253.985 55.5225L255.525 56.9709C256.409 57.9162 256.318 58.8463 256.15 59.7916L249.64 89.599C249.365 90.8188 249.258 91.5049 248.481 92.5264C247.703 93.5327 245.797 93.6089 245.797 93.6089H240.949L241.391 91.6573C241.391 91.6573 242.016 90.0107 238.281 88.0591L238.372 87.6779L254 55.5377L253.985 55.5225Z" stroke="#231F20" stroke-width="0.3" stroke-linecap="round" stroke-linejoin="round"/>
<path d="M246.316 53.525L252.11 55.1564L252.796 55.1107C253.894 55.0497 254.747 56.0407 254.519 57.1233L247.81 87.7845C247.551 89.0043 246.362 89.7971 245.127 89.5837L244.288 89.4312L238.342 87.6473L246.301 53.5098L246.316 53.525Z" fill="#EAEBEC"/>
<path d="M246.316 53.525L252.11 55.1564L252.796 55.1107C253.894 55.0497 254.747 56.0407 254.519 57.1233L247.81 87.7845C247.551 89.0043 246.362 89.7971 245.127 89.5837L244.288 89.4312L238.342 87.6473L246.301 53.5098L246.316 53.525Z" stroke="#231F20" stroke-width="0.3" stroke-linecap="round" stroke-linejoin="round"/>
<path d="M252.094 55.1568L252.78 55.1111C253.878 55.0501 254.747 56.0411 254.503 57.1236L247.795 87.7849C247.52 89.0047 246.346 89.7975 245.111 89.5841L244.273 89.4316L252.079 55.1568H252.094Z" fill="white"/>
<path d="M252.094 55.1568L252.78 55.1111C253.878 55.0501 254.747 56.0411 254.503 57.1236L247.795 87.7849C247.52 89.0047 246.346 89.7975 245.111 89.5841L244.273 89.4316L252.079 55.1568H252.094Z" stroke="#231F20" stroke-width="0.3" stroke-linecap="round" stroke-linejoin="round"/>
<path d="M186.869 46.9996L246.331 42.0749C247.657 41.9682 248.71 43.1879 248.42 44.4839L235.064 101.781C234.728 103.23 233.402 104.251 231.908 104.175L170.844 101.537C169.838 101.492 169.137 100.516 169.411 99.5553L183.956 49.3781C184.338 48.0516 185.496 47.1063 186.869 46.9996Z" fill="#F2F3F3"/>
<path d="M186.869 46.9996L246.331 42.0749C247.657 41.9682 248.71 43.1879 248.42 44.4839L235.064 101.781C234.728 103.23 233.402 104.251 231.908 104.175L170.844 101.537C169.838 101.492 169.137 100.516 169.411 99.5553L183.956 49.3781C184.338 48.0516 185.496 47.1063 186.869 46.9996Z" stroke="#231F20" stroke-width="0.3" stroke-linecap="round" stroke-linejoin="round"/>
<path d="M241.635 47.3962L188.378 51.4823C187.814 51.5281 187.341 51.9092 187.189 52.4429L175.815 91.7491C175.677 92.2065 176.028 92.6792 176.501 92.6944L230.261 94.3258C230.932 94.3411 231.511 93.8989 231.664 93.2433L242.413 48.2805C242.535 47.7926 242.138 47.3352 241.635 47.3657" fill="white"/>
<path d="M241.635 47.3962L188.378 51.4823C187.814 51.5281 187.341 51.9092 187.189 52.4429L175.815 91.7491C175.677 92.2065 176.028 92.6792 176.501 92.6944L230.261 94.3258C230.932 94.3411 231.511 93.8989 231.664 93.2433L242.413 48.2805C242.535 47.7926 242.138 47.3352 241.635 47.3657V47.3962Z" stroke="#231F20" stroke-width="0.3" stroke-linecap="round" stroke-linejoin="round"/>
<path d="M251.53 55.0039L243.724 89.3092C243.709 89.4159 243.709 89.5226 243.724 89.6294L244.41 91.6877C244.486 91.9316 244.715 92.0841 244.959 92.0841C245.02 92.0841 245.081 92.0841 245.142 92.0536C245.447 91.9469 245.614 91.6267 245.508 91.3218L244.867 89.4159L252.674 55.1259L252.064 55.1564L251.5 55.0039H251.53Z" fill="#231F20"/>
<path d="M201.566 96.5057C201.444 96.3227 201.277 96.1702 201.079 96.0635C200.88 95.9568 200.636 95.8958 200.377 95.8805C200.103 95.8805 199.844 95.911 199.6 96.0025C199.34 96.094 199.112 96.2312 198.898 96.3989C198.685 96.5667 198.502 96.7649 198.349 96.9936C198.197 97.207 198.09 97.451 198.029 97.7102C197.968 97.9694 197.953 98.2133 197.983 98.442C198.014 98.6707 198.105 98.8842 198.227 99.0671C198.349 99.2501 198.517 99.4026 198.715 99.5093C198.929 99.616 199.157 99.677 199.417 99.6922C199.691 99.6922 199.95 99.6617 200.194 99.5703C200.453 99.4788 200.682 99.3416 200.896 99.1739C201.109 99.0061 201.292 98.8079 201.444 98.5792C201.597 98.3505 201.704 98.1066 201.765 97.8474C201.826 97.5882 201.841 97.3442 201.81 97.1003C201.78 96.8716 201.688 96.6581 201.566 96.4904M200.636 98.2438C200.56 98.3658 200.469 98.4725 200.362 98.564C200.255 98.6555 200.148 98.7164 200.027 98.7622C199.905 98.8079 199.783 98.8232 199.645 98.8232C199.523 98.8232 199.401 98.7927 199.31 98.7317C199.218 98.6707 199.127 98.6097 199.066 98.503C199.005 98.4115 198.959 98.3048 198.959 98.1828C198.959 98.0608 198.959 97.9236 198.99 97.7711C199.035 97.6187 199.081 97.4815 199.157 97.3595C199.234 97.2375 199.325 97.1308 199.432 97.0545C199.539 96.9631 199.645 96.9021 199.767 96.8563C199.889 96.8106 200.011 96.7954 200.148 96.7954C200.286 96.7954 200.392 96.8258 200.484 96.8868C200.575 96.9478 200.667 97.0088 200.713 97.1003C200.774 97.1918 200.804 97.2985 200.819 97.4357C200.819 97.5577 200.819 97.6949 200.789 97.8474C200.743 97.9999 200.697 98.1371 200.621 98.259M204.982 98.2286C204.936 98.1066 204.875 97.9998 204.784 97.9236C204.692 97.8474 204.585 97.7711 204.448 97.7254C204.326 97.6797 204.204 97.6339 204.067 97.6034C203.945 97.5729 203.823 97.5272 203.716 97.4967C203.61 97.4662 203.533 97.4205 203.472 97.3747C203.411 97.329 203.396 97.268 203.411 97.1765C203.411 97.1155 203.457 97.0698 203.503 97.0241C203.549 96.9783 203.625 96.9326 203.701 96.9021C203.792 96.8716 203.899 96.8563 204.021 96.8716C204.174 96.8716 204.311 96.9021 204.463 96.9631C204.616 97.0088 204.753 97.085 204.89 97.1918C205.073 96.8868 205.165 96.7344 205.363 96.4142C205.226 96.2922 205.058 96.2007 204.86 96.1397C204.662 96.0788 204.448 96.033 204.235 96.033C203.899 96.033 203.61 96.0788 203.366 96.1855C203.122 96.2922 202.908 96.4447 202.756 96.6124C202.603 96.7954 202.496 96.9783 202.451 97.1918C202.405 97.39 202.405 97.5424 202.451 97.6644C202.496 97.7864 202.557 97.8931 202.649 97.9694C202.74 98.0456 202.847 98.1218 202.984 98.1676C203.106 98.2286 203.244 98.259 203.366 98.3048C203.488 98.3353 203.61 98.3658 203.716 98.4115C203.823 98.442 203.899 98.4877 203.96 98.5335C204.021 98.5792 204.036 98.6402 204.021 98.7317C204.021 98.7927 203.975 98.8537 203.93 98.8994C203.884 98.9451 203.808 98.9756 203.731 98.9909C203.64 99.0061 203.533 99.0214 203.396 99.0214C203.198 99.0214 203.015 98.9756 202.832 98.8994C202.649 98.8232 202.496 98.7317 202.375 98.625C202.176 98.9147 202.07 99.0671 201.871 99.3873C201.993 99.5093 202.176 99.616 202.42 99.7227C202.664 99.8142 202.908 99.8752 203.198 99.8752C203.533 99.8752 203.823 99.8447 204.067 99.738C204.311 99.6313 204.524 99.4788 204.677 99.2958C204.829 99.1129 204.936 98.9147 204.982 98.7164C205.027 98.5335 205.027 98.3658 204.982 98.2438M197.221 96.033C197.023 95.911 196.779 95.8501 196.474 95.8348C195.864 95.8196 195.559 95.8043 194.949 95.7891C194.553 97.329 194.416 97.8474 194.004 99.3873C194.385 99.4026 194.583 99.4178 194.965 99.433C195.071 99.0214 195.117 98.8384 195.209 98.4573C195.437 98.4573 195.559 98.4573 195.788 98.4877C196.093 98.4877 196.383 98.4573 196.626 98.3658C196.87 98.2743 197.084 98.1218 197.252 97.9389C197.419 97.7559 197.541 97.5272 197.618 97.2528C197.679 96.9936 197.679 96.7496 197.618 96.5362C197.557 96.3227 197.419 96.155 197.221 96.033ZM196.413 97.5729C196.291 97.6644 196.123 97.6949 195.925 97.6949C195.712 97.6949 195.605 97.6949 195.407 97.6797C195.513 97.268 195.559 97.0698 195.681 96.6581C195.895 96.6581 196.001 96.6581 196.2 96.6734C196.398 96.6734 196.535 96.7344 196.611 96.8258C196.687 96.9173 196.703 97.0545 196.657 97.207C196.611 97.3747 196.535 97.4967 196.413 97.5729Z" fill="#231F20"/>
<path d="M240.934 93.5936H245.782C245.782 93.5936 247.688 93.5174 248.466 92.5111C249.243 91.5048 249.35 90.8187 249.625 89.5837L256.135 59.7762C256.303 58.8309 256.394 57.9009 255.51 56.9556L253.97 55.5071C253.665 55.2327 253.253 55.0802 252.781 55.0955L252.095 55.1412L249.792 54.4856L251.225 48.1887C251.225 48.1887 251.393 47.3349 251.408 46.8927C251.454 46.1609 251.256 45.0173 250.097 43.7824C248.862 42.4711 247.109 42.1357 247.109 42.1357C246.865 42.0595 246.621 42.0137 246.347 42.0442L186.884 46.9689C185.512 47.0757 184.353 48.0362 183.972 49.3474L169.426 99.5246C169.274 100.028 169.411 100.531 169.701 100.912C170.219 101.644 170.768 102.208 171.774 103.001C172.781 103.794 173.97 103.824 173.97 103.824L233.356 106.752C233.356 106.752 236.375 107.239 237.427 106.02C238.464 104.8 238.647 103.763 238.647 103.763L240.964 93.5784L240.934 93.5936Z" stroke="#231F20" stroke-width="0.45" stroke-linecap="round" stroke-linejoin="round"/>
<path d="M198.883 105.623C198.365 107.697 196.535 115.016 196.368 115.641C196.185 116.388 195.575 117.958 194.096 118.705C192.617 119.452 190.391 119.635 189.141 120.093C188.348 120.382 187.784 120.809 187.479 121.373C187.189 121.892 187.555 122.532 188.149 122.578L227.578 125.734C227.578 125.734 227.669 125.734 227.73 125.734L237.076 124.85C237.732 124.789 238.235 124.255 238.266 123.599C238.235 124.194 238.738 124.682 239.348 124.621L252.216 123.401C252.415 123.386 252.552 123.203 252.506 123.02L247.277 93.3193" stroke="#231F20" stroke-width="0.45" stroke-linecap="round" stroke-linejoin="round"/>
<path d="M204.342 53.1745C199.036 53.5861 196.383 53.7843 191.077 54.196C190.726 54.2265 190.345 54.5772 190.238 54.9888C189.232 58.4803 188.729 60.2185 187.723 63.6947C187.601 64.1064 187.784 64.4266 188.134 64.4113C193.455 64.1674 196.124 64.0454 201.445 63.8015C201.795 63.7862 202.177 63.4203 202.283 62.9934C203.274 59.3494 203.762 57.535 204.753 53.9063C204.875 53.4794 204.677 53.144 204.342 53.1745ZM197.16 79.4599C191.809 79.4599 189.141 79.4599 183.789 79.4599C183.438 79.4599 183.057 79.7953 182.935 80.207C181.929 83.6985 181.426 85.4367 180.419 88.9129C180.297 89.3246 180.48 89.6753 180.846 89.6753C186.213 89.843 188.897 89.9192 194.263 90.0869C194.614 90.0869 194.995 89.7515 195.117 89.3246C196.108 85.6806 196.596 83.8662 197.587 80.2223C197.709 79.7953 197.511 79.4447 197.16 79.4447M200.759 66.3172C195.437 66.5154 192.769 66.6221 187.448 66.8203C187.097 66.8203 186.716 67.1863 186.594 67.5979C185.588 71.0894 185.085 72.8276 184.079 76.3038C183.957 76.7155 184.14 77.0509 184.49 77.0509C189.842 77.0052 192.51 76.9899 197.846 76.9442C198.197 76.9442 198.578 76.5935 198.7 76.1514C199.691 72.5074 200.179 70.693 201.17 67.049C201.292 66.6221 201.094 66.2714 200.743 66.2867M214.069 79.4447C208.717 79.4447 206.049 79.4447 200.698 79.4447C200.347 79.4447 199.966 79.7954 199.844 80.2375C198.853 83.8967 198.365 85.7264 197.374 89.3856C197.252 89.8277 197.45 90.1784 197.801 90.1937C203.168 90.3614 205.851 90.4376 211.218 90.6053C211.569 90.6053 211.95 90.2546 212.056 89.8125C213.032 86.0008 213.52 84.0949 214.481 80.268C214.603 79.8106 214.404 79.4447 214.054 79.4447M230.475 79.4447C225.123 79.4447 222.455 79.4447 217.103 79.4447C216.752 79.4447 216.371 79.8106 216.265 80.268C215.289 84.0949 214.816 86.016 213.84 89.8582C213.718 90.3156 213.917 90.6968 214.267 90.6968C219.634 90.8645 222.318 90.9408 227.684 91.1085C228.035 91.1085 228.416 90.7425 228.523 90.2699C229.484 86.2905 229.956 84.2931 230.901 80.2985C231.008 79.8258 230.825 79.4447 230.475 79.4447ZM237.381 50.6282C232.075 51.0399 229.423 51.2381 224.117 51.6498C223.766 51.6803 223.4 52.0614 223.278 52.5188C222.302 56.3458 221.83 58.2669 220.854 62.1091C220.732 62.5665 220.93 62.9172 221.281 62.9019C226.602 62.658 229.27 62.536 234.591 62.292C234.942 62.2768 235.308 61.8804 235.43 61.4077C236.39 57.4131 236.863 55.431 237.808 51.4363C237.915 50.9637 237.732 50.5977 237.381 50.6282ZM233.92 65.0365C228.599 65.2347 225.931 65.3414 220.61 65.5396C220.259 65.5396 219.878 65.936 219.771 66.3934C218.796 70.2204 218.323 72.1415 217.347 75.9837C217.24 76.4411 217.423 76.807 217.774 76.807C223.126 76.7612 225.794 76.746 231.13 76.7155C231.481 76.7155 231.862 76.3191 231.969 75.8464C232.914 71.867 233.402 69.8697 234.347 65.875C234.454 65.4024 234.271 65.0365 233.92 65.0365ZM221.098 51.8785C215.792 52.2901 213.139 52.4883 207.833 52.9C207.482 52.9305 207.101 53.2964 206.995 53.7386C206.003 57.3978 205.516 59.2274 204.525 62.8867C204.403 63.3288 204.601 63.6642 204.951 63.649C210.273 63.4051 212.941 63.2831 218.262 63.0391C218.613 63.0391 218.994 62.6427 219.1 62.1853C220.076 58.3736 220.564 56.4678 221.525 52.6408C221.647 52.1834 221.448 51.848 221.098 51.8632" fill="#EAEBEC"/>
<path d="M217.591 65.6617C212.27 65.8599 209.601 65.9667 204.28 66.1801C203.93 66.1801 203.548 66.5613 203.442 66.9882C202.451 70.6474 201.963 72.477 200.972 76.1363C200.85 76.5784 201.048 76.9291 201.399 76.9139C206.75 76.8681 209.418 76.8529 214.755 76.8071C215.106 76.8071 215.487 76.4412 215.593 75.9838C216.569 72.1721 217.057 70.2663 218.018 66.4393C218.124 65.9819 217.941 65.6312 217.591 65.6465" fill="#C8CACB"/>
<path d="M135.898 104.922C135.472 104.983 135.136 105.273 135.029 105.699C134.389 108.291 132.087 117.424 131.889 118.217C131.66 119.147 130.898 121.114 129.053 122.044C127.193 122.974 124.418 123.203 122.847 123.782C121.856 124.148 121.155 124.682 120.758 125.383C120.392 126.023 120.865 126.832 121.597 126.892L170.875 130.841C170.875 130.841 170.997 130.841 171.058 130.841L182.737 129.728C183.545 129.652 184.185 128.981 184.231 128.173L185.725 99.799C185.755 99.1586 185.207 98.6402 184.566 98.7164L135.883 104.907L135.898 104.922Z" fill="#D9DBDC"/>
<path d="M135.898 104.922C135.472 104.983 135.136 105.273 135.029 105.699C134.389 108.291 132.087 117.424 131.889 118.217C131.66 119.147 130.898 121.114 129.053 122.044C127.193 122.974 124.418 123.203 122.847 123.782C121.856 124.148 121.155 124.682 120.758 125.383C120.392 126.023 120.865 126.832 121.597 126.892L170.875 130.841C170.875 130.841 170.997 130.841 171.058 130.841L182.737 129.728C183.545 129.652 184.185 128.981 184.231 128.173L185.725 99.799C185.755 99.1586 185.207 98.6402 184.566 98.7164L135.883 104.907L135.898 104.922Z" stroke="#231F20" stroke-width="0.375" stroke-linecap="round" stroke-linejoin="round"/>
<path d="M183.194 106.218C183.194 106.218 182.584 119.956 182.539 120.733C182.493 121.511 182.371 123.035 180.907 124.865C179.443 126.695 175.845 126.771 173.497 127.472C171.149 128.174 170.981 130.857 170.981 130.857L182.752 129.744C183.56 129.668 184.2 128.997 184.246 128.189L185.817 98.5796L183.209 106.218H183.194Z" fill="#A6A8AB"/>
<path d="M183.194 106.218C183.194 106.218 182.584 119.956 182.539 120.733C182.493 121.511 182.371 123.035 180.907 124.865C179.443 126.695 175.845 126.771 173.497 127.472C171.149 128.174 170.981 130.857 170.981 130.857L182.752 129.744C183.56 129.668 184.2 128.997 184.246 128.189L185.817 98.5796L183.209 106.218H183.194Z" stroke="#231F20" stroke-width="0.375" stroke-linecap="round" stroke-linejoin="round"/>
<path d="M202.039 127.457L195.498 90.3311L187.601 90.6512L185.801 98.5643L184.231 128.158C184.185 128.905 184.826 129.531 185.588 129.454L201.673 127.93C201.917 127.914 202.085 127.686 202.039 127.442" fill="#808184"/>
<path d="M202.039 127.457L195.498 90.3311L187.601 90.6512L185.801 98.5643L184.231 128.158C184.185 128.905 184.826 129.531 185.588 129.454L201.673 127.93C201.917 127.914 202.085 127.686 202.039 127.442V127.457Z" stroke="#231F20" stroke-width="0.3" stroke-linecap="round" stroke-linejoin="round"/>
<path d="M195.331 26.3706C195.331 26.3706 197.526 26.7975 199.066 28.4289C200.514 29.9688 200.758 31.402 200.713 32.3169C200.682 32.8657 200.484 33.933 200.484 33.933L184.734 103.382C184.734 103.382 184.521 104.693 183.209 106.203C181.898 107.727 178.132 107.118 178.132 107.118L103.911 103.474C103.911 103.474 102.432 103.458 101.166 102.452C99.9009 101.446 99.1996 100.744 98.5592 99.8296" fill="#BBBDBF"/>
<path d="M195.331 26.3706C195.331 26.3706 197.526 26.7975 199.066 28.4289C200.514 29.9688 200.758 31.402 200.713 32.3169C200.682 32.8657 200.484 33.933 200.484 33.933L184.734 103.382C184.734 103.382 184.521 104.693 183.209 106.203C181.898 107.727 178.132 107.118 178.132 107.118L103.911 103.474C103.911 103.474 102.432 103.458 101.166 102.452C99.9009 101.446 99.1996 100.744 98.5592 99.8296" stroke="#231F20" stroke-width="0.375" stroke-linecap="round" stroke-linejoin="round"/>
<path d="M186 90.3311L184.017 98.5796" stroke="#231F20" stroke-width="0.375" stroke-linecap="round" stroke-linejoin="round"/>
<path d="M181.334 100.973C181.944 101.278 183.103 101.918 183.774 102.742" stroke="#231F20" stroke-width="0.375" stroke-linecap="round" stroke-linejoin="round"/>
<path d="M203.914 43.066L205.836 44.8804C206.949 46.0696 206.827 47.2284 206.613 48.4177L198.471 85.6656C198.136 87.1902 197.999 88.0593 197.038 89.3095C196.078 90.575 193.684 90.6513 193.684 90.6513H187.616L188.165 88.1965C188.165 88.1965 188.957 86.1535 184.261 83.714L184.368 83.2261L203.899 43.0508L203.914 43.066Z" fill="#BBBDBF"/>
<path d="M203.914 43.066L205.836 44.8804C206.949 46.0696 206.827 47.2284 206.613 48.4177L198.471 85.6656C198.136 87.1902 197.999 88.0593 197.038 89.3095C196.078 90.575 193.684 90.6513 193.684 90.6513H187.616L188.165 88.1965C188.165 88.1965 188.957 86.1535 184.261 83.714L184.368 83.2261L203.899 43.0508L203.914 43.066Z" stroke="#231F20" stroke-width="0.375" stroke-linecap="round" stroke-linejoin="round"/>
<path d="M194.324 40.5654L201.551 42.6085L202.42 42.5628C203.793 42.4865 204.875 43.7368 204.57 45.0785L196.2 83.3937C195.864 84.9183 194.385 85.9094 192.846 85.6502L191.793 85.4672L184.368 83.2412L194.309 40.5654H194.324Z" fill="#EAEBEC"/>
<path d="M194.324 40.5654L201.551 42.6085L202.42 42.5628C203.793 42.4865 204.875 43.7368 204.57 45.0785L196.2 83.3937C195.864 84.9183 194.385 85.9094 192.846 85.6502L191.793 85.4672L184.368 83.2412L194.309 40.5654H194.324Z" stroke="#231F20" stroke-width="0.375" stroke-linecap="round" stroke-linejoin="round"/>
<path d="M201.551 42.6086L202.42 42.5629C203.792 42.4867 204.875 43.7369 204.57 45.0786L196.2 83.3938C195.864 84.9185 194.385 85.9095 192.845 85.6503L191.793 85.4673L201.551 42.6239V42.6086Z" fill="white"/>
<path d="M201.551 42.6086L202.42 42.5629C203.792 42.4867 204.875 43.7369 204.57 45.0786L196.2 83.3938C195.864 84.9185 194.385 85.9095 192.845 85.6503L191.793 85.4673L201.551 42.6239V42.6086Z" stroke="#231F20" stroke-width="0.375" stroke-linecap="round" stroke-linejoin="round"/>
<path d="M120.027 32.4085L194.355 26.2488C196.017 26.1116 197.343 27.6363 196.962 29.2677L180.267 100.897C179.84 102.711 178.178 103.977 176.318 103.901L99.9925 100.592C98.727 100.531 97.858 99.3114 98.2086 98.1069L116.383 35.3817C116.855 33.735 118.304 32.5458 120.027 32.4085Z" fill="#F2F3F3"/>
<path d="M120.027 32.4085L194.355 26.2488C196.017 26.1116 197.343 27.6363 196.962 29.2677L180.267 100.897C179.84 102.711 178.178 103.977 176.318 103.901L99.9925 100.592C98.727 100.531 97.858 99.3114 98.2086 98.107L116.383 35.3817C116.855 33.735 118.304 32.5458 120.027 32.4085Z" stroke="#231F20" stroke-width="0.375" stroke-linecap="round" stroke-linejoin="round"/>
<path d="M188.485 32.9117L121.902 38.0346C121.201 38.0956 120.606 38.5683 120.408 39.2391L106.213 88.3795C106.045 88.9589 106.472 89.5383 107.082 89.5688L174.275 91.6119C175.098 91.6423 175.845 91.0782 176.028 90.2701L189.461 34.0552C189.613 33.4454 189.11 32.866 188.485 32.9117Z" fill="white"/>
<path d="M188.485 32.9117L121.902 38.0346C121.201 38.0956 120.606 38.5683 120.408 39.2391L106.213 88.3795C106.045 88.9589 106.472 89.5383 107.082 89.5688L174.275 91.6119C175.098 91.6423 175.845 91.0782 176.028 90.2701L189.461 34.0552C189.613 33.4454 189.11 32.866 188.485 32.9117Z" stroke="#231F20" stroke-width="0.375" stroke-linecap="round" stroke-linejoin="round"/>
<path d="M200.85 42.4102L191.092 85.2994C191.062 85.4213 191.077 85.5586 191.107 85.6958L191.961 88.2572C192.068 88.5622 192.342 88.7604 192.647 88.7604C192.723 88.7604 192.8 88.7604 192.876 88.7299C193.257 88.6079 193.471 88.1963 193.333 87.8151L192.541 85.4366L202.298 42.5779L201.536 42.6236L200.835 42.4254L200.85 42.4102Z" fill="#231F20"/>
<path d="M138.399 94.2951C138.247 94.0664 138.048 93.8834 137.789 93.7462C137.53 93.609 137.24 93.5327 136.905 93.5175C136.57 93.5175 136.249 93.5632 135.929 93.67C135.609 93.7919 135.319 93.9596 135.06 94.1578C134.801 94.3713 134.572 94.6153 134.374 94.8897C134.176 95.1641 134.054 95.4691 133.962 95.7893C133.886 96.1247 133.856 96.4296 133.901 96.7041C133.947 96.9938 134.054 97.2529 134.206 97.4816C134.359 97.7103 134.557 97.8933 134.816 98.0305C135.075 98.1678 135.365 98.244 135.7 98.2592C136.036 98.2592 136.371 98.2287 136.676 98.1068C136.996 98 137.286 97.8323 137.545 97.6189C137.805 97.4054 138.033 97.1615 138.216 96.887C138.399 96.6126 138.536 96.3076 138.613 95.9722C138.689 95.6368 138.704 95.3319 138.658 95.0422C138.613 94.7525 138.506 94.4933 138.353 94.2646M137.225 96.4754C137.134 96.6278 137.012 96.7498 136.89 96.8718C136.753 96.9785 136.615 97.07 136.463 97.1157C136.31 97.1767 136.158 97.192 135.99 97.192C135.822 97.192 135.685 97.1462 135.563 97.0852C135.441 97.0242 135.335 96.9328 135.258 96.8108C135.182 96.6888 135.136 96.5516 135.121 96.3991C135.106 96.2467 135.121 96.0637 135.167 95.8807C135.213 95.6825 135.289 95.5148 135.38 95.3623C135.472 95.2099 135.594 95.0879 135.716 94.9659C135.853 94.8592 135.99 94.783 136.143 94.722C136.295 94.661 136.448 94.6457 136.615 94.6457C136.783 94.6457 136.92 94.6915 137.042 94.7525C137.164 94.8135 137.271 94.9049 137.332 95.0269C137.408 95.1489 137.454 95.2861 137.469 95.4386C137.484 95.591 137.469 95.774 137.423 95.957C137.378 96.1552 137.301 96.3229 137.21 96.4754M142.653 96.4449C142.607 96.2924 142.516 96.1552 142.394 96.0637C142.272 95.957 142.135 95.8807 141.982 95.8197C141.83 95.7588 141.662 95.6978 141.51 95.652C141.357 95.6063 141.205 95.5606 141.067 95.5301C140.93 95.4843 140.839 95.4386 140.762 95.3776C140.686 95.3166 140.671 95.2404 140.686 95.1336C140.701 95.0574 140.747 94.9964 140.793 94.9354C140.854 94.8744 140.93 94.8287 141.052 94.7982C141.159 94.7677 141.296 94.7525 141.464 94.7525C141.647 94.7525 141.83 94.7982 142.013 94.8592C142.196 94.9202 142.379 95.0117 142.546 95.1489C142.775 94.783 142.897 94.5848 143.141 94.1883C142.973 94.0359 142.76 93.9139 142.516 93.8377C142.272 93.7614 142.013 93.7157 141.723 93.7004C141.311 93.7004 140.945 93.7462 140.64 93.8834C140.336 94.0206 140.076 94.2036 139.893 94.417C139.695 94.6457 139.573 94.8897 139.512 95.1489C139.451 95.3928 139.451 95.591 139.512 95.7435C139.558 95.896 139.634 96.0332 139.756 96.1399C139.878 96.2467 140.015 96.3229 140.168 96.3991C140.32 96.4601 140.488 96.5211 140.64 96.5668C140.793 96.6126 140.945 96.6583 141.083 96.7041C141.22 96.7498 141.311 96.8108 141.388 96.8718C141.464 96.9328 141.494 97.009 141.464 97.1157C141.449 97.192 141.403 97.2529 141.342 97.3139C141.281 97.3749 141.205 97.4054 141.098 97.4359C140.991 97.4664 140.854 97.4664 140.686 97.4664C140.442 97.4664 140.214 97.4054 139.985 97.3139C139.756 97.2225 139.573 97.1005 139.405 96.9633C139.162 97.3292 139.024 97.5274 138.78 97.9238C138.948 98.0763 139.162 98.2287 139.466 98.3355C139.756 98.4574 140.076 98.5184 140.427 98.5337C140.839 98.5489 141.205 98.4879 141.525 98.3507C141.83 98.2135 142.089 98.0305 142.287 97.8018C142.485 97.5731 142.607 97.3292 142.668 97.07C142.729 96.8413 142.729 96.6431 142.668 96.4754M132.971 93.7004C132.727 93.548 132.422 93.4717 132.026 93.4565C131.264 93.426 130.882 93.426 130.105 93.3955C129.602 95.3318 129.434 95.957 128.931 97.8933C129.404 97.9086 129.648 97.9238 130.12 97.9391C130.257 97.4359 130.318 97.192 130.44 96.7346C130.73 96.7346 130.882 96.7498 131.172 96.7651C131.553 96.7803 131.904 96.7193 132.224 96.5973C132.544 96.4754 132.804 96.2924 133.017 96.0637C133.231 95.835 133.383 95.5453 133.459 95.2099C133.551 94.8744 133.551 94.5848 133.459 94.3256C133.368 94.0664 133.215 93.8529 132.971 93.7004ZM131.95 95.6368C131.797 95.7435 131.599 95.7893 131.34 95.774C131.081 95.774 130.943 95.774 130.684 95.7435C130.822 95.2404 130.882 94.9812 131.02 94.4628C131.279 94.4628 131.416 94.4628 131.675 94.4933C131.919 94.4933 132.087 94.5695 132.194 94.6915C132.285 94.8135 132.316 94.9659 132.255 95.1641C132.209 95.3776 132.102 95.5301 131.95 95.6215" fill="#231F20"/>
<path d="M187.601 90.6508H193.669C193.669 90.6508 196.063 90.5593 197.023 89.3091C197.984 88.0436 198.136 87.1898 198.456 85.6651L206.598 48.4172C206.812 47.228 206.918 46.0692 205.82 44.88L203.899 43.0656C203.503 42.7302 203 42.532 202.42 42.5624L201.551 42.6234L198.67 41.8154L200.454 33.948C200.454 33.948 200.667 32.8655 200.682 32.3319C200.728 31.417 200.484 29.9838 199.036 28.4439C197.496 26.8125 195.3 26.3856 195.3 26.3856C194.995 26.2941 194.675 26.2484 194.34 26.2636L120.027 32.4081C118.319 32.5453 116.871 33.7346 116.383 35.3812L98.2086 98.1065C98.0257 98.7469 98.1781 99.372 98.5441 99.8446C99.1844 100.759 99.8858 101.461 101.151 102.467C102.417 103.458 103.896 103.489 103.896 103.489L178.117 107.133C178.117 107.133 181.898 107.742 183.194 106.218C184.505 104.693 184.719 103.397 184.719 103.397L187.601 90.6661V90.6508Z" stroke="#231F20" stroke-width="0.6" stroke-linecap="round" stroke-linejoin="round"/>
<path d="M135.029 105.7C134.374 108.292 132.087 117.425 131.889 118.233C131.66 119.163 130.898 121.13 129.053 122.06C127.193 122.99 124.418 123.218 122.847 123.798C121.856 124.164 121.155 124.697 120.758 125.399C120.392 126.039 120.865 126.847 121.597 126.908L170.875 130.857C170.875 130.857 170.997 130.857 171.058 130.857L182.737 129.744C183.545 129.668 184.185 128.997 184.231 128.189C184.185 128.936 184.825 129.546 185.588 129.47L201.673 127.945C201.917 127.93 202.085 127.701 202.039 127.457L195.498 90.3311" stroke="#231F20" stroke-width="0.6" stroke-linecap="round" stroke-linejoin="round"/>
<path d="M141.86 40.123C135.228 40.6262 131.919 40.8854 125.287 41.3885C124.86 41.419 124.387 41.8764 124.235 42.3795C122.969 46.7401 122.344 48.9052 121.079 53.2657C120.926 53.7841 121.155 54.1805 121.597 54.1653C128.245 53.8604 131.569 53.7079 138.231 53.403C138.674 53.3877 139.146 52.9303 139.284 52.3967C140.519 47.8531 141.144 45.5814 142.379 41.0226C142.531 40.4889 142.287 40.0773 141.86 40.1078M154.012 72.9798C147.319 72.9798 143.98 72.9798 137.301 72.9798C136.859 72.9798 136.387 73.422 136.249 73.9709C135.014 78.5449 134.389 80.8319 133.154 85.4212C133.002 85.9701 133.246 86.4123 133.688 86.4275C140.397 86.6257 143.751 86.7324 150.459 86.9307C150.902 86.9307 151.374 86.5037 151.511 85.9244C152.731 81.1521 153.326 78.7736 154.546 74.0014C154.698 73.4372 154.454 72.9798 154.012 72.9798ZM137.378 56.559C130.715 56.8182 127.391 56.9402 120.728 57.1994C120.286 57.2147 119.813 57.6416 119.661 58.16C118.395 62.5205 117.77 64.6856 116.52 69.0462C116.368 69.5646 116.612 69.9762 117.038 69.9762C123.717 69.9305 127.056 69.9 133.734 69.8543C134.176 69.8543 134.649 69.4121 134.786 68.8632C136.021 64.3197 136.646 62.0479 137.881 57.4891C138.033 56.9555 137.789 56.5286 137.362 56.5438M132.895 72.9798C126.217 72.9798 122.863 72.9798 116.185 72.9798C115.742 72.9798 115.27 73.3915 115.117 73.9099C113.852 78.2705 113.227 80.4508 111.961 84.7961C111.809 85.3145 112.053 85.7414 112.48 85.7567C119.188 85.9549 122.543 86.0616 129.251 86.2598C129.693 86.2598 130.166 85.8481 130.318 85.3145C131.553 80.771 132.179 78.4992 133.414 73.9404C133.566 73.4068 133.322 72.9646 132.88 72.9646M183.164 36.9517C176.531 37.4548 173.223 37.714 166.591 38.2172C166.164 38.2477 165.691 38.7356 165.538 39.3149C164.334 44.1024 163.724 46.4962 162.504 51.2989C162.352 51.863 162.596 52.3204 163.038 52.2899C169.686 51.985 173.009 51.8325 179.672 51.5276C180.114 51.5124 180.572 51.0092 180.724 50.4146C181.914 45.4289 182.508 42.9437 183.697 37.958C183.835 37.3633 183.606 36.9212 183.164 36.9517ZM178.849 54.9581C172.186 55.2173 168.862 55.3393 162.199 55.5985C161.757 55.6137 161.3 56.0864 161.147 56.6658C159.928 61.4533 159.333 63.847 158.113 68.6498C157.976 69.2139 158.205 69.6865 158.647 69.6713C165.325 69.6255 168.664 69.5951 175.342 69.5493C175.784 69.5493 176.257 69.0614 176.394 68.4668C177.583 63.4811 178.178 60.9959 179.367 56.0102C179.505 55.4155 179.276 54.9581 178.834 54.9734M162.825 38.5221C156.192 39.0252 152.884 39.2844 146.251 39.7876C145.809 39.8181 145.352 40.2907 145.199 40.8244C143.964 45.3984 143.339 47.6854 142.104 52.2747C141.952 52.8236 142.196 53.2505 142.623 53.22C149.27 52.9151 152.609 52.7626 159.257 52.4577C159.699 52.4424 160.172 51.9698 160.309 51.3904C161.529 46.6181 162.138 44.2396 163.343 39.4674C163.495 38.9033 163.251 38.4764 162.809 38.5069M174.534 72.9798C167.856 72.9798 164.502 72.9798 157.824 72.9798C157.381 72.9798 156.909 73.4372 156.772 74.0166C155.552 78.8041 154.957 81.1979 153.737 86.0006C153.6 86.5647 153.829 87.0374 154.271 87.0526C160.98 87.2508 164.334 87.3576 171.043 87.5558C171.485 87.5558 171.957 87.0984 172.095 86.5037C173.284 81.518 173.878 79.0328 175.068 74.0471C175.205 73.4525 174.961 72.9798 174.534 72.9798Z" fill="#EAEBEC"/>
<path d="M158.418 55.751C151.755 56.0102 148.432 56.1321 141.769 56.3913C141.327 56.4066 140.854 56.864 140.717 57.4129C139.482 61.9869 138.857 64.2739 137.622 68.8632C137.469 69.4121 137.713 69.839 138.155 69.839C144.833 69.7933 148.172 69.7628 154.85 69.717C155.293 69.717 155.765 69.2444 155.902 68.6803C157.122 63.908 157.717 61.5295 158.937 56.7573C159.089 56.1931 158.845 55.751 158.403 55.7662" fill="#C8CACB"/>
<path d="M187.295 32.0731C187.311 25.6085 192.556 20.3788 198.974 20.4093C205.454 20.4398 210.654 25.6695 210.623 32.1036C210.593 38.5682 205.363 43.7826 198.929 43.7521C192.464 43.7217 187.28 38.5072 187.295 32.0731Z" fill="#246FF4"/>
<path d="M196.642 34.2074C196.55 34.1007 196.489 34.0092 196.428 33.9482C195.895 33.4146 195.376 32.881 194.843 32.3626C194.263 31.8137 193.333 32.0424 193.105 32.7895C192.967 33.2164 193.089 33.5976 193.41 33.9177C194.218 34.7106 195.01 35.5187 195.819 36.3267C196.383 36.8909 196.962 36.8909 197.541 36.3267C198.426 35.4577 199.295 34.5734 200.179 33.689C201.49 32.3778 202.802 31.0666 204.113 29.7554C204.418 29.4504 204.57 29.115 204.463 28.6881C204.372 28.2917 204.128 28.0325 203.732 27.9105C203.32 27.7885 202.954 27.9105 202.649 28.2154C201.292 29.5724 199.95 30.9141 198.593 32.2711C197.953 32.9115 197.328 33.5518 196.642 34.2227" fill="#231F20"/>
<path d="M196.642 34.2075C197.328 33.5214 197.953 32.8811 198.593 32.256C199.95 30.899 201.292 29.5573 202.649 28.2003C202.954 27.8954 203.305 27.7734 203.732 27.8954C204.128 28.0021 204.372 28.2765 204.463 28.673C204.57 29.0999 204.403 29.4353 204.113 29.7402C202.802 31.0515 201.49 32.3627 200.179 33.6739C199.295 34.543 198.426 35.4273 197.541 36.3116C196.962 36.8757 196.383 36.891 195.819 36.3116C195.01 35.5188 194.218 34.7107 193.41 33.9026C193.089 33.5824 192.983 33.2165 193.105 32.7743C193.333 32.0273 194.263 31.7986 194.843 32.3474C195.392 32.8658 195.91 33.3995 196.428 33.9331C196.505 34.0093 196.55 34.0856 196.642 34.1923" fill="white"/>
<path d="M239.135 46.329C239.135 39.8643 244.38 34.6347 250.814 34.6652C257.294 34.6957 262.493 39.9253 262.462 46.3595C262.432 52.8241 257.202 58.0385 250.768 58.008C244.303 57.9775 239.12 52.7631 239.135 46.329Z" fill="#246FF4"/>
<path d="M248.481 48.4633C248.389 48.3566 248.328 48.2651 248.267 48.2041C247.734 47.6705 247.215 47.1368 246.682 46.6184C246.102 46.0695 245.172 46.2982 244.944 47.0453C244.806 47.4723 244.928 47.8534 245.249 48.1736C246.057 48.9664 246.849 49.7745 247.658 50.5826C248.222 51.1467 248.801 51.1467 249.38 50.5826C250.265 49.7135 251.134 48.8292 252.018 47.9449C253.329 46.6337 254.641 45.3225 255.952 44.0112C256.257 43.7063 256.409 43.3709 256.302 42.944C256.211 42.5475 255.967 42.2883 255.571 42.1664C255.159 42.0444 254.793 42.1664 254.488 42.4713C253.146 43.8283 251.789 45.17 250.432 46.5269C249.792 47.1673 249.167 47.8077 248.481 48.4785" fill="#231F20"/>
<path d="M248.481 48.4634C249.167 47.7773 249.792 47.1369 250.432 46.5118C251.789 45.1549 253.131 43.8131 254.488 42.4562C254.793 42.1512 255.144 42.0293 255.571 42.1512C255.967 42.258 256.211 42.5324 256.302 42.9288C256.409 43.3557 256.241 43.6912 255.952 43.9961C254.641 45.3073 253.329 46.6185 252.018 47.9298C251.149 48.7988 250.265 49.6831 249.38 50.5675C248.801 51.1316 248.222 51.1468 247.658 50.5675C246.849 49.7746 246.057 48.9665 245.249 48.1585C244.928 47.8383 244.806 47.4724 244.944 47.0302C245.172 46.2831 246.102 46.0544 246.682 46.6033C247.215 47.1217 247.749 47.6553 248.267 48.189C248.344 48.2652 248.389 48.3414 248.481 48.4482" fill="white"/>
</g>
<defs>
<clipPath id="clip0_811_12919">
<rect width="164.955" height="111.058" fill="white" transform="translate(97.5225 20.4092)"/>
</clipPath>
</defs>
</svg>
