<svg width="360" height="168" viewBox="0 0 360 168" fill="none" xmlns="http://www.w3.org/2000/svg">
<rect width="360" height="166.673" transform="translate(0 0.466797)" fill="white"/>
<rect width="360" height="166.673" transform="translate(0 0.466797)" fill="#246FF4" fill-opacity="0.2"/>
<g clip-path="url(#clip0_811_12984)">
<path d="M224.352 146.507C224.352 146.507 225.585 143.063 223.151 141.546C219.375 139.176 218.854 134.641 218.854 134.641L215.425 104.778H144.575L141.147 134.641C141.147 134.641 140.625 139.176 136.849 141.546C134.416 143.079 135.648 146.507 135.648 146.507H224.352Z" fill="#D9DBDC"/>
<path d="M224.352 146.507C224.352 146.507 225.585 143.063 223.151 141.546C219.375 139.176 218.854 134.641 218.854 134.641L215.425 104.778H144.575L141.147 134.641C141.147 134.641 140.625 139.176 136.849 141.546C134.416 143.079 135.648 146.507 135.648 146.507H224.352Z" stroke="#231F20" stroke-width="1.26404" stroke-linecap="round" stroke-linejoin="round"/>
<path d="M237.53 119.883H122.47C117.794 119.883 113.986 116.091 113.986 111.399V29.5835C113.986 24.8908 117.778 21.0986 122.47 21.0986H237.53C242.207 21.0986 246.015 24.8908 246.015 29.5835V111.414C246.015 116.091 242.223 119.899 237.53 119.899" fill="#F2F3F3"/>
<path d="M237.53 21.0986H122.47C117.784 21.0986 113.986 24.8974 113.986 29.5835V111.399C113.986 116.085 117.784 119.883 122.47 119.883H237.53C242.216 119.883 246.015 116.085 246.015 111.399V29.5835C246.015 24.8974 242.216 21.0986 237.53 21.0986Z" stroke="#231F20" stroke-width="1.26404" stroke-linecap="round" stroke-linejoin="round"/>
<path d="M175.102 109.187C174.707 109.013 174.249 108.918 173.712 108.918H171.026V114.796H172.685V113.263H173.696C174.233 113.263 174.707 113.184 175.086 112.995C175.465 112.805 175.781 112.568 175.987 112.252C176.192 111.936 176.303 111.541 176.303 111.083C176.303 110.625 176.192 110.261 175.987 109.929C175.781 109.598 175.481 109.345 175.086 109.171M174.375 111.731C174.201 111.889 173.949 111.952 173.601 111.952H172.685V110.23H173.601C173.949 110.23 174.217 110.309 174.375 110.467C174.549 110.625 174.644 110.83 174.644 111.099C174.644 111.367 174.549 111.589 174.375 111.731ZM189.481 112.252C189.354 112.047 189.196 111.873 188.991 111.762C188.785 111.636 188.58 111.541 188.343 111.462C188.106 111.383 187.869 111.32 187.632 111.273C187.395 111.225 187.174 111.178 186.984 111.13C186.794 111.083 186.636 111.02 186.51 110.941C186.384 110.862 186.32 110.767 186.32 110.625C186.32 110.53 186.352 110.451 186.415 110.372C186.478 110.293 186.573 110.23 186.715 110.182C186.858 110.135 187.031 110.103 187.268 110.103C187.521 110.103 187.79 110.135 188.058 110.214C188.327 110.293 188.611 110.403 188.896 110.561L189.402 109.329C189.117 109.155 188.785 109.029 188.422 108.934C188.043 108.855 187.663 108.808 187.284 108.808C186.715 108.808 186.226 108.902 185.831 109.076C185.451 109.25 185.151 109.487 184.962 109.771C184.772 110.056 184.677 110.372 184.677 110.719C184.677 111.035 184.74 111.288 184.851 111.494C184.977 111.699 185.135 111.873 185.325 111.999C185.515 112.126 185.736 112.236 185.989 112.315C186.226 112.394 186.463 112.458 186.7 112.505C186.937 112.552 187.142 112.6 187.347 112.663C187.553 112.726 187.711 112.774 187.837 112.853C187.964 112.932 188.027 113.026 188.027 113.169C188.027 113.263 187.995 113.358 187.932 113.421C187.869 113.5 187.774 113.548 187.632 113.595C187.49 113.627 187.316 113.658 187.079 113.658C186.731 113.658 186.399 113.611 186.052 113.5C185.704 113.39 185.404 113.248 185.135 113.09L184.582 114.322C184.851 114.512 185.214 114.654 185.657 114.78C186.099 114.907 186.573 114.954 187.063 114.954C187.648 114.954 188.137 114.859 188.517 114.685C188.912 114.512 189.196 114.275 189.386 113.99C189.575 113.706 189.67 113.39 189.67 113.042C189.67 112.726 189.607 112.473 189.481 112.268M182.844 109.677C182.56 109.408 182.212 109.187 181.817 109.045C181.422 108.887 180.98 108.823 180.522 108.823C180.063 108.823 179.621 108.902 179.21 109.045C178.815 109.203 178.468 109.408 178.183 109.692C177.899 109.977 177.662 110.293 177.504 110.672C177.346 111.035 177.251 111.446 177.251 111.889C177.251 112.331 177.33 112.742 177.504 113.105C177.678 113.485 177.899 113.801 178.183 114.085C178.468 114.369 178.815 114.575 179.226 114.733C179.621 114.891 180.063 114.954 180.522 114.954C180.98 114.954 181.422 114.875 181.817 114.733C182.212 114.575 182.56 114.369 182.86 114.101C183.16 113.832 183.382 113.5 183.54 113.137C183.698 112.758 183.777 112.347 183.777 111.905C183.777 111.462 183.698 111.051 183.524 110.688C183.366 110.324 183.129 109.993 182.844 109.724M181.975 112.552C181.896 112.758 181.786 112.932 181.643 113.09C181.501 113.232 181.327 113.358 181.138 113.437C180.948 113.516 180.743 113.548 180.506 113.548C180.269 113.548 180.079 113.516 179.874 113.437C179.684 113.358 179.51 113.248 179.368 113.09C179.226 112.947 179.115 112.758 179.036 112.552C178.957 112.347 178.91 112.11 178.91 111.857C178.91 111.604 178.957 111.367 179.036 111.162C179.115 110.956 179.226 110.783 179.368 110.625C179.51 110.482 179.684 110.356 179.874 110.293C180.063 110.214 180.269 110.182 180.506 110.182C180.743 110.182 180.932 110.214 181.138 110.293C181.327 110.372 181.501 110.482 181.643 110.625C181.786 110.767 181.896 110.956 181.975 111.162C182.054 111.367 182.102 111.604 182.102 111.857C182.102 112.11 182.054 112.347 181.975 112.552Z" fill="#58595B"/>
<path d="M235.855 104.778H124.13C122.455 104.778 121.096 103.419 121.096 101.744V31.1636C121.096 29.4887 122.455 28.1299 124.13 28.1299H235.855C237.53 28.1299 238.889 29.4887 238.889 31.1636V101.729C238.889 103.404 237.53 104.762 235.855 104.762" fill="white"/>
<path d="M235.855 28.1299H124.13C122.454 28.1299 121.096 29.4881 121.096 31.1636V101.744C121.096 103.42 122.454 104.778 124.13 104.778H235.855C237.531 104.778 238.889 103.42 238.889 101.744V31.1636C238.889 29.4881 237.531 28.1299 235.855 28.1299Z" stroke="#231F20" stroke-width="0.790026" stroke-linecap="round" stroke-linejoin="round"/>
<path d="M158.369 47.2168L161.608 42.7611C162.067 42.129 162.793 41.7656 163.568 41.7656H177.772C178.547 41.7656 179.273 42.129 179.732 42.7611L182.718 46.8692C183.176 47.5012 183.903 47.8646 184.677 47.8646H198.044C200.272 47.8646 202.074 49.6659 202.074 51.8938V71.913C202.074 74.1409 200.272 75.9421 198.044 75.9421H161.94C159.712 75.9421 157.911 74.1409 157.911 71.913V48.6547C157.911 48.149 158.069 47.6434 158.369 47.2326" fill="#BBBDBF"/>
<path d="M158.369 47.2168L161.608 42.7611C162.067 42.129 162.793 41.7656 163.568 41.7656H177.772C178.547 41.7656 179.273 42.129 179.732 42.7611L182.718 46.8692C183.176 47.5012 183.903 47.8646 184.677 47.8646H198.044C200.272 47.8646 202.074 49.6659 202.074 51.8938V71.913C202.074 74.1409 200.272 75.9421 198.044 75.9421H161.94C159.712 75.9421 157.911 74.1409 157.911 71.913V48.6547C157.911 48.149 158.069 47.6434 158.369 47.2326V47.2168Z" stroke="#231F20" stroke-width="1.26404" stroke-linecap="round" stroke-linejoin="round"/>
<path d="M185.451 59.589C185.214 59.4468 185.04 59.2729 184.898 59.0517C184.772 58.8305 184.709 58.5777 184.709 58.3091C184.709 58.0405 184.772 57.8035 184.898 57.5823C185.025 57.3611 185.214 57.1715 185.451 57.0451C185.688 56.9187 185.941 56.8555 186.21 56.8555C186.478 56.8555 186.715 56.9187 186.936 57.0451C187.158 57.1715 187.347 57.3453 187.49 57.5823C187.632 57.8035 187.695 58.0563 187.695 58.3091C187.695 58.5619 187.632 58.8305 187.49 59.0517C187.347 59.2729 187.158 59.4626 186.936 59.589C186.715 59.7312 186.462 59.7944 186.21 59.7944C185.957 59.7944 185.688 59.7312 185.451 59.589ZM185.451 65.2613C185.214 65.1191 185.04 64.9453 184.898 64.7241C184.772 64.5029 184.709 64.2501 184.709 63.9815C184.709 63.7129 184.772 63.4759 184.898 63.2547C185.025 63.0335 185.214 62.8439 185.451 62.7175C185.688 62.5911 185.941 62.5279 186.21 62.5279C186.478 62.5279 186.715 62.5911 186.936 62.7175C187.158 62.8439 187.347 63.0177 187.49 63.2547C187.632 63.4759 187.695 63.7287 187.695 63.9815C187.695 64.2343 187.632 64.5029 187.49 64.7241C187.347 64.9453 187.158 65.1349 186.936 65.2613C186.715 65.4035 186.462 65.4667 186.21 65.4667C185.957 65.4667 185.688 65.4035 185.451 65.2613Z" fill="#231F20"/>
<path d="M179.431 58.72C179.273 58.4514 179.036 58.2618 178.752 58.1196C178.467 57.9774 178.12 57.9142 177.74 57.9142C177.235 57.9142 176.792 58.0406 176.429 58.2934C176.066 58.5462 175.797 58.9096 175.592 59.3836C175.402 59.8576 175.307 60.4265 175.307 61.0901C175.307 61.7537 175.402 62.3699 175.592 62.8281C175.781 63.3022 176.066 63.6498 176.429 63.9026C176.792 64.1554 177.219 64.266 177.709 64.266C178.088 64.266 178.42 64.2028 178.704 64.0764C178.989 63.95 179.21 63.7604 179.384 63.5234C179.558 63.2864 179.668 63.0019 179.731 62.6701L182.718 62.7017C182.654 63.3812 182.433 64.029 182.022 64.661C181.612 65.293 181.043 65.8144 180.3 66.2252C179.558 66.6361 178.673 66.8415 177.661 66.8415C176.65 66.8415 175.718 66.6203 174.896 66.162C174.091 65.7196 173.443 65.056 172.985 64.187C172.526 63.318 172.289 62.2909 172.289 61.0901C172.289 59.8892 172.526 58.8464 173 57.9774C173.474 57.1083 174.106 56.4605 174.912 56.0181C175.718 55.5757 176.634 55.3545 177.646 55.3545C178.578 55.3545 179.4 55.5283 180.142 55.8601C180.869 56.1919 181.454 56.6817 181.912 57.3296C182.354 57.9774 182.623 58.7516 182.702 59.6364H179.716C179.684 59.2888 179.589 58.9728 179.431 58.72Z" fill="#231F20"/>
<path d="M225.237 94.6662H134.763C132.535 94.6662 130.734 92.8649 130.734 90.637C130.734 88.4092 132.535 86.6079 134.763 86.6079H225.237C227.465 86.6079 229.266 88.4092 229.266 90.637C229.266 92.8649 227.465 94.6662 225.237 94.6662Z" fill="#D9DBDC"/>
<path d="M225.237 94.6662H134.763C132.535 94.6662 130.734 92.8649 130.734 90.637C130.734 88.4092 132.535 86.6079 134.763 86.6079H225.237C227.465 86.6079 229.266 88.4092 229.266 90.637C229.266 92.8649 227.465 94.6662 225.237 94.6662Z" stroke="#231F20" stroke-width="0.790026" stroke-linecap="round" stroke-linejoin="round"/>
<path d="M166.933 94.6662H134.763C132.535 94.6662 130.734 92.8649 130.734 90.637C130.734 88.4092 132.535 86.6079 134.763 86.6079H166.933C169.161 86.6079 170.962 88.4092 170.962 90.637C170.962 92.8649 169.161 94.6662 166.933 94.6662Z" fill="#0074BB"/>
<path d="M166.933 94.6662H134.763C132.535 94.6662 130.734 92.8649 130.734 90.637C130.734 88.4092 132.535 86.6079 134.763 86.6079H166.933C169.161 86.6079 170.962 88.4092 170.962 90.637C170.962 92.8649 169.161 94.6662 166.933 94.6662Z" fill="#246FF4" stroke="#231F20" stroke-width="0.790026" stroke-miterlimit="10"/>
</g>
<defs>
<clipPath id="clip0_811_12984">
<rect width="133.293" height="126.673" fill="white" transform="translate(113.353 20.4668)"/>
</clipPath>
</defs>
</svg>
