<svg width="360" height="163" viewBox="0 0 360 163" fill="none" xmlns="http://www.w3.org/2000/svg">
<rect width="360" height="162.185" transform="translate(0 0.139648)" fill="white"/>
<rect width="360" height="162.185" transform="translate(0 0.139648)" fill="#246FF4" fill-opacity="0.2"/>
<g clip-path="url(#clip0_811_13004)">
<path d="M161.095 110.708C160.605 110.771 160.226 111.119 160.099 111.593C159.356 114.547 156.749 125.007 156.512 125.908C156.244 126.967 155.391 129.226 153.273 130.285C151.156 131.343 147.98 131.612 146.179 132.276C145.057 132.686 144.251 133.303 143.793 134.109C143.382 134.851 143.904 135.768 144.757 135.831L201.086 140.35C201.086 140.35 201.228 140.35 201.291 140.35L214.642 139.086C215.575 138.991 216.302 138.248 216.349 137.3L218.071 104.878C218.103 104.151 217.471 103.55 216.744 103.645L161.11 110.724L161.095 110.708Z" fill="#D9DBDC"/>
<path d="M161.095 110.708C160.605 110.771 160.226 111.119 160.099 111.593C159.356 114.547 156.749 125.007 156.512 125.908C156.244 126.967 155.391 129.226 153.273 130.285C151.156 131.343 147.98 131.612 146.179 132.276C145.057 132.686 144.251 133.303 143.793 134.109C143.382 134.851 143.904 135.768 144.757 135.831L201.086 140.35C201.086 140.35 201.228 140.35 201.291 140.35L214.642 139.086C215.575 138.991 216.302 138.248 216.349 137.3L218.071 104.878C218.103 104.151 217.471 103.55 216.744 103.645L161.11 110.724L161.095 110.708Z" stroke="#231F20" stroke-width="0.790026" stroke-linecap="round" stroke-linejoin="round"/>
<path d="M196.598 139.971C196.598 139.971 196.946 141.219 197.641 141.503L202.239 141.693C202.239 141.693 203.155 141.077 203.392 140.176L196.598 139.971Z" fill="#231F20"/>
<path d="M196.598 139.971C196.598 139.971 196.946 141.219 197.641 141.503L202.239 141.693C202.239 141.693 203.155 141.077 203.392 140.176L196.598 139.971Z" stroke="#231F20" stroke-width="1.26404" stroke-linecap="round" stroke-linejoin="round"/>
<path d="M146.195 135.926C146.195 135.926 146.527 137.016 147.269 137.269L150.998 137.443C150.998 137.443 151.946 137.111 152.12 136.4L146.195 135.926Z" fill="#231F20"/>
<path d="M146.195 135.926C146.195 135.926 146.527 137.016 147.269 137.269L150.998 137.443C150.998 137.443 151.946 137.111 152.12 136.4L146.195 135.926Z" stroke="#231F20" stroke-width="1.26404" stroke-linecap="round" stroke-linejoin="round"/>
<path d="M215.148 112.177C215.148 112.177 214.453 127.867 214.406 128.768C214.358 129.669 214.216 131.407 212.541 133.492C210.882 135.578 206.758 135.673 204.072 136.479C201.386 137.269 201.196 140.35 201.196 140.35L214.643 139.07C215.575 138.975 216.302 138.233 216.349 137.3L218.135 103.456L215.148 112.193V112.177Z" fill="#A6A8AB"/>
<path d="M215.148 112.177C215.148 112.177 214.453 127.867 214.406 128.768C214.358 129.669 214.216 131.407 212.541 133.492C210.882 135.578 206.758 135.673 204.072 136.479C201.386 137.269 201.196 140.35 201.196 140.35L214.643 139.07C215.575 138.975 216.302 138.233 216.349 137.3L218.135 103.456L215.148 112.193V112.177Z" stroke="#231F20" stroke-width="0.790026" stroke-linecap="round" stroke-linejoin="round"/>
<path d="M236.7 136.447L229.226 94.0225L220.189 94.4017L218.134 103.455L216.349 137.284C216.302 138.153 217.044 138.849 217.897 138.77L236.273 137.016C236.542 136.984 236.747 136.731 236.7 136.463" fill="#808184"/>
<path d="M236.7 136.447L229.226 94.0225L220.189 94.4017L218.134 103.455L216.349 137.284C216.302 138.153 217.044 138.849 217.897 138.77L236.273 137.016C236.542 136.984 236.747 136.731 236.7 136.463V136.447Z" stroke="#231F20" stroke-width="0.695223" stroke-linecap="round" stroke-linejoin="round"/>
<path d="M229.021 20.9136C229.021 20.9136 231.533 21.3876 233.287 23.2679C234.93 25.0375 235.215 26.665 235.167 27.7078C235.136 28.324 234.899 29.5565 234.899 29.5565L216.902 108.938C216.902 108.938 216.649 110.423 215.164 112.162C213.679 113.9 209.349 113.204 209.349 113.204L124.516 109.033C124.516 109.033 122.826 109.001 121.388 107.864C119.95 106.726 119.144 105.905 118.417 104.878" fill="#BBBDBF"/>
<path d="M229.021 20.9136C229.021 20.9136 231.533 21.3876 233.287 23.2679C234.93 25.0375 235.215 26.665 235.167 27.7078C235.136 28.324 234.899 29.5565 234.899 29.5565L216.902 108.938C216.902 108.938 216.649 110.423 215.164 112.162C213.679 113.9 209.349 113.204 209.349 113.204L124.516 109.033C124.516 109.033 122.826 109.001 121.388 107.864C119.95 106.726 119.144 105.905 118.417 104.878" stroke="#231F20" stroke-width="0.790026" stroke-linecap="round" stroke-linejoin="round"/>
<path d="M218.356 94.0225L216.096 103.44" stroke="#231F20" stroke-width="0.790026" stroke-linecap="round" stroke-linejoin="round"/>
<path d="M213.015 106.189C213.71 106.537 215.022 107.28 215.796 108.212" stroke="#231F20" stroke-width="0.790026" stroke-linecap="round" stroke-linejoin="round"/>
<path d="M238.833 40.0005L241.029 42.0704C242.293 43.4292 242.151 44.7564 241.914 46.1153L232.608 88.6977C232.229 90.4357 232.055 91.4312 230.964 92.869C229.858 94.3069 227.125 94.4017 227.125 94.4017H220.189L220.821 91.605C220.821 91.605 221.721 89.2665 216.365 86.4698L216.491 85.9168L238.817 40.0005H238.833Z" fill="#BBBDBF"/>
<path d="M238.833 40.0005L241.029 42.0704C242.293 43.4292 242.151 44.7564 241.914 46.1153L232.608 88.6977C232.229 90.4357 232.055 91.4312 230.964 92.869C229.858 94.3069 227.125 94.4017 227.125 94.4017H220.189L220.821 91.605C220.821 91.605 221.721 89.2665 216.365 86.4698L216.491 85.9168L238.817 40.0005H238.833Z" stroke="#231F20" stroke-width="0.790026" stroke-linecap="round" stroke-linejoin="round"/>
<path d="M227.868 37.1406L236.131 39.4791L237.127 39.4159C238.691 39.3211 239.923 40.7589 239.592 42.2916L230.016 86.0906C229.637 87.8445 227.947 88.9663 226.177 88.6661L224.976 88.4607L216.491 85.9168L227.868 37.1406Z" fill="#EAEBEC"/>
<path d="M227.868 37.1406L236.131 39.4791L237.127 39.4159C238.691 39.3211 239.923 40.7589 239.592 42.2916L230.016 86.0906C229.637 87.8445 227.947 88.9663 226.177 88.6661L224.976 88.4607L216.491 85.9168L227.868 37.1406Z" stroke="#231F20" stroke-width="0.790026" stroke-linecap="round" stroke-linejoin="round"/>
<path d="M236.147 39.4793L237.143 39.4161C238.707 39.3213 239.939 40.7591 239.607 42.2918L230.032 86.0908C229.653 87.8288 227.962 88.9665 226.193 88.6663L224.992 88.4609L236.147 39.4793Z" fill="white"/>
<path d="M236.147 39.4793L237.143 39.4161C238.707 39.3213 239.939 40.7591 239.607 42.2918L230.032 86.0908C229.653 87.8288 227.962 88.9665 226.193 88.6663L224.992 88.4609L236.147 39.4793Z" stroke="#231F20" stroke-width="0.790026" stroke-linecap="round" stroke-linejoin="round"/>
<path d="M142.956 27.8186L227.915 20.7874C229.827 20.6293 231.328 22.3674 230.886 24.2319L211.799 106.094C211.309 108.18 209.413 109.618 207.28 109.523L120.061 105.747C118.623 105.684 117.627 104.293 118.022 102.903L138.8 31.2157C139.353 29.3354 140.996 27.9766 142.956 27.8186Z" fill="#F2F3F3"/>
<path d="M142.956 27.8186L227.915 20.7874C229.827 20.6293 231.328 22.3674 230.886 24.2319L211.799 106.094C211.309 108.18 209.413 109.618 207.28 109.523L120.061 105.747C118.623 105.684 117.627 104.293 118.022 102.903L138.8 31.2157C139.353 29.3354 140.996 27.9766 142.956 27.8186Z" stroke="#231F20" stroke-width="0.790026" stroke-linecap="round" stroke-linejoin="round"/>
<path d="M221.2 28.3876L145.105 34.2338C144.299 34.297 143.635 34.8501 143.398 35.6243L127.155 91.7793C126.966 92.4429 127.455 93.1066 128.135 93.1382L204.941 95.4766C205.889 95.5082 206.727 94.8604 206.948 93.944L222.306 29.6991C222.48 29.0039 221.911 28.3402 221.2 28.3876Z" fill="white"/>
<path d="M221.2 28.3876L145.105 34.2338C144.299 34.297 143.635 34.8501 143.398 35.6243L127.155 91.7793C126.966 92.4429 127.455 93.1066 128.135 93.1382L204.941 95.4766C205.889 95.5082 206.727 94.8604 206.948 93.944L222.306 29.6991C222.48 29.0039 221.911 28.3402 221.2 28.3876Z" stroke="#231F20" stroke-width="0.790026" stroke-linecap="round" stroke-linejoin="round"/>
<path d="M235.341 39.2585L224.186 88.2717C224.154 88.4139 224.154 88.5719 224.202 88.7141L225.181 91.653C225.292 92.0006 225.624 92.2218 225.971 92.2218C226.066 92.2218 226.145 92.2218 226.24 92.1744C226.682 92.0322 226.92 91.5582 226.762 91.1158L225.861 88.3981L237.016 39.4165L236.147 39.4639L235.341 39.2427V39.2585Z" fill="#231F20"/>
<path d="M163.954 98.5573C163.781 98.3045 163.544 98.0833 163.259 97.9253C162.975 97.7673 162.643 97.6883 162.248 97.6725C161.869 97.6725 161.49 97.7199 161.126 97.8463C160.763 97.9727 160.431 98.1623 160.131 98.4151C159.831 98.6521 159.578 98.9365 159.357 99.2525C159.135 99.5685 158.977 99.9162 158.898 100.28C158.803 100.659 158.788 101.006 158.835 101.338C158.882 101.67 159.009 101.97 159.183 102.223C159.357 102.492 159.594 102.697 159.878 102.855C160.178 103.013 160.51 103.108 160.889 103.124C161.284 103.139 161.648 103.076 162.011 102.95C162.374 102.823 162.706 102.634 163.006 102.397C163.307 102.16 163.575 101.875 163.781 101.559C164.002 101.243 164.144 100.896 164.239 100.501C164.334 100.122 164.349 99.7739 164.302 99.4421C164.239 99.1103 164.128 98.8259 163.954 98.5573ZM162.611 101.038C162.501 101.212 162.374 101.354 162.216 101.48C162.074 101.607 161.9 101.702 161.727 101.765C161.553 101.828 161.379 101.86 161.189 101.844C161 101.844 160.842 101.796 160.7 101.717C160.557 101.638 160.447 101.544 160.352 101.401C160.257 101.275 160.21 101.117 160.194 100.927C160.178 100.754 160.194 100.548 160.241 100.327C160.305 100.106 160.384 99.9162 160.478 99.7423C160.589 99.5685 160.715 99.4263 160.873 99.2999C161.031 99.1735 161.189 99.0787 161.363 99.0155C161.537 98.9523 161.727 98.9207 161.9 98.9365C162.074 98.9365 162.248 98.9839 162.39 99.0629C162.532 99.1419 162.643 99.2367 162.722 99.3789C162.801 99.5211 162.864 99.6633 162.88 99.853C162.896 100.027 162.88 100.232 162.833 100.453C162.769 100.675 162.69 100.864 162.58 101.038M168.821 101.022C168.758 100.848 168.663 100.69 168.537 100.58C168.394 100.469 168.236 100.374 168.063 100.295C167.889 100.232 167.715 100.169 167.525 100.106C167.336 100.058 167.178 100.011 167.02 99.9636C166.862 99.9162 166.751 99.8529 166.672 99.7897C166.593 99.7265 166.562 99.6317 166.593 99.5053C166.609 99.4263 166.656 99.3473 166.72 99.2841C166.783 99.2209 166.878 99.1577 167.004 99.1261C167.13 99.0945 167.288 99.0629 167.478 99.0787C167.683 99.0787 167.905 99.1261 168.11 99.2051C168.315 99.2841 168.521 99.3947 168.71 99.5369C168.979 99.1103 169.121 98.8891 169.39 98.4309C169.2 98.2571 168.963 98.1307 168.679 98.0359C168.394 97.9411 168.094 97.8937 167.778 97.8779C167.304 97.8779 166.893 97.9411 166.546 98.0991C166.182 98.2571 165.898 98.4625 165.677 98.7153C165.456 98.9681 165.313 99.2525 165.234 99.5527C165.171 99.8213 165.155 100.058 165.219 100.232C165.266 100.422 165.361 100.564 165.503 100.675C165.629 100.785 165.787 100.88 165.977 100.959C166.151 101.038 166.34 101.101 166.514 101.149C166.688 101.196 166.862 101.243 167.02 101.307C167.178 101.354 167.288 101.417 167.367 101.48C167.446 101.559 167.478 101.638 167.446 101.749C167.431 101.844 167.383 101.923 167.32 101.97C167.257 102.033 167.162 102.081 167.036 102.112C166.909 102.144 166.751 102.16 166.562 102.144C166.277 102.144 166.009 102.065 165.756 101.97C165.503 101.86 165.282 101.733 165.092 101.575C164.808 102.002 164.665 102.207 164.365 102.665C164.539 102.839 164.808 102.997 165.14 103.139C165.471 103.266 165.851 103.345 166.246 103.361C166.72 103.376 167.146 103.313 167.494 103.155C167.841 102.997 168.142 102.792 168.363 102.539C168.584 102.286 168.726 102.002 168.805 101.702C168.868 101.433 168.868 101.212 168.805 101.022M157.745 97.8779C157.46 97.7041 157.113 97.6093 156.67 97.5935C155.801 97.5619 155.359 97.5461 154.49 97.5303C153.921 99.7423 153.732 100.469 153.147 102.681C153.7 102.697 153.969 102.713 154.506 102.744C154.664 102.16 154.727 101.891 154.869 101.354C155.201 101.354 155.375 101.37 155.707 101.386C156.149 101.401 156.544 101.338 156.907 101.196C157.271 101.054 157.571 100.848 157.808 100.58C158.045 100.311 158.219 99.9794 158.314 99.6001C158.408 99.2209 158.408 98.8891 158.314 98.5889C158.219 98.2887 158.029 98.0517 157.745 97.8779ZM156.591 100.09C156.418 100.216 156.181 100.264 155.896 100.248C155.596 100.248 155.454 100.232 155.154 100.216C155.312 99.6317 155.375 99.3473 155.533 98.7469C155.833 98.7469 155.975 98.7627 156.275 98.7785C156.56 98.7785 156.749 98.8575 156.86 98.9997C156.971 99.1419 156.986 99.3157 156.939 99.5527C156.876 99.7897 156.765 99.9636 156.591 100.09Z" fill="#231F20"/>
<path d="M220.188 94.4016H227.125C227.125 94.4016 229.858 94.3068 230.964 92.869C232.07 91.4311 232.228 90.4357 232.608 88.6976L241.914 46.1153C242.151 44.7564 242.293 43.4292 241.013 42.0703L238.817 40.0005C238.375 39.6212 237.774 39.3842 237.127 39.4158L236.131 39.479L232.845 38.5468L234.883 29.5563C234.883 29.5563 235.12 28.3239 235.151 27.7077C235.215 26.6648 234.93 25.0216 233.271 23.2677C231.517 21.3874 229.005 20.9134 229.005 20.9134C228.657 20.8186 228.294 20.7554 227.915 20.787L142.955 27.8183C140.996 27.9763 139.337 29.3351 138.8 31.2154L118.022 102.902C117.817 103.629 117.991 104.34 118.417 104.877C119.144 105.92 119.95 106.726 121.388 107.864C122.826 109.001 124.516 109.033 124.516 109.033L209.349 113.204C209.349 113.204 213.679 113.899 215.164 112.161C216.649 110.423 216.902 108.938 216.902 108.938L220.204 94.3858L220.188 94.4016Z" stroke="#231F20" stroke-width="1.26404" stroke-linecap="round" stroke-linejoin="round"/>
<path d="M160.115 111.593C159.372 114.548 156.765 125.008 156.528 125.909C156.26 126.967 155.406 129.227 153.289 130.285C151.172 131.344 147.996 131.613 146.195 132.276C145.073 132.687 144.267 133.303 143.809 134.109C143.398 134.852 143.919 135.768 144.773 135.831L201.101 140.35C201.101 140.35 201.244 140.35 201.307 140.35L214.658 139.086C215.59 138.991 216.317 138.249 216.365 137.317C216.317 138.17 217.044 138.865 217.913 138.786L236.289 137.032C236.558 137 236.763 136.748 236.7 136.479L229.226 94.0547" stroke="#231F20" stroke-width="1.26404" stroke-linecap="round" stroke-linejoin="round"/>
<path d="M201.259 90.8471C178.949 90.1677 156.654 89.4882 134.344 88.8088C133.839 88.793 133.57 88.3032 133.744 87.7028C138.421 71.5547 143.098 55.3907 147.759 39.2268C147.933 38.6264 148.47 38.1208 148.975 38.0892C171.017 36.3985 193.075 34.7079 215.116 33.0014C215.606 32.9698 215.891 33.4754 215.717 34.1548C211.293 52.6414 206.869 71.1438 202.46 89.6305C202.302 90.3099 201.765 90.8471 201.259 90.8313" fill="white"/>
<path d="M156.654 79.3755C156.654 79.3755 162.358 58.4398 163.749 53.3836C165.661 46.3524 166.119 44.6775 166.119 44.6775C175.03 44.1403 179.47 43.8717 188.382 43.3345C187.481 46.8264 186.233 51.9142 186.233 51.9142C183.942 60.873 182.789 65.3446 180.497 74.3035C180.497 74.3035 179.139 79.6125 176.863 79.5967C174.588 79.5809 156.654 79.3913 156.654 79.3913" fill="#F1F1F2"/>
<path d="M156.654 79.3755C156.654 79.3755 162.358 58.4398 163.749 53.3836C165.661 46.3524 166.119 44.6775 166.119 44.6775C175.03 44.1403 179.47 43.8717 188.382 43.3345C187.481 46.8264 186.233 51.9142 186.233 51.9142C183.942 60.873 182.789 65.3446 180.497 74.3035C180.497 74.3035 179.139 79.6125 176.863 79.5967C174.588 79.5809 156.654 79.3913 156.654 79.3913" stroke="#231F20" stroke-width="1.26404" stroke-linecap="round" stroke-linejoin="round"/>
<path d="M155.722 81.335C155.722 81.335 153.605 79.992 154.269 76.5001C163.212 75.9312 167.683 75.631 176.627 74.999C176.627 74.999 175.394 79.1704 176.864 79.5812C168.41 80.308 164.192 80.6556 155.722 81.335Z" fill="#BBBDBF"/>
<path d="M155.722 81.335C155.722 81.335 153.605 79.992 154.269 76.5001C163.212 75.9312 167.683 75.631 176.627 74.999C176.627 74.999 175.394 79.1704 176.864 79.5812C168.41 80.308 164.192 80.6556 155.722 81.335Z" stroke="#231F20" stroke-width="1.26404" stroke-linecap="round" stroke-linejoin="round"/>
<path d="M182.678 53.9686C176.089 54.2372 172.787 54.3636 166.214 54.6164C166.593 53.2102 166.783 52.5149 167.162 51.1087C173.751 50.7927 177.037 50.6505 183.626 50.3345C183.247 51.7881 183.057 52.5149 182.694 53.9528" fill="#A4A7A9"/>
<path d="M181.777 57.4445C175.189 57.6657 171.886 57.7763 165.297 57.9817C165.424 57.5235 165.487 57.2865 165.613 56.8283C172.202 56.5913 175.505 56.4807 182.093 56.2437C181.967 56.7177 181.904 56.9547 181.793 57.4287" fill="#D7D8DA"/>
<path d="M180.814 61.1733C174.209 61.3471 170.922 61.4261 164.318 61.5999C164.444 61.1417 164.507 60.9047 164.634 60.4465C171.238 60.2569 174.525 60.1779 181.13 59.9883C181.003 60.4623 180.94 60.6993 180.829 61.1733" fill="#D7D8DA"/>
<path d="M179.85 64.8864C173.245 65.0128 169.943 65.076 163.338 65.1866C163.465 64.7284 163.528 64.4914 163.654 64.0332C170.259 63.891 173.561 63.8278 180.166 63.6855C180.039 64.1596 179.976 64.3966 179.866 64.8706" fill="#D7D8DA"/>
<path d="M178.886 68.6001C172.281 68.6791 168.979 68.7107 162.359 68.7897C162.485 68.3315 162.548 68.0945 162.675 67.6362C169.279 67.5414 172.582 67.5098 179.186 67.415C179.06 67.8891 178.997 68.1261 178.886 68.6001Z" fill="#D7D8DA"/>
<path d="M192.158 54.5847C192.68 54.0633 193.249 53.4787 193.817 52.8941C194.212 52.4833 194.355 52.4833 194.56 52.8625C194.797 53.3207 195.034 53.7789 195.287 54.2371C195.445 54.5373 195.382 54.7585 195.081 55.0904C194.497 55.6908 193.896 56.2912 193.359 56.8442C193.391 57.5236 193.407 58.1399 193.454 58.7719C193.454 58.8351 193.533 58.8825 193.58 58.8825C194.149 58.8825 194.718 58.8509 195.303 58.8351C195.682 58.8351 195.761 58.9773 195.634 59.4671C195.461 60.1465 195.303 60.8259 195.129 61.5054C195.002 61.9794 194.844 62.1374 194.481 62.1532C193.912 62.1532 193.343 62.1848 192.775 62.1848C192.648 62.1848 192.585 62.2322 192.506 62.3902C192.19 63.0064 191.858 63.6068 191.511 64.2547C191.779 64.7761 192.079 65.3449 192.364 65.9137C192.538 66.2455 192.49 66.4667 192.143 66.8143C191.669 67.2884 191.179 67.7624 190.705 68.2364C190.325 68.6156 190.183 68.6156 189.994 68.2522C189.725 67.7308 189.456 67.2252 189.188 66.7037C189.156 66.6563 189.125 66.6089 189.093 66.6089C188.556 66.8617 188.003 67.0987 187.466 67.3674C187.418 67.3832 187.355 67.5096 187.339 67.5728C187.15 68.3154 186.96 69.058 186.77 69.8164C186.644 70.3063 186.486 70.4643 186.123 70.4643C185.601 70.4643 185.064 70.4643 184.543 70.4643C184.242 70.4643 184.147 70.2905 184.242 69.9112C184.432 69.137 184.622 68.3786 184.827 67.6202C184.859 67.478 184.843 67.4148 184.748 67.3674C184.337 67.162 183.926 66.9249 183.5 66.6879C182.947 67.2252 182.362 67.794 181.777 68.3786C181.446 68.6946 181.288 68.6946 181.13 68.3786C180.877 67.9046 180.624 67.4306 180.387 66.9565C180.213 66.6405 180.276 66.4351 180.608 66.1033C181.13 65.5819 181.667 65.0763 182.188 64.5549C182.251 64.4917 182.299 64.4285 182.315 64.3811C182.283 63.7648 182.267 63.1486 182.236 62.5324C182.236 62.485 182.157 62.4376 182.109 62.4376C181.54 62.4376 180.972 62.4534 180.387 62.4692C180.008 62.4692 179.929 62.327 180.055 61.853C180.229 61.1894 180.403 60.5257 180.577 59.8463C180.687 59.4197 180.861 59.2459 181.177 59.2459C181.809 59.2301 182.441 59.2143 183.041 59.1985C183.421 58.5191 183.8 57.8554 184.195 57.176C183.974 56.7652 183.737 56.3228 183.5 55.8804C183.421 55.7382 183.342 55.596 183.263 55.438C183.168 55.2484 183.231 55.0114 183.421 54.8059C183.989 54.2371 184.543 53.6683 185.111 53.1153C185.317 52.9099 185.506 52.9257 185.633 53.1311C185.917 53.6367 186.186 54.1581 186.454 54.6795C186.486 54.7427 186.502 54.8059 186.518 54.8691C186.518 54.8375 186.533 54.8059 186.549 54.7743C187.102 54.5057 187.639 54.2529 188.192 53.9843C188.24 53.9685 188.303 53.8421 188.319 53.7631C188.508 53.0205 188.698 52.2779 188.888 51.5352C189.014 51.0612 189.172 50.9032 189.535 50.8874C190.057 50.8558 190.594 50.84 191.116 50.8242C191.432 50.8242 191.511 50.9822 191.416 51.393C191.226 52.1515 191.037 52.9099 190.831 53.6841C190.784 53.8421 190.831 53.8895 190.926 53.9369C191.337 54.1423 191.732 54.3635 192.158 54.5847ZM187.055 63.6858C188.335 63.67 189.709 62.2954 190.136 60.6205C190.563 58.9457 189.867 57.6184 188.603 57.65C187.323 57.6974 185.949 59.0563 185.522 60.7153C185.096 62.3744 185.791 63.7016 187.071 63.6858" fill="#246FF4"/>
<path d="M192.158 54.5847C192.68 54.0633 193.249 53.4787 193.817 52.8941C194.212 52.4833 194.355 52.4833 194.56 52.8625C194.797 53.3207 195.034 53.7789 195.287 54.2371C195.445 54.5373 195.382 54.7585 195.081 55.0904C194.497 55.6908 193.896 56.2912 193.359 56.8442C193.391 57.5236 193.407 58.1399 193.454 58.7719C193.454 58.8351 193.533 58.8825 193.58 58.8825C194.149 58.8825 194.718 58.8509 195.303 58.8351C195.682 58.8351 195.761 58.9773 195.634 59.4671C195.461 60.1465 195.303 60.8259 195.129 61.5054C195.002 61.9794 194.844 62.1374 194.481 62.1532C193.912 62.1532 193.343 62.1848 192.775 62.1848C192.648 62.1848 192.585 62.2322 192.506 62.3902C192.19 63.0064 191.858 63.6068 191.511 64.2547C191.779 64.7761 192.079 65.3449 192.364 65.9137C192.538 66.2455 192.49 66.4667 192.143 66.8143C191.669 67.2884 191.179 67.7624 190.705 68.2364C190.325 68.6156 190.183 68.6156 189.994 68.2522C189.725 67.7308 189.456 67.2252 189.188 66.7037C189.156 66.6563 189.125 66.6089 189.093 66.6089C188.556 66.8617 188.003 67.0987 187.466 67.3674C187.418 67.3832 187.355 67.5096 187.339 67.5728C187.15 68.3154 186.96 69.058 186.77 69.8164C186.644 70.3063 186.486 70.4643 186.123 70.4643C185.601 70.4643 185.064 70.4643 184.543 70.4643C184.242 70.4643 184.147 70.2905 184.242 69.9112C184.432 69.137 184.622 68.3786 184.827 67.6202C184.859 67.478 184.843 67.4148 184.748 67.3674C184.337 67.162 183.926 66.9249 183.5 66.6879C182.947 67.2252 182.362 67.794 181.777 68.3786C181.446 68.6946 181.288 68.6946 181.13 68.3786C180.877 67.9046 180.624 67.4306 180.387 66.9565C180.213 66.6405 180.276 66.4351 180.608 66.1033C181.13 65.5819 181.667 65.0763 182.188 64.5549C182.251 64.4917 182.299 64.4285 182.315 64.3811C182.283 63.7648 182.267 63.1486 182.236 62.5324C182.236 62.485 182.157 62.4376 182.109 62.4376C181.54 62.4376 180.972 62.4534 180.387 62.4692C180.008 62.4692 179.929 62.327 180.055 61.853C180.229 61.1894 180.403 60.5257 180.577 59.8463C180.687 59.4197 180.861 59.2459 181.177 59.2459C181.809 59.2301 182.441 59.2143 183.041 59.1985C183.421 58.5191 183.8 57.8554 184.195 57.176C183.974 56.7652 183.737 56.3228 183.5 55.8804C183.421 55.7382 183.342 55.596 183.263 55.438C183.168 55.2484 183.231 55.0114 183.421 54.8059C183.989 54.2371 184.543 53.6683 185.111 53.1153C185.317 52.9099 185.506 52.9257 185.633 53.1311C185.917 53.6367 186.186 54.1581 186.454 54.6795C186.486 54.7427 186.502 54.8059 186.518 54.8691C186.518 54.8375 186.533 54.8059 186.549 54.7743C187.102 54.5057 187.639 54.2529 188.192 53.9843C188.24 53.9685 188.303 53.8421 188.319 53.7631C188.508 53.0205 188.698 52.2779 188.888 51.5352C189.014 51.0612 189.172 50.9032 189.535 50.8874C190.057 50.8558 190.594 50.84 191.116 50.8242C191.432 50.8242 191.511 50.9822 191.416 51.393C191.226 52.1515 191.037 52.9099 190.831 53.6841C190.784 53.8421 190.831 53.8895 190.926 53.9369C191.337 54.1423 191.732 54.3635 192.158 54.5847ZM187.055 63.6858C188.335 63.67 189.709 62.2954 190.136 60.6205C190.563 58.9457 189.867 57.6184 188.603 57.65C187.323 57.6974 185.949 59.0563 185.522 60.7153C185.096 62.3744 185.791 63.7016 187.071 63.6858H187.055Z" stroke="#231F20" stroke-width="1.26404" stroke-linecap="round" stroke-linejoin="round"/>
</g>
<defs>
<clipPath id="clip0_811_13004">
<rect width="125.409" height="122.185" fill="white" transform="translate(117.296 20.1396)"/>
</clipPath>
</defs>
</svg>
