<svg width="360" height="222" viewBox="0 0 360 222" fill="none" xmlns="http://www.w3.org/2000/svg">
<rect width="360" height="221.115" fill="white"/>
<rect width="360" height="221.115" fill="#246FF4" fill-opacity="0.2"/>
<rect x="91" y="20" width="50" height="50" rx="24.75" fill="#00B123"/>
<path d="M112.708 59.8126V49.9376H111.062C110.596 49.9376 110.206 49.7796 109.891 49.4636C109.576 49.1476 109.418 48.757 109.417 48.2918V40.0626C109.417 39.1574 109.739 38.3827 110.384 37.7387C111.03 37.0946 111.804 36.772 112.708 36.7709H119.292C120.197 36.7709 120.972 37.0935 121.617 37.7387C122.262 38.3838 122.584 39.1585 122.583 40.0626V48.2918C122.583 48.7581 122.425 49.1492 122.109 49.4652C121.793 49.7812 121.403 49.9387 120.937 49.9376H119.292V59.8126C119.292 60.2789 119.134 60.6701 118.818 60.9861C118.502 61.3021 118.111 61.4595 117.646 61.4584H114.354C113.888 61.4584 113.497 61.3004 113.182 60.9844C112.867 60.6684 112.709 60.2778 112.708 59.8126ZM116 35.1251C115.095 35.1251 114.32 34.8031 113.676 34.159C113.032 33.5149 112.709 32.7397 112.708 31.8334C112.707 30.9271 113.03 30.1525 113.676 29.5095C114.322 28.8665 115.097 28.544 116 28.5418C116.903 28.5396 117.678 28.8621 118.326 29.5095C118.973 30.1569 119.295 30.9315 119.292 31.8334C119.288 32.7353 118.966 33.5105 118.326 34.159C117.685 34.8074 116.91 35.1295 116 35.1251Z" fill="white"/>
<path d="M113 81.8828V82.1406C112.992 83.3125 112.969 84.332 112.93 85.1992C112.898 86.0586 112.824 87.0586 112.707 88.1992C112.59 89.332 112.406 90.5625 112.156 91.8906L109.531 91.6094C109.781 90.375 109.965 89.2109 110.082 88.1172C110.199 87.0156 110.273 86.0391 110.305 85.1875C110.344 84.3359 110.367 83.3359 110.375 82.1875V81.9297H97.7188V79.8438H113V81.8828ZM115.016 96.3438H95.7031V94.2109H102.828V86.8516H105.406V94.2109H115.016V96.3438ZM134.083 90.3438H131.598V85.0703H129.372V90.25H126.911V78.3203H129.372V82.9375H131.598V77.9219H134.083V90.3438ZM134.083 99.0859H131.481V93.3203H119.481V91.2109H134.083V99.0859ZM125.2 79.3984C125.208 82.0234 124.54 84.2578 123.196 86.1016C121.86 87.9375 119.825 89.4141 117.09 90.5312L115.848 88.5859C119.887 87.0469 122.122 84.6875 122.551 81.5078H116.809V79.3984H125.2Z" fill="#333333"/>
<path d="M86.8906 116.281C87.8698 116.286 88.7448 116.44 89.5156 116.742C90.2865 117.044 90.888 117.471 91.3203 118.023C91.7526 118.57 91.9688 119.203 91.9688 119.922C91.9688 120.599 91.7786 121.201 91.3984 121.727C91.0234 122.253 90.4974 122.672 89.8203 122.984C89.1432 123.297 88.3646 123.482 87.4844 123.539V126.453H93.2812V127.484H80.5625V126.453H86.2812V123.539C85.4062 123.482 84.6302 123.297 83.9531 122.984C83.276 122.667 82.75 122.247 82.375 121.727C82 121.201 81.8125 120.599 81.8125 119.922C81.8125 119.203 82.0286 118.57 82.4609 118.023C82.8932 117.471 83.4948 117.044 84.2656 116.742C85.0365 116.44 85.9115 116.286 86.8906 116.281ZM86.8906 117.297C86.1458 117.297 85.4766 117.409 84.8828 117.633C84.2943 117.852 83.8333 118.161 83.5 118.562C83.1667 118.958 83 119.411 83 119.922C83 120.448 83.1667 120.911 83.5 121.312C83.8333 121.714 84.2943 122.023 84.8828 122.242C85.4714 122.461 86.1406 122.573 86.8906 122.578C87.6406 122.573 88.3099 122.461 88.8984 122.242C89.487 122.023 89.9479 121.714 90.2812 121.312C90.6146 120.911 90.7812 120.448 90.7812 119.922C90.7812 119.411 90.6146 118.958 90.2812 118.562C89.9479 118.161 89.4844 117.852 88.8906 117.633C88.3021 117.409 87.6354 117.297 86.8906 117.297ZM101.149 117.734H96.0081V124.812C97.331 124.812 98.443 124.781 99.3441 124.719C100.25 124.656 101.164 124.536 102.086 124.359L102.243 125.375C101.258 125.562 100.295 125.69 99.3519 125.758C98.4092 125.826 97.2373 125.859 95.8363 125.859H94.7738V116.703H101.149V117.734ZM105.602 129.297H104.368V121.453H100.321V120.438H104.368V115.375H105.602V129.297ZM117.337 117.984H113.009V120.656H117.134V121.641H113.009V124.781C114.118 124.776 115.024 124.753 115.728 124.711C116.431 124.664 117.144 124.573 117.868 124.438L117.978 125.453C117.201 125.604 116.433 125.706 115.673 125.758C114.918 125.805 113.936 125.828 112.728 125.828H111.837V116.984H117.337V117.984ZM123.181 129.266H121.993V121.984H120.087V128.562H118.899V115.672H120.087V120.969H121.993V115.375H123.181V129.266ZM127.689 116.969H134.564V115.625H135.783V120.203H126.47V115.625H127.689V116.969ZM134.564 119.266V117.906H127.689V119.266H134.564ZM137.439 122.391H124.783V121.406H137.439V122.391ZM135.814 126.75H127.564V128.141H136.236V129.109H126.345V125.844H134.611V124.609H126.314V123.672H135.814V126.75ZM149.744 124.781H148.541V115.375H149.744V124.781ZM145.338 120.172H140.213V122.234C141.598 122.234 142.785 122.203 143.775 122.141C144.765 122.078 145.78 121.958 146.822 121.781L146.947 122.781C145.858 122.964 144.804 123.089 143.783 123.156C142.762 123.219 141.551 123.25 140.15 123.25H139.025V119.219H144.119V117.297H138.994V116.281H145.338V120.172ZM145.884 124.469C145.879 125.099 146.09 125.68 146.517 126.211C146.949 126.742 147.525 127.185 148.244 127.539C148.968 127.888 149.749 128.13 150.588 128.266L150.119 129.219C149.015 129.021 148.022 128.661 147.142 128.141C146.267 127.62 145.634 126.971 145.244 126.195C144.843 126.971 144.199 127.62 143.314 128.141C142.434 128.667 141.447 129.026 140.353 129.219L139.853 128.266C140.697 128.13 141.481 127.888 142.205 127.539C142.934 127.185 143.515 126.742 143.947 126.211C144.384 125.68 144.603 125.099 144.603 124.469V124.062H145.884V124.469Z" fill="#333333"/>
<path d="M112.557 138L116 141.435L119.443 138L120.5 139.057L116 143.557L111.5 139.057L112.557 138Z" fill="black"/>
<path d="M92.8906 157.183H95V152.229H96.1719V165.12H95V158.198H92.8906V162.089H87.5781V153.558H92.8906V157.183ZM88.7344 161.104H91.7344V154.542H88.7344V161.104ZM98.9688 165.823H97.7812V151.933H98.9688V165.823ZM111.743 157.651H102.18V152.651H103.43V156.636H111.743V157.651ZM113.227 160.683H109.93V165.823H108.711V160.683H105.102V165.823H103.883V160.683H100.571V159.667H113.227V160.683ZM124.79 153.901C124.785 154.495 125.017 155.063 125.485 155.604C125.954 156.141 126.566 156.594 127.321 156.964C128.076 157.334 128.863 157.578 129.681 157.698L129.228 158.667C128.493 158.542 127.785 158.334 127.103 158.042C126.425 157.75 125.824 157.386 125.298 156.948C124.772 156.506 124.373 156.013 124.103 155.472C123.832 156.013 123.433 156.503 122.907 156.94C122.381 157.378 121.78 157.745 121.103 158.042C120.431 158.334 119.733 158.542 119.009 158.667L118.524 157.698C119.337 157.578 120.121 157.334 120.876 156.964C121.631 156.594 122.243 156.141 122.712 155.604C123.181 155.063 123.415 154.495 123.415 153.901V153.808H118.962V152.808H129.228V153.808H124.79V153.901ZM130.431 160.87H124.681V165.823H123.478V160.87H117.774V159.854H130.431V160.87ZM143.986 160.058H138.329V162.901H137.111V160.058H131.267V159.042H143.986V160.058ZM142.329 157.448H132.923V152.62H142.329V157.448ZM134.126 156.464H141.111V153.589H134.126V156.464ZM142.564 165.526H132.892V161.526H134.126V164.495H142.564V165.526Z" fill="#333333"/>
<path d="M112.557 174.558L116 177.993L119.443 174.558L120.5 175.615L116 180.115L111.5 175.615L112.557 174.558Z" fill="black"/>
<path d="M92.8906 193.74H95V188.787H96.1719V201.677H95V194.756H92.8906V198.646H87.5781V190.115H92.8906V193.74ZM88.7344 197.662H91.7344V191.099H88.7344V197.662ZM98.9688 202.381H97.7812V188.49H98.9688V202.381ZM111.743 194.209H102.18V189.209H103.43V193.193H111.743V194.209ZM113.227 197.24H109.93V202.381H108.711V197.24H105.102V202.381H103.883V197.24H100.571V196.224H113.227V197.24ZM124.743 189.787C124.743 190.412 124.985 191.011 125.47 191.584C125.959 192.157 126.595 192.638 127.376 193.029C128.157 193.42 128.967 193.672 129.806 193.787L129.306 194.787C128.576 194.667 127.871 194.459 127.188 194.162C126.506 193.86 125.897 193.485 125.36 193.037C124.824 192.584 124.41 192.081 124.118 191.529C123.832 192.081 123.418 192.584 122.876 193.037C122.339 193.485 121.73 193.86 121.048 194.162C120.366 194.459 119.66 194.667 118.931 194.787L118.431 193.787C119.274 193.672 120.084 193.422 120.86 193.037C121.636 192.646 122.267 192.167 122.751 191.599C123.235 191.026 123.478 190.422 123.478 189.787V188.99H124.743V189.787ZM130.431 197.349H124.681V202.381H123.478V197.349H117.774V196.318H130.431V197.349ZM137.876 193.177H133.095V195.302C134.47 195.302 135.548 195.279 136.329 195.232C137.116 195.185 137.902 195.089 138.689 194.943L138.814 195.959C138.069 196.094 137.327 196.185 136.587 196.232C135.853 196.279 134.897 196.302 133.72 196.302H132.861H131.876V192.193H136.658V190.302H131.845V189.287H137.876V193.177ZM142.798 197.099H141.564V194.537H138.814V193.506H141.564V191.693H138.814V190.693H141.564V188.506H142.798V197.099ZM138.204 197.334C139.163 197.334 139.991 197.435 140.689 197.638C141.387 197.842 141.921 198.138 142.29 198.529C142.66 198.914 142.845 199.375 142.845 199.912C142.845 200.448 142.66 200.907 142.29 201.287C141.921 201.672 141.387 201.964 140.689 202.162C139.996 202.36 139.168 202.459 138.204 202.459C137.236 202.459 136.4 202.36 135.697 202.162C134.999 201.964 134.462 201.672 134.087 201.287C133.717 200.907 133.533 200.448 133.533 199.912C133.533 199.375 133.72 198.914 134.095 198.529C134.47 198.138 135.006 197.842 135.704 197.638C136.408 197.435 137.241 197.334 138.204 197.334ZM138.204 198.302C137.496 198.302 136.884 198.368 136.368 198.498C135.853 198.623 135.457 198.808 135.181 199.052C134.91 199.292 134.777 199.579 134.783 199.912C134.777 200.24 134.91 200.524 135.181 200.763C135.457 200.998 135.85 201.177 136.361 201.302C136.876 201.427 137.491 201.49 138.204 201.49C138.913 201.49 139.525 201.427 140.04 201.302C140.556 201.177 140.952 200.998 141.228 200.763C141.504 200.524 141.642 200.24 141.642 199.912C141.642 199.579 141.504 199.292 141.228 199.052C140.952 198.808 140.556 198.623 140.04 198.498C139.525 198.368 138.913 198.302 138.204 198.302Z" fill="#333333"/>
<rect x="230" y="20" width="50" height="50" rx="24.75" fill="#246FF4"/>
<path d="M255 54.375H245.625V48.125H255M269.062 48.125V45L267.5 37.1875H242.5L240.938 45V48.125H242.5V57.5H258.125V48.125H264.375V57.5H267.5V48.125M267.5 32.5H242.5V35.625H267.5V32.5Z" fill="white"/>
<path d="M252.984 99.0859H250.477V88.2344H248.227V98.0547H245.766V78.2734H248.227V86.0781H250.477V77.8984H252.984V99.0859ZM243.68 93.625H235.359V80.1953H243.68V93.625ZM237.797 91.5625H241.242V82.2578H237.797V91.5625ZM262.559 81.7188C262.559 82.6016 262.747 83.4414 263.122 84.2383C263.504 85.0352 264.071 85.7422 264.821 86.3594C265.571 86.9688 266.481 87.4375 267.551 87.7656L266.309 89.8047C265.145 89.4453 264.137 88.9062 263.286 88.1875C262.442 87.4688 261.782 86.6211 261.305 85.6445C260.829 86.7773 260.145 87.7617 259.254 88.5977C258.364 89.4336 257.293 90.0625 256.043 90.4844L254.731 88.4219C255.84 88.0547 256.786 87.5312 257.567 86.8516C258.348 86.1641 258.938 85.3789 259.336 84.4961C259.735 83.6133 259.934 82.6953 259.934 81.7422V81.4844H255.458V79.375H266.965V81.4844H262.559V81.7188ZM271.676 82.9844H274.629V85.1172H271.676V90.5312H269.075V77.8984H271.676V82.9844ZM264.786 91C266.239 91 267.497 91.1602 268.559 91.4805C269.629 91.793 270.45 92.25 271.02 92.8516C271.59 93.4531 271.879 94.1719 271.887 95.0078C271.879 95.8516 271.586 96.5781 271.008 97.1875C270.438 97.7969 269.622 98.2617 268.559 98.582C267.497 98.9023 266.239 99.0625 264.786 99.0625C263.317 99.0625 262.043 98.9023 260.965 98.582C259.887 98.2617 259.059 97.7969 258.481 97.1875C257.903 96.5781 257.614 95.8516 257.614 95.0078C257.614 94.1719 257.903 93.4531 258.481 92.8516C259.059 92.25 259.887 91.793 260.965 91.4805C262.043 91.1602 263.317 91 264.786 91ZM264.786 93.0391C263.325 93.0391 262.196 93.207 261.399 93.543C260.61 93.8789 260.215 94.3672 260.215 95.0078C260.215 95.6641 260.61 96.1641 261.399 96.5078C262.196 96.8516 263.325 97.0234 264.786 97.0234C266.247 97.0234 267.364 96.8516 268.137 96.5078C268.918 96.1641 269.309 95.6641 269.309 95.0078C269.309 94.3672 268.918 93.8789 268.137 93.543C267.364 93.207 266.247 93.0391 264.786 93.0391Z" fill="#333333"/>
<path d="M219.547 125.734H213.141V116.781H219.547V125.734ZM214.328 124.734H218.328V117.766H214.328V124.734ZM223.312 120.922H225.641V121.984H223.312V129.266H222.094V115.375H223.312V120.922ZM232.993 117.422C232.993 118.177 233.245 118.909 233.75 119.617C234.261 120.32 234.914 120.919 235.711 121.414C236.508 121.904 237.315 122.224 238.133 122.375L237.571 123.406C236.862 123.24 236.164 122.969 235.477 122.594C234.789 122.219 234.172 121.755 233.625 121.203C233.078 120.651 232.659 120.044 232.368 119.383C232.076 120.039 231.657 120.643 231.11 121.195C230.563 121.747 229.946 122.214 229.258 122.594C228.576 122.969 227.878 123.24 227.164 123.406L226.602 122.375C227.42 122.214 228.224 121.891 229.016 121.406C229.808 120.917 230.453 120.32 230.953 119.617C231.459 118.914 231.711 118.182 231.711 117.422V116.359H232.993V117.422ZM238.789 127.375H226.071V126.359H238.789V127.375ZM251.094 129.297H249.876V121.641H246.938V120.625H249.876V115.375H251.094V129.297ZM246.704 117.672H241.454V120.562H246.094V121.562H241.454V124.922C242.782 124.922 243.896 124.893 244.798 124.836C245.704 124.773 246.62 124.661 247.548 124.5L247.688 125.516C246.704 125.677 245.735 125.789 244.782 125.852C243.829 125.909 242.662 125.938 241.282 125.938H240.219V116.656H246.704V117.672ZM262.845 117.984H258.517V120.656H262.642V121.641H258.517V124.781C259.626 124.776 260.533 124.753 261.236 124.711C261.939 124.664 262.652 124.573 263.376 124.438L263.486 125.453C262.71 125.604 261.941 125.706 261.181 125.758C260.426 125.805 259.444 125.828 258.236 125.828H257.345V116.984H262.845V117.984ZM268.689 129.266H267.501V121.984H265.595V128.562H264.408V115.672H265.595V120.969H267.501V115.375H268.689V129.266ZM273.197 116.969H280.072V115.625H281.291V120.203H271.978V115.625H273.197V116.969ZM280.072 119.266V117.906H273.197V119.266H280.072ZM282.947 122.391H270.291V121.406H282.947V122.391ZM281.322 126.75H273.072V128.141H281.744V129.109H271.853V125.844H280.119V124.609H271.822V123.672H281.322V126.75ZM295.252 124.781H294.049V115.375H295.252V124.781ZM290.846 120.172H285.721V122.234C287.106 122.234 288.294 122.203 289.283 122.141C290.273 122.078 291.288 121.958 292.33 121.781L292.455 122.781C291.366 122.964 290.312 123.089 289.291 123.156C288.27 123.219 287.059 123.25 285.658 123.25H284.533V119.219H289.627V117.297H284.502V116.281H290.846V120.172ZM291.393 124.469C291.387 125.099 291.598 125.68 292.025 126.211C292.458 126.742 293.033 127.185 293.752 127.539C294.476 127.888 295.257 128.13 296.096 128.266L295.627 129.219C294.523 129.021 293.531 128.661 292.65 128.141C291.775 127.62 291.143 126.971 290.752 126.195C290.351 126.971 289.708 127.62 288.822 128.141C287.942 128.667 286.955 129.026 285.861 129.219L285.361 128.266C286.205 128.13 286.989 127.888 287.713 127.539C288.442 127.185 289.023 126.742 289.455 126.211C289.893 125.68 290.111 125.099 290.111 124.469V124.062H291.393V124.469Z" fill="#333333"/>
<path d="M251.557 138L255 141.435L258.443 138L259.5 139.057L255 143.557L250.5 139.057L251.557 138Z" fill="black"/>
<path d="M233.078 153.901C233.073 154.495 233.305 155.063 233.773 155.604C234.242 156.141 234.854 156.594 235.609 156.964C236.365 157.334 237.151 157.578 237.969 157.698L237.516 158.667C236.781 158.542 236.073 158.334 235.391 158.042C234.714 157.75 234.112 157.386 233.586 156.948C233.06 156.506 232.661 156.013 232.391 155.472C232.12 156.013 231.721 156.503 231.195 156.94C230.669 157.378 230.068 157.745 229.391 158.042C228.719 158.334 228.021 158.542 227.297 158.667L226.812 157.698C227.625 157.578 228.409 157.334 229.164 156.964C229.919 156.594 230.531 156.141 231 155.604C231.469 155.063 231.703 154.495 231.703 153.901V153.808H227.25V152.808H237.516V153.808H233.078V153.901ZM238.719 160.87H232.969V165.823H231.766V160.87H226.062V159.854H238.719V160.87ZM252.274 160.058H246.618V162.901H245.399V160.058H239.555V159.042H252.274V160.058ZM250.618 157.448H241.211V152.62H250.618V157.448ZM242.414 156.464H249.399V153.589H242.414V156.464ZM250.852 165.526H241.18V161.526H242.414V164.495H250.852V165.526ZM267.618 156.151H269.696V157.183H267.618V161.261H266.384V151.948H267.618V156.151ZM256.712 159.839C258.316 159.839 259.571 159.823 260.478 159.792V158.784C259.941 158.737 259.472 158.625 259.071 158.448C258.67 158.266 258.36 158.029 258.142 157.737C257.928 157.446 257.821 157.11 257.821 156.729C257.821 156.313 257.954 155.951 258.22 155.644C258.491 155.336 258.871 155.099 259.36 154.933C259.855 154.766 260.425 154.683 261.071 154.683C261.722 154.683 262.293 154.766 262.782 154.933C263.277 155.099 263.657 155.336 263.923 155.644C264.194 155.951 264.332 156.313 264.337 156.729C264.332 157.297 264.092 157.763 263.618 158.128C263.149 158.487 262.509 158.703 261.696 158.776V159.745C263.181 159.672 264.457 159.558 265.524 159.401L265.634 160.292C264.306 160.526 262.938 160.677 261.532 160.745C260.131 160.808 258.571 160.839 256.853 160.839L256.712 159.839ZM267.618 165.823H266.384V162.933H258.415V161.948H267.618V165.823ZM265.103 154.151H257.056V153.214H260.478V151.823H261.696V153.214H265.103V154.151ZM261.071 155.558C260.431 155.552 259.923 155.654 259.548 155.862C259.178 156.071 258.993 156.36 258.993 156.729C258.993 156.969 259.076 157.18 259.243 157.362C259.415 157.545 259.657 157.688 259.97 157.792C260.282 157.891 260.649 157.938 261.071 157.933C261.493 157.938 261.86 157.891 262.173 157.792C262.491 157.688 262.735 157.545 262.907 157.362C263.079 157.18 263.165 156.969 263.165 156.729C263.165 156.365 262.975 156.076 262.595 155.862C262.22 155.649 261.712 155.547 261.071 155.558ZM281.751 162.104H280.533V151.948H281.751V162.104ZM282.189 165.526H272.783V161.073H274.001V164.495H282.189V165.526ZM274.251 152.917C274.939 152.917 275.559 153.063 276.111 153.354C276.668 153.641 277.103 154.045 277.415 154.565C277.733 155.081 277.892 155.667 277.892 156.323C277.892 156.99 277.733 157.584 277.415 158.104C277.103 158.62 276.668 159.024 276.111 159.315C275.559 159.602 274.939 159.745 274.251 159.745C273.564 159.745 272.941 159.602 272.384 159.315C271.832 159.024 271.397 158.62 271.079 158.104C270.767 157.584 270.611 156.99 270.611 156.323C270.611 155.667 270.767 155.081 271.079 154.565C271.397 154.045 271.832 153.641 272.384 153.354C272.941 153.063 273.564 152.917 274.251 152.917ZM274.251 153.995C273.788 153.995 273.368 154.094 272.993 154.292C272.624 154.49 272.332 154.766 272.118 155.12C271.91 155.474 271.809 155.875 271.814 156.323C271.809 156.776 271.91 157.183 272.118 157.542C272.332 157.896 272.624 158.172 272.993 158.37C273.368 158.568 273.788 158.667 274.251 158.667C274.704 158.667 275.116 158.568 275.486 158.37C275.861 158.172 276.155 157.896 276.368 157.542C276.582 157.183 276.689 156.776 276.689 156.323C276.689 155.881 276.582 155.482 276.368 155.128C276.155 154.774 275.861 154.498 275.486 154.3C275.116 154.097 274.704 153.995 274.251 153.995Z" fill="#333333"/>
<path d="M251.557 174.558L255 177.993L258.443 174.558L259.5 175.615L255 180.115L250.5 175.615L251.557 174.558Z" fill="black"/>
<path d="M231.891 193.74H234V188.787H235.172V201.677H234V194.756H231.891V198.646H226.578V190.115H231.891V193.74ZM227.734 197.662H230.734V191.099H227.734V197.662ZM237.969 202.381H236.781V188.49H237.969V202.381ZM250.743 194.209H241.18V189.209H242.43V193.193H250.743V194.209ZM252.227 197.24H248.93V202.381H247.711V197.24H244.102V202.381H242.883V197.24H239.571V196.224H252.227V197.24ZM268.29 198.693H267.056V193.365H264.196V192.349H267.056V188.506H268.29V198.693ZM268.681 202.084H259.368V197.771H260.603V201.052H268.681V202.084ZM261.603 191.365C261.603 191.959 261.746 192.539 262.032 193.107C262.324 193.67 262.728 194.17 263.243 194.607C263.764 195.045 264.358 195.375 265.024 195.599L264.384 196.584C263.608 196.302 262.925 195.886 262.337 195.334C261.754 194.776 261.311 194.136 261.009 193.412C260.707 194.214 260.248 194.922 259.634 195.537C259.019 196.146 258.3 196.605 257.478 196.912L256.837 195.912C257.514 195.672 258.121 195.323 258.657 194.865C259.194 194.401 259.613 193.868 259.915 193.263C260.217 192.654 260.368 192.021 260.368 191.365V190.646H257.228V189.631H264.712V190.646H261.603V191.365ZM277.095 190.302H272.126V193.959H272.626C273.866 193.959 274.918 193.925 275.783 193.857C276.652 193.789 277.522 193.667 278.392 193.49L278.548 194.474C277.668 194.662 276.788 194.789 275.908 194.857C275.033 194.925 273.939 194.959 272.626 194.959H272.001H270.923V189.302H277.095V190.302ZM281.142 191.443H283.236V192.459H281.142V195.506H279.923V188.49H281.142V191.443ZM281.142 199.615H273.517V201.193H281.658V202.193H272.314V198.646H279.923V197.193H272.283V196.193H281.142V199.615Z" fill="#333333"/>
<path d="M154.75 158.875C154.75 159.98 155.645 160.875 156.75 160.875C157.855 160.875 158.75 159.98 158.75 158.875C158.75 157.77 157.855 156.875 156.75 156.875C155.645 156.875 154.75 157.77 154.75 158.875ZM180.125 158.875V159.25H180.5V158.875H180.125ZM180.125 122.25V121.875H179.75V122.25H180.125ZM203.64 122.515C203.787 122.369 203.787 122.131 203.64 121.985L201.254 119.598C201.107 119.452 200.87 119.452 200.723 119.598C200.577 119.745 200.577 119.982 200.723 120.129L202.845 122.25L200.723 124.371C200.577 124.518 200.577 124.755 200.723 124.902C200.87 125.048 201.107 125.048 201.254 124.902L203.64 122.515ZM156.75 158.875V159.25H157.48V158.875V158.5H156.75V158.875ZM158.941 158.875V159.25H160.402V158.875V158.5H158.941V158.875ZM161.863 158.875V159.25H163.324V158.875V158.5H161.863V158.875ZM164.785 158.875V159.25H166.246V158.875V158.5H164.785V158.875ZM167.707 158.875V159.25H169.168V158.875V158.5H167.707V158.875ZM170.629 158.875V159.25H172.09V158.875V158.5H170.629V158.875ZM173.551 158.875V159.25H175.012V158.875V158.5H173.551V158.875ZM176.473 158.875V159.25H177.934V158.875V158.5H176.473V158.875ZM179.395 158.875V159.25H180.125V158.875V158.5H179.395V158.875ZM180.125 158.875H180.5V158.112H180.125H179.75V158.875H180.125ZM180.125 156.586H180.5V155.06H180.125H179.75V156.586H180.125ZM180.125 153.534H180.5V152.008H180.125H179.75V153.534H180.125ZM180.125 150.482H180.5V148.956H180.125H179.75V150.482H180.125ZM180.125 147.43H180.5V145.904H180.125H179.75V147.43H180.125ZM180.125 144.378H180.5V142.852H180.125H179.75V144.378H180.125ZM180.125 141.326H180.5V139.799H180.125H179.75V141.326H180.125ZM180.125 138.273H180.5V136.747H180.125H179.75V138.273H180.125ZM180.125 135.221H180.5V133.695H180.125H179.75V135.221H180.125ZM180.125 132.169H180.5V130.643H180.125H179.75V132.169H180.125ZM180.125 129.117H180.5V127.591H180.125H179.75V129.117H180.125ZM180.125 126.065H180.5V124.539H180.125H179.75V126.065H180.125ZM180.125 123.013H180.5V122.25H180.125H179.75V123.013H180.125ZM180.125 122.25V122.625H180.852V122.25V121.875H180.125V122.25ZM182.305 122.25V122.625H183.758V122.25V121.875H182.305V122.25ZM185.211 122.25V122.625L186.664 122.625V122.25V121.875L185.211 121.875V122.25ZM188.117 122.25V122.625H189.57V122.25V121.875H188.117V122.25ZM191.023 122.25V122.625H192.477V122.25V121.875H191.023V122.25ZM193.93 122.25V122.625H195.383V122.25V121.875H193.93V122.25ZM196.836 122.25V122.625L198.289 122.625V122.25V121.875L196.836 121.875V122.25ZM199.742 122.25V122.625H201.195V122.25V121.875H199.742V122.25ZM202.648 122.25V122.625H203.375V122.25V121.875H202.648V122.25Z" fill="#246FF4"/>
<rect x="153.75" y="132" width="53" height="17" rx="8.5" fill="#246FF4"/>
<path d="M165.041 138.775C165.038 139.231 165.135 139.695 165.334 140.167C165.536 140.636 165.809 141.061 166.154 141.441C166.499 141.819 166.88 142.105 167.297 142.301L166.857 142.906C166.372 142.672 165.935 142.314 165.544 141.832C165.157 141.35 164.864 140.813 164.665 140.221C164.535 140.644 164.356 141.046 164.128 141.427C163.9 141.808 163.64 142.145 163.347 142.438C163.054 142.727 162.746 142.955 162.424 143.121L161.955 142.516C162.368 142.317 162.753 142.016 163.107 141.612C163.465 141.209 163.75 140.756 163.962 140.255C164.177 139.754 164.286 139.26 164.289 138.775V137.643H162.268V137.008H166.994V137.643H165.041V138.775ZM168.82 139.625H170.275V140.279H168.82V144.791H168.059V136.109H168.82V139.625ZM178.464 141.021H170.544V140.406H174.128V139.391H171.55V136.52H177.478V137.135H172.302V138.766H177.536V139.391H174.87V140.406H178.464V141.021ZM174.499 141.656C175.118 141.656 175.65 141.718 176.096 141.842C176.545 141.962 176.889 142.14 177.126 142.374C177.364 142.608 177.484 142.89 177.488 143.219C177.484 143.551 177.364 143.834 177.126 144.068C176.889 144.303 176.547 144.48 176.101 144.601C175.655 144.724 175.121 144.788 174.499 144.791C173.874 144.788 173.337 144.724 172.888 144.601C172.439 144.48 172.095 144.303 171.858 144.068C171.62 143.834 171.501 143.551 171.501 143.219C171.501 142.89 171.62 142.608 171.858 142.374C172.095 142.14 172.439 141.962 172.888 141.842C173.337 141.718 173.874 141.656 174.499 141.656ZM174.499 142.262C174.037 142.262 173.638 142.301 173.303 142.379C172.971 142.454 172.717 142.563 172.541 142.706C172.365 142.849 172.279 143.02 172.282 143.219C172.279 143.421 172.365 143.593 172.541 143.736C172.717 143.88 172.971 143.989 173.303 144.063C173.638 144.138 174.037 144.176 174.499 144.176C174.958 144.176 175.354 144.138 175.686 144.063C176.018 143.989 176.272 143.88 176.447 143.736C176.626 143.59 176.716 143.417 176.716 143.219C176.716 143.02 176.626 142.849 176.447 142.706C176.272 142.563 176.016 142.454 175.681 142.379C175.349 142.301 174.955 142.262 174.499 142.262ZM188.464 140.768H187.703V136.109H188.464V140.768ZM183.601 142.262H187.703V141.207H188.464V144.674H182.839V141.207H183.601V142.262ZM187.703 144.049V142.877H183.601V144.049H187.703ZM183.777 136.539C184.213 136.536 184.604 136.617 184.949 136.783C185.294 136.949 185.564 137.185 185.759 137.491C185.955 137.794 186.052 138.141 186.052 138.531C186.052 138.919 185.955 139.264 185.759 139.566C185.564 139.869 185.294 140.105 184.949 140.274C184.604 140.44 184.213 140.523 183.777 140.523C183.341 140.523 182.95 140.44 182.605 140.274C182.26 140.105 181.99 139.869 181.795 139.566C181.599 139.264 181.502 138.919 181.502 138.531C181.502 138.141 181.599 137.794 181.795 137.491C181.99 137.185 182.26 136.949 182.605 136.783C182.95 136.617 183.341 136.536 183.777 136.539ZM183.777 137.184C183.484 137.18 183.22 137.237 182.986 137.354C182.755 137.468 182.574 137.628 182.444 137.833C182.314 138.038 182.25 138.271 182.254 138.531C182.25 138.792 182.314 139.026 182.444 139.234C182.574 139.439 182.755 139.601 182.986 139.718C183.22 139.832 183.484 139.889 183.777 139.889C184.067 139.889 184.327 139.832 184.558 139.718C184.789 139.601 184.97 139.439 185.1 139.234C185.234 139.026 185.3 138.792 185.3 138.531C185.3 138.271 185.234 138.038 185.1 137.833C184.97 137.628 184.789 137.468 184.558 137.354C184.327 137.237 184.067 137.18 183.777 137.184ZM193.86 139.078H190.872V140.426C191.754 140.426 192.436 140.413 192.918 140.387C193.4 140.361 193.883 140.302 194.368 140.211L194.446 140.846C193.929 140.93 193.411 140.986 192.893 141.012C192.379 141.038 191.656 141.051 190.725 141.051H190.11V138.492H193.098V137.262H190.091V136.646H193.86V139.078ZM196.936 141.451H196.165V139.84H194.436V139.205H196.165V138.033H194.436V137.408H196.165V136.119H196.936V141.451ZM196.936 144.811H196.165V142.545H191.087V141.92H196.936V144.811Z" fill="white"/>
</svg>
