<svg width="1440" height="250" viewBox="0 0 1440 250" fill="none" xmlns="http://www.w3.org/2000/svg">
<rect width="1440" height="250" fill="white"/>
<rect width="1440" height="250" fill="#246FF4" fill-opacity="0.2"/>
<rect x="270" y="80" width="900" height="90" rx="45" fill="white"/>
<path d="M369.513 120.103H367.5V120H345V130H359.128C357.067 135.821 351.528 140 345 140C336.716 140 330 133.283 330 125C330 116.716 336.716 110 345 110C348.823 110 352.302 111.442 354.951 113.798L362.022 106.727C357.557 102.566 351.585 99.9995 345 99.9995C331.193 99.9995 320 111.193 320 125C320 138.806 331.193 150 345 150C358.806 150 370 138.806 370 125C370 123.323 369.827 121.687 369.513 120.103Z" fill="#FFC107"/>
<path d="M322.882 113.363L331.096 119.387C333.319 113.885 338.701 110 345 110C348.824 110 352.302 111.442 354.951 113.798L362.022 106.727C357.557 102.566 351.585 99.9995 345 99.9995C335.397 99.9995 327.07 105.421 322.882 113.363Z" fill="#FF3D00"/>
<path d="M344.999 149.999C351.457 149.999 357.324 147.528 361.761 143.509L354.023 136.962C351.429 138.936 348.259 140.003 344.999 139.999C338.497 139.999 332.976 135.853 330.896 130.067L322.743 136.348C326.881 144.444 335.283 149.999 344.999 149.999Z" fill="#4CAF50"/>
<path d="M369.514 120.104H367.5V120H345V130H359.129C358.143 132.771 356.367 135.192 354.02 136.964L354.024 136.962L361.761 143.509C361.214 144.007 370 137.5 370 125C370 123.324 369.827 121.688 369.514 120.104Z" fill="#1976D2"/>
<path d="M390.762 119.592H393.428L396.826 131.721H396.973L400.342 119.592H403.037L406.348 131.662H406.523L409.922 119.592H412.559L407.725 135.5H405.234L401.777 123.371H401.543L398.115 135.5H395.596L390.762 119.592ZM413.482 119.592H416.148L419.546 131.721H419.693L423.062 119.592H425.757L429.068 131.662H429.244L432.642 119.592H435.279L430.445 135.5H427.955L424.498 123.371H424.263L420.836 135.5H418.316L413.482 119.592ZM436.202 119.592H438.868L442.267 131.721H442.413L445.782 119.592H448.478L451.788 131.662H451.964L455.362 119.592H457.999L453.165 135.5H450.675L447.218 123.371H446.984L443.556 135.5H441.036L436.202 119.592ZM459.802 135.676C459.46 135.676 459.142 135.593 458.849 135.427C458.566 135.251 458.337 135.017 458.161 134.724C457.995 134.431 457.917 134.113 457.927 133.771C457.917 133.439 457.995 133.132 458.161 132.849C458.337 132.556 458.566 132.326 458.849 132.16C459.142 131.984 459.46 131.896 459.802 131.896C460.134 131.896 460.441 131.984 460.724 132.16C461.017 132.326 461.247 132.556 461.413 132.849C461.589 133.132 461.677 133.439 461.677 133.771C461.677 134.113 461.589 134.431 461.413 134.724C461.247 135.017 461.017 135.251 460.724 135.427C460.441 135.593 460.134 135.676 459.802 135.676ZM471.418 135.793C469.954 135.793 468.645 135.544 467.493 135.046C466.35 134.538 465.461 133.835 464.827 132.937C464.192 132.038 463.879 131.018 463.889 129.875C463.879 128.977 464.06 128.142 464.431 127.37C464.812 126.589 465.334 125.944 465.998 125.437C466.662 124.929 467.395 124.611 468.196 124.484V124.367C467.502 124.201 466.892 123.894 466.365 123.444C465.837 122.985 465.427 122.424 465.134 121.76C464.851 121.096 464.709 120.383 464.709 119.621C464.709 118.557 464.997 117.595 465.574 116.735C466.16 115.876 466.96 115.207 467.976 114.729C469.001 114.24 470.149 113.996 471.418 113.996C472.688 113.996 473.83 114.24 474.846 114.729C475.871 115.207 476.677 115.876 477.263 116.735C477.849 117.585 478.147 118.547 478.157 119.621C478.147 120.383 477.991 121.096 477.688 121.76C477.395 122.424 476.985 122.985 476.457 123.444C475.93 123.894 475.325 124.201 474.641 124.367V124.484C475.432 124.611 476.155 124.929 476.809 125.437C477.473 125.944 477.996 126.589 478.376 127.37C478.767 128.142 478.967 128.977 478.977 129.875C478.967 131.018 478.64 132.038 477.996 132.937C477.351 133.835 476.457 134.538 475.315 135.046C474.172 135.544 472.873 135.793 471.418 135.793ZM471.418 133.479C472.414 133.479 473.284 133.322 474.026 133.01C474.768 132.697 475.339 132.258 475.74 131.691C476.14 131.125 476.34 130.471 476.34 129.729C476.34 128.957 476.125 128.264 475.696 127.648C475.276 127.023 474.69 126.535 473.938 126.184C473.196 125.832 472.356 125.656 471.418 125.656C470.481 125.656 469.636 125.832 468.884 126.184C468.132 126.535 467.546 127.023 467.126 127.648C466.706 128.264 466.506 128.957 466.526 129.729C466.506 130.471 466.692 131.125 467.082 131.691C467.483 132.258 468.054 132.697 468.796 133.01C469.538 133.322 470.412 133.479 471.418 133.479ZM471.418 123.43C472.209 123.43 472.922 123.278 473.557 122.976C474.192 122.673 474.685 122.248 475.037 121.701C475.398 121.154 475.579 120.529 475.579 119.826C475.579 119.133 475.403 118.518 475.051 117.98C474.709 117.443 474.221 117.028 473.586 116.735C472.961 116.433 472.239 116.281 471.418 116.281C470.588 116.281 469.856 116.433 469.221 116.735C468.596 117.028 468.113 117.443 467.771 117.98C467.429 118.518 467.258 119.133 467.258 119.826C467.258 120.529 467.434 121.154 467.786 121.701C468.147 122.248 468.64 122.673 469.265 122.976C469.9 123.278 470.618 123.43 471.418 123.43ZM488.924 113.996C490.281 113.996 491.541 114.309 492.703 114.934C493.865 115.549 494.817 116.604 495.56 118.098C496.312 119.592 496.688 121.574 496.688 124.045C496.688 126.525 496.36 128.649 495.706 130.417C495.062 132.175 494.134 133.513 492.923 134.431C491.722 135.339 490.291 135.793 488.631 135.793C487.41 135.793 486.312 135.559 485.335 135.09C484.358 134.611 483.558 133.947 482.933 133.098C482.317 132.248 481.922 131.262 481.746 130.139H484.354C484.598 131.135 485.086 131.936 485.818 132.541C486.551 133.146 487.488 133.449 488.631 133.449C489.783 133.449 490.774 133.132 491.604 132.497C492.444 131.853 493.089 130.92 493.538 129.699C493.987 128.479 494.217 127.014 494.227 125.305H493.934C493.309 126.193 492.527 126.887 491.59 127.385C490.652 127.873 489.627 128.117 488.514 128.117C487.254 128.117 486.092 127.819 485.027 127.224C483.963 126.618 483.118 125.783 482.493 124.719C481.878 123.654 481.57 122.453 481.57 121.115C481.57 119.807 481.873 118.61 482.479 117.526C483.094 116.442 483.958 115.583 485.071 114.948C486.185 114.313 487.469 113.996 488.924 113.996ZM488.982 116.311C488.084 116.311 487.264 116.525 486.521 116.955C485.789 117.375 485.208 117.946 484.778 118.669C484.358 119.392 484.148 120.178 484.148 121.027C484.148 121.916 484.349 122.727 484.749 123.459C485.149 124.182 485.711 124.753 486.434 125.173C487.156 125.593 487.977 125.803 488.895 125.803C489.793 125.803 490.618 125.583 491.37 125.144C492.122 124.694 492.718 124.104 493.157 123.371C493.597 122.629 493.816 121.848 493.816 121.027C493.816 120.217 493.606 119.45 493.187 118.728C492.767 117.995 492.186 117.409 491.443 116.97C490.711 116.53 489.891 116.311 488.982 116.311ZM506.81 135.793C505.345 135.793 504.037 135.544 502.884 135.046C501.742 134.538 500.853 133.835 500.218 132.937C499.584 132.038 499.271 131.018 499.281 129.875C499.271 128.977 499.452 128.142 499.823 127.37C500.204 126.589 500.726 125.944 501.39 125.437C502.054 124.929 502.787 124.611 503.588 124.484V124.367C502.894 124.201 502.284 123.894 501.756 123.444C501.229 122.985 500.819 122.424 500.526 121.76C500.243 121.096 500.101 120.383 500.101 119.621C500.101 118.557 500.389 117.595 500.965 116.735C501.551 115.876 502.352 115.207 503.368 114.729C504.393 114.24 505.541 113.996 506.81 113.996C508.08 113.996 509.222 114.24 510.238 114.729C511.263 115.207 512.069 115.876 512.655 116.735C513.241 117.585 513.539 118.547 513.548 119.621C513.539 120.383 513.382 121.096 513.08 121.76C512.787 122.424 512.377 122.985 511.849 123.444C511.322 123.894 510.716 124.201 510.033 124.367V124.484C510.824 124.611 511.546 124.929 512.201 125.437C512.865 125.944 513.387 126.589 513.768 127.37C514.159 128.142 514.359 128.977 514.369 129.875C514.359 131.018 514.032 132.038 513.387 132.937C512.743 133.835 511.849 134.538 510.707 135.046C509.564 135.544 508.265 135.793 506.81 135.793ZM506.81 133.479C507.806 133.479 508.675 133.322 509.418 133.01C510.16 132.697 510.731 132.258 511.131 131.691C511.532 131.125 511.732 130.471 511.732 129.729C511.732 128.957 511.517 128.264 511.088 127.648C510.668 127.023 510.082 126.535 509.33 126.184C508.588 125.832 507.748 125.656 506.81 125.656C505.873 125.656 505.028 125.832 504.276 126.184C503.524 126.535 502.938 127.023 502.518 127.648C502.098 128.264 501.898 128.957 501.918 129.729C501.898 130.471 502.084 131.125 502.474 131.691C502.875 132.258 503.446 132.697 504.188 133.01C504.93 133.322 505.804 133.479 506.81 133.479ZM506.81 123.43C507.601 123.43 508.314 123.278 508.949 122.976C509.584 122.673 510.077 122.248 510.428 121.701C510.79 121.154 510.97 120.529 510.97 119.826C510.97 119.133 510.795 118.518 510.443 117.98C510.101 117.443 509.613 117.028 508.978 116.735C508.353 116.433 507.63 116.281 506.81 116.281C505.98 116.281 505.248 116.433 504.613 116.735C503.988 117.028 503.504 117.443 503.163 117.98C502.821 118.518 502.65 119.133 502.65 119.826C502.65 120.529 502.826 121.154 503.177 121.701C503.539 122.248 504.032 122.673 504.657 122.976C505.292 123.278 506.009 123.43 506.81 123.43ZM518.456 135.676C518.114 135.676 517.797 135.593 517.504 135.427C517.221 135.251 516.991 135.017 516.816 134.724C516.65 134.431 516.571 134.113 516.581 133.771C516.571 133.439 516.65 133.132 516.816 132.849C516.991 132.556 517.221 132.326 517.504 132.16C517.797 131.984 518.114 131.896 518.456 131.896C518.788 131.896 519.096 131.984 519.379 132.16C519.672 132.326 519.902 132.556 520.068 132.849C520.243 133.132 520.331 133.439 520.331 133.771C520.331 134.113 520.243 134.431 520.068 134.724C519.902 135.017 519.672 135.251 519.379 135.427C519.096 135.593 518.788 135.676 518.456 135.676ZM530.63 121.701H527.29V130.93C527.29 131.867 527.475 132.497 527.846 132.819C528.218 133.142 528.725 133.303 529.37 133.303C529.858 133.303 530.356 133.283 530.864 133.244V135.588C530.356 135.666 529.77 135.705 529.106 135.705C528.364 135.705 527.661 135.554 526.997 135.251C526.333 134.938 525.791 134.47 525.371 133.845C524.951 133.22 524.741 132.463 524.741 131.574V121.701H522.339V119.592H524.741V115.783H527.29V119.592H530.63V121.701ZM540.489 135.5H537.881L532.022 119.592H534.776L539.112 132.219H539.288L543.623 119.592H546.377L540.489 135.5ZM547.594 138.693H545.309L552.135 113.293H554.449L547.594 138.693ZM563.254 121.701H559.914V130.93C559.914 131.867 560.099 132.497 560.47 132.819C560.841 133.142 561.349 133.303 561.994 133.303C562.482 133.303 562.98 133.283 563.488 133.244V135.588C562.98 135.666 562.394 135.705 561.73 135.705C560.988 135.705 560.285 135.554 559.621 135.251C558.957 134.938 558.415 134.47 557.995 133.845C557.575 133.22 557.365 132.463 557.365 131.574V121.701H554.962V119.592H557.365V115.783H559.914V119.592H563.254V121.701ZM572.234 135.822C570.798 135.822 569.529 135.485 568.425 134.812C567.331 134.128 566.482 133.166 565.876 131.926C565.271 130.686 564.968 129.25 564.968 127.619C564.968 125.988 565.271 124.553 565.876 123.312C566.482 122.062 567.331 121.096 568.425 120.412C569.529 119.729 570.798 119.387 572.234 119.387C573.659 119.387 574.914 119.729 575.998 120.412C577.092 121.096 577.937 122.062 578.532 123.312C579.138 124.553 579.441 125.988 579.441 127.619C579.441 129.25 579.138 130.686 578.532 131.926C577.937 133.166 577.092 134.128 575.998 134.812C574.914 135.485 573.659 135.822 572.234 135.822ZM572.234 133.596C573.259 133.596 574.123 133.327 574.826 132.79C575.529 132.243 576.052 131.521 576.394 130.622C576.745 129.714 576.921 128.713 576.921 127.619C576.921 126.525 576.745 125.524 576.394 124.616C576.052 123.708 575.529 122.98 574.826 122.434C574.123 121.887 573.259 121.613 572.234 121.613C571.189 121.613 570.31 121.887 569.597 122.434C568.894 122.98 568.366 123.708 568.015 124.616C567.663 125.524 567.488 126.525 567.488 127.619C567.488 128.713 567.663 129.714 568.015 130.622C568.366 131.521 568.894 132.243 569.597 132.79C570.31 133.327 571.189 133.596 572.234 133.596ZM582.151 119.592H584.583V122.023H584.759C585.052 121.213 585.574 120.563 586.326 120.075C587.078 119.577 587.923 119.328 588.86 119.328C589.348 119.328 589.788 119.348 590.179 119.387V121.936C590.071 121.896 589.861 121.857 589.549 121.818C589.246 121.779 588.948 121.76 588.655 121.76C587.903 121.76 587.224 121.921 586.619 122.243C586.013 122.565 585.535 123.01 585.183 123.576C584.842 124.143 584.671 124.777 584.671 125.48V135.5H582.151V119.592ZM597.518 135.822C596.2 135.822 595.028 135.485 594.002 134.812C592.987 134.138 592.191 133.181 591.615 131.94C591.038 130.69 590.75 129.24 590.75 127.59C590.75 125.939 591.038 124.494 591.615 123.254C592.191 122.014 592.992 121.062 594.017 120.397C595.042 119.724 596.219 119.387 597.547 119.387C598.485 119.387 599.261 119.543 599.876 119.855C600.492 120.158 600.946 120.485 601.239 120.837C601.532 121.179 601.834 121.604 602.147 122.111H602.323V114.289H604.871V135.5H602.411V133.068H602.147C601.815 133.586 601.497 134.021 601.195 134.372C600.902 134.724 600.448 135.056 599.832 135.368C599.217 135.671 598.446 135.822 597.518 135.822ZM597.87 133.566C598.817 133.566 599.632 133.317 600.316 132.819C600.999 132.312 601.517 131.604 601.869 130.695C602.23 129.777 602.411 128.723 602.411 127.531C602.411 126.35 602.235 125.319 601.883 124.44C601.541 123.552 601.029 122.863 600.345 122.375C599.662 121.887 598.836 121.643 597.87 121.643C596.883 121.643 596.048 121.901 595.365 122.419C594.681 122.927 594.163 123.625 593.812 124.514C593.47 125.402 593.299 126.408 593.299 127.531C593.299 128.684 593.47 129.719 593.812 130.637C594.163 131.545 594.681 132.263 595.365 132.79C596.058 133.308 596.893 133.566 597.87 133.566ZM615.316 135.822C613.803 135.822 612.484 135.485 611.361 134.812C610.238 134.138 609.374 133.186 608.769 131.955C608.173 130.725 607.875 129.299 607.875 127.678C607.875 126.057 608.173 124.621 608.769 123.371C609.374 122.111 610.219 121.135 611.303 120.441C612.396 119.738 613.656 119.387 615.082 119.387C616.283 119.387 617.401 119.655 618.437 120.192C619.472 120.72 620.312 121.579 620.956 122.771C621.61 123.952 621.938 125.471 621.938 127.326V128.381H610.395C610.434 129.484 610.663 130.427 611.083 131.208C611.503 131.989 612.074 132.585 612.797 132.995C613.529 133.396 614.369 133.596 615.316 133.596C616.215 133.596 616.972 133.43 617.587 133.098C618.212 132.756 618.686 132.316 619.008 131.779H621.703C621.449 132.58 621.024 133.288 620.429 133.903C619.843 134.509 619.11 134.982 618.231 135.324C617.362 135.656 616.391 135.822 615.316 135.822ZM619.389 126.242C619.389 125.354 619.208 124.562 618.847 123.869C618.495 123.166 617.992 122.614 617.338 122.214C616.684 121.813 615.932 121.613 615.082 121.613C614.193 121.613 613.402 121.823 612.709 122.243C612.025 122.663 611.483 123.229 611.083 123.942C610.692 124.646 610.468 125.412 610.409 126.242H619.389ZM624.619 119.592H627.05V122.023H627.226C627.519 121.213 628.042 120.563 628.794 120.075C629.546 119.577 630.39 119.328 631.328 119.328C631.816 119.328 632.255 119.348 632.646 119.387V121.936C632.539 121.896 632.329 121.857 632.016 121.818C631.713 121.779 631.416 121.76 631.123 121.76C630.371 121.76 629.692 121.921 629.087 122.243C628.481 122.565 628.003 123.01 627.651 123.576C627.309 124.143 627.138 124.777 627.138 125.48V135.5H624.619V119.592Z" fill="#333333"/>
</svg>
