<svg width="200" height="200" viewBox="0 0 200 200" fill="none" xmlns="http://www.w3.org/2000/svg">
<rect width="200" height="200" rx="20" fill="#FBE300"/>
<path d="M99.9938 19C135.899 19 165 41.5928 165 69.47C165 97.341 135.899 119.934 100 119.934C96.4257 119.927 92.8552 119.701 89.309 119.255L62.0214 137.032C58.92 138.667 57.8243 138.488 59.0995 134.486L64.6214 111.807C46.7929 102.804 35 87.2038 35 69.47C35 41.599 64.0952 19 100 19M136.573 68.6992L145.673 59.9186C146.198 59.3754 146.491 58.6504 146.49 57.8964C146.49 57.1423 146.195 56.418 145.668 55.8761C145.142 55.3342 144.425 55.0169 143.668 54.9912C142.912 54.9654 142.175 55.2331 141.612 55.7379L129.677 67.244V57.7358C129.677 56.9639 129.369 56.2236 128.821 55.6778C128.273 55.132 127.53 54.8253 126.755 54.8253C125.98 54.8253 125.237 55.132 124.689 55.6778C124.141 56.2236 123.833 56.9639 123.833 57.7358V73.5026C123.73 73.9532 123.73 74.421 123.833 74.8715V83.7446C123.833 84.5165 124.141 85.2568 124.689 85.8026C125.237 86.3484 125.98 86.655 126.755 86.655C127.53 86.655 128.273 86.3484 128.821 85.8026C129.369 85.2568 129.677 84.5165 129.677 83.7446V75.3401L132.32 72.7935L141.16 85.3293C141.381 85.6423 141.662 85.9089 141.986 86.1139C142.31 86.3189 142.671 86.4583 143.05 86.5242C143.428 86.59 143.816 86.581 144.19 86.4977C144.565 86.4143 144.92 86.2583 145.234 86.0384C145.548 85.8186 145.816 85.5392 146.021 85.2163C146.227 84.8935 146.367 84.5334 146.433 84.1566C146.499 83.7798 146.49 83.3938 146.407 83.0205C146.323 82.6473 146.166 82.294 145.946 81.9811L136.573 68.6992ZM118.262 80.5629H109.224V57.8283C109.189 57.0803 108.867 56.3745 108.323 55.8574C107.779 55.3403 107.057 55.0518 106.305 55.0518C105.553 55.0518 104.831 55.3403 104.287 55.8574C103.743 56.3745 103.421 57.0803 103.386 57.8283V83.4733C103.386 85.0765 104.686 86.3837 106.302 86.3837H118.262C119.037 86.3837 119.78 86.0771 120.328 85.5313C120.876 84.9855 121.184 84.2452 121.184 83.4733C121.184 82.7014 120.876 81.9611 120.328 81.4153C119.78 80.8695 119.037 80.5629 118.262 80.5629ZM82.0043 73.8356L86.3129 63.3038L90.2624 73.8294L82.0043 73.8356ZM97.6229 76.8385L97.6352 76.7399C97.6332 76.0068 97.3522 75.3017 96.849 74.7667L90.3738 57.5015C90.1024 56.6787 89.5853 55.958 88.8917 55.4358C88.1982 54.9135 87.3611 54.6145 86.4924 54.5787C85.6181 54.5783 84.7641 54.8413 84.0427 55.3333C83.3212 55.8252 82.766 56.523 82.45 57.335L72.1614 82.462C71.8684 83.1767 71.8723 83.978 72.1724 84.6898C72.4725 85.4015 73.0442 85.9654 73.7617 86.2573C74.4791 86.5492 75.2836 86.5453 75.9982 86.2464C76.7128 85.9474 77.2788 85.378 77.5719 84.6634L79.6271 79.6503H92.4414L94.2862 84.5832C94.412 84.9519 94.6109 85.2917 94.871 85.5825C95.1311 85.8733 95.4471 86.1091 95.8004 86.276C96.1536 86.4429 96.5369 86.5375 96.9276 86.5542C97.3182 86.5709 97.7082 86.5093 98.0745 86.3731C98.4408 86.2369 98.7759 86.0288 99.06 85.7613C99.3441 85.4937 99.5714 85.1721 99.7285 84.8154C99.8855 84.4588 99.9691 84.0744 99.9743 83.6849C99.9794 83.2955 99.9061 82.909 99.7586 82.5484L97.6229 76.8385ZM77.0519 57.8591C77.0535 57.477 76.9793 57.0983 76.8334 56.7448C76.6875 56.3914 76.4729 56.0702 76.2019 55.7997C75.9309 55.5292 75.6089 55.3147 75.2544 55.1687C74.8999 55.0226 74.5198 54.9479 74.1362 54.9487H54.0481C53.2732 54.9487 52.53 55.2553 51.982 55.8011C51.434 56.3469 51.1262 57.0872 51.1262 57.8591C51.1262 58.631 51.434 59.3713 51.982 59.9171C52.53 60.4629 53.2732 60.7695 54.0481 60.7695H61.229V83.8063C61.229 84.5782 61.5369 85.3184 62.0849 85.8642C62.6328 86.4101 63.376 86.7167 64.151 86.7167C64.9259 86.7167 65.6691 86.4101 66.2171 85.8642C66.765 85.3184 67.0729 84.5782 67.0729 83.8063V60.7695H74.13C74.5142 60.7712 74.8949 60.697 75.2501 60.5513C75.6053 60.4056 75.9281 60.1913 76.1998 59.9207C76.4714 59.6501 76.6866 59.3286 76.8328 58.9748C76.9791 58.6209 77.0535 58.2418 77.0519 57.8591Z" fill="#3B1E1E"/>
<path d="M56.9688 159.812C56.9688 161.615 57.4792 163.229 58.5 164.656C59.5312 166.073 61.1458 167.115 63.3438 167.781L60.9688 171.25C59.5104 170.792 58.2604 170.13 57.2188 169.266C56.1875 168.391 55.3646 167.349 54.75 166.141C54.1146 167.547 53.2448 168.755 52.1406 169.766C51.0469 170.776 49.7188 171.542 48.1562 172.062L45.7188 168.562C48.0417 167.802 49.7396 166.599 50.8125 164.953C51.8958 163.297 52.4375 161.427 52.4375 159.344V156.875H56.9688V159.812ZM69.0938 161.781H72.8125V165.5H69.0938V172.188H64.5938V155.312H69.0938V161.781ZM59.625 172.719C61.6042 172.719 63.3281 172.943 64.7969 173.391C66.2656 173.839 67.3958 174.484 68.1875 175.328C68.9792 176.172 69.375 177.177 69.375 178.344C69.375 179.531 68.9792 180.552 68.1875 181.406C67.3958 182.26 66.2656 182.906 64.7969 183.344C63.3281 183.792 61.6042 184.01 59.625 184C57.6042 184.01 55.849 183.792 54.3594 183.344C52.8698 182.906 51.724 182.26 50.9219 181.406C50.1198 180.552 49.7188 179.531 49.7188 178.344C49.7188 177.177 50.1198 176.172 50.9219 175.328C51.724 174.484 52.8698 173.839 54.3594 173.391C55.849 172.943 57.6042 172.719 59.625 172.719ZM59.625 176.219C57.8333 176.219 56.4792 176.401 55.5625 176.766C54.6562 177.12 54.2083 177.646 54.2188 178.344C54.2083 179.083 54.651 179.63 55.5469 179.984C56.4531 180.328 57.8125 180.5 59.625 180.5C61.4167 180.5 62.75 180.328 63.625 179.984C64.5 179.63 64.9375 179.083 64.9375 178.344C64.9375 176.927 63.1667 176.219 59.625 176.219ZM96.11 161.594H99.8288V165.281H96.11V171.344H91.61V155.312H96.11V161.594ZM87.11 160.625H78.7975V166.906C81.2871 166.896 83.3183 166.828 84.8913 166.703C86.4746 166.578 88.0163 166.365 89.5163 166.062L89.985 169.594C88.3496 169.979 86.6152 170.229 84.7819 170.344C82.959 170.448 80.2871 170.5 76.7663 170.5H74.2975V157.062H87.11V160.625ZM96.11 183.656H77.1725V172.469H96.11V183.656ZM81.61 180.156H91.6725V176.031H81.61V180.156ZM123.033 166.344H127.095V170.062H123.033V184H118.595V155.312H123.033V166.344ZM116.908 163.062H100.126V159.5H106.345V155.781H110.845V159.5H116.908V163.062ZM108.595 164.438C109.98 164.438 111.23 164.734 112.345 165.328C113.47 165.911 114.355 166.729 115.001 167.781C115.658 168.833 115.991 170.021 116.001 171.344C115.991 172.677 115.663 173.87 115.017 174.922C114.371 175.964 113.486 176.781 112.361 177.375C111.236 177.958 109.98 178.25 108.595 178.25C107.168 178.25 105.887 177.958 104.751 177.375C103.626 176.781 102.741 175.964 102.095 174.922C101.46 173.87 101.147 172.677 101.158 171.344C101.147 170.021 101.46 168.833 102.095 167.781C102.741 166.729 103.631 165.911 104.767 165.328C105.902 164.734 107.178 164.438 108.595 164.438ZM108.595 168.062C107.647 168.083 106.887 168.385 106.314 168.969C105.741 169.542 105.46 170.333 105.47 171.344C105.46 172.375 105.741 173.177 106.314 173.75C106.887 174.312 107.647 174.594 108.595 174.594C109.512 174.594 110.251 174.312 110.814 173.75C111.387 173.177 111.678 172.375 111.689 171.344C111.678 170.333 111.387 169.542 110.814 168.969C110.241 168.385 109.501 168.083 108.595 168.062ZM151.518 184H146.955V155.312H151.518V184ZM142.893 158.281C142.893 161.427 142.497 164.26 141.705 166.781C140.913 169.292 139.544 171.599 137.596 173.703C135.658 175.797 133.007 177.635 129.643 179.219L127.299 175.656C129.715 174.51 131.695 173.26 133.236 171.906C134.778 170.552 135.95 169.052 136.752 167.406C137.564 165.76 138.08 163.885 138.299 161.781H128.924V158.281H142.893Z" fill="#3B1E1E"/>
</svg>
