<svg width="100" height="100" viewBox="0 0 100 100" fill="none" xmlns="http://www.w3.org/2000/svg">
<g clip-path="url(#clip0_813_13162)">
<path d="M100 14.3333C100 12.6233 99.8904 10.9858 99.3454 9.33327C98.8179 7.73577 97.9179 6.24077 96.7829 5.00577C94.4654 2.48327 91.2004 1.04077 87.7729 1.04077C83.9104 1.04077 80.3979 2.82827 78.0504 5.86827C76.8829 7.38077 76.1004 9.05077 75.7879 10.9508C75.5154 12.5983 75.5454 14.9158 75.5454 16.5633V31.8608C81.0779 31.8608 86.9604 30.9358 91.9379 28.0958C94.2229 26.7908 96.3954 25.0733 97.8229 22.5158C99.1779 20.0908 99.9979 17.1233 99.9979 14.3333H100Z" fill="white"/>
<path d="M64.825 19.5687C63.68 19.5687 61.46 19.5737 60.315 19.5737C45.285 19.5737 39.13 29.1537 39.13 29.1537V3.56118C39.13 3.06368 38.5275 2.81368 38.175 3.16618L0.164961 41.1562C-0.187539 41.5087 0.0624608 42.1112 0.559961 42.1112H18.77C18.78 52.7162 18.7925 59.9562 18.8025 70.5637C18.8175 85.7612 29.515 98.7962 46.805 98.7787C52.615 98.7737 58.9925 98.7662 64.8025 98.7612L64.785 78.8987C60.555 78.9012 55.755 78.9062 51.5225 78.9087C44.965 78.9137 39.645 74.0612 39.6375 67.5037V44.6637C39.6375 42.9887 40.995 41.6312 42.67 41.6312H64.825V19.5662V19.5687Z" fill="white"/>
</g>
<defs>
<clipPath id="clip0_813_13162">
<rect width="100" height="100" fill="white"/>
</clipPath>
</defs>
</svg>
