<svg width="1440" height="676" viewBox="0 0 1440 676" fill="none" xmlns="http://www.w3.org/2000/svg">
<rect width="1440" height="675.785" fill="white"/>
<rect width="1440" height="675.785" fill="#246FF4" fill-opacity="0.2"/>
<g clip-path="url(#clip0_210_19711)">
<path d="M80 91.8299C80 85.2964 85.2964 80 91.8299 80H158.49C165.023 80 170.32 85.2964 170.32 91.8299V150.98H80V91.8299Z" fill="white"/>
<path d="M123.399 125.501H120.441V103.711H123.399V125.501ZM118.927 104.065V124.531H116.017V114.168H113.911V120.083H105.323V105.958H113.911V111.637H116.017V104.065H118.927ZM108.233 108.419V117.646H111.025V108.419H108.233ZM140.834 119.397V103.758H143.981V119.397H140.834ZM138.042 110.667C138.042 111.455 137.893 112.189 137.593 112.867C137.293 113.545 136.875 114.129 136.339 114.618C135.803 115.107 135.172 115.493 134.446 115.777C133.736 116.045 132.963 116.179 132.128 116.179C131.292 116.179 130.511 116.045 129.785 115.777C129.06 115.493 128.429 115.107 127.892 114.618C127.372 114.129 126.954 113.545 126.638 112.867C126.339 112.189 126.189 111.455 126.189 110.667C126.189 109.862 126.339 109.121 126.638 108.443C126.954 107.764 127.372 107.181 127.892 106.692C128.429 106.203 129.06 105.824 129.785 105.556C130.511 105.272 131.292 105.13 132.128 105.13C132.963 105.13 133.736 105.272 134.446 105.556C135.172 105.824 135.803 106.203 136.339 106.692C136.875 107.181 137.293 107.764 137.593 108.443C137.893 109.121 138.042 109.862 138.042 110.667ZM129.241 110.667C129.241 111.566 129.517 112.26 130.069 112.749C130.637 113.238 131.323 113.482 132.128 113.482C132.948 113.482 133.626 113.238 134.162 112.749C134.714 112.26 134.99 111.566 134.99 110.667C134.99 109.767 134.714 109.073 134.162 108.585C133.626 108.08 132.948 107.827 132.128 107.827C131.323 107.827 130.637 108.08 130.069 108.585C129.517 109.073 129.241 109.767 129.241 110.667ZM144.525 125.146H129.478V117.859H132.601V122.662H144.525V125.146Z" fill="black"/>
<path d="M182.15 91.8299C182.15 85.2964 187.446 80 193.98 80H282.64C289.173 80 294.47 85.2964 294.47 91.8299V150.98H182.15V91.8299Z" fill="#404144"/>
<path d="M227.169 110.288V112.299H224.14V119.61H221.703V103.947H224.14V110.288H227.169ZM219.101 110.714C219.101 111.487 218.951 112.204 218.651 112.867C218.367 113.514 217.973 114.074 217.468 114.547C216.963 115.02 216.356 115.391 215.646 115.659C214.952 115.927 214.203 116.061 213.398 116.061C212.594 116.061 211.845 115.927 211.151 115.659C210.457 115.391 209.857 115.02 209.353 114.547C208.848 114.074 208.446 113.514 208.146 112.867C207.862 112.204 207.72 111.487 207.72 110.714C207.72 109.925 207.862 109.208 208.146 108.561C208.446 107.914 208.848 107.354 209.353 106.881C209.857 106.408 210.457 106.045 211.151 105.793C211.845 105.524 212.594 105.39 213.398 105.39C214.203 105.39 214.952 105.524 215.646 105.793C216.356 106.045 216.963 106.408 217.468 106.881C217.973 107.354 218.367 107.914 218.651 108.561C218.951 109.208 219.101 109.925 219.101 110.714ZM210.11 110.714C210.11 111.203 210.189 111.652 210.346 112.063C210.52 112.457 210.756 112.796 211.056 113.08C211.356 113.364 211.703 113.585 212.097 113.742C212.492 113.884 212.925 113.955 213.398 113.955C213.872 113.955 214.305 113.884 214.7 113.742C215.11 113.585 215.457 113.364 215.741 113.08C216.041 112.796 216.277 112.457 216.451 112.063C216.624 111.652 216.711 111.203 216.711 110.714C216.711 110.225 216.624 109.783 216.451 109.389C216.277 108.995 216.041 108.655 215.741 108.372C215.457 108.088 215.11 107.875 214.7 107.733C214.305 107.575 213.872 107.496 213.398 107.496C212.925 107.496 212.492 107.575 212.097 107.733C211.703 107.875 211.356 108.088 211.056 108.372C210.756 108.655 210.52 108.995 210.346 109.389C210.189 109.783 210.11 110.225 210.11 110.714ZM213.067 122.922H224.992V124.91H210.607V118.001H213.067V122.922ZM229.698 112.488C230.708 112.346 231.646 112.11 232.514 111.779C233.381 111.432 234.131 111.021 234.762 110.548C235.408 110.059 235.921 109.523 236.299 108.939C236.678 108.356 236.883 107.749 236.915 107.118H230.408V105.154H246.142V107.118H239.683C239.714 107.749 239.919 108.356 240.298 108.939C240.676 109.523 241.181 110.059 241.812 110.548C242.459 111.021 243.216 111.432 244.084 111.779C244.951 112.11 245.89 112.346 246.899 112.488L246.024 114.405C244.257 114.121 242.695 113.577 241.339 112.772C239.982 111.968 238.965 110.966 238.287 109.767C237.624 110.95 236.615 111.952 235.258 112.772C233.902 113.593 232.34 114.137 230.574 114.405L229.698 112.488ZM247.94 117.93H239.446V125.336H237.009V117.93H228.634V115.966H247.964L247.94 117.93ZM264.382 106.644H252.079V104.681H266.866V110.501H254.587V112.725H267.339V114.689H252.126V108.679H264.382V106.644ZM269.185 118.545H264.382V125.336H261.945V118.545H257V125.336H254.563V118.545H249.784V116.582H269.161L269.185 118.545Z" fill="#DDDDDD"/>
<path d="M306.299 91.8299C306.299 85.2964 311.596 80 318.129 80H384.789C391.323 80 396.619 85.2964 396.619 91.8299V150.98H306.299V91.8299Z" fill="#404144"/>
<path d="M340.849 104.397C342.017 104.397 343.066 104.491 343.996 104.681C344.943 104.87 345.747 105.138 346.409 105.485C347.072 105.832 347.577 106.258 347.924 106.763C348.286 107.267 348.468 107.843 348.468 108.49C348.468 109.121 348.286 109.689 347.924 110.193C347.577 110.698 347.072 111.132 346.409 111.495C345.747 111.842 344.943 112.11 343.996 112.299C343.066 112.488 342.017 112.583 340.849 112.583C339.682 112.583 338.625 112.488 337.679 112.299C336.748 112.11 335.952 111.842 335.289 111.495C334.627 111.132 334.114 110.698 333.751 110.193C333.404 109.689 333.231 109.121 333.231 108.49C333.231 107.843 333.404 107.267 333.751 106.763C334.114 106.258 334.627 105.832 335.289 105.485C335.952 105.138 336.748 104.87 337.679 104.681C338.625 104.491 339.682 104.397 340.849 104.397ZM340.849 106.289C339.225 106.289 337.963 106.479 337.064 106.857C336.18 107.236 335.739 107.78 335.739 108.49C335.739 109.2 336.18 109.744 337.064 110.122C337.963 110.485 339.225 110.667 340.849 110.667C342.474 110.667 343.728 110.485 344.611 110.122C345.495 109.744 345.936 109.2 345.936 108.49C345.936 107.78 345.495 107.236 344.611 106.857C343.728 106.479 342.474 106.289 340.849 106.289ZM350.503 114.145V116.085H331.172V114.145H350.503ZM348.16 117.907V125.052H333.491V117.907H348.16ZM335.904 119.847V123.112H345.771V119.847H335.904ZM371.724 120.793V122.804H352.37V120.793H357.551V117.102H354.712V110.241H367.015V107.402H354.665V105.438H369.429V112.181H357.102V115.138H369.902V117.102H366.755V120.793H371.724ZM359.965 120.793H364.342V117.102H359.965V120.793Z" fill="#DDDDDD"/>
<path d="M408.449 91.8299C408.449 85.2964 413.746 80 420.279 80H486.939C493.473 80 498.769 85.2964 498.769 91.8299V150.98H408.449V91.8299Z" fill="#404144"/>
<path d="M434.411 112.488C435.42 112.346 436.359 112.11 437.226 111.779C438.094 111.432 438.843 111.021 439.474 110.548C440.121 110.059 440.633 109.523 441.012 108.939C441.39 108.356 441.595 107.749 441.627 107.118H435.121V105.154H450.854V107.118H444.395C444.427 107.749 444.632 108.356 445.01 108.939C445.389 109.523 445.894 110.059 446.525 110.548C447.171 111.021 447.928 111.432 448.796 111.779C449.663 112.11 450.602 112.346 451.611 112.488L450.736 114.405C448.969 114.121 447.408 113.577 446.051 112.772C444.695 111.968 443.678 110.966 442.999 109.767C442.337 110.95 441.327 111.952 439.971 112.772C438.614 113.593 437.053 114.137 435.286 114.405L434.411 112.488ZM452.653 117.93H444.159V125.336H441.722V117.93H433.346V115.966H452.676L452.653 117.93ZM469.094 106.644H456.791V104.681H471.579V110.501H459.299V112.725H472.052V114.689H456.838V108.679H469.094V106.644ZM473.897 118.545H469.094V125.336H466.657V118.545H461.712V125.336H459.275V118.545H454.496V116.582H473.874L473.897 118.545Z" fill="#DDDDDD"/>
</g>
<rect width="1280" height="101.738" transform="translate(80 150.979)" fill="white"/>
<path d="M103.66 190.019C103.66 181.525 110.545 174.64 119.039 174.64H217.227C225.721 174.64 232.606 181.525 232.606 190.019V213.678C232.606 222.172 225.721 229.057 217.227 229.057H119.039C110.545 229.057 103.66 222.172 103.66 213.678V190.019Z" fill="#12151D"/>
<path d="M140.964 197.018C141.873 196.933 142.675 196.798 143.37 196.613C144.066 196.414 144.662 196.187 145.159 195.932C145.656 195.676 146.053 195.392 146.352 195.08C146.664 194.768 146.884 194.441 147.012 194.101H141.816V191.865H156.317V194.101H151.1C151.228 194.441 151.441 194.768 151.739 195.08C152.051 195.392 152.456 195.676 152.953 195.932C153.45 196.187 154.046 196.414 154.741 196.613C155.451 196.798 156.26 196.933 157.169 197.018L156.189 199.19C154.344 199.034 152.825 198.636 151.632 197.997C150.44 197.344 149.581 196.556 149.056 195.634C148.531 196.571 147.679 197.359 146.501 197.997C145.322 198.636 143.789 199.034 141.901 199.19L140.964 197.018ZM150.461 203.64C152.179 203.782 153.499 204.144 154.422 204.726C155.359 205.308 155.827 206.11 155.827 207.132C155.827 207.7 155.671 208.204 155.359 208.644C155.047 209.084 154.592 209.453 153.996 209.752C153.414 210.064 152.704 210.298 151.867 210.454C151.029 210.61 150.078 210.689 149.013 210.689C147.949 210.689 146.998 210.61 146.16 210.454C145.322 210.298 144.613 210.064 144.031 209.752C143.449 209.453 143.001 209.084 142.689 208.644C142.377 208.204 142.221 207.7 142.221 207.132C142.221 206.11 142.696 205.308 143.647 204.726C144.598 204.13 145.933 203.761 147.651 203.619V202.192H140.198V199.956H157.914V202.192H150.461V203.64ZM152.974 207.132C152.974 206.636 152.648 206.274 151.994 206.046C151.341 205.819 150.348 205.706 149.013 205.706C147.679 205.706 146.685 205.819 146.032 206.046C145.379 206.274 145.053 206.636 145.053 207.132C145.053 207.629 145.379 207.991 146.032 208.218C146.685 208.431 147.679 208.538 149.013 208.538C150.348 208.538 151.341 208.431 151.994 208.218C152.648 207.991 152.974 207.629 152.974 207.132ZM161.511 199.743V191.673H164.301V193.675H171.945V191.673H174.735V199.743H161.511ZM164.301 195.783V197.55H171.945V195.783H164.301ZM177.013 203.321H169.773V206.408H166.962V203.321H159.233V201.106H177.013V203.321ZM175.054 208.091V210.327H161.298V204.939H164.109V208.091H175.054ZM180.355 193.888V191.652H194.025V197.38H183.251V198.934H194.494V201.17H180.376V195.314H191.172V193.888H180.355ZM192.002 204.79V210.689H189.17V204.79H185.231V210.689H182.399V204.79H178.31V202.554H196.07V204.79H192.002Z" fill="white"/>
<rect width="1280" height="343.068" transform="translate(80 252.717)" fill="white"/>
<path d="M127.31 283.13H123.761V256.981H127.31V283.13ZM121.944 257.407V281.966H118.452V269.53H115.925V276.628H105.619V259.678H115.925V266.492H118.452V257.407H121.944ZM109.111 262.631V273.704H112.461V262.631H109.111ZM147.523 275.805V257.038H151.299V275.805H147.523ZM144.173 265.328C144.173 266.275 143.993 267.155 143.633 267.969C143.274 268.783 142.772 269.483 142.128 270.07C141.485 270.657 140.728 271.12 139.857 271.461C139.005 271.783 138.078 271.944 137.075 271.944C136.072 271.944 135.135 271.783 134.264 271.461C133.393 271.12 132.636 270.657 131.993 270.07C131.368 269.483 130.866 268.783 130.488 267.969C130.128 267.155 129.948 266.275 129.948 265.328C129.948 264.363 130.128 263.473 130.488 262.66C130.866 261.846 131.368 261.145 131.993 260.559C132.636 259.972 133.393 259.518 134.264 259.196C135.135 258.855 136.072 258.685 137.075 258.685C138.078 258.685 139.005 258.855 139.857 259.196C140.728 259.518 141.485 259.972 142.128 260.559C142.772 261.145 143.274 261.846 143.633 262.66C143.993 263.473 144.173 264.363 144.173 265.328ZM133.611 265.328C133.611 266.407 133.942 267.24 134.605 267.827C135.286 268.414 136.109 268.707 137.075 268.707C138.059 268.707 138.873 268.414 139.516 267.827C140.179 267.24 140.51 266.407 140.51 265.328C140.51 264.25 140.179 263.417 139.516 262.83C138.873 262.224 138.059 261.921 137.075 261.921C136.109 261.921 135.286 262.224 134.605 262.83C133.942 263.417 133.611 264.25 133.611 265.328ZM151.952 282.704H133.895V273.96H137.643V279.723H151.952V282.704Z" fill="#FC0000"/>
<path d="M181.159 258.145H182.805V280.717H181.159V258.145Z" fill="#999999"/>
<path d="M212.79 265.896C213.907 265.764 214.976 265.537 215.999 265.215C217.04 264.893 217.958 264.496 218.753 264.022C219.548 263.53 220.191 262.981 220.683 262.376C221.175 261.751 221.45 261.089 221.507 260.388H213.614V258.514H232.437V260.388H224.516C224.573 261.089 224.847 261.751 225.339 262.376C225.832 262.981 226.475 263.53 227.27 264.022C228.065 264.496 228.974 264.893 229.996 265.215C231.037 265.537 232.116 265.764 233.232 265.896L232.409 267.742C231.368 267.609 230.355 267.401 229.371 267.117C228.406 266.814 227.507 266.445 226.674 266.01C225.86 265.574 225.131 265.063 224.488 264.477C223.863 263.89 223.371 263.246 223.011 262.546C222.671 263.246 222.179 263.89 221.535 264.477C220.91 265.063 220.182 265.574 219.349 266.01C218.535 266.445 217.636 266.814 216.652 267.117C215.667 267.401 214.655 267.609 213.614 267.742L212.79 265.896ZM224.175 273.874C226.617 273.988 228.482 274.423 229.769 275.18C231.056 275.937 231.699 276.979 231.699 278.303C231.699 279.761 230.933 280.868 229.4 281.625C227.866 282.401 225.737 282.789 223.011 282.789C220.286 282.789 218.147 282.401 216.595 281.625C215.043 280.868 214.267 279.761 214.267 278.303C214.267 276.979 214.91 275.937 216.197 275.18C217.503 274.423 219.377 273.988 221.819 273.874V271.149H211.484V269.275H234.51V271.149H224.175V273.874ZM229.343 278.303C229.343 277.452 228.784 276.799 227.668 276.344C226.551 275.871 224.989 275.635 222.983 275.635C220.977 275.635 219.415 275.871 218.298 276.344C217.182 276.799 216.623 277.452 216.623 278.303C216.623 279.155 217.182 279.818 218.298 280.291C219.415 280.764 220.977 281.001 222.983 281.001C224.989 281.001 226.551 280.764 227.668 280.291C228.784 279.818 229.343 279.155 229.343 278.303ZM239.221 268.338V258.174H241.521V261.41H253.899V258.174H256.199V268.338H239.221ZM241.521 263.199V266.492H253.899V263.199H241.521ZM259.266 272.682H249.044V277.622H246.716V272.682H236.126V270.808H259.266V272.682ZM256.682 280.348V282.25H239.079V275.322H241.379V280.348H256.682ZM263.607 260.218V258.344H281.182V264.903H266.021V268.026H281.75V269.899H263.692V263.142H278.825V260.218H263.607ZM277.945 274.414V282.846H275.617V274.414H269.2V282.846H266.872V274.414H260.853V272.54H283.964V274.414H277.945Z" fill="black"/>
<mask id="path-14-inside-1_210_19711" fill="white">
<path d="M103.66 288.717H1336.34V454.336H103.66V288.717Z"/>
</mask>
<path d="M1336.34 454.336V453.153H103.66V454.336V455.519H1336.34V454.336Z" fill="#CCCCCC" mask="url(#path-14-inside-1_210_19711)"/>
<path d="M126.823 330.62H123.648V336.398H120.212V322.24H123.648V327.783H126.823V330.62ZM117.115 335.487C115.848 335.07 114.773 334.481 113.888 333.717C113.02 332.954 112.335 332.051 111.832 331.01C111.311 332.208 110.583 333.249 109.646 334.134C108.726 335.018 107.581 335.695 106.21 336.164L104.414 333.457C105.421 333.127 106.28 332.693 106.991 332.156C107.702 331.6 108.284 330.984 108.735 330.308C109.186 329.614 109.515 328.876 109.724 328.096C109.932 327.297 110.036 326.491 110.036 325.675V323.515H113.523V325.961C113.523 326.69 113.628 327.402 113.836 328.096C114.044 328.79 114.365 329.44 114.799 330.047C115.233 330.637 115.788 331.175 116.464 331.661C117.158 332.147 117.974 332.537 118.911 332.832L117.115 335.487ZM115.814 336.944C117.063 336.944 118.182 337.048 119.171 337.257C120.177 337.465 121.028 337.769 121.722 338.168C122.433 338.567 122.971 339.052 123.335 339.625C123.717 340.18 123.908 340.822 123.908 341.551C123.908 342.28 123.717 342.93 123.335 343.503C122.971 344.075 122.433 344.561 121.722 344.96C121.028 345.359 120.177 345.663 119.171 345.871C118.182 346.079 117.063 346.184 115.814 346.184C114.565 346.184 113.437 346.079 112.43 345.871C111.424 345.663 110.565 345.359 109.854 344.96C109.16 344.561 108.622 344.075 108.24 343.503C107.876 342.93 107.694 342.28 107.694 341.551C107.694 340.822 107.876 340.18 108.24 339.625C108.622 339.052 109.16 338.567 109.854 338.168C110.565 337.769 111.424 337.465 112.43 337.257C113.437 337.048 114.565 336.944 115.814 336.944ZM115.814 343.529C117.341 343.529 118.503 343.373 119.301 343.06C120.099 342.731 120.498 342.228 120.498 341.551C120.498 340.892 120.099 340.406 119.301 340.093C118.503 339.764 117.341 339.599 115.814 339.599C112.673 339.599 111.103 340.25 111.103 341.551C111.103 342.87 112.673 343.529 115.814 343.529ZM129.319 325.597V322.864H147.147V325.597H144.102V329.215H146.965V331.947H129.475V329.215H132.364V325.597H129.319ZM135.774 325.597V329.215H140.692V325.597H135.774ZM139.964 338.116H146.496V345.923H129.944V338.116H136.528V336.164H127.419V333.431H149.073V336.164H139.964V338.116ZM133.301 340.796V343.217H143.113V340.796H133.301ZM151.049 334.966V323.931H162.344V325.675H166.664V322.214H170.1V336.268H166.664V333.197H162.344V334.966H151.049ZM154.432 326.664V332.26H158.987V326.664H154.432ZM162.344 330.464H166.664V328.408H162.344V330.464ZM161.98 336.866C163.264 336.866 164.409 336.97 165.415 337.179C166.439 337.387 167.298 337.69 167.992 338.089C168.703 338.489 169.249 338.983 169.631 339.573C170.013 340.146 170.204 340.796 170.204 341.525C170.204 342.254 170.013 342.913 169.631 343.503C169.249 344.075 168.703 344.561 167.992 344.96C167.298 345.359 166.439 345.663 165.415 345.871C164.409 346.079 163.264 346.184 161.98 346.184C160.713 346.184 159.568 346.079 158.544 345.871C157.538 345.663 156.679 345.359 155.968 344.96C155.274 344.561 154.736 344.075 154.354 343.503C153.972 342.913 153.781 342.254 153.781 341.525C153.781 340.796 153.972 340.146 154.354 339.573C154.736 338.983 155.274 338.489 155.968 338.089C156.679 337.69 157.538 337.387 158.544 337.179C159.568 336.97 160.713 336.866 161.98 336.866ZM161.98 343.555C165.172 343.555 166.768 342.878 166.768 341.525C166.768 340.172 165.172 339.495 161.98 339.495C158.804 339.495 157.217 340.172 157.217 341.525C157.217 342.878 158.804 343.555 161.98 343.555Z" fill="black"/>
<rect x="103.66" y="370.343" width="172.717" height="53.2348" rx="5.91497" fill="#292929"/>
<path d="M137.815 395.816V397.387H122.351V395.816H129.09V394.454C127.449 394.353 126.187 394.031 125.304 393.488C124.433 392.946 123.998 392.214 123.998 391.293C123.998 390.801 124.137 390.359 124.414 389.968C124.705 389.564 125.115 389.23 125.645 388.965C126.175 388.687 126.812 388.479 127.556 388.34C128.313 388.189 129.159 388.113 130.093 388.113C131.026 388.113 131.866 388.189 132.61 388.34C133.367 388.479 134.011 388.687 134.541 388.965C135.071 389.23 135.475 389.564 135.752 389.968C136.042 390.359 136.187 390.801 136.187 391.293C136.187 392.214 135.727 392.952 134.806 393.507C133.885 394.05 132.629 394.372 131.039 394.473V395.816H137.815ZM126.004 391.293C126.004 391.861 126.358 392.29 127.064 392.58C127.783 392.857 128.793 392.996 130.093 392.996C131.392 392.996 132.396 392.857 133.102 392.58C133.809 392.29 134.162 391.861 134.162 391.293C134.162 390.75 133.809 390.334 133.102 390.043C132.396 389.753 131.392 389.608 130.093 389.608C128.793 389.608 127.783 389.753 127.064 390.043C126.358 390.334 126.004 390.75 126.004 391.293ZM133.973 398.315H135.904V404.788H124.263V398.315H126.194V399.924H133.973V398.315ZM133.973 401.419H126.194V403.236H133.973V401.419ZM151.044 395.286H147.865V393.715H151.044V391.879H147.865V390.29H151.044V387.905H152.994V400.624H151.044V395.286ZM147.827 398.277C146.918 397.899 146.136 397.369 145.48 396.687C144.836 395.993 144.331 395.192 143.965 394.283C143.599 395.268 143.069 396.119 142.375 396.839C141.681 397.558 140.842 398.113 139.858 398.504L138.798 396.971C139.467 396.719 140.06 396.391 140.577 395.987C141.095 395.57 141.524 395.097 141.864 394.567C142.218 394.037 142.483 393.469 142.659 392.864C142.849 392.245 142.943 391.614 142.943 390.971V388.851H144.931V390.971C144.931 391.577 145.019 392.176 145.196 392.769C145.372 393.35 145.625 393.892 145.953 394.397C146.294 394.902 146.71 395.356 147.202 395.76C147.694 396.163 148.262 396.492 148.906 396.744L147.827 398.277ZM153.391 403.085V404.675H141.864V399.394H143.833V403.085H153.391ZM174.355 392.126V393.734H171.932V398.164H169.983V387.886H171.932V392.126H174.355ZM167.503 397.255C166.582 396.927 165.787 396.454 165.118 395.835C164.462 395.204 163.951 394.485 163.585 393.678C163.207 394.624 162.67 395.444 161.976 396.138C161.282 396.832 160.443 397.362 159.459 397.728L158.418 396.176C159.087 395.949 159.68 395.64 160.197 395.249C160.714 394.857 161.15 394.409 161.503 393.905C161.856 393.4 162.121 392.857 162.298 392.277C162.475 391.684 162.563 391.078 162.563 390.46V388.775H164.532V390.611C164.532 391.167 164.62 391.703 164.797 392.22C164.973 392.738 165.232 393.223 165.573 393.678C165.913 394.119 166.33 394.517 166.822 394.87C167.327 395.223 167.894 395.507 168.525 395.722L167.503 397.255ZM166.424 398.58C168.204 398.58 169.598 398.864 170.607 399.432C171.617 399.987 172.122 400.769 172.122 401.779C172.122 402.284 171.989 402.738 171.724 403.142C171.472 403.533 171.1 403.867 170.607 404.145C170.115 404.422 169.516 404.631 168.809 404.769C168.115 404.921 167.32 404.997 166.424 404.997C165.541 404.997 164.746 404.921 164.039 404.769C163.345 404.631 162.752 404.422 162.26 404.145C161.768 403.867 161.39 403.533 161.125 403.142C160.86 402.738 160.727 402.284 160.727 401.779C160.727 401.274 160.86 400.826 161.125 400.435C161.39 400.031 161.768 399.697 162.26 399.432C162.752 399.154 163.345 398.946 164.039 398.807C164.746 398.656 165.541 398.58 166.424 398.58ZM166.424 403.463C167.648 403.463 168.582 403.325 169.226 403.047C169.869 402.769 170.191 402.347 170.191 401.779C170.191 401.249 169.869 400.839 169.226 400.548C168.582 400.258 167.648 400.113 166.424 400.113C165.2 400.113 164.267 400.258 163.623 400.548C162.98 400.839 162.658 401.249 162.658 401.779C162.658 402.347 162.98 402.769 163.623 403.047C164.267 403.325 165.2 403.463 166.424 403.463ZM189.647 387.905V404.978H187.793V396.252H185.881V404.183H184.064V388.226H185.881V394.662H187.793V387.905H189.647ZM177.534 399.299C178.089 399.299 178.6 399.293 179.067 399.28C179.534 399.268 179.982 399.249 180.411 399.223C180.84 399.186 181.262 399.141 181.679 399.091C182.095 399.041 182.518 398.977 182.947 398.902L183.117 400.492C182.625 400.58 182.146 400.656 181.679 400.719C181.212 400.769 180.726 400.807 180.221 400.832C179.729 400.858 179.206 400.877 178.65 400.889C178.095 400.902 177.483 400.908 176.814 400.908H175.66V389.778H182.474V391.349H177.534V394.283H182.171V395.816H177.534V399.299ZM203.456 397.766H195.582V389.04H197.513V391.861H201.545V389.04H203.456V390.914H207.015V387.924H208.964V400.548H207.015V396.176H203.456V397.766ZM203.456 392.485V394.586H207.015V392.485H203.456ZM201.545 393.394H197.513V396.176H201.545V393.394ZM209.362 403.085V404.675H197.835V399.318H199.803V403.085H209.362ZM219.506 392.428C218.458 395.167 216.036 397.072 212.237 398.145L211.461 396.593C213.518 396.025 215.083 395.236 216.156 394.227C217.228 393.217 217.853 392.044 218.029 390.706H212.351V389.135H220.111C220.111 389.438 220.099 389.734 220.074 390.025C220.048 390.302 220.011 390.573 219.96 390.838H223.481V387.905H225.43V397.955H223.481V395.987H219.335V394.397H223.481V392.428H219.506ZM219.828 398.164C220.698 398.164 221.481 398.246 222.175 398.41C222.881 398.561 223.481 398.782 223.973 399.072C224.478 399.362 224.862 399.716 225.127 400.132C225.405 400.548 225.544 401.015 225.544 401.533C225.544 402.063 225.405 402.536 225.127 402.952C224.862 403.369 224.478 403.722 223.973 404.012C223.481 404.302 222.881 404.523 222.175 404.675C221.481 404.839 220.698 404.921 219.828 404.921C218.957 404.921 218.168 404.839 217.462 404.675C216.768 404.523 216.174 404.302 215.682 404.012C215.19 403.722 214.805 403.369 214.528 402.952C214.263 402.536 214.13 402.063 214.13 401.533C214.13 401.015 214.263 400.548 214.528 400.132C214.805 399.716 215.19 399.362 215.682 399.072C216.174 398.782 216.768 398.561 217.462 398.41C218.168 398.246 218.957 398.164 219.828 398.164ZM219.828 403.388C221.014 403.388 221.941 403.23 222.61 402.914C223.279 402.599 223.613 402.138 223.613 401.533C223.613 400.927 223.279 400.473 222.61 400.17C221.941 399.854 221.014 399.697 219.828 399.697C218.641 399.697 217.714 399.854 217.045 400.17C216.389 400.473 216.061 400.927 216.061 401.533C216.061 402.138 216.389 402.599 217.045 402.914C217.714 403.23 218.641 403.388 219.828 403.388Z" fill="white"/>
<path fill-rule="evenodd" clip-rule="evenodd" d="M238.879 392.563C239.348 392.108 240.097 392.118 240.552 392.587L246.729 398.941L253.061 392.577C253.522 392.114 254.271 392.112 254.734 392.573C255.197 393.034 255.199 393.783 254.739 394.246L247.641 401.38C247.592 401.429 247.54 401.472 247.485 401.511C247.015 401.92 246.301 401.895 245.861 401.443L238.856 394.236C238.4 393.768 238.411 393.019 238.879 392.563Z" fill="white"/>
<path d="M487.644 338.551H485.623V343.668H483.437V332.439H485.623V336.745H487.644V338.551ZM482.741 341.052C481.991 341.184 481.218 341.289 480.423 341.366C479.639 341.444 478.855 341.504 478.071 341.548C477.298 341.593 476.542 341.62 475.802 341.631C475.073 341.642 474.394 341.648 473.765 341.648L473.533 339.876L475.123 339.859V335.437H473.93V333.698H482.062V335.437H480.853V339.644C481.151 339.622 481.444 339.594 481.731 339.561L482.592 339.462L482.741 341.052ZM477.226 339.826C477.48 339.815 477.734 339.809 477.988 339.809C478.253 339.798 478.513 339.782 478.767 339.76V335.437H477.226V339.826ZM486.17 345.689V347.428H475.785V342.625H477.972V345.689H486.17ZM501.521 347.676H499.451V340.008H498.176V346.997H496.139V332.671H498.176V338.253H499.451V332.423H501.521V347.676ZM494.88 333.996V343.884H488.868V333.996H494.88ZM492.859 342.178V335.719H490.905V342.178H492.859ZM517.287 337.789H515.266V341.466H513.08V332.456H515.266V335.984H517.287V337.789ZM511.109 340.886C510.303 340.621 509.619 340.246 509.056 339.76C508.504 339.274 508.068 338.7 507.747 338.037C507.416 338.799 506.952 339.462 506.356 340.025C505.771 340.588 505.042 341.018 504.17 341.317L503.027 339.594C503.668 339.384 504.214 339.108 504.667 338.766C505.12 338.413 505.489 338.021 505.776 337.59C506.064 337.148 506.273 336.679 506.406 336.182C506.538 335.674 506.605 335.161 506.605 334.642V333.267H508.824V334.824C508.824 335.288 508.89 335.741 509.023 336.182C509.155 336.624 509.359 337.038 509.635 337.424C509.911 337.8 510.265 338.142 510.695 338.451C511.137 338.76 511.656 339.009 512.252 339.197L511.109 340.886ZM510.281 341.813C511.076 341.813 511.788 341.88 512.418 342.012C513.058 342.145 513.599 342.338 514.041 342.592C514.494 342.846 514.836 343.155 515.068 343.519C515.311 343.873 515.432 344.281 515.432 344.745C515.432 345.209 515.311 345.623 515.068 345.987C514.836 346.351 514.494 346.661 514.041 346.914C513.599 347.168 513.058 347.362 512.418 347.494C511.788 347.627 511.076 347.693 510.281 347.693C509.486 347.693 508.769 347.627 508.128 347.494C507.488 347.362 506.941 347.168 506.489 346.914C506.047 346.661 505.705 346.351 505.462 345.987C505.23 345.623 505.114 345.209 505.114 344.745C505.114 344.281 505.23 343.873 505.462 343.519C505.705 343.155 506.047 342.846 506.489 342.592C506.941 342.338 507.488 342.145 508.128 342.012C508.769 341.88 509.486 341.813 510.281 341.813ZM510.281 346.004C511.253 346.004 511.993 345.904 512.501 345.705C513.008 345.496 513.262 345.175 513.262 344.745C513.262 344.325 513.008 344.016 512.501 343.817C511.993 343.608 511.253 343.503 510.281 343.503C508.283 343.503 507.284 343.917 507.284 344.745C507.284 345.584 508.283 346.004 510.281 346.004ZM531.165 347.693H529.094V340.091H527.869V347.014H525.832V332.671H527.869V338.335H529.094V332.423H531.165V347.693ZM520.664 342.426C521.084 342.426 521.476 342.421 521.84 342.41C522.216 342.399 522.574 342.382 522.917 342.36C523.27 342.338 523.618 342.31 523.96 342.277C524.302 342.233 524.65 342.183 525.004 342.128L525.202 343.884C524.761 343.961 524.33 344.022 523.91 344.066C523.491 344.11 523.06 344.143 522.619 344.165C522.188 344.187 521.73 344.204 521.244 344.215C520.758 344.215 520.228 344.215 519.654 344.215H518.594V334.013H524.755V335.752H520.664V338.004H524.44V339.693H520.664V342.426Z" fill="black"/>
<path d="M561.479 320.066H696.34C699.28 320.066 701.663 322.45 701.663 325.39V356.147C701.663 359.088 699.28 361.471 696.34 361.471H561.479C558.538 361.471 556.155 359.088 556.155 356.147V325.39C556.155 322.45 558.538 320.066 561.479 320.066Z" fill="white"/>
<path d="M561.479 320.066H696.34C699.28 320.066 701.663 322.45 701.663 325.39V356.147C701.663 359.088 699.28 361.471 696.34 361.471H561.479C558.538 361.471 556.155 359.088 556.155 356.147V325.39C556.155 322.45 558.538 320.066 561.479 320.066Z" stroke="black" stroke-width="1.18299"/>
<path d="M610.556 337.869H608.038V342.488H606.486V332.21H608.038V336.582H610.556V337.869ZM603.855 341.39C602.934 341.049 602.12 340.544 601.413 339.876C600.719 339.207 600.183 338.437 599.804 337.566C599.451 338.563 598.909 339.434 598.177 340.178C597.457 340.923 596.599 341.484 595.602 341.863L594.789 340.633C595.432 340.406 596.013 340.096 596.53 339.705C597.047 339.301 597.489 338.847 597.855 338.342C598.233 337.825 598.517 337.27 598.707 336.677C598.909 336.071 599.01 335.446 599.01 334.803V333.062H600.562V334.935C600.562 335.503 600.663 336.058 600.864 336.601C601.066 337.144 601.344 337.648 601.697 338.115C602.063 338.57 602.499 338.98 603.003 339.346C603.508 339.699 604.063 339.977 604.669 340.178L603.855 341.39ZM602.644 342.961C603.502 342.961 604.271 343.03 604.953 343.169C605.647 343.308 606.234 343.51 606.713 343.775C607.205 344.04 607.578 344.368 607.83 344.759C608.095 345.138 608.227 345.573 608.227 346.065C608.227 346.557 608.095 346.999 607.83 347.39C607.578 347.769 607.205 348.084 606.713 348.336C606.234 348.601 605.647 348.803 604.953 348.942C604.271 349.081 603.502 349.15 602.644 349.15C601.773 349.15 600.991 349.081 600.297 348.942C599.615 348.803 599.028 348.601 598.536 348.336C598.057 348.084 597.685 347.769 597.42 347.39C597.167 346.999 597.041 346.557 597.041 346.065C597.041 345.573 597.167 345.138 597.42 344.759C597.685 344.368 598.057 344.04 598.536 343.775C599.028 343.51 599.615 343.308 600.297 343.169C600.991 343.03 601.773 342.961 602.644 342.961ZM602.644 347.939C603.906 347.939 604.89 347.781 605.596 347.466C606.316 347.138 606.675 346.671 606.675 346.065C606.675 345.459 606.316 344.992 605.596 344.664C604.89 344.336 603.906 344.172 602.644 344.172C601.382 344.172 600.391 344.336 599.672 344.664C598.953 344.992 598.593 345.459 598.593 346.065C598.593 346.671 598.953 347.138 599.672 347.466C600.391 347.781 601.382 347.939 602.644 347.939ZM612.769 333.989V332.74H625.223V333.989H622.649V337.547H625.147V338.797H612.825V337.547H615.324V333.989H612.769ZM616.876 333.989V337.547H621.097V333.989H616.876ZM619.791 343.642H624.807V348.942H613.223V343.642H618.239V341.655H611.33V340.406H626.681V341.655H619.791V343.642ZM614.737 344.873V347.693H623.293V344.873H614.737ZM631.953 337.888C632.698 337.8 633.411 337.648 634.092 337.434C634.786 337.219 635.398 336.954 635.928 336.639C636.458 336.311 636.887 335.945 637.215 335.541C637.543 335.125 637.726 334.683 637.764 334.216H632.502V332.967H645.051V334.216H639.77C639.808 334.683 639.991 335.125 640.319 335.541C640.647 335.945 641.076 336.311 641.606 336.639C642.136 336.954 642.742 337.219 643.423 337.434C644.117 337.648 644.837 337.8 645.581 337.888L645.032 339.118C644.338 339.03 643.663 338.891 643.007 338.702C642.363 338.5 641.764 338.254 641.209 337.964C640.666 337.674 640.18 337.333 639.751 336.942C639.335 336.551 639.007 336.122 638.767 335.655C638.54 336.122 638.212 336.551 637.783 336.942C637.366 337.333 636.881 337.674 636.325 337.964C635.783 338.254 635.183 338.5 634.527 338.702C633.871 338.891 633.196 339.03 632.502 339.118L631.953 337.888ZM639.543 343.207C641.171 343.283 642.414 343.573 643.272 344.078C644.13 344.582 644.559 345.276 644.559 346.16C644.559 347.131 644.048 347.87 643.026 348.374C642.004 348.892 640.584 349.15 638.767 349.15C636.95 349.15 635.524 348.892 634.489 348.374C633.455 347.87 632.937 347.131 632.937 346.16C632.937 345.276 633.366 344.582 634.224 344.078C635.095 343.573 636.344 343.283 637.972 343.207V341.39H631.082V340.141H646.433V341.39H639.543V343.207ZM642.988 346.16C642.988 345.592 642.616 345.157 641.871 344.854C641.127 344.538 640.086 344.38 638.748 344.38C637.411 344.38 636.37 344.538 635.625 344.854C634.881 345.157 634.508 345.592 634.508 346.16C634.508 346.728 634.881 347.169 635.625 347.485C636.37 347.8 637.411 347.958 638.748 347.958C640.086 347.958 641.127 347.8 641.871 347.485C642.616 347.169 642.988 346.728 642.988 346.16ZM661.441 349.169H659.889V332.21H661.441V349.169ZM653.605 337.377C653.605 338.096 653.725 338.809 653.965 339.516C654.205 340.223 654.526 340.885 654.93 341.503C655.347 342.109 655.832 342.652 656.388 343.131C656.943 343.611 657.53 343.983 658.148 344.248L657.277 345.497C656.785 345.27 656.312 344.98 655.858 344.627C655.416 344.273 655 343.876 654.608 343.434C654.23 342.992 653.889 342.507 653.586 341.977C653.283 341.447 653.031 340.891 652.829 340.311C652.64 340.929 652.394 341.522 652.091 342.09C651.788 342.658 651.447 343.188 651.069 343.68C650.69 344.172 650.28 344.608 649.838 344.986C649.397 345.365 648.936 345.674 648.457 345.914L647.548 344.664C648.154 344.374 648.728 343.97 649.271 343.453C649.826 342.923 650.305 342.336 650.709 341.693C651.126 341.037 651.454 340.336 651.693 339.592C651.933 338.847 652.053 338.109 652.053 337.377V335.219H648.116V333.932H657.599V335.219H653.605V337.377Z" fill="black"/>
<path d="M720 320.066H854.861C857.801 320.066 860.185 322.45 860.185 325.39V356.147C860.185 359.088 857.801 361.471 854.861 361.471H720C717.06 361.471 714.677 359.088 714.677 356.147V325.39C714.677 322.45 717.06 320.066 720 320.066Z" fill="white"/>
<path d="M720 320.066H854.861C857.801 320.066 860.185 322.45 860.185 325.39V356.147C860.185 359.088 857.801 361.471 854.861 361.471H720C717.06 361.471 714.677 359.088 714.677 356.147V325.39C714.677 322.45 717.06 320.066 720 320.066Z" stroke="black" stroke-width="1.18299"/>
<path d="M769.077 337.869H766.56V342.488H765.008V332.21H766.56V336.582H769.077V337.869ZM762.377 341.39C761.455 341.049 760.641 340.544 759.935 339.876C759.241 339.207 758.705 338.437 758.326 337.566C757.973 338.563 757.43 339.434 756.698 340.178C755.979 340.923 755.121 341.484 754.124 341.863L753.31 340.633C753.954 340.406 754.534 340.096 755.051 339.705C755.569 339.301 756.01 338.847 756.376 338.342C756.755 337.825 757.039 337.27 757.228 336.677C757.43 336.071 757.531 335.446 757.531 334.803V333.062H759.083V334.935C759.083 335.503 759.184 336.058 759.386 336.601C759.588 337.144 759.865 337.648 760.219 338.115C760.585 338.57 761.02 338.98 761.525 339.346C762.03 339.699 762.585 339.977 763.19 340.178L762.377 341.39ZM761.165 342.961C762.023 342.961 762.793 343.03 763.474 343.169C764.168 343.308 764.755 343.51 765.235 343.775C765.727 344.04 766.099 344.368 766.351 344.759C766.616 345.138 766.749 345.573 766.749 346.065C766.749 346.557 766.616 346.999 766.351 347.39C766.099 347.769 765.727 348.084 765.235 348.336C764.755 348.601 764.168 348.803 763.474 348.942C762.793 349.081 762.023 349.15 761.165 349.15C760.294 349.15 759.512 349.081 758.818 348.942C758.137 348.803 757.55 348.601 757.058 348.336C756.578 348.084 756.206 347.769 755.941 347.39C755.689 346.999 755.562 346.557 755.562 346.065C755.562 345.573 755.689 345.138 755.941 344.759C756.206 344.368 756.578 344.04 757.058 343.775C757.55 343.51 758.137 343.308 758.818 343.169C759.512 343.03 760.294 342.961 761.165 342.961ZM761.165 347.939C762.427 347.939 763.411 347.781 764.118 347.466C764.837 347.138 765.197 346.671 765.197 346.065C765.197 345.459 764.837 344.992 764.118 344.664C763.411 344.336 762.427 344.172 761.165 344.172C759.903 344.172 758.913 344.336 758.193 344.664C757.474 344.992 757.115 345.459 757.115 346.065C757.115 346.671 757.474 347.138 758.193 347.466C758.913 347.781 759.903 347.939 761.165 347.939ZM771.29 333.989V332.74H783.745V333.989H781.17V337.547H783.669V338.797H771.347V337.547H773.845V333.989H771.29ZM775.397 333.989V337.547H779.618V333.989H775.397ZM778.312 343.642H783.328V348.942H771.744V343.642H776.76V341.655H769.852V340.406H785.202V341.655H778.312V343.642ZM773.259 344.873V347.693H781.814V344.873H773.259ZM791.042 333.989V332.74H803.497V333.989H800.923V337.547H803.421V338.797H791.099V337.547H793.598V333.989H791.042ZM795.15 333.989V337.547H799.371V333.989H795.15ZM798.065 343.642H803.081V348.942H791.497V343.642H796.513V341.655H789.604V340.406H804.954V341.655H798.065V343.642ZM793.011 344.873V347.693H801.566V344.873H793.011ZM818.486 332.21H820.039V340.973H818.486V337.245H815.136V335.995H818.486V332.21ZM815.288 340.765C814.329 340.462 813.489 339.995 812.77 339.365C812.064 338.734 811.527 338.002 811.161 337.169C810.795 338.077 810.24 338.885 809.496 339.592C808.764 340.298 807.899 340.822 806.903 341.163L806.126 339.951C806.745 339.737 807.313 339.453 807.83 339.1C808.347 338.734 808.795 338.324 809.174 337.869C809.552 337.415 809.843 336.923 810.045 336.393C810.259 335.863 810.366 335.327 810.366 334.784V334.33H806.6V333.08H815.685V334.33H811.937V334.784C811.937 335.289 812.032 335.787 812.221 336.279C812.423 336.771 812.701 337.232 813.054 337.661C813.42 338.077 813.855 338.45 814.36 338.778C814.865 339.106 815.42 339.365 816.026 339.554L815.288 340.765ZM820.682 348.98H809.136V344.721H818.505V343.037H809.098V341.825H820.039V345.895H810.669V347.75H820.682V348.98Z" fill="black"/>
<path d="M485.931 405.331C484.595 405.066 483.453 404.586 482.503 403.89C481.565 403.194 480.847 402.361 480.35 401.389C479.853 402.361 479.136 403.2 478.197 403.907C477.259 404.602 476.121 405.077 474.785 405.331L473.858 403.509C474.719 403.366 475.481 403.117 476.143 402.764C476.806 402.399 477.363 401.98 477.816 401.505C478.269 401.03 478.611 400.517 478.843 399.965C479.075 399.402 479.191 398.85 479.191 398.309V397.216H481.526V398.309C481.526 398.861 481.642 399.418 481.874 399.981C482.106 400.533 482.448 401.047 482.901 401.522C483.353 401.996 483.911 402.41 484.573 402.764C485.236 403.117 485.998 403.366 486.859 403.509L485.931 405.331ZM487.339 409.72H473.527V407.948H487.339V409.72ZM501.051 411.591H498.848V396.321H501.051V411.591ZM491.346 406.374C492.483 406.374 493.538 406.347 494.509 406.291C495.492 406.225 496.502 406.115 497.54 405.96L497.739 407.699C497.143 407.788 496.557 407.859 495.983 407.915C495.409 407.97 494.829 408.014 494.244 408.047C493.659 408.08 493.057 408.102 492.439 408.113C491.821 408.124 491.169 408.13 490.485 408.13H489.16V397.58H496.878V399.352H491.346V401.836H496.248V403.542H491.346V406.374ZM515.923 411.575H513.736V403.94H510.888V402.168H513.736V396.321H515.923V411.575ZM510.921 397.779C510.921 398.949 510.827 400.075 510.639 401.157C510.463 402.228 510.126 403.25 509.629 404.221C509.132 405.182 508.448 406.087 507.575 406.937C506.714 407.777 505.599 408.555 504.23 409.273L503.037 407.616C504.241 406.987 505.218 406.319 505.969 405.612C506.72 404.906 507.316 404.133 507.758 403.294L503.402 403.691L503.12 401.853L508.42 401.555C508.497 401.235 508.564 400.909 508.619 400.578C508.674 400.235 508.718 399.882 508.751 399.518H503.932V397.779H510.921Z" fill="black"/>
<path d="M561.479 383.948H651.048C653.988 383.948 656.371 386.331 656.371 389.271V420.029C656.371 422.969 653.988 425.353 651.048 425.353H561.479C558.538 425.353 556.155 422.969 556.155 420.029V389.271C556.155 386.331 558.538 383.948 561.479 383.948Z" fill="white"/>
<path d="M561.479 383.948H651.048C653.988 383.948 656.371 386.331 656.371 389.271V420.029C656.371 422.969 653.988 425.353 651.048 425.353H561.479C558.538 425.353 556.155 422.969 556.155 420.029V389.271C556.155 386.331 558.538 383.948 561.479 383.948Z" stroke="black" stroke-width="1.18299"/>
<path d="M590.818 397.776C591.525 397.776 592.168 397.839 592.749 397.966C593.342 398.092 593.847 398.294 594.263 398.571C594.68 398.836 595.001 399.183 595.229 399.612C595.468 400.041 595.588 400.559 595.588 401.164C595.588 401.858 595.411 402.483 595.058 403.038C594.705 403.581 594.2 403.959 593.544 404.174V404.269C594.377 404.433 595.058 404.792 595.588 405.347C596.118 405.89 596.383 406.634 596.383 407.581C596.383 408.262 596.251 408.862 595.986 409.379C595.733 409.884 595.374 410.307 594.907 410.647C594.452 410.975 593.904 411.228 593.26 411.404C592.616 411.568 591.904 411.65 591.121 411.65H586.692V397.776H590.818ZM590.515 403.682C591.714 403.682 592.572 403.48 593.09 403.076C593.607 402.66 593.866 402.098 593.866 401.391C593.866 400.559 593.594 399.978 593.052 399.65C592.522 399.322 591.702 399.158 590.591 399.158H588.452V403.682H590.515ZM590.875 410.25C592.099 410.25 593.033 410.035 593.676 409.606C594.333 409.165 594.661 408.471 594.661 407.524C594.661 406.653 594.333 406.022 593.676 405.631C593.033 405.228 592.099 405.026 590.875 405.026H588.452V410.25H590.875ZM606.192 397.776V399.253H599.946V403.606H605.208V405.101H599.946V410.155H606.4V411.65H598.186V397.776H606.192ZM612.228 411.896C611.244 411.896 610.335 411.713 609.502 411.348C608.682 410.982 607.969 410.477 607.364 409.833L608.405 408.641C608.909 409.171 609.496 409.594 610.165 409.909C610.834 410.212 611.528 410.363 612.247 410.363C613.155 410.363 613.868 410.155 614.386 409.739C614.903 409.322 615.162 408.773 615.162 408.092C615.162 407.739 615.099 407.442 614.973 407.202C614.859 406.95 614.695 406.735 614.48 406.559C614.279 406.382 614.039 406.224 613.761 406.086C613.484 405.934 613.181 405.783 612.853 405.631L610.846 404.761C610.531 404.622 610.203 404.458 609.862 404.269C609.534 404.067 609.231 403.827 608.953 403.549C608.688 403.259 608.468 402.925 608.291 402.546C608.114 402.155 608.026 401.707 608.026 401.202C608.026 400.672 608.133 400.18 608.348 399.726C608.575 399.272 608.878 398.88 609.256 398.552C609.647 398.224 610.108 397.972 610.638 397.795C611.181 397.606 611.767 397.511 612.398 397.511C613.231 397.511 613.995 397.669 614.689 397.984C615.395 398.287 615.995 398.704 616.487 399.234L615.559 400.35C615.13 399.947 614.657 399.631 614.14 399.404C613.622 399.164 613.042 399.044 612.398 399.044C611.603 399.044 610.972 399.227 610.506 399.593C610.039 399.947 609.805 400.445 609.805 401.089C609.805 401.429 609.875 401.72 610.013 401.959C610.152 402.199 610.329 402.407 610.543 402.584C610.758 402.761 611.004 402.912 611.282 403.038C611.559 403.164 611.831 403.284 612.095 403.398L614.083 404.25C614.487 404.426 614.859 404.622 615.2 404.836C615.553 405.051 615.856 405.303 616.108 405.593C616.373 405.884 616.575 406.224 616.714 406.616C616.865 406.994 616.941 407.442 616.941 407.959C616.941 408.502 616.827 409.013 616.6 409.493C616.386 409.972 616.077 410.395 615.673 410.761C615.269 411.114 614.771 411.392 614.178 411.594C613.597 411.796 612.947 411.896 612.228 411.896ZM616.983 399.253V397.776H627.147V399.253H622.945V411.65H621.185V399.253H616.983Z" fill="black"/>
<path d="M674.708 383.948H764.277C767.217 383.948 769.601 386.331 769.601 389.271V420.029C769.601 422.969 767.217 425.353 764.277 425.353H674.708C671.768 425.353 669.385 422.969 669.385 420.029V389.271C669.385 386.331 671.768 383.948 674.708 383.948Z" fill="white"/>
<path d="M674.708 383.948H764.277C767.217 383.948 769.601 386.331 769.601 389.271V420.029C769.601 422.969 767.217 425.353 764.277 425.353H674.708C671.768 425.353 669.385 422.969 669.385 420.029V389.271C669.385 386.331 671.768 383.948 674.708 383.948Z" stroke="black" stroke-width="1.18299"/>
<path d="M704.522 403.795C705.292 403.694 706.03 403.511 706.737 403.246C707.456 402.969 708.087 402.634 708.63 402.243C709.185 401.852 709.626 401.417 709.954 400.937C710.283 400.458 710.447 399.953 710.447 399.423H705.052V398.174H710.466V396.092H712.018V398.174H717.431V399.423H712.018C712.018 399.94 712.182 400.445 712.51 400.937C712.838 401.417 713.273 401.852 713.816 402.243C714.371 402.634 715.002 402.969 715.709 403.246C716.428 403.511 717.166 403.694 717.923 403.795L717.374 405.045C716.718 404.944 716.081 404.792 715.463 404.59C714.844 404.376 714.264 404.117 713.721 403.814C713.191 403.511 712.712 403.164 712.283 402.773C711.854 402.382 711.507 401.959 711.242 401.505C710.977 401.959 710.63 402.382 710.201 402.773C709.772 403.164 709.286 403.511 708.743 403.814C708.213 404.117 707.633 404.376 707.002 404.59C706.383 404.792 705.746 404.944 705.09 405.045L704.522 403.795ZM712.018 407.6V413.07H710.466V407.6H703.576V406.332H718.926V407.6H712.018ZM732.439 396.092H734.01V408.754H732.439V402.584H729.013V401.297H732.439V396.092ZM729.297 406.37C728.313 406.041 727.455 405.562 726.723 404.931C726.004 404.287 725.449 403.53 725.057 402.66C724.692 403.606 724.143 404.426 723.411 405.12C722.691 405.802 721.833 406.319 720.837 406.672L720.061 405.461C720.691 405.246 721.266 404.963 721.783 404.609C722.3 404.243 722.742 403.827 723.108 403.36C723.474 402.893 723.758 402.388 723.96 401.846C724.162 401.291 724.263 400.716 724.263 400.123V399.593H720.496V398.344H724.263V396.186H725.815V398.344H729.562V399.593H725.815V400.123C725.815 400.691 725.916 401.234 726.117 401.751C726.332 402.268 726.622 402.748 726.988 403.19C727.367 403.619 727.815 404.004 728.332 404.344C728.862 404.672 729.436 404.937 730.054 405.139L729.297 406.37ZM734.484 412.672H723.146V407.619H724.717V411.404H734.484V412.672Z" fill="black"/>
<path d="M787.938 383.948H877.507C880.447 383.948 882.83 386.331 882.83 389.271V420.029C882.83 422.969 880.447 425.353 877.507 425.353H787.938C784.997 425.353 782.614 422.969 782.614 420.029V389.271C782.614 386.331 784.997 383.948 787.938 383.948Z" fill="white"/>
<path d="M787.938 383.948H877.507C880.447 383.948 882.83 386.331 882.83 389.271V420.029C882.83 422.969 880.447 425.353 877.507 425.353H787.938C784.997 425.353 782.614 422.969 782.614 420.029V389.271C782.614 386.331 784.997 383.948 787.938 383.948Z" stroke="black" stroke-width="1.18299"/>
<path d="M820.932 408.527V396.073H822.484V408.527H820.932ZM817.961 405.764C816.976 405.398 816.125 404.855 815.405 404.136C814.699 403.404 814.156 402.546 813.778 401.562C813.412 402.597 812.863 403.511 812.131 404.306C811.399 405.089 810.535 405.688 809.538 406.105L808.724 404.836C809.367 404.597 809.948 404.269 810.465 403.852C810.995 403.436 811.443 402.962 811.809 402.432C812.188 401.89 812.478 401.303 812.68 400.672C812.882 400.041 812.983 399.398 812.983 398.742V397.019H814.535V398.742C814.535 399.385 814.636 400.003 814.838 400.596C815.052 401.19 815.342 401.745 815.708 402.262C816.087 402.767 816.535 403.215 817.052 403.606C817.582 403.997 818.156 404.306 818.775 404.533L817.961 405.764ZM822.995 412.672H811.563V407.373H813.115V411.404H822.995V412.672ZM839.442 413.032H837.966V396.073H839.442V413.032ZM836.073 396.451V412.199H834.597V403.757H832.079V408.489H825.625V398.041H832.079V402.47H834.597V396.451H836.073ZM827.082 399.272V407.259H830.641V399.272H827.082ZM843.435 403.057V396.943H844.987V401.808H855.019V403.057H843.435ZM852.861 406.786V413.051H851.309V406.786H846.993V413.051H845.46V406.786H841.485V405.499H856.836V406.786H852.861Z" fill="black"/>
<path d="M901.167 383.948H990.736C993.676 383.948 996.06 386.331 996.06 389.271V420.029C996.06 422.969 993.676 425.353 990.736 425.353H901.167C898.227 425.353 895.844 422.969 895.844 420.029V389.271C895.844 386.331 898.227 383.948 901.167 383.948Z" fill="white"/>
<path d="M901.167 383.948H990.736C993.676 383.948 996.06 386.331 996.06 389.271V420.029C996.06 422.969 993.676 425.353 990.736 425.353H901.167C898.227 425.353 895.844 422.969 895.844 420.029V389.271C895.844 386.331 898.227 383.948 901.167 383.948Z" stroke="black" stroke-width="1.18299"/>
<path d="M935.228 397.776V403.587H941.701V397.776H943.442V411.65H941.701V405.101H935.228V411.65H933.467V397.776H935.228ZM948.052 397.776V411.65H946.292V397.776H948.052ZM949.585 399.253V397.776H959.749V399.253H955.547V411.65H953.787V399.253H949.585Z" fill="black"/>
<path d="M1014.4 383.948H1103.97C1106.91 383.948 1109.29 386.331 1109.29 389.271V420.029C1109.29 422.969 1106.91 425.353 1103.97 425.353H1014.4C1011.46 425.353 1009.07 422.969 1009.07 420.029V389.271C1009.07 386.331 1011.46 383.948 1014.4 383.948Z" fill="white"/>
<path d="M1014.4 383.948H1103.97C1106.91 383.948 1109.29 386.331 1109.29 389.271V420.029C1109.29 422.969 1106.91 425.353 1103.97 425.353H1014.4C1011.46 425.353 1009.07 422.969 1009.07 420.029V389.271C1009.07 386.331 1011.46 383.948 1014.4 383.948Z" stroke="black" stroke-width="1.18299"/>
<path d="M1043.3 398.817V397.625H1047.52V395.902H1049.08V397.625H1053.31V398.817H1043.3ZM1058.94 401.391H1056.42V405.404H1054.87V396.016H1056.42V400.104H1058.94V401.391ZM1052.37 402.357C1052.37 403.227 1052 403.909 1051.27 404.401C1050.54 404.893 1049.55 405.139 1048.3 405.139C1047.69 405.139 1047.14 405.076 1046.63 404.95C1046.14 404.824 1045.72 404.641 1045.37 404.401C1045.01 404.161 1044.73 403.871 1044.53 403.53C1044.34 403.177 1044.25 402.786 1044.25 402.357C1044.25 401.915 1044.34 401.524 1044.53 401.183C1044.73 400.843 1045.01 400.552 1045.37 400.313C1045.72 400.073 1046.14 399.89 1046.63 399.764C1047.14 399.637 1047.69 399.574 1048.3 399.574C1049.55 399.574 1050.54 399.82 1051.27 400.313C1052 400.805 1052.37 401.486 1052.37 402.357ZM1045.72 402.357C1045.72 402.887 1045.95 403.291 1046.41 403.568C1046.87 403.846 1047.5 403.985 1048.3 403.985C1049.09 403.985 1049.72 403.846 1050.19 403.568C1050.66 403.291 1050.89 402.887 1050.89 402.357C1050.89 401.827 1050.66 401.423 1050.19 401.145C1049.72 400.868 1049.09 400.729 1048.3 400.729C1047.5 400.729 1046.87 400.868 1046.41 401.145C1045.95 401.423 1045.72 401.827 1045.72 402.357ZM1057.04 411.669V412.862H1045.69V408.906H1054.89V407.429H1045.63V406.275H1056.42V410.042H1047.2V411.669H1057.04ZM1072.09 408.489V396.092H1073.64V408.489H1072.09ZM1068.97 401.429C1068.97 402.048 1068.85 402.615 1068.63 403.133C1068.4 403.638 1068.08 404.079 1067.68 404.458C1067.29 404.824 1066.82 405.114 1066.28 405.328C1065.74 405.53 1065.15 405.631 1064.52 405.631C1063.89 405.631 1063.3 405.53 1062.76 405.328C1062.23 405.114 1061.76 404.824 1061.36 404.458C1060.97 404.079 1060.66 403.638 1060.43 403.133C1060.22 402.615 1060.11 402.048 1060.11 401.429C1060.11 400.824 1060.22 400.268 1060.43 399.764C1060.66 399.246 1060.97 398.805 1061.36 398.439C1061.76 398.06 1062.23 397.77 1062.76 397.568C1063.3 397.366 1063.89 397.265 1064.52 397.265C1065.15 397.265 1065.74 397.366 1066.28 397.568C1066.82 397.77 1067.29 398.06 1067.68 398.439C1068.08 398.805 1068.4 399.246 1068.63 399.764C1068.85 400.268 1068.97 400.824 1068.97 401.429ZM1061.62 401.429C1061.62 401.846 1061.69 402.231 1061.83 402.584C1061.98 402.937 1062.18 403.24 1062.44 403.492C1062.7 403.745 1063.01 403.94 1063.36 404.079C1063.72 404.218 1064.1 404.287 1064.52 404.287C1064.94 404.287 1065.32 404.218 1065.67 404.079C1066.04 403.94 1066.35 403.745 1066.62 403.492C1066.88 403.24 1067.09 402.937 1067.23 402.584C1067.38 402.231 1067.45 401.846 1067.45 401.429C1067.45 401.013 1067.38 400.634 1067.23 400.294C1067.09 399.953 1066.88 399.656 1066.62 399.404C1066.35 399.152 1066.04 398.956 1065.67 398.817C1065.32 398.678 1064.94 398.609 1064.52 398.609C1064.1 398.609 1063.72 398.678 1063.36 398.817C1063.01 398.956 1062.7 399.152 1062.44 399.404C1062.18 399.656 1061.98 399.953 1061.83 400.294C1061.69 400.634 1061.62 401.013 1061.62 401.429ZM1074.15 412.672H1062.72V407.221H1064.27V411.404H1074.15V412.672Z" fill="black"/>
<path d="M1127.63 383.948H1217.2C1220.14 383.948 1222.52 386.331 1222.52 389.271V420.029C1222.52 422.969 1220.14 425.353 1217.2 425.353H1127.63C1124.69 425.353 1122.3 422.969 1122.3 420.029V389.271C1122.3 386.331 1124.69 383.948 1127.63 383.948Z" fill="white"/>
<path d="M1127.63 383.948H1217.2C1220.14 383.948 1222.52 386.331 1222.52 389.271V420.029C1222.52 422.969 1220.14 425.353 1217.2 425.353H1127.63C1124.69 425.353 1122.3 422.969 1122.3 420.029V389.271C1122.3 386.331 1124.69 383.948 1127.63 383.948Z" stroke="black" stroke-width="1.18299"/>
<path d="M1170.37 413.07H1168.82V396.073H1170.37V413.07ZM1158.97 401.997H1163.89V397.511H1165.43V408.963H1157.44V397.511H1158.97V401.997ZM1163.89 407.694V403.227H1158.97V407.694H1163.89ZM1185.36 396.092H1186.93V408.622H1185.36V402.584H1181.69V401.316H1185.36V396.092ZM1181.76 397.398C1181.76 398.483 1181.57 399.505 1181.19 400.464C1180.83 401.423 1180.3 402.3 1179.6 403.095C1178.92 403.877 1178.1 404.571 1177.12 405.177C1176.15 405.783 1175.07 406.281 1173.87 406.672L1173.21 405.423C1174.18 405.108 1175.07 404.723 1175.87 404.269C1176.68 403.802 1177.38 403.284 1177.98 402.716C1178.57 402.136 1179.05 401.505 1179.41 400.824C1179.78 400.142 1180.01 399.423 1180.1 398.666H1174.06V397.398H1181.76ZM1187.36 412.672H1176.2V407.354H1177.75V411.404H1187.36V412.672Z" fill="black"/>
<path d="M1240.86 383.948H1330.42C1333.36 383.948 1335.75 386.331 1335.75 389.271V420.029C1335.75 422.969 1333.36 425.353 1330.42 425.353H1240.86C1237.92 425.353 1235.53 422.969 1235.53 420.029V389.271C1235.53 386.331 1237.92 383.948 1240.86 383.948Z" fill="white"/>
<path d="M1240.86 383.948H1330.42C1333.36 383.948 1335.75 386.331 1335.75 389.271V420.029C1335.75 422.969 1333.36 425.353 1330.42 425.353H1240.86C1237.92 425.353 1235.53 422.969 1235.53 420.029V389.271C1235.53 386.331 1237.92 383.948 1240.86 383.948Z" stroke="black" stroke-width="1.18299"/>
<path d="M1260.41 403.644H1245.01V402.395H1256.49C1256.68 401.448 1256.8 400.628 1256.84 399.934C1256.87 399.24 1256.89 398.609 1256.89 398.041H1246.97V396.792H1258.43V397.871C1258.43 398.451 1258.41 399.114 1258.37 399.858C1258.34 400.59 1258.24 401.436 1258.05 402.395H1260.41V403.644ZM1258.9 411.613V412.843H1246.88V408.452H1256.93V406.578H1246.82V405.347H1258.48V409.625H1248.41V411.613H1258.9ZM1263.29 397.984V396.754H1275V401.183H1264.9V403.36H1275.38V404.628H1263.35V399.991H1273.43V397.984H1263.29ZM1269.91 407.638V413.07H1268.36V407.638H1261.45V406.37H1276.86V407.638H1269.91ZM1290.77 408.811V396.092H1292.27V408.811H1290.77ZM1285.24 402.149V400.88H1287.5V396.432H1288.97V408.376H1287.5V402.149H1285.24ZM1286.04 405.537C1285.55 405.638 1285.07 405.72 1284.62 405.783C1284.16 405.833 1283.69 405.877 1283.2 405.915C1282.71 405.94 1282.18 405.959 1281.63 405.972C1281.09 405.985 1280.47 405.991 1279.79 405.991H1278.71V397.492H1285.13V398.742H1280.21V401.07H1284.45V402.281H1280.21V404.742C1280.8 404.742 1281.35 404.735 1281.86 404.723C1282.36 404.71 1282.83 404.685 1283.27 404.647C1283.73 404.609 1284.16 404.565 1284.58 404.515C1285.01 404.451 1285.45 404.376 1285.89 404.287L1286.04 405.537ZM1292.76 412.672H1281.23V407.411H1282.78V411.404H1292.76V412.672ZM1295.77 399.025V397.776H1308.35V399.025H1305.72V404.931H1308.32V406.199H1295.8V404.931H1298.4V399.025H1295.77ZM1299.95 399.025V404.931H1304.17V399.025H1299.95ZM1309.79 410.874H1294.4V409.587H1309.79V410.874ZM1324.8 413.07H1323.25V396.054H1324.8V413.07ZM1313.41 407.676C1314.79 407.676 1316.14 407.631 1317.46 407.543C1318.78 407.455 1320.18 407.297 1321.66 407.07L1321.81 408.338C1321.04 408.464 1320.29 408.571 1319.58 408.66C1318.87 408.735 1318.17 408.799 1317.47 408.849C1316.78 408.887 1316.09 408.918 1315.39 408.944C1314.7 408.956 1313.99 408.963 1313.25 408.963H1311.85V402.451H1318.1V398.912H1311.8V397.644H1319.67V403.72H1313.41V407.676Z" fill="black"/>
<rect x="598" y="252.893" width="60" height="60" rx="30" fill="#333333"/>
<path d="M628.078 297.283C626.216 297.283 624.549 296.971 623.078 296.346C621.62 295.721 620.461 294.842 619.602 293.709C618.755 292.576 618.299 291.268 618.234 289.783H621.789C621.854 290.656 622.167 291.424 622.727 292.088C623.299 292.752 624.048 293.266 624.973 293.631C625.897 293.982 626.919 294.158 628.039 294.158C629.263 294.158 630.363 293.95 631.34 293.533C632.329 293.104 633.098 292.518 633.645 291.775C634.204 291.02 634.484 290.161 634.484 289.197C634.484 288.156 634.211 287.238 633.664 286.443C633.13 285.649 632.349 285.031 631.32 284.588C630.292 284.145 629.055 283.924 627.609 283.924H625.305V280.838H627.609C628.742 280.838 629.751 280.636 630.637 280.232C631.522 279.829 632.206 279.262 632.688 278.533C633.182 277.804 633.43 276.958 633.43 275.994C633.43 275.07 633.208 274.249 632.766 273.533C632.336 272.817 631.724 272.264 630.93 271.873C630.135 271.469 629.211 271.268 628.156 271.268C627.141 271.268 626.19 271.45 625.305 271.814C624.419 272.179 623.697 272.7 623.137 273.377C622.577 274.041 622.271 274.822 622.219 275.721H618.82C618.885 274.262 619.341 272.967 620.188 271.834C621.034 270.688 622.16 269.803 623.566 269.178C624.973 268.54 626.516 268.221 628.195 268.221C629.94 268.221 631.464 268.566 632.766 269.256C634.081 269.933 635.09 270.851 635.793 272.01C636.496 273.169 636.841 274.432 636.828 275.799C636.841 277.387 636.418 278.748 635.559 279.881C634.699 281.014 633.521 281.788 632.023 282.205V282.4C633.234 282.596 634.283 283.006 635.168 283.631C636.066 284.243 636.75 285.031 637.219 285.994C637.701 286.945 637.935 288.012 637.922 289.197C637.935 290.721 637.512 292.101 636.652 293.338C635.793 294.562 634.608 295.525 633.098 296.229C631.6 296.932 629.927 297.283 628.078 297.283Z" fill="white"/>
<rect x="1028" y="433.893" width="60" height="60" rx="30" fill="#333333"/>
<path d="M1057.73 449.221C1059.54 449.221 1061.22 449.637 1062.77 450.471C1064.32 451.291 1065.58 452.697 1066.57 454.689C1067.58 456.682 1068.08 459.325 1068.08 462.619C1068.08 465.926 1067.64 468.758 1066.77 471.115C1065.91 473.459 1064.67 475.243 1063.06 476.467C1061.46 477.678 1059.55 478.283 1057.34 478.283C1055.71 478.283 1054.24 477.971 1052.94 477.346C1051.64 476.708 1050.57 475.822 1049.74 474.689C1048.92 473.557 1048.39 472.242 1048.16 470.744H1051.63C1051.96 472.072 1052.61 473.14 1053.59 473.947C1054.56 474.755 1055.81 475.158 1057.34 475.158C1058.87 475.158 1060.19 474.735 1061.3 473.889C1062.42 473.029 1063.28 471.786 1063.88 470.158C1064.48 468.531 1064.78 466.577 1064.8 464.299H1064.41C1063.57 465.484 1062.53 466.408 1061.28 467.072C1060.03 467.723 1058.66 468.049 1057.18 468.049C1055.5 468.049 1053.95 467.652 1052.53 466.857C1051.11 466.05 1049.99 464.937 1049.15 463.518C1048.33 462.098 1047.92 460.497 1047.92 458.713C1047.92 456.968 1048.33 455.373 1049.13 453.928C1049.95 452.482 1051.11 451.337 1052.59 450.49C1054.07 449.644 1055.79 449.221 1057.73 449.221ZM1057.8 452.307C1056.61 452.307 1055.51 452.593 1054.52 453.166C1053.55 453.726 1052.77 454.488 1052.2 455.451C1051.64 456.415 1051.36 457.463 1051.36 458.596C1051.36 459.781 1051.63 460.861 1052.16 461.838C1052.69 462.801 1053.44 463.563 1054.41 464.123C1055.37 464.683 1056.46 464.963 1057.69 464.963C1058.89 464.963 1059.99 464.67 1060.99 464.084C1061.99 463.485 1062.79 462.697 1063.37 461.721C1063.96 460.731 1064.25 459.689 1064.25 458.596C1064.25 457.515 1063.97 456.493 1063.41 455.529C1062.85 454.553 1062.08 453.771 1061.09 453.186C1060.11 452.6 1059.02 452.307 1057.8 452.307Z" fill="white"/>
<rect x="1141" y="433.893" width="60" height="60" rx="30" fill="#333333"/>
<path d="M1163.37 477.893H1159.82V453.283H1159.66L1152.79 457.854V454.299L1159.82 449.611H1163.37V477.893ZM1179.37 478.283C1177.29 478.283 1175.5 477.717 1174.02 476.584C1172.55 475.451 1171.42 473.798 1170.64 471.623C1169.87 469.449 1169.49 466.825 1169.49 463.752C1169.49 460.718 1169.88 458.114 1170.66 455.939C1171.44 453.752 1172.57 452.085 1174.06 450.939C1175.54 449.794 1177.31 449.221 1179.37 449.221C1181.43 449.221 1183.2 449.794 1184.68 450.939C1186.17 452.085 1187.3 453.752 1188.08 455.939C1188.86 458.114 1189.25 460.718 1189.25 463.752C1189.25 466.825 1188.86 469.449 1188.08 471.623C1187.31 473.798 1186.19 475.451 1184.7 476.584C1183.22 477.717 1181.44 478.283 1179.37 478.283ZM1179.37 475.158C1180.72 475.158 1181.88 474.715 1182.85 473.83C1183.81 472.945 1184.55 471.649 1185.05 469.943C1185.56 468.238 1185.81 466.174 1185.81 463.752C1185.81 461.33 1185.56 459.26 1185.05 457.541C1184.55 455.822 1183.81 454.514 1182.85 453.615C1181.88 452.717 1180.72 452.268 1179.37 452.268C1178.02 452.268 1176.85 452.717 1175.87 453.615C1174.91 454.514 1174.17 455.822 1173.65 457.541C1173.14 459.26 1172.89 461.33 1172.89 463.752C1172.89 466.174 1173.14 468.238 1173.65 469.943C1174.15 471.649 1174.89 472.945 1175.85 473.83C1176.83 474.715 1178 475.158 1179.37 475.158Z" fill="white"/>
<rect x="1254" y="433.893" width="60" height="60" rx="30" fill="#333333"/>
<path d="M1279.52 477.893H1275.96V453.283H1275.81L1268.93 457.854V454.299L1275.96 449.611H1279.52V477.893ZM1296.26 477.893H1292.7V453.283H1292.55L1285.67 457.854V454.299L1292.7 449.611H1296.26V477.893Z" fill="white"/>
<rect x="915" y="433.893" width="60" height="60" rx="30" fill="#333333"/>
<path d="M944.98 478.283C943.027 478.283 941.283 477.951 939.746 477.287C938.223 476.61 937.038 475.673 936.191 474.475C935.345 473.277 934.928 471.916 934.941 470.393C934.928 469.195 935.169 468.081 935.664 467.053C936.172 466.011 936.868 465.152 937.754 464.475C938.639 463.798 939.616 463.374 940.684 463.205V463.049C939.759 462.827 938.945 462.417 938.242 461.818C937.539 461.206 936.992 460.458 936.602 459.572C936.224 458.687 936.035 457.736 936.035 456.721C936.035 455.301 936.419 454.019 937.188 452.873C937.969 451.727 939.036 450.835 940.391 450.197C941.758 449.546 943.288 449.221 944.98 449.221C946.673 449.221 948.197 449.546 949.551 450.197C950.918 450.835 951.992 451.727 952.773 452.873C953.555 454.006 953.952 455.288 953.965 456.721C953.952 457.736 953.743 458.687 953.34 459.572C952.949 460.458 952.402 461.206 951.699 461.818C950.996 462.417 950.189 462.827 949.277 463.049V463.205C950.332 463.374 951.296 463.798 952.168 464.475C953.053 465.152 953.75 466.011 954.258 467.053C954.779 468.081 955.046 469.195 955.059 470.393C955.046 471.916 954.609 473.277 953.75 474.475C952.891 475.673 951.699 476.61 950.176 477.287C948.652 477.951 946.921 478.283 944.98 478.283ZM944.98 475.197C946.309 475.197 947.467 474.989 948.457 474.572C949.447 474.156 950.208 473.57 950.742 472.814C951.276 472.059 951.543 471.187 951.543 470.197C951.543 469.169 951.257 468.244 950.684 467.424C950.124 466.59 949.342 465.939 948.34 465.471C947.35 465.002 946.23 464.768 944.98 464.768C943.73 464.768 942.604 465.002 941.602 465.471C940.599 465.939 939.818 466.59 939.258 467.424C938.698 468.244 938.431 469.169 938.457 470.197C938.431 471.187 938.678 472.059 939.199 472.814C939.733 473.57 940.495 474.156 941.484 474.572C942.474 474.989 943.639 475.197 944.98 475.197ZM944.98 461.799C946.035 461.799 946.986 461.597 947.832 461.193C948.678 460.79 949.336 460.223 949.805 459.494C950.286 458.765 950.527 457.932 950.527 456.994C950.527 456.07 950.293 455.249 949.824 454.533C949.368 453.817 948.717 453.264 947.871 452.873C947.038 452.469 946.074 452.268 944.98 452.268C943.874 452.268 942.897 452.469 942.051 452.873C941.217 453.264 940.573 453.817 940.117 454.533C939.661 455.249 939.434 456.07 939.434 456.994C939.434 457.932 939.668 458.765 940.137 459.494C940.618 460.223 941.276 460.79 942.109 461.193C942.956 461.597 943.913 461.799 944.98 461.799Z" fill="white"/>
<rect x="802" y="433.893" width="60" height="60" rx="30" fill="#333333"/>
<path d="M837.488 452.932V452.736H822.527V449.611H841.121V452.893L828.191 477.893H824.52L837.488 452.932Z" fill="white"/>
<rect x="689" y="433.893" width="60" height="60" rx="30" fill="#333333"/>
<path d="M719.312 478.283C717.49 478.283 715.797 477.873 714.234 477.053C712.685 476.219 711.409 474.807 710.406 472.814C709.417 470.809 708.922 468.153 708.922 464.846C708.922 461.551 709.352 458.732 710.211 456.389C711.083 454.045 712.32 452.268 713.922 451.057C715.536 449.833 717.451 449.221 719.664 449.221C721.292 449.221 722.75 449.533 724.039 450.158C725.341 450.783 726.402 451.662 727.223 452.795C728.056 453.928 728.596 455.236 728.844 456.721H725.367C725.016 455.406 724.352 454.351 723.375 453.557C722.411 452.749 721.174 452.346 719.664 452.346C718.128 452.346 716.799 452.775 715.68 453.635C714.573 454.481 713.72 455.712 713.121 457.326C712.535 458.941 712.242 460.874 712.242 463.127H712.594C713.427 461.942 714.469 461.024 715.719 460.373C716.969 459.709 718.349 459.377 719.859 459.377C721.526 459.377 723.062 459.781 724.469 460.588C725.888 461.395 727.008 462.515 727.828 463.947C728.661 465.367 729.078 466.968 729.078 468.752C729.078 470.51 728.668 472.118 727.848 473.576C727.04 475.021 725.895 476.167 724.41 477.014C722.926 477.86 721.227 478.283 719.312 478.283ZM719.234 475.197C720.432 475.197 721.52 474.911 722.496 474.338C723.473 473.765 724.241 472.99 724.801 472.014C725.374 471.024 725.667 469.95 725.68 468.791C725.667 467.632 725.387 466.571 724.84 465.607C724.293 464.644 723.538 463.882 722.574 463.322C721.611 462.749 720.523 462.463 719.312 462.463C718.102 462.463 716.995 462.756 715.992 463.342C714.99 463.928 714.195 464.715 713.609 465.705C713.023 466.682 712.724 467.723 712.711 468.83C712.711 469.937 712.991 470.979 713.551 471.955C714.124 472.932 714.905 473.719 715.895 474.318C716.897 474.904 718.01 475.197 719.234 475.197Z" fill="white"/>
<rect x="576" y="433.893" width="60" height="60" rx="30" fill="#333333"/>
<path d="M605.941 478.283C604.262 478.283 602.732 477.964 601.352 477.326C599.984 476.675 598.891 475.783 598.07 474.65C597.263 473.505 596.827 472.215 596.762 470.783H600.16C600.251 471.617 600.564 472.372 601.098 473.049C601.632 473.713 602.322 474.24 603.168 474.631C604.014 475.008 604.939 475.197 605.941 475.197C607.139 475.197 608.22 474.924 609.184 474.377C610.147 473.83 610.902 473.081 611.449 472.131C611.996 471.18 612.27 470.119 612.27 468.947C612.27 467.736 611.983 466.649 611.41 465.686C610.85 464.709 610.069 463.947 609.066 463.4C608.077 462.84 606.957 462.554 605.707 462.541C603.194 462.502 601.436 463.348 600.434 465.08H597.035L599.027 449.611H614.34V452.736H601.957L600.902 461.018H601.176C601.814 460.523 602.589 460.126 603.5 459.826C604.411 459.527 605.355 459.377 606.332 459.377C608.103 459.377 609.698 459.787 611.117 460.607C612.549 461.415 613.669 462.541 614.477 463.986C615.297 465.432 615.707 467.059 615.707 468.869C615.707 470.666 615.284 472.281 614.438 473.713C613.591 475.145 612.426 476.265 610.941 477.072C609.457 477.88 607.79 478.283 605.941 478.283Z" fill="white"/>
<rect x="160" y="430.893" width="60" height="60" rx="30" fill="#333333"/>
<path d="M182.548 474.893H178.994V450.283H178.837L171.962 454.854V451.299L178.994 446.611H182.548V474.893ZM189.248 472.314L198.897 462.158C200.173 460.817 201.143 459.736 201.807 458.916C202.484 458.083 202.992 457.282 203.33 456.514C203.682 455.732 203.858 454.919 203.858 454.072C203.858 453.135 203.61 452.301 203.116 451.572C202.621 450.843 201.944 450.277 201.084 449.873C200.238 449.469 199.288 449.268 198.233 449.268C197.126 449.268 196.156 449.489 195.323 449.932C194.489 450.374 193.845 450.999 193.389 451.807C192.946 452.614 192.725 453.538 192.725 454.58H189.405C189.392 452.939 189.769 451.488 190.538 450.225C191.319 448.962 192.393 447.979 193.76 447.275C195.127 446.572 196.657 446.221 198.35 446.221C200.03 446.221 201.534 446.566 202.862 447.256C204.203 447.946 205.251 448.89 206.006 450.088C206.761 451.286 207.139 452.614 207.139 454.072C207.139 455.153 206.944 456.188 206.553 457.178C206.163 458.154 205.505 459.242 204.58 460.439C203.669 461.624 202.36 463.096 200.655 464.854L194.17 471.533V471.768H207.647V474.893H189.288L189.248 472.314Z" fill="white"/>
<rect x="757" y="252.893" width="60" height="60" rx="30" fill="#333333"/>
<path d="M776.473 288.221L789.207 268.611H793.543V288.025H797.488V291.111H793.543V296.893H790.184V291.111H776.473V288.221ZM790.184 288.025V273.064H789.832L780.262 287.791V288.025H790.184Z" fill="white"/>
<defs>
<clipPath id="clip0_210_19711">
<rect width="1280" height="70.9797" fill="white" transform="translate(80 80)"/>
</clipPath>
</defs>
</svg>
