<svg width="1440" height="951" viewBox="0 0 1440 951" fill="none" xmlns="http://www.w3.org/2000/svg">
<rect width="1440" height="949.374" transform="translate(0 0.785156)" fill="white"/>
<rect width="1440" height="949.374" transform="translate(0 0.785156)" fill="#246FF4" fill-opacity="0.2"/>
<rect x="81.2144" y="81.9996" width="1277.57" height="786.945" rx="23.074" fill="#111111"/>
<rect x="81.2144" y="81.9996" width="1277.57" height="786.945" rx="23.074" stroke="#595E73" stroke-width="2.42884"/>
<g clip-path="url(#clip0_399_22278)">
<path d="M116.869 123.248C118.805 123.248 120.475 123.438 121.879 123.817C123.292 124.197 124.379 124.752 125.138 125.482C125.897 126.213 126.281 127.091 126.29 128.115C126.281 129.036 125.968 129.837 125.351 130.52C124.744 131.204 123.866 131.754 122.718 132.171C121.57 132.589 120.199 132.85 118.605 132.954V134.662H128.681V137.565H105.057V134.662H115.048V132.954C113.473 132.831 112.111 132.565 110.963 132.157C109.825 131.74 108.947 131.189 108.33 130.506C107.723 129.823 107.42 129.026 107.42 128.115C107.42 127.091 107.804 126.213 108.572 125.482C109.341 124.752 110.432 124.197 111.846 123.817C113.269 123.438 114.943 123.248 116.869 123.248ZM116.869 125.924C115.029 125.924 113.62 126.113 112.642 126.493C111.675 126.863 111.196 127.404 111.205 128.115C111.196 128.808 111.675 129.339 112.642 129.709C113.62 130.07 115.029 130.25 116.869 130.25C118.691 130.25 120.09 130.07 121.068 129.709C122.045 129.339 122.533 128.808 122.533 128.115C122.533 127.404 122.04 126.863 121.053 126.493C120.076 126.113 118.681 125.924 116.869 125.924ZM111.404 140.781H122.192V138.704H125.835V148.552H107.818V138.704H111.404V140.781ZM122.192 145.649V143.542H111.404V145.649H122.192ZM139.37 127.404C139.37 128.647 139.579 129.833 139.996 130.962C140.413 132.091 141.059 133.101 141.931 133.993C142.814 134.885 143.914 135.573 145.233 136.056L143.212 138.874C141.884 138.352 140.746 137.608 139.797 136.64C138.857 135.672 138.113 134.534 137.562 133.224C136.984 134.619 136.187 135.829 135.171 136.853C134.156 137.869 132.928 138.647 131.486 139.187L129.55 136.341C130.916 135.857 132.06 135.16 132.98 134.249C133.9 133.329 134.583 132.285 135.029 131.118C135.475 129.942 135.698 128.704 135.698 127.404V124.415H139.37V127.404ZM151.495 142.176H147.88V134.263H143.44V131.332H147.88V129.254H143.44V126.322H147.88V122.964H151.495V142.176ZM152.036 148.381H134.246V140.326H137.918V145.478H152.036V148.381ZM169.855 127.005C169.855 128.077 170.068 129.102 170.495 130.079C170.922 131.047 171.577 131.915 172.459 132.684C173.351 133.443 174.456 134.026 175.775 134.434L173.84 137.252C172.492 136.806 171.335 136.161 170.367 135.316C169.399 134.472 168.631 133.471 168.062 132.314C167.483 133.651 166.681 134.809 165.657 135.786C164.641 136.754 163.413 137.48 161.971 137.964L160.007 135.117C161.401 134.652 162.559 133.988 163.479 133.125C164.399 132.261 165.083 131.279 165.528 130.179C165.974 129.069 166.202 127.897 166.212 126.664V124.301H169.855V127.005ZM180.955 128.998H184.456V132.015H180.955V138.305H177.312V122.935H180.955V128.998ZM172.473 138.817C174.257 138.817 175.804 139.017 177.113 139.415C178.422 139.814 179.433 140.388 180.144 141.137C180.856 141.887 181.212 142.783 181.212 143.827C181.212 144.88 180.856 145.781 180.144 146.531C179.442 147.28 178.432 147.85 177.113 148.239C175.804 148.637 174.257 148.836 172.473 148.836C170.652 148.836 169.072 148.637 167.734 148.239C166.406 147.85 165.381 147.28 164.66 146.531C163.949 145.781 163.593 144.88 163.593 143.827C163.593 142.783 163.949 141.887 164.66 141.137C165.381 140.388 166.411 139.814 167.749 139.415C169.086 139.017 170.661 138.817 172.473 138.817ZM172.473 141.664C170.756 141.664 169.452 141.849 168.56 142.219C167.668 142.579 167.227 143.115 167.236 143.827C167.208 145.269 168.953 145.99 172.473 145.99C175.908 145.99 177.625 145.269 177.625 143.827C177.625 143.115 177.184 142.579 176.302 142.219C175.429 141.849 174.153 141.664 172.473 141.664ZM196.454 128.514H189.367V132.413H195.942V135.203H189.367V139.871C190.923 139.852 192.27 139.809 193.409 139.742C194.557 139.676 195.733 139.557 196.938 139.387L197.194 142.347C195.78 142.575 194.376 142.726 192.982 142.802C191.596 142.878 189.841 142.916 187.716 142.916H185.894V125.639H196.454V128.514ZM207.469 148.836H203.997V135.886H201.748V147.641H198.333V123.305H201.748V132.982H203.997V122.935H207.469V148.836ZM237.584 142.062H233.969V135.743H229.188V137.964H216.863V124.643H220.506V128.628H225.601V124.643H229.188V127.29H233.969V122.964H237.584V142.062ZM238.125 148.381H220.336V140.155H224.007V145.478H238.125V148.381ZM225.601 135.117V131.389H220.506V135.117H225.601ZM233.969 132.84V130.222H229.188V132.84H233.969ZM262.191 137.878H258.576V135.345H252.741V132.442H258.576V129.965H252.998C251.394 134.055 247.732 136.882 242.011 138.447L240.588 135.573C243.491 134.814 245.716 133.756 247.262 132.399C248.809 131.033 249.715 129.434 249.98 127.603H241.982V124.7H253.937C253.937 125.573 253.875 126.379 253.752 127.119H258.576V122.964H262.191V137.878ZM253.567 138.191C255.312 138.191 256.849 138.405 258.178 138.832C259.506 139.259 260.535 139.866 261.266 140.653C262.006 141.441 262.381 142.366 262.39 143.428C262.381 144.501 262.006 145.435 261.266 146.232C260.535 147.029 259.506 147.641 258.178 148.068C256.849 148.504 255.312 148.723 253.567 148.723C251.802 148.723 250.251 148.504 248.913 148.068C247.575 147.641 246.536 147.029 245.796 146.232C245.066 145.435 244.705 144.501 244.715 143.428C244.705 142.366 245.066 141.441 245.796 140.653C246.536 139.866 247.575 139.259 248.913 138.832C250.251 138.405 251.802 138.191 253.567 138.191ZM253.567 141.038C251.916 141.019 250.63 141.218 249.71 141.635C248.79 142.043 248.33 142.641 248.33 143.428C248.33 144.216 248.785 144.818 249.696 145.236C250.616 145.644 251.906 145.848 253.567 145.848C255.199 145.848 256.47 145.644 257.381 145.236C258.292 144.818 258.747 144.216 258.747 143.428C258.747 142.641 258.292 142.043 257.381 141.635C256.47 141.218 255.199 141.019 253.567 141.038Z" fill="white"/>
<rect x="104.896" y="180.113" width="1230.21" height="292.676" rx="11.537" fill="#111111"/>
<rect x="104.896" y="180.113" width="1230.21" height="292.676" rx="11.537" stroke="#E20000" stroke-width="1.21442"/>
<path d="M104.289 191.65C104.289 184.943 109.726 179.506 116.433 179.506H222.15V215.939C222.15 222.646 216.713 228.083 210.006 228.083H104.289V191.65Z" fill="#E20000"/>
<path d="M140.676 204.301H137.943V194.332H140.676V204.301ZM140.676 210.257H130.194V211.474H141.209V213.63H127.504V208.314H137.986V207.183H127.462V205.07H140.676V210.257ZM135.766 197.598H134.165V201.473C134.99 201.409 135.773 201.334 136.513 201.248L136.641 203.191C133.624 203.675 129.739 203.917 124.985 203.917L124.687 201.782L126.779 201.761V197.598H125.199V195.527H135.766V197.598ZM131.539 201.633V197.598H129.383V201.707L131.539 201.633ZM153.132 195.848C153.132 196.63 153.396 197.402 153.922 198.164C154.449 198.918 155.224 199.573 156.249 200.128C157.274 200.683 158.498 201.049 159.921 201.227L158.853 203.426C157.188 203.184 155.74 202.7 154.509 201.974C153.285 201.241 152.346 200.338 151.691 199.263C151.044 200.338 150.112 201.241 148.895 201.974C147.678 202.7 146.244 203.184 144.593 203.426L143.505 201.227C144.914 201.049 146.13 200.683 147.155 200.128C148.18 199.573 148.955 198.918 149.482 198.164C150.008 197.402 150.272 196.63 150.272 195.848V194.908H153.132V195.848ZM160.54 207.119H152.983V213.758H150.293V207.119H142.822V204.899H160.54V207.119ZM174.737 194.567C176.188 194.567 177.44 194.709 178.494 194.994C179.554 195.278 180.369 195.695 180.938 196.242C181.507 196.79 181.795 197.449 181.802 198.217C181.795 198.907 181.561 199.509 181.098 200.021C180.643 200.533 179.984 200.946 179.123 201.259C178.262 201.572 177.234 201.768 176.039 201.846V203.127H183.596V205.304H165.877V203.127H173.37V201.846C172.189 201.754 171.168 201.554 170.307 201.248C169.453 200.935 168.795 200.523 168.332 200.01C167.877 199.498 167.649 198.9 167.649 198.217C167.649 197.449 167.937 196.79 168.514 196.242C169.09 195.695 169.908 195.278 170.969 194.994C172.036 194.709 173.292 194.567 174.737 194.567ZM174.737 196.573C173.356 196.573 172.299 196.716 171.566 197C170.841 197.278 170.481 197.683 170.488 198.217C170.481 198.737 170.841 199.135 171.566 199.413C172.299 199.683 173.356 199.818 174.737 199.818C176.103 199.818 177.152 199.683 177.885 199.413C178.618 199.135 178.985 198.737 178.985 198.217C178.985 197.683 178.615 197.278 177.875 197C177.142 196.716 176.096 196.573 174.737 196.573ZM170.638 207.717H178.728V206.158H181.461V213.544H167.948V206.158H170.638V207.717ZM178.728 211.367V209.787H170.638V211.367H178.728ZM191.612 197.683C191.612 198.616 191.768 199.505 192.082 200.352C192.395 201.199 192.879 201.956 193.533 202.625C194.195 203.294 195.02 203.81 196.009 204.173L194.494 206.286C193.498 205.895 192.644 205.336 191.932 204.611C191.228 203.885 190.669 203.031 190.256 202.049C189.822 203.095 189.225 204.002 188.463 204.771C187.702 205.532 186.78 206.116 185.699 206.521L184.247 204.386C185.272 204.024 186.129 203.501 186.819 202.817C187.51 202.127 188.022 201.344 188.356 200.469C188.691 199.587 188.858 198.658 188.858 197.683V195.442H191.612V197.683ZM200.706 208.763H197.995V202.828H194.665V200.629H197.995V199.071H194.665V196.872H197.995V194.353H200.706V208.763ZM201.111 213.416H187.769V207.375H190.523V211.239H201.111V213.416Z" fill="white"/>
<path d="M139.037 245.299C140.603 245.299 141.955 245.453 143.093 245.761C144.232 246.062 145.105 246.508 145.714 247.101C146.323 247.686 146.627 248.398 146.627 249.236C146.627 249.995 146.367 250.655 145.845 251.217C145.331 251.778 144.584 252.221 143.603 252.545C142.631 252.861 141.465 253.055 140.105 253.126V254.905H148.738V256.731H129.36V254.905H137.922V253.126C136.578 253.055 135.42 252.857 134.448 252.533C133.483 252.209 132.74 251.766 132.218 251.205C131.704 250.643 131.447 249.987 131.447 249.236C131.447 248.398 131.752 247.686 132.36 247.101C132.977 246.508 133.855 246.062 134.993 245.761C136.132 245.453 137.48 245.299 139.037 245.299ZM139.037 247.006C137.946 246.999 137.001 247.082 136.203 247.255C135.412 247.429 134.807 247.686 134.388 248.026C133.969 248.358 133.764 248.762 133.772 249.236C133.764 249.695 133.969 250.086 134.388 250.41C134.807 250.734 135.412 250.983 136.203 251.157C137.001 251.331 137.946 251.418 139.037 251.418C140.128 251.418 141.069 251.331 141.86 251.157C142.651 250.983 143.255 250.734 143.674 250.41C144.093 250.086 144.303 249.695 144.303 249.236C144.303 248.762 144.093 248.358 143.674 248.026C143.255 247.686 142.651 247.429 141.86 247.255C141.069 247.082 140.128 246.999 139.037 247.006ZM133.985 260.028H144.042V257.894H146.295V265.982H131.756V257.894H133.985V260.028ZM144.042 264.155V261.783H133.985V264.155H144.042ZM157.361 248.833C157.361 249.853 157.566 250.837 157.978 251.786C158.389 252.735 158.974 253.581 159.733 254.324C160.5 255.067 161.401 255.64 162.437 256.043L161.203 257.799C160.057 257.34 159.061 256.668 158.215 255.783C157.377 254.897 156.728 253.865 156.27 252.687C155.811 253.936 155.135 255.035 154.242 255.984C153.348 256.925 152.293 257.641 151.075 258.131L149.866 256.328C150.933 255.933 151.862 255.356 152.653 254.597C153.451 253.83 154.06 252.948 154.479 251.952C154.906 250.956 155.123 249.916 155.131 248.833V246.2H157.361V248.833ZM167.584 260.835H165.33V254.146H161.203V252.32H165.33V249.853H161.203V248.026H165.33V245.014H167.584V260.835ZM168.058 265.792H153.708V259.246H155.985V263.966H168.058V265.792ZM187.212 249.426C187.212 250.667 187.196 251.742 187.164 252.652C187.141 253.561 187.074 254.612 186.963 255.806C186.852 256.992 186.674 258.289 186.429 259.696L184.128 259.483C184.389 258.17 184.583 256.929 184.709 255.759C184.836 254.589 184.911 253.549 184.935 252.64C184.966 251.723 184.982 250.651 184.982 249.426V248.999H172.459V247.149H187.212V249.426ZM189.75 263.23H170.371V261.357H189.75V263.23ZM210.303 257.229H201.669V259.625H199.44V257.229H190.853V255.427H210.303V257.229ZM195.621 260.621H205.63V258.463H207.86V265.982H193.391V258.463H195.621V260.621ZM205.63 264.227V262.329H195.621V264.227H205.63ZM207.86 250.446H195.573V252.225H208.287V253.932H193.344V248.809H205.607V247.125H193.296V245.394H207.86V250.446ZM229.101 257.538H226.848V254.383H222.222V256.115H212.355V246.58H222.222V248.335H226.848V244.99H229.101V257.538ZM214.585 254.312H220.016V248.382H214.585V254.312ZM221.985 258.131C223.472 258.131 224.752 258.289 225.828 258.605C226.903 258.921 227.729 259.384 228.306 259.993C228.883 260.601 229.172 261.333 229.172 262.187C229.172 263.033 228.883 263.756 228.306 264.357C227.729 264.966 226.899 265.424 225.816 265.733C224.74 266.049 223.464 266.203 221.985 266.195C220.499 266.203 219.214 266.049 218.131 265.733C217.055 265.424 216.229 264.966 215.652 264.357C215.075 263.756 214.79 263.033 214.798 262.187C214.79 261.333 215.075 260.601 215.652 259.993C216.229 259.384 217.055 258.921 218.131 258.605C219.214 258.289 220.499 258.131 221.985 258.131ZM221.985 259.862C220.412 259.878 219.19 260.084 218.321 260.479C217.459 260.874 217.028 261.444 217.028 262.187C217.028 262.661 217.225 263.068 217.621 263.408C218.016 263.748 218.585 264.009 219.329 264.191C220.072 264.373 220.957 264.464 221.985 264.464C223.013 264.464 223.898 264.373 224.642 264.191C225.385 264.009 225.954 263.748 226.349 263.408C226.745 263.068 226.942 262.661 226.942 262.187C226.942 261.444 226.508 260.874 225.638 260.479C224.776 260.084 223.558 259.878 221.985 259.862ZM226.848 252.557V250.137H222.222V252.557H226.848Z" fill="white"/>
<g filter="url(#filter0_d_399_22278)">
<path d="M128.577 296.09C128.577 289.382 134.014 283.945 140.721 283.945H404.858C411.565 283.945 417.002 289.382 417.002 296.09V436.962C417.002 443.669 411.565 449.107 404.858 449.107H140.721C134.014 449.107 128.577 443.669 128.577 436.962V296.09Z" fill="#24262E" shape-rendering="crispEdges"/>
<path d="M252.272 317.523C253.885 317.523 255.276 317.681 256.447 317.997C257.625 318.313 258.53 318.776 259.162 319.385C259.795 319.993 260.115 320.725 260.123 321.579C260.115 322.346 259.854 323.014 259.34 323.583C258.834 324.152 258.103 324.611 257.146 324.959C256.19 325.307 255.047 325.524 253.719 325.611V327.034H262.116V329.453H242.429V327.034H250.754V325.611C249.442 325.508 248.307 325.287 247.35 324.947C246.402 324.599 245.67 324.14 245.156 323.571C244.65 323.002 244.397 322.338 244.397 321.579C244.397 320.725 244.717 319.993 245.358 319.385C245.998 318.776 246.908 318.313 248.086 317.997C249.272 317.681 250.667 317.523 252.272 317.523ZM252.272 319.752C250.738 319.752 249.564 319.91 248.75 320.227C247.943 320.535 247.544 320.986 247.552 321.579C247.544 322.156 247.943 322.599 248.75 322.907C249.564 323.207 250.738 323.358 252.272 323.358C253.79 323.358 254.956 323.207 255.771 322.907C256.585 322.599 256.992 322.156 256.992 321.579C256.992 320.986 256.581 320.535 255.759 320.227C254.944 319.91 253.782 319.752 252.272 319.752ZM247.718 332.134H256.708V330.402H259.744V338.609H244.729V330.402H247.718V332.134ZM256.708 336.19V334.434H247.718V336.19H256.708ZM271.023 320.986C271.023 322.021 271.196 323.01 271.544 323.951C271.892 324.891 272.43 325.733 273.157 326.477C273.893 327.22 274.81 327.793 275.909 328.196L274.225 330.545C273.118 330.11 272.169 329.489 271.378 328.683C270.596 327.876 269.975 326.927 269.516 325.836C269.034 326.999 268.37 328.007 267.524 328.86C266.678 329.706 265.654 330.355 264.452 330.805L262.839 328.434C263.978 328.03 264.931 327.449 265.698 326.69C266.464 325.923 267.034 325.054 267.405 324.081C267.777 323.101 267.963 322.069 267.963 320.986V318.495H271.023V320.986ZM281.127 333.296H278.115V326.702H274.414V324.259H278.115V322.527H274.414V320.084H278.115V317.286H281.127V333.296ZM281.578 338.467H266.753V331.754H269.813V336.047H281.578V338.467ZM301.633 329.904H298.62V327.153H294.588V328.718H284.341V318.851H294.588V320.416H298.62V317.262H301.633V329.904ZM287.354 326.323H291.623V321.247H287.354V326.323ZM294.256 330.473C295.782 330.473 297.102 330.639 298.217 330.971C299.332 331.304 300.19 331.786 300.791 332.418C301.391 333.043 301.696 333.794 301.704 334.672C301.696 335.549 301.391 336.3 300.791 336.925C300.19 337.55 299.332 338.024 298.217 338.348C297.11 338.68 295.79 338.846 294.256 338.846C292.722 338.846 291.398 338.68 290.283 338.348C289.176 338.024 288.322 337.55 287.721 336.925C287.128 336.3 286.832 335.549 286.832 334.672C286.832 333.794 287.128 333.043 287.721 332.418C288.322 331.786 289.18 331.304 290.295 330.971C291.41 330.639 292.73 330.473 294.256 330.473ZM294.256 332.774C292.809 332.774 291.71 332.932 290.959 333.249C290.216 333.565 289.844 334.039 289.844 334.672C289.844 335.288 290.22 335.755 290.971 336.071C291.722 336.387 292.817 336.545 294.256 336.545C295.695 336.545 296.794 336.387 297.553 336.071C298.312 335.755 298.691 335.288 298.691 334.672C298.691 334.039 298.312 333.565 297.553 333.249C296.802 332.932 295.703 332.774 294.256 332.774ZM298.62 324.71V322.812H294.588V324.71H298.62Z" fill="white"/>
<g clip-path="url(#clip1_399_22278)">
<rect width="124.782" height="48.5769" transform="translate(148.008 381.099)" fill="#E5E6EB"/>
<path d="M202.435 399.04H200.561V405.385C201.423 405.322 202.332 405.231 203.289 405.113L203.479 407.057C201.549 407.374 199.502 407.587 197.335 407.698C195.169 407.809 192.924 407.864 190.599 407.864L190.314 405.729L192.781 405.706V399.04H190.884V396.929H202.435V399.04ZM207.274 401.27H210.262V403.476H207.274V410.853H204.641V395.079H207.274V401.27ZM208.128 416.071H193.54V409.358H196.173V413.936H208.128V416.071ZM195.319 405.646C195.904 405.63 196.798 405.599 197.999 405.551V399.04H195.319V405.646ZM229.369 416.498H226.831V405.516H224.554V415.454H222.063V395.435H224.554V403.334H226.831V395.056H229.369V416.498ZM219.952 410.971H211.532V397.38H219.952V410.971ZM213.999 408.884H217.485V399.467H213.999V408.884Z" fill="#474B5C"/>
<rect width="124.782" height="48.5769" transform="translate(272.79 381.099)" fill="#474B5C"/>
<path d="M334.593 407.129H326.007V409.406H332.221V416.142H317.539V409.406H323.777V407.129H315.215V405.326H334.593V407.129ZM332.767 397.641H329.684V401.697H332.672V403.523H317.089V401.697H320.101V397.641H316.994V395.815H332.767V397.641ZM319.769 414.316H330.039V411.185H319.769V414.316ZM327.43 401.697V397.641H322.331V401.697H327.43ZM343.263 398.353C343.263 399.159 343.469 399.946 343.88 400.713C344.299 401.48 344.892 402.163 345.659 402.764C346.434 403.357 347.335 403.808 348.363 404.116L347.295 405.895C346.102 405.532 345.066 404.978 344.188 404.235C343.311 403.484 342.635 402.61 342.16 401.614C341.67 402.729 340.966 403.705 340.049 404.543C339.132 405.373 338.061 405.99 336.835 406.393L335.721 404.614C336.764 404.267 337.685 403.764 338.484 403.108C339.29 402.444 339.911 401.697 340.346 400.867C340.789 400.037 341.01 399.191 341.01 398.329V397.997H336.385V396.17H347.841V397.997H343.263V398.353ZM353.415 406.085H351.185V401.602H347.224V399.776H351.185V395.15H353.415V406.085ZM353.415 412.371H341.816V414.387H354.174V416.166H339.563V410.663H351.185V408.86H339.516V407.057H353.415V412.371Z" fill="#E5E6EB"/>
</g>
</g>
<g filter="url(#filter1_d_399_22278)">
<path d="M426.717 296.09C426.717 289.382 432.154 283.945 438.861 283.945H702.998C709.705 283.945 715.142 289.382 715.142 296.09V436.962C715.142 443.669 709.705 449.107 702.998 449.107H438.862C432.154 449.107 426.717 443.669 426.717 436.962V296.09Z" fill="#24262E" shape-rendering="crispEdges"/>
<path d="M550.412 317.523C552.025 317.523 553.417 317.681 554.587 317.997C555.765 318.313 556.67 318.776 557.303 319.385C557.935 319.993 558.255 320.725 558.263 321.579C558.255 322.346 557.994 323.014 557.48 323.583C556.974 324.152 556.243 324.611 555.286 324.959C554.33 325.307 553.187 325.524 551.859 325.611V327.034H560.256V329.453H540.569V327.034H548.894V325.611C547.582 325.508 546.447 325.287 545.49 324.947C544.542 324.599 543.81 324.14 543.296 323.571C542.79 323.002 542.537 322.338 542.537 321.579C542.537 320.725 542.858 319.993 543.498 319.385C544.138 318.776 545.048 318.313 546.226 317.997C547.412 317.681 548.807 317.523 550.412 317.523ZM550.412 319.752C548.878 319.752 547.704 319.91 546.89 320.227C546.083 320.535 545.684 320.986 545.692 321.579C545.684 322.156 546.083 322.599 546.89 322.907C547.704 323.207 548.878 323.358 550.412 323.358C551.93 323.358 553.096 323.207 553.911 322.907C554.725 322.599 555.132 322.156 555.132 321.579C555.132 320.986 554.721 320.535 553.899 320.227C553.085 319.91 551.922 319.752 550.412 319.752ZM545.858 332.134H554.848V330.402H557.884V338.609H542.869V330.402H545.858V332.134ZM554.848 336.19V334.434H545.858V336.19H554.848ZM569.163 320.986C569.163 322.021 569.337 323.01 569.684 323.951C570.032 324.891 570.57 325.733 571.297 326.477C572.033 327.22 572.95 327.793 574.049 328.196L572.365 330.545C571.258 330.11 570.309 329.489 569.518 328.683C568.736 327.876 568.115 326.927 567.656 325.836C567.174 326.999 566.51 328.007 565.664 328.86C564.818 329.706 563.794 330.355 562.592 330.805L560.98 328.434C562.118 328.03 563.071 327.449 563.838 326.69C564.605 325.923 565.174 325.054 565.545 324.081C565.917 323.101 566.103 322.069 566.103 320.986V318.495H569.163V320.986ZM579.267 333.296H576.255V326.702H572.554V324.259H576.255V322.527H572.554V320.084H576.255V317.286H579.267V333.296ZM579.718 338.467H564.893V331.754H567.953V336.047H579.718V338.467ZM599.773 329.904H596.76V327.153H592.728V328.718H582.481V318.851H592.728V320.416H596.76V317.262H599.773V329.904ZM585.494 326.323H589.763V321.247H585.494V326.323ZM592.396 330.473C593.922 330.473 595.242 330.639 596.357 330.971C597.472 331.304 598.33 331.786 598.931 332.418C599.532 333.043 599.836 333.794 599.844 334.672C599.836 335.549 599.532 336.3 598.931 336.925C598.33 337.55 597.472 338.024 596.357 338.348C595.25 338.68 593.93 338.846 592.396 338.846C590.862 338.846 589.538 338.68 588.423 338.348C587.316 338.024 586.462 337.55 585.861 336.925C585.268 336.3 584.972 335.549 584.972 334.672C584.972 333.794 585.268 333.043 585.861 332.418C586.462 331.786 587.32 331.304 588.435 330.971C589.55 330.639 590.87 330.473 592.396 330.473ZM592.396 332.774C590.949 332.774 589.85 332.932 589.099 333.249C588.356 333.565 587.984 334.039 587.984 334.672C587.984 335.288 588.36 335.755 589.111 336.071C589.862 336.387 590.957 336.545 592.396 336.545C593.835 336.545 594.934 336.387 595.693 336.071C596.452 335.755 596.832 335.288 596.832 334.672C596.832 334.039 596.452 333.565 595.693 333.249C594.942 332.932 593.843 332.774 592.396 332.774ZM596.76 324.71V322.812H592.728V324.71H596.76Z" fill="white"/>
<g clip-path="url(#clip2_399_22278)">
<rect width="124.782" height="48.5769" transform="translate(446.148 381.099)" fill="#E5E6EB"/>
<path d="M500.575 399.04H498.701V405.385C499.563 405.322 500.472 405.231 501.429 405.113L501.619 407.057C499.69 407.374 497.642 407.587 495.475 407.698C493.309 407.809 491.064 407.864 488.739 407.864L488.455 405.729L490.921 405.706V399.04H489.024V396.929H500.575V399.04ZM505.414 401.27H508.402V403.476H505.414V410.853H502.781V395.079H505.414V401.27ZM506.268 416.071H491.68V409.358H494.313V413.936H506.268V416.071ZM493.459 405.646C494.044 405.63 494.938 405.599 496.14 405.551V399.04H493.459V405.646ZM527.509 416.498H524.971V405.516H522.694V415.454H520.203V395.435H522.694V403.334H524.971V395.056H527.509V416.498ZM518.092 410.971H509.672V397.38H518.092V410.971ZM512.139 408.884H515.625V399.467H512.139V408.884Z" fill="#474B5C"/>
<rect width="124.782" height="48.5769" transform="translate(570.93 381.099)" fill="#474B5C"/>
<path d="M632.734 407.129H624.148V409.406H630.362V416.142H615.68V409.406H621.918V407.129H613.355V405.326H632.734V407.129ZM630.908 397.641H627.824V401.697H630.813V403.523H615.229V401.697H618.242V397.641H615.134V395.815H630.908V397.641ZM617.91 414.316H628.18V411.185H617.91V414.316ZM625.571 401.697V397.641H620.471V401.697H625.571ZM641.404 398.353C641.404 399.159 641.609 399.946 642.021 400.713C642.44 401.48 643.033 402.163 643.799 402.764C644.574 403.357 645.476 403.808 646.503 404.116L645.436 405.895C644.242 405.532 643.206 404.978 642.329 404.235C641.451 403.484 640.775 402.61 640.301 401.614C639.811 402.729 639.107 403.705 638.19 404.543C637.273 405.373 636.201 405.99 634.976 406.393L633.861 404.614C634.905 404.267 635.826 403.764 636.624 403.108C637.431 402.444 638.052 401.697 638.486 400.867C638.929 400.037 639.151 399.191 639.151 398.329V397.997H634.525V396.17H645.982V397.997H641.404V398.353ZM651.556 406.085H649.326V401.602H645.365V399.776H649.326V395.15H651.556V406.085ZM651.556 412.371H639.957V414.387H652.315V416.166H637.704V410.663H649.326V408.86H637.656V407.057H651.556V412.371Z" fill="#E5E6EB"/>
</g>
</g>
<g filter="url(#filter2_d_399_22278)">
<path d="M724.858 296.09C724.858 289.382 730.295 283.945 737.002 283.945H1001.14C1007.85 283.945 1013.28 289.382 1013.28 296.09V436.962C1013.28 443.669 1007.85 449.107 1001.14 449.107H737.002C730.295 449.107 724.858 443.669 724.858 436.962V296.09Z" fill="#24262E" shape-rendering="crispEdges"/>
<path d="M848.553 317.523C850.166 317.523 851.557 317.681 852.727 317.997C853.905 318.313 854.811 318.776 855.443 319.385C856.076 319.993 856.396 320.725 856.404 321.579C856.396 322.346 856.135 323.014 855.621 323.583C855.115 324.152 854.384 324.611 853.427 324.959C852.47 325.307 851.328 325.524 850 325.611V327.034H858.396V329.453H838.709V327.034H847.035V325.611C845.722 325.508 844.588 325.287 843.631 324.947C842.682 324.599 841.951 324.14 841.437 323.571C840.931 323.002 840.678 322.338 840.678 321.579C840.678 320.725 840.998 319.993 841.639 319.385C842.279 318.776 843.188 318.313 844.366 317.997C845.552 317.681 846.948 317.523 848.553 317.523ZM848.553 319.752C847.019 319.752 845.845 319.91 845.031 320.227C844.224 320.535 843.825 320.986 843.833 321.579C843.825 322.156 844.224 322.599 845.031 322.907C845.845 323.207 847.019 323.358 848.553 323.358C850.071 323.358 851.237 323.207 852.051 322.907C852.866 322.599 853.273 322.156 853.273 321.579C853.273 320.986 852.862 320.535 852.04 320.227C851.225 319.91 850.063 319.752 848.553 319.752ZM843.999 332.134H852.988V330.402H856.024V338.609H841.01V330.402H843.999V332.134ZM852.988 336.19V334.434H843.999V336.19H852.988ZM867.303 320.986C867.303 322.021 867.477 323.01 867.825 323.951C868.173 324.891 868.711 325.733 869.438 326.477C870.173 327.22 871.09 327.793 872.189 328.196L870.505 330.545C869.398 330.11 868.45 329.489 867.659 328.683C866.876 327.876 866.256 326.927 865.797 325.836C865.315 326.999 864.651 328.007 863.805 328.86C862.959 329.706 861.935 330.355 860.733 330.805L859.12 328.434C860.259 328.03 861.211 327.449 861.978 326.69C862.745 325.923 863.315 325.054 863.686 324.081C864.058 323.101 864.244 322.069 864.244 320.986V318.495H867.303V320.986ZM877.408 333.296H874.395V326.702H870.695V324.259H874.395V322.527H870.695V320.084H874.395V317.286H877.408V333.296ZM877.858 338.467H863.034V331.754H866.094V336.047H877.858V338.467ZM897.913 329.904H894.901V327.153H890.869V328.718H880.622V318.851H890.869V320.416H894.901V317.262H897.913V329.904ZM883.634 326.323H887.904V321.247H883.634V326.323ZM890.537 330.473C892.063 330.473 893.383 330.639 894.498 330.971C895.613 331.304 896.47 331.786 897.071 332.418C897.672 333.043 897.977 333.794 897.984 334.672C897.977 335.549 897.672 336.3 897.071 336.925C896.47 337.55 895.613 338.024 894.498 338.348C893.391 338.68 892.071 338.846 890.537 338.846C889.003 338.846 887.679 338.68 886.564 338.348C885.457 338.024 884.603 337.55 884.002 336.925C883.409 336.3 883.113 335.549 883.113 334.672C883.113 333.794 883.409 333.043 884.002 332.418C884.603 331.786 885.461 331.304 886.576 330.971C887.69 330.639 889.011 330.473 890.537 330.473ZM890.537 332.774C889.09 332.774 887.991 332.932 887.24 333.249C886.497 333.565 886.125 334.039 886.125 334.672C886.125 335.288 886.5 335.755 887.252 336.071C888.003 336.387 889.098 336.545 890.537 336.545C891.976 336.545 893.075 336.387 893.834 336.071C894.593 335.755 894.972 335.288 894.972 334.672C894.972 334.039 894.593 333.565 893.834 333.249C893.083 332.932 891.984 332.774 890.537 332.774ZM894.901 324.71V322.812H890.869V324.71H894.901Z" fill="white"/>
<g clip-path="url(#clip3_399_22278)">
<rect width="124.782" height="48.5769" transform="translate(744.289 381.099)" fill="#E5E6EB"/>
<path d="M798.716 399.04H796.842V405.385C797.704 405.322 798.613 405.231 799.57 405.113L799.759 407.057C797.83 407.374 795.782 407.587 793.616 407.698C791.45 407.809 789.204 407.864 786.88 407.864L786.595 405.729L789.062 405.706V399.04H787.165V396.929H798.716V399.04ZM803.554 401.27H806.543V403.476H803.554V410.853H800.922V395.079H803.554V401.27ZM804.408 416.071H789.821V409.358H792.454V413.936H804.408V416.071ZM791.6 405.646C792.185 405.63 793.078 405.599 794.28 405.551V399.04H791.6V405.646ZM825.649 416.498H823.111V405.516H820.834V415.454H818.344V395.435H820.834V403.334H823.111V395.056H825.649V416.498ZM816.233 410.971H807.813V397.38H816.233V410.971ZM810.279 408.884H813.766V399.467H810.279V408.884Z" fill="#474B5C"/>
<rect width="124.782" height="48.5769" transform="translate(869.07 381.099)" fill="#474B5C"/>
<path d="M930.874 407.129H922.288V409.406H928.502V416.142H913.82V409.406H920.058V407.129H911.496V405.326H930.874V407.129ZM929.048 397.641H925.964V401.697H928.953V403.523H913.369V401.697H916.382V397.641H913.275V395.815H929.048V397.641ZM916.05 414.316H926.32V411.185H916.05V414.316ZM923.711 401.697V397.641H918.611V401.697H923.711ZM939.544 398.353C939.544 399.159 939.75 399.946 940.161 400.713C940.58 401.48 941.173 402.163 941.94 402.764C942.714 403.357 943.616 403.808 944.644 404.116L943.576 405.895C942.382 405.532 941.347 404.978 940.469 404.235C939.591 403.484 938.915 402.61 938.441 401.614C937.951 402.729 937.247 403.705 936.33 404.543C935.413 405.373 934.342 405.99 933.116 406.393L932.001 404.614C933.045 404.267 933.966 403.764 934.765 403.108C935.571 402.444 936.192 401.697 936.627 400.867C937.069 400.037 937.291 399.191 937.291 398.329V397.997H932.665V396.17H944.122V397.997H939.544V398.353ZM949.696 406.085H947.466V401.602H943.505V399.776H947.466V395.15H949.696V406.085ZM949.696 412.371H938.097V414.387H950.455V416.166H935.844V410.663H947.466V408.86H935.796V407.057H949.696V412.371Z" fill="#E5E6EB"/>
</g>
</g>
<g filter="url(#filter3_d_399_22278)">
<path d="M1023 296.09C1023 289.382 1028.44 283.945 1035.14 283.945H1299.28C1305.99 283.945 1311.42 289.382 1311.42 296.09V436.962C1311.42 443.669 1305.99 449.107 1299.28 449.107H1035.14C1028.44 449.107 1023 443.669 1023 436.962V296.09Z" fill="#24262E" shape-rendering="crispEdges"/>
<path d="M1143.73 329.762H1135.38V331.612H1141.38V338.609H1126.32V331.612H1132.37V329.762H1124.04V327.366H1143.73V329.762ZM1141.97 320.274H1139.15V323.571H1141.83V325.99H1125.91V323.571H1128.57V320.274H1125.77V317.855H1141.97V320.274ZM1129.31 336.19H1138.41V333.96H1129.31V336.19ZM1136.11 323.571V320.274H1131.61V323.571H1136.11ZM1156.88 320.511H1152.59C1152.62 321.255 1152.82 321.978 1153.19 322.682C1153.56 323.385 1154.11 324.018 1154.84 324.579C1155.58 325.133 1156.47 325.563 1157.52 325.872L1156.12 328.267C1154.94 327.928 1153.92 327.421 1153.07 326.749C1152.23 326.07 1151.56 325.267 1151.07 324.342C1150.56 325.37 1149.86 326.263 1148.97 327.022C1148.08 327.781 1147.04 328.347 1145.83 328.718L1144.36 326.37C1145.44 326.022 1146.37 325.54 1147.13 324.923C1147.9 324.298 1148.48 323.607 1148.88 322.848C1149.28 322.081 1149.5 321.302 1149.54 320.511H1145.19V318.092H1156.88V320.511ZM1162.74 328.244H1159.73V324.093H1156.34V321.697H1159.73V317.262H1162.74V328.244ZM1162.74 334.909H1151.43V336.285H1163.38V338.633H1148.39V332.703H1159.73V331.47H1148.37V329.074H1162.74V334.909ZM1180.01 317.523C1181.62 317.523 1183.01 317.681 1184.18 317.997C1185.36 318.313 1186.27 318.776 1186.9 319.385C1187.53 319.993 1187.85 320.725 1187.86 321.579C1187.85 322.346 1187.59 323.014 1187.08 323.583C1186.57 324.152 1185.84 324.611 1184.88 324.959C1183.93 325.307 1182.78 325.524 1181.45 325.611V327.034H1189.85V329.453H1170.16V327.034H1178.49V325.611C1177.18 325.508 1176.04 325.287 1175.09 324.947C1174.14 324.599 1173.41 324.14 1172.89 323.571C1172.39 323.002 1172.13 322.338 1172.13 321.579C1172.13 320.725 1172.45 319.993 1173.09 319.385C1173.73 318.776 1174.64 318.313 1175.82 317.997C1177.01 317.681 1178.4 317.523 1180.01 317.523ZM1180.01 319.752C1178.47 319.752 1177.3 319.91 1176.49 320.227C1175.68 320.535 1175.28 320.986 1175.29 321.579C1175.28 322.156 1175.68 322.599 1176.49 322.907C1177.3 323.207 1178.47 323.358 1180.01 323.358C1181.53 323.358 1182.69 323.207 1183.51 322.907C1184.32 322.599 1184.73 322.156 1184.73 321.579C1184.73 320.986 1184.32 320.535 1183.49 320.227C1182.68 319.91 1181.52 319.752 1180.01 319.752ZM1175.45 332.134H1184.44V330.402H1187.48V338.609H1172.47V330.402H1175.45V332.134ZM1184.44 336.19V334.434H1175.45V336.19H1184.44ZM1198.76 320.986C1198.76 322.021 1198.93 323.01 1199.28 323.951C1199.63 324.891 1200.17 325.733 1200.89 326.477C1201.63 327.22 1202.55 327.793 1203.64 328.196L1201.96 330.545C1200.85 330.11 1199.9 329.489 1199.11 328.683C1198.33 327.876 1197.71 326.927 1197.25 325.836C1196.77 326.999 1196.11 328.007 1195.26 328.86C1194.41 329.706 1193.39 330.355 1192.19 330.805L1190.58 328.434C1191.71 328.03 1192.67 327.449 1193.43 326.69C1194.2 325.923 1194.77 325.054 1195.14 324.081C1195.51 323.101 1195.7 322.069 1195.7 320.986V318.495H1198.76V320.986ZM1208.86 333.296H1205.85V326.702H1202.15V324.259H1205.85V322.527H1202.15V320.084H1205.85V317.286H1208.86V333.296ZM1209.31 338.467H1194.49V331.754H1197.55V336.047H1209.31V338.467Z" fill="white"/>
<g clip-path="url(#clip4_399_22278)">
<rect width="124.782" height="48.5769" transform="translate(1042.43 381.099)" fill="#474B5C"/>
<path d="M1096.93 398.898H1094.91V405.563C1095.93 405.476 1096.91 405.381 1097.85 405.279L1097.99 406.963C1096.07 407.271 1094.03 407.48 1091.85 407.591C1089.69 407.694 1087.44 407.745 1085.12 407.745L1084.85 405.895L1087.46 405.872V398.898H1085.45V397.072H1096.93V398.898ZM1101.55 401.46H1104.64V403.357H1101.55V410.805H1099.3V395.174H1101.55V401.46ZM1102.45 415.952H1088.08V409.311H1090.33V414.126H1102.45V415.952ZM1089.65 405.812C1090.77 405.789 1091.79 405.749 1092.71 405.694V398.898H1089.65V405.812ZM1123.65 416.403H1121.49V405.326H1118.86V415.359H1116.72V395.554H1118.86V403.476H1121.49V395.15H1123.65V416.403ZM1114.33 410.805H1106.07V397.546H1114.33V410.805ZM1108.21 409.002H1112.21V399.325H1108.21V409.002Z" fill="#E5E6EB"/>
<rect width="124.782" height="48.5769" transform="translate(1167.21 381.099)" fill="#14151A"/>
<path d="M1229.11 407.318H1220.62V409.382H1226.74V416.237H1211.87V409.382H1218.01V407.318H1209.57V405.207H1229.11V407.318ZM1227.31 397.807H1224.37V401.483H1227.19V403.618H1211.44V401.483H1214.26V397.807H1211.32V395.696H1227.31V397.807ZM1214.47 414.102H1224.18V411.422H1214.47V414.102ZM1221.71 401.483V397.807H1216.89V401.483H1221.71ZM1237.87 398.21C1237.87 398.993 1238.06 399.76 1238.44 400.511C1238.83 401.254 1239.4 401.922 1240.15 402.515C1240.91 403.1 1241.82 403.547 1242.88 403.855L1241.65 405.943C1240.46 405.595 1239.44 405.069 1238.57 404.365C1237.71 403.654 1237.04 402.816 1236.55 401.851C1236.05 402.919 1235.35 403.851 1234.45 404.65C1233.55 405.449 1232.5 406.038 1231.28 406.417L1229.98 404.354C1231.06 403.998 1232 403.496 1232.79 402.847C1233.58 402.199 1234.18 401.468 1234.59 400.653C1235.01 399.839 1235.22 399.017 1235.22 398.187V398.115H1230.71V395.981H1242.31V398.115H1237.87V398.21ZM1248.03 406.038H1245.39V401.697H1241.72V399.586H1245.39V395.056H1248.03V406.038ZM1248.03 412.513H1236.55V414.197H1248.71V416.261H1233.91V410.544H1245.39V409.026H1233.89V406.939H1248.03V412.513Z" fill="#FA3831"/>
</g>
</g>
</g>
<rect x="349.602" y="756.003" width="740.797" height="77.723" rx="12.1442" fill="#E20000"/>
<path d="M717.758 807.54H714.115V793.564H709.475V790.604H714.115V781.582H717.758V807.54ZM705.661 788.071C705.661 789.637 705.899 791.159 706.373 792.639C706.857 794.11 707.583 795.429 708.55 796.596C709.528 797.763 710.718 798.65 712.123 799.257L709.988 802.132C708.527 801.449 707.279 800.467 706.245 799.186C705.211 797.905 704.409 796.411 703.84 794.703C703.261 796.534 702.445 798.142 701.392 799.527C700.348 800.903 699.096 801.952 697.635 802.673L695.472 799.798C696.876 799.153 698.062 798.223 699.03 797.008C699.997 795.785 700.723 794.404 701.207 792.867C701.691 791.321 701.933 789.722 701.933 788.071V786.989H696.553V784.086H711.041V786.989H705.661V788.071ZM735.192 786.221H730.041C730.05 787.265 730.268 788.256 730.695 789.195C731.132 790.125 731.796 790.955 732.688 791.686C733.579 792.416 734.69 792.976 736.018 793.365L734.282 796.212C732.887 795.785 731.687 795.158 730.681 794.333C729.675 793.508 728.878 792.526 728.29 791.387C727.702 792.725 726.872 793.887 725.8 794.874C724.737 795.851 723.447 796.591 721.929 797.094L720.079 794.219C721.454 793.783 722.612 793.152 723.551 792.326C724.49 791.501 725.188 790.562 725.643 789.508C726.108 788.455 726.35 787.36 726.369 786.221H721.075V783.318H735.192V786.221ZM741.027 787.587H744.528V790.547H741.027V796.952H737.384V781.582H741.027V787.587ZM732.545 797.464C734.329 797.454 735.875 797.649 737.185 798.047C738.504 798.436 739.514 799.006 740.216 799.755C740.928 800.505 741.283 801.401 741.283 802.445C741.283 803.489 740.928 804.385 740.216 805.135C739.514 805.894 738.504 806.472 737.185 806.871C735.875 807.279 734.329 807.483 732.545 807.483C730.724 807.483 729.144 807.279 727.806 806.871C726.478 806.472 725.453 805.894 724.732 805.135C724.021 804.385 723.665 803.489 723.665 802.445C723.665 801.401 724.021 800.505 724.732 799.755C725.453 799.006 726.478 798.436 727.806 798.047C729.144 797.649 730.724 797.454 732.545 797.464ZM732.545 800.282C730.819 800.282 729.509 800.462 728.617 800.823C727.735 801.183 727.299 801.724 727.308 802.445C727.299 803.175 727.74 803.73 728.632 804.11C729.523 804.48 730.828 804.665 732.545 804.665C734.234 804.665 735.515 804.48 736.388 804.11C737.261 803.74 737.697 803.185 737.697 802.445C737.697 801.724 737.261 801.183 736.388 800.823C735.515 800.462 734.234 800.282 732.545 800.282Z" fill="white"/>
<rect x="180" y="440.893" width="60" height="60" rx="30" fill="#333333"/>
<path d="M201.943 484.893H198.388V460.283H198.232L191.357 464.854V461.299L198.388 456.611H201.943V484.893ZM218.448 485.283C216.586 485.283 214.919 484.971 213.448 484.346C211.989 483.721 210.83 482.842 209.971 481.709C209.125 480.576 208.669 479.268 208.604 477.783H212.159C212.224 478.656 212.536 479.424 213.096 480.088C213.669 480.752 214.418 481.266 215.342 481.631C216.267 481.982 217.289 482.158 218.409 482.158C219.633 482.158 220.733 481.95 221.709 481.533C222.699 481.104 223.467 480.518 224.014 479.775C224.574 479.02 224.854 478.161 224.854 477.197C224.854 476.156 224.58 475.238 224.034 474.443C223.5 473.649 222.718 473.031 221.69 472.588C220.661 472.145 219.424 471.924 217.979 471.924H215.674V468.838H217.979C219.112 468.838 220.121 468.636 221.006 468.232C221.892 467.829 222.575 467.262 223.057 466.533C223.552 465.804 223.799 464.958 223.799 463.994C223.799 463.07 223.578 462.249 223.135 461.533C222.705 460.817 222.093 460.264 221.299 459.873C220.505 459.469 219.58 459.268 218.526 459.268C217.51 459.268 216.56 459.45 215.674 459.814C214.789 460.179 214.066 460.7 213.506 461.377C212.946 462.041 212.64 462.822 212.588 463.721H209.19C209.255 462.262 209.711 460.967 210.557 459.834C211.403 458.688 212.53 457.803 213.936 457.178C215.342 456.54 216.885 456.221 218.565 456.221C220.31 456.221 221.833 456.566 223.135 457.256C224.45 457.933 225.459 458.851 226.163 460.01C226.866 461.169 227.211 462.432 227.198 463.799C227.211 465.387 226.788 466.748 225.928 467.881C225.069 469.014 223.89 469.788 222.393 470.205V470.4C223.604 470.596 224.652 471.006 225.538 471.631C226.436 472.243 227.12 473.031 227.588 473.994C228.07 474.945 228.304 476.012 228.291 477.197C228.304 478.721 227.881 480.101 227.022 481.338C226.163 482.562 224.978 483.525 223.467 484.229C221.97 484.932 220.297 485.283 218.448 485.283Z" fill="white"/>
<rect x="305" y="440.893" width="60" height="60" rx="30" fill="#333333"/>
<path d="M326.806 484.893H323.252V460.283H323.095L316.22 464.854V461.299L323.252 456.611H326.806V484.893ZM332.842 476.221L345.577 456.611H349.913V476.025H353.858V479.111H349.913V484.893H346.553V479.111H332.842V476.221ZM346.553 476.025V461.064H346.202L336.631 475.791V476.025H346.553Z" fill="white"/>
<defs>
<filter id="filter0_d_399_22278" x="126.148" y="281.516" width="293.282" height="170.019" filterUnits="userSpaceOnUse" color-interpolation-filters="sRGB">
<feFlood flood-opacity="0" result="BackgroundImageFix"/>
<feColorMatrix in="SourceAlpha" type="matrix" values="0 0 0 0 0 0 0 0 0 0 0 0 0 0 0 0 0 0 127 0" result="hardAlpha"/>
<feOffset/>
<feGaussianBlur stdDeviation="1.21442"/>
<feComposite in2="hardAlpha" operator="out"/>
<feColorMatrix type="matrix" values="0 0 0 0 0 0 0 0 0 0 0 0 0 0 0 0 0 0 0.2 0"/>
<feBlend mode="normal" in2="BackgroundImageFix" result="effect1_dropShadow_399_22278"/>
<feBlend mode="normal" in="SourceGraphic" in2="effect1_dropShadow_399_22278" result="shape"/>
</filter>
<filter id="filter1_d_399_22278" x="424.288" y="281.516" width="293.283" height="170.019" filterUnits="userSpaceOnUse" color-interpolation-filters="sRGB">
<feFlood flood-opacity="0" result="BackgroundImageFix"/>
<feColorMatrix in="SourceAlpha" type="matrix" values="0 0 0 0 0 0 0 0 0 0 0 0 0 0 0 0 0 0 127 0" result="hardAlpha"/>
<feOffset/>
<feGaussianBlur stdDeviation="1.21442"/>
<feComposite in2="hardAlpha" operator="out"/>
<feColorMatrix type="matrix" values="0 0 0 0 0 0 0 0 0 0 0 0 0 0 0 0 0 0 0.2 0"/>
<feBlend mode="normal" in2="BackgroundImageFix" result="effect1_dropShadow_399_22278"/>
<feBlend mode="normal" in="SourceGraphic" in2="effect1_dropShadow_399_22278" result="shape"/>
</filter>
<filter id="filter2_d_399_22278" x="722.429" y="281.516" width="293.283" height="170.019" filterUnits="userSpaceOnUse" color-interpolation-filters="sRGB">
<feFlood flood-opacity="0" result="BackgroundImageFix"/>
<feColorMatrix in="SourceAlpha" type="matrix" values="0 0 0 0 0 0 0 0 0 0 0 0 0 0 0 0 0 0 127 0" result="hardAlpha"/>
<feOffset/>
<feGaussianBlur stdDeviation="1.21442"/>
<feComposite in2="hardAlpha" operator="out"/>
<feColorMatrix type="matrix" values="0 0 0 0 0 0 0 0 0 0 0 0 0 0 0 0 0 0 0.2 0"/>
<feBlend mode="normal" in2="BackgroundImageFix" result="effect1_dropShadow_399_22278"/>
<feBlend mode="normal" in="SourceGraphic" in2="effect1_dropShadow_399_22278" result="shape"/>
</filter>
<filter id="filter3_d_399_22278" x="1020.57" y="281.516" width="293.282" height="170.019" filterUnits="userSpaceOnUse" color-interpolation-filters="sRGB">
<feFlood flood-opacity="0" result="BackgroundImageFix"/>
<feColorMatrix in="SourceAlpha" type="matrix" values="0 0 0 0 0 0 0 0 0 0 0 0 0 0 0 0 0 0 127 0" result="hardAlpha"/>
<feOffset/>
<feGaussianBlur stdDeviation="1.21442"/>
<feComposite in2="hardAlpha" operator="out"/>
<feColorMatrix type="matrix" values="0 0 0 0 0 0 0 0 0 0 0 0 0 0 0 0 0 0 0.2 0"/>
<feBlend mode="normal" in2="BackgroundImageFix" result="effect1_dropShadow_399_22278"/>
<feBlend mode="normal" in="SourceGraphic" in2="effect1_dropShadow_399_22278" result="shape"/>
</filter>
<clipPath id="clip0_399_22278">
<rect width="1231.42" height="602.353" fill="white" transform="translate(104.289 117.218)"/>
</clipPath>
<clipPath id="clip1_399_22278">
<rect x="148.008" y="381.099" width="249.564" height="48.5769" rx="7.28653" fill="white"/>
</clipPath>
<clipPath id="clip2_399_22278">
<rect x="446.148" y="381.099" width="249.564" height="48.5769" rx="7.28653" fill="white"/>
</clipPath>
<clipPath id="clip3_399_22278">
<rect x="744.289" y="381.099" width="249.564" height="48.5769" rx="7.28653" fill="white"/>
</clipPath>
<clipPath id="clip4_399_22278">
<rect x="1042.43" y="381.099" width="249.564" height="48.5769" rx="7.28653" fill="white"/>
</clipPath>
</defs>
</svg>
