<svg width="1440" height="758" viewBox="0 0 1440 758" fill="none" xmlns="http://www.w3.org/2000/svg">
<g clip-path="url(#clip0_210_19707)">
<rect width="1440" height="757" transform="translate(0 0.160156)" fill="white"/>
<rect width="1440" height="757" transform="translate(0 0.160156)" fill="#246FF4" fill-opacity="0.2"/>
<g clip-path="url(#clip1_210_19707)">
<path d="M80 139.16C80 132.533 85.3726 127.16 92 127.16H148.4C155.027 127.16 160.4 132.533 160.4 139.16V199.16H80V139.16Z" fill="white"/>
<path d="M109.425 160.246H111.557V152.793H114.37V172.832H111.557V162.637H109.425V168.449H100.94V154.691H109.425V160.246ZM103.729 166.105H106.636V157.059H103.729V166.105ZM118.823 173.816H115.964V152.488H118.823V173.816ZM138.452 167.84H135.452V152.512H138.452V167.84ZM139.015 173.441H124.156V166.293H127.179V171.051H139.015V173.441ZM126.757 153.871C127.843 153.871 128.827 154.102 129.71 154.562C130.601 155.023 131.304 155.664 131.82 156.484C132.335 157.297 132.593 158.215 132.593 159.238C132.593 160.277 132.335 161.211 131.82 162.039C131.312 162.859 130.613 163.5 129.722 163.961C128.831 164.422 127.843 164.652 126.757 164.652C125.671 164.652 124.683 164.422 123.792 163.961C122.902 163.5 122.198 162.859 121.683 162.039C121.175 161.211 120.921 160.277 120.921 159.238C120.921 158.215 121.179 157.297 121.695 156.484C122.21 155.664 122.909 155.023 123.792 154.562C124.683 154.102 125.671 153.871 126.757 153.871ZM126.757 156.473C126.202 156.465 125.702 156.574 125.257 156.801C124.812 157.02 124.464 157.34 124.214 157.762C123.964 158.184 123.843 158.676 123.851 159.238C123.843 159.816 123.964 160.32 124.214 160.75C124.464 161.172 124.808 161.496 125.245 161.723C125.691 161.941 126.195 162.051 126.757 162.051C127.304 162.051 127.792 161.941 128.222 161.723C128.659 161.496 129.003 161.172 129.253 160.75C129.511 160.32 129.64 159.816 129.64 159.238C129.64 158.676 129.511 158.184 129.253 157.762C129.003 157.34 128.659 157.02 128.222 156.801C127.784 156.574 127.296 156.465 126.757 156.473Z" fill="#111111"/>
<path d="M172.4 139.16C172.4 132.533 177.772 127.16 184.4 127.16H260.8C267.427 127.16 272.8 132.533 272.8 139.16V199.16H172.4V139.16Z" fill="#474B5C"/>
<path d="M209.522 158.605H212.404V161.09H209.522V168.027H206.522V152.488H209.522V158.605ZM210.295 173.441H195.693V166.387H198.67V171.051H210.295V173.441ZM198.6 153.871C199.678 153.871 200.658 154.105 201.541 154.574C202.432 155.035 203.131 155.68 203.639 156.508C204.154 157.328 204.412 158.254 204.412 159.285C204.412 160.309 204.154 161.234 203.639 162.062C203.131 162.883 202.432 163.527 201.541 163.996C200.658 164.465 199.678 164.699 198.6 164.699C197.514 164.699 196.525 164.465 195.635 163.996C194.744 163.527 194.037 162.883 193.514 162.062C192.998 161.234 192.74 160.309 192.74 159.285C192.74 158.254 192.998 157.328 193.514 156.508C194.029 155.68 194.732 155.035 195.623 154.574C196.522 154.105 197.514 153.871 198.6 153.871ZM198.6 156.473C198.053 156.465 197.557 156.574 197.111 156.801C196.674 157.02 196.326 157.344 196.068 157.773C195.811 158.203 195.686 158.707 195.693 159.285C195.686 159.848 195.811 160.344 196.068 160.773C196.326 161.195 196.678 161.523 197.123 161.758C197.568 161.984 198.061 162.098 198.6 162.098C199.147 162.098 199.639 161.984 200.076 161.758C200.514 161.523 200.857 161.195 201.107 160.773C201.365 160.344 201.498 159.848 201.506 159.285C201.498 158.707 201.365 158.203 201.107 157.773C200.857 157.344 200.514 157.02 200.076 156.801C199.639 156.574 199.147 156.465 198.6 156.473ZM232.315 166.645H224.018V173.816H221.065V166.645H212.862V164.254H232.315V166.645ZM230.581 155.957H224.358C224.459 156.676 224.795 157.363 225.366 158.02C225.936 158.668 226.733 159.23 227.756 159.707C228.78 160.176 229.995 160.496 231.401 160.668L230.323 163.012C228.479 162.762 226.893 162.262 225.565 161.512C224.245 160.762 223.256 159.828 222.6 158.711C221.936 159.828 220.948 160.762 219.635 161.512C218.323 162.262 216.752 162.762 214.924 163.012L213.823 160.668C215.206 160.496 216.405 160.176 217.42 159.707C218.444 159.23 219.241 158.668 219.811 158.02C220.389 157.363 220.733 156.676 220.842 155.957H214.62V153.613H230.581V155.957ZM252.624 167.348H248.124V173.816H245.101V167.348H240.647V173.816H237.671V167.348H233.101V165.004H252.624V167.348ZM250.374 159.332H238.444V161.066H250.866V163.457H235.421V157.152H247.304V155.559H235.351V153.121H250.374V159.332Z" fill="#E5E6EB"/>
<path d="M284.8 139.16C284.8 132.533 290.172 127.16 296.8 127.16H353.2C359.827 127.16 365.2 132.533 365.2 139.16V199.16H284.8V139.16Z" fill="#474B5C"/>
<path d="M314.857 152.887C316.427 152.887 317.795 153.055 318.959 153.391C320.123 153.727 321.021 154.207 321.654 154.832C322.287 155.457 322.607 156.199 322.615 157.059C322.607 157.91 322.287 158.648 321.654 159.273C321.021 159.898 320.123 160.375 318.959 160.703C317.795 161.031 316.427 161.191 314.857 161.184C313.295 161.191 311.927 161.031 310.756 160.703C309.584 160.367 308.677 159.891 308.037 159.273C307.396 158.648 307.076 157.91 307.076 157.059C307.076 156.199 307.396 155.457 308.037 154.832C308.677 154.207 309.584 153.727 310.756 153.391C311.927 153.055 313.295 152.887 314.857 152.887ZM314.857 155.207C313.357 155.207 312.201 155.367 311.388 155.688C310.584 156 310.185 156.457 310.193 157.059C310.185 157.652 310.584 158.102 311.388 158.406C312.193 158.711 313.349 158.863 314.857 158.863C316.349 158.863 317.498 158.711 318.302 158.406C319.115 158.102 319.521 157.652 319.521 157.059C319.521 156.457 319.115 156 318.302 155.688C317.498 155.367 316.349 155.207 314.857 155.207ZM322.263 173.582H307.381V166.316H322.263V173.582ZM310.334 171.191H319.334V168.684H310.334V171.191ZM324.584 164.816H305.131V162.426H324.584V164.816ZM344.916 171.449H325.393V168.988H330.385V165.73H327.643V158.559H339.713V156.262H327.619V153.871H342.666V160.949H330.643V163.316H343.158V165.73H340.135V168.988H344.916V171.449ZM337.205 168.988V165.73H333.291V168.988H337.205Z" fill="#E5E6EB"/>
<path d="M377.2 139.16C377.2 132.533 382.573 127.16 389.2 127.16H445.6C452.228 127.16 457.6 132.533 457.6 139.16V199.16H377.2V139.16Z" fill="#474B5C"/>
<path d="M416.984 166.645H408.687V173.816H405.734V166.645H397.531V164.254H416.984V166.645ZM415.25 155.957H409.027C409.129 156.676 409.465 157.363 410.035 158.02C410.605 158.668 411.402 159.23 412.426 159.707C413.449 160.176 414.664 160.496 416.07 160.668L414.992 163.012C413.148 162.762 411.562 162.262 410.234 161.512C408.914 160.762 407.926 159.828 407.269 158.711C406.605 159.828 405.617 160.762 404.304 161.512C402.992 162.262 401.422 162.762 399.594 163.012L398.492 160.668C399.875 160.496 401.074 160.176 402.09 159.707C403.113 159.23 403.91 158.668 404.48 158.02C405.058 157.363 405.402 156.676 405.511 155.957H399.289V153.613H415.25V155.957ZM437.293 167.348H432.793V173.816H429.77V167.348H425.317V173.816H422.34V167.348H417.77V165.004H437.293V167.348ZM435.043 159.332H423.114V161.066H435.535V163.457H420.09V157.152H431.973V155.559H420.02V153.121H435.043V159.332Z" fill="#E5E6EB"/>
</g>
<rect width="1280" height="479.012" transform="translate(80 199.16)" fill="white"/>
<path d="M134.797 261.152H132.664V250.301H129.945V260.074H127.906V240.574H129.945V248.473H132.664V240.152H134.797V261.152ZM125.352 244.488H119.703V254.215C121.078 254.199 122.281 254.152 123.312 254.074C124.352 253.996 125.406 253.855 126.477 253.652L126.641 255.48C125.461 255.723 124.297 255.887 123.148 255.973C122 256.051 120.578 256.098 118.883 256.113H117.477V242.684H125.352V244.488ZM156.231 252.926H147.887V256.793H145.684V252.926H137.012V251.145H156.231V252.926ZM154.098 260.707H139.403V254.965H141.606V258.902H154.098V260.707ZM141.747 243.363H151.473V240.809H153.7V249.293H139.543V240.809H141.747V243.363ZM151.473 247.512V245.027H141.747V247.512H151.473ZM176.493 254.379H171.665V261.152H169.415V254.379H164.353V261.152H162.126V254.379H157.274V252.621H176.493V254.379ZM174.22 246.527H161.845V248.848H174.665V250.652H159.618V244.863H171.946V242.73H159.548V240.902H174.22V246.527ZM199.978 251.355H193.627V256.699H202.158V258.527H182.939V256.699H191.4V251.355H185.236V241.887H187.486V249.527H199.978V251.355ZM222.327 251.027H213.866V252.785H219.936V257.52H207.702V259.254H220.522V260.941H205.522V255.973H217.733V254.402H205.498V252.785H211.662V251.027H203.225V249.363H222.327V251.027ZM213.866 241.91H220.428V243.621H214.041C214.182 244.207 214.577 244.734 215.225 245.203C215.873 245.664 216.725 246.039 217.78 246.328C218.842 246.609 220.045 246.785 221.389 246.855L220.709 248.543C218.842 248.41 217.209 248.074 215.811 247.535C214.42 246.988 213.405 246.266 212.764 245.367C212.123 246.266 211.104 246.988 209.705 247.535C208.315 248.074 206.678 248.41 204.795 248.543L204.162 246.855C205.498 246.785 206.69 246.609 207.737 246.328C208.791 246.039 209.643 245.664 210.291 245.203C210.94 244.734 211.338 244.207 211.487 243.621H205.123V241.91H211.662V240.059H213.866V241.91ZM229.159 241.723C230.112 241.723 230.968 241.984 231.725 242.508C232.491 243.031 233.108 243.77 233.577 244.723H238.768V240.152H240.972V261.199H238.768V253.137H233.718C233.272 254.191 232.651 255.012 231.854 255.598C231.065 256.176 230.167 256.465 229.159 256.465C228.112 256.465 227.186 256.164 226.382 255.562C225.577 254.953 224.948 254.094 224.495 252.984C224.05 251.867 223.831 250.566 223.839 249.082C223.831 247.605 224.05 246.312 224.495 245.203C224.948 244.086 225.577 243.227 226.382 242.625C227.194 242.023 228.12 241.723 229.159 241.723ZM229.159 243.715C228.526 243.715 227.968 243.934 227.483 244.371C226.999 244.809 226.62 245.434 226.347 246.246C226.081 247.051 225.948 247.996 225.948 249.082C225.948 250.176 226.081 251.129 226.347 251.941C226.62 252.754 226.999 253.379 227.483 253.816C227.968 254.254 228.526 254.473 229.159 254.473C229.792 254.473 230.35 254.254 230.835 253.816C231.319 253.379 231.694 252.754 231.96 251.941C232.233 251.129 232.37 250.176 232.37 249.082C232.37 247.996 232.233 247.051 231.96 246.246C231.694 245.434 231.319 244.809 230.835 244.371C230.35 243.934 229.792 243.715 229.159 243.715ZM234.21 246.551C234.39 247.395 234.479 248.238 234.479 249.082C234.479 249.871 234.409 250.613 234.268 251.309H238.768V246.551H234.21ZM262.921 254.262H254.343V261.152H252.163V254.262H243.702V252.504H262.921V254.262ZM248.296 243.738H258.281V240.996H260.507V250.113H246.093V240.996H248.296V243.738ZM258.281 248.332V245.52H248.296V248.332H258.281Z" fill="#111111"/>
<rect x="116" y="290.16" width="240" height="72" rx="14.4" fill="#14151A"/>
<path d="M235.585 336.266H212.157V333.341H222.029V328.616H214.632V315.285H218.232V319.251H229.398V315.285H232.969V328.616H225.601V333.341H235.585V336.266ZM229.398 325.748V322.12H218.232V325.748H229.398ZM257.903 328.138H254.303V313.682H257.903V328.138ZM257.903 338.966H240.747V329.291H257.903V338.966ZM244.29 336.098H254.387V332.132H244.29V336.098ZM243.868 314.835C245.19 314.835 246.381 315.098 247.44 315.623C248.509 316.148 249.348 316.879 249.958 317.816C250.567 318.754 250.872 319.823 250.872 321.023C250.872 322.176 250.567 323.216 249.958 324.145C249.348 325.073 248.509 325.804 247.44 326.338C246.372 326.863 245.181 327.126 243.868 327.126C242.556 327.126 241.365 326.863 240.297 326.338C239.228 325.804 238.389 325.073 237.779 324.145C237.17 323.216 236.865 322.176 236.865 321.023C236.865 319.823 237.17 318.754 237.779 317.816C238.389 316.879 239.223 316.148 240.283 315.623C241.351 315.098 242.547 314.835 243.868 314.835ZM243.868 317.845C243.184 317.845 242.575 317.971 242.04 318.224C241.515 318.477 241.103 318.843 240.803 319.321C240.512 319.799 240.372 320.366 240.381 321.023C240.372 321.651 240.512 322.199 240.803 322.668C241.103 323.127 241.515 323.484 242.04 323.737C242.575 323.99 243.184 324.116 243.868 324.116C244.534 324.116 245.129 323.99 245.654 323.737C246.179 323.484 246.587 323.127 246.878 322.668C247.178 322.199 247.328 321.651 247.328 321.023C247.328 320.366 247.178 319.799 246.878 319.321C246.587 318.843 246.179 318.477 245.654 318.224C245.129 317.971 244.534 317.845 243.868 317.845Z" fill="white"/>
<rect x="375.2" y="290.16" width="240" height="72" rx="14.4" fill="#E5E6EB"/>
<path d="M491.804 338.854H474.17V330.304H481.426V327.688H471.442V325.157H494.617V327.688H484.576V330.304H491.804V338.854ZM477.263 336.323H488.767V332.779H477.263V336.323ZM484.632 314.976C484.632 315.904 484.998 316.813 485.729 317.704C486.47 318.595 487.501 319.363 488.823 320.01C490.154 320.648 491.673 321.07 493.379 321.276L492.282 323.695C490.173 323.413 488.307 322.832 486.685 321.951C485.073 321.06 483.859 319.963 483.043 318.66C482.218 319.963 480.995 321.055 479.373 321.937C477.751 322.818 475.885 323.404 473.776 323.695L472.623 321.276C474.348 321.06 475.876 320.638 477.207 320.01C478.538 319.373 479.57 318.613 480.301 317.732C481.042 316.841 481.417 315.923 481.426 314.976V313.991H484.632V314.976ZM509.2 315.285C509.2 317.46 508.722 319.42 507.766 321.163C506.819 322.907 505.445 324.393 503.645 325.621C501.855 326.84 499.694 327.773 497.162 328.42L495.925 326.001C497.884 325.495 499.572 324.834 500.987 324.018C502.412 323.202 503.533 322.265 504.348 321.205C505.164 320.146 505.661 318.998 505.839 317.76H497.387V315.285H509.2ZM516.934 327.998H513.784V313.766H516.934V327.998ZM516.934 338.826H500.144V329.095H516.934V338.826ZM503.237 336.351H513.869V331.57H503.237V336.351Z" fill="#474B5C"/>
<path d="M135.922 438.684H127.438V440.699C129.383 440.809 130.891 441.184 131.961 441.824C133.039 442.457 133.578 443.316 133.578 444.402C133.578 445.191 133.289 445.863 132.711 446.418C132.133 446.98 131.301 447.402 130.215 447.684C129.137 447.973 127.844 448.113 126.336 448.105C124.812 448.113 123.504 447.973 122.41 447.684C121.324 447.402 120.492 446.98 119.914 446.418C119.336 445.863 119.047 445.191 119.047 444.402C119.047 443.316 119.586 442.457 120.664 441.824C121.742 441.184 123.266 440.809 125.234 440.699V438.684H116.773V436.879H135.922V438.684ZM126.336 442.387C124.727 442.387 123.484 442.562 122.609 442.914C121.734 443.266 121.297 443.762 121.297 444.402C121.297 445.035 121.738 445.527 122.621 445.879C123.504 446.23 124.742 446.402 126.336 446.395C127.383 446.402 128.281 446.328 129.031 446.172C129.789 446.016 130.363 445.789 130.754 445.492C131.152 445.188 131.352 444.824 131.352 444.402C131.352 443.762 130.91 443.266 130.027 442.914C129.152 442.562 127.922 442.387 126.336 442.387ZM134.211 429.895H127.836C127.938 430.559 128.309 431.184 128.949 431.77C129.598 432.355 130.441 432.848 131.48 433.246C132.527 433.637 133.68 433.895 134.938 434.02L134.141 435.777C132.93 435.637 131.801 435.379 130.754 435.004C129.715 434.621 128.812 434.141 128.047 433.562C127.289 432.984 126.723 432.328 126.348 431.594C125.965 432.328 125.391 432.984 124.625 433.562C123.867 434.141 122.969 434.621 121.93 435.004C120.891 435.379 119.766 435.637 118.555 435.777L117.781 434.02C119.023 433.895 120.16 433.637 121.191 433.246C122.23 432.848 123.07 432.355 123.711 431.77C124.359 431.184 124.734 430.559 124.836 429.895H118.531V428.113H134.211V429.895ZM156.231 439.926H147.887V443.793H145.684V439.926H137.012V438.145H156.231V439.926ZM154.098 447.707H139.403V441.965H141.606V445.902H154.098V447.707ZM141.747 430.363H151.473V427.809H153.7V436.293H139.543V427.809H141.747V430.363ZM151.473 434.512V432.027H141.747V434.512H151.473ZM176.493 441.379H171.665V448.152H169.415V441.379H164.353V448.152H162.126V441.379H157.274V439.621H176.493V441.379ZM174.22 433.527H161.845V435.848H174.665V437.652H159.618V431.863H171.946V429.73H159.548V427.902H174.22V433.527ZM199.978 438.355H193.627V443.699H202.158V445.527H182.939V443.699H191.4V438.355H185.236V428.887H187.486V436.527H199.978V438.355ZM222.327 438.027H213.866V439.785H219.936V444.52H207.702V446.254H220.522V447.941H205.522V442.973H217.733V441.402H205.498V439.785H211.662V438.027H203.225V436.363H222.327V438.027ZM213.866 428.91H220.428V430.621H214.041C214.182 431.207 214.577 431.734 215.225 432.203C215.873 432.664 216.725 433.039 217.78 433.328C218.842 433.609 220.045 433.785 221.389 433.855L220.709 435.543C218.842 435.41 217.209 435.074 215.811 434.535C214.42 433.988 213.405 433.266 212.764 432.367C212.123 433.266 211.104 433.988 209.705 434.535C208.315 435.074 206.678 435.41 204.795 435.543L204.162 433.855C205.498 433.785 206.69 433.609 207.737 433.328C208.791 433.039 209.643 432.664 210.291 432.203C210.94 431.734 211.338 431.207 211.487 430.621H205.123V428.91H211.662V427.059H213.866V428.91ZM229.159 428.723C230.112 428.723 230.968 428.984 231.725 429.508C232.491 430.031 233.108 430.77 233.577 431.723H238.768V427.152H240.972V448.199H238.768V440.137H233.718C233.272 441.191 232.651 442.012 231.854 442.598C231.065 443.176 230.167 443.465 229.159 443.465C228.112 443.465 227.186 443.164 226.382 442.562C225.577 441.953 224.948 441.094 224.495 439.984C224.05 438.867 223.831 437.566 223.839 436.082C223.831 434.605 224.05 433.312 224.495 432.203C224.948 431.086 225.577 430.227 226.382 429.625C227.194 429.023 228.12 428.723 229.159 428.723ZM229.159 430.715C228.526 430.715 227.968 430.934 227.483 431.371C226.999 431.809 226.62 432.434 226.347 433.246C226.081 434.051 225.948 434.996 225.948 436.082C225.948 437.176 226.081 438.129 226.347 438.941C226.62 439.754 226.999 440.379 227.483 440.816C227.968 441.254 228.526 441.473 229.159 441.473C229.792 441.473 230.35 441.254 230.835 440.816C231.319 440.379 231.694 439.754 231.96 438.941C232.233 438.129 232.37 437.176 232.37 436.082C232.37 434.996 232.233 434.051 231.96 433.246C231.694 432.434 231.319 431.809 230.835 431.371C230.35 430.934 229.792 430.715 229.159 430.715ZM234.21 433.551C234.39 434.395 234.479 435.238 234.479 436.082C234.479 436.871 234.409 437.613 234.268 438.309H238.768V433.551H234.21ZM262.921 441.262H254.343V448.152H252.163V441.262H243.702V439.504H262.921V441.262ZM248.296 430.738H258.281V427.996H260.507V437.113H246.093V427.996H248.296V430.738ZM258.281 435.332V432.52H248.296V435.332H258.281Z" fill="#111111"/>
<path d="M128 477.76H404C410.296 477.76 415.4 482.864 415.4 489.16V628.36C415.4 634.656 410.296 639.76 404 639.76H128C121.704 639.76 116.6 634.656 116.6 628.36V489.16C116.6 482.864 121.704 477.76 128 477.76Z" fill="#F3F4F6"/>
<path d="M128 477.76H404C410.296 477.76 415.4 482.864 415.4 489.16V628.36C415.4 634.656 410.296 639.76 404 639.76H128C121.704 639.76 116.6 634.656 116.6 628.36V489.16C116.6 482.864 121.704 477.76 128 477.76Z" stroke="#CBCDD7" stroke-width="1.2"/>
<path d="M255.453 522.281H247.203V523.863C249.078 523.996 250.531 524.391 251.562 525.047C252.601 525.703 253.125 526.578 253.133 527.672C253.125 528.484 252.824 529.176 252.23 529.746C251.636 530.324 250.785 530.762 249.676 531.059C248.566 531.363 247.242 531.516 245.703 531.516C244.14 531.516 242.801 531.363 241.683 531.059C240.566 530.762 239.711 530.324 239.117 529.746C238.523 529.176 238.226 528.484 238.226 527.672C238.226 526.57 238.75 525.691 239.797 525.035C240.843 524.379 242.32 523.984 244.226 523.852V522.281H236V519.867H255.453V522.281ZM245.703 526.055C244.218 526.07 243.105 526.211 242.363 526.477C241.629 526.742 241.265 527.141 241.273 527.672C241.258 528.188 241.625 528.582 242.375 528.855C243.125 529.129 244.234 529.266 245.703 529.266C247.14 529.266 248.234 529.129 248.984 528.855C249.734 528.582 250.117 528.188 250.133 527.672C250.109 526.617 248.633 526.078 245.703 526.055ZM253.695 513.445H247.894C248.074 513.969 248.441 514.457 248.996 514.91C249.558 515.363 250.312 515.754 251.258 516.082C252.211 516.402 253.336 516.617 254.633 516.727L253.578 519.07C251.609 518.883 249.949 518.438 248.597 517.734C247.254 517.031 246.289 516.148 245.703 515.086C245.125 516.148 244.164 517.031 242.82 517.734C241.484 518.438 239.828 518.883 237.851 519.07L236.867 516.727C238.133 516.617 239.234 516.402 240.172 516.082C241.109 515.754 241.855 515.363 242.41 514.91C242.972 514.449 243.347 513.961 243.535 513.445H237.781V511.102H253.695V513.445ZM275.762 523.477H267.723V526.922H264.77V523.477H256.238V521.133H275.762V523.477ZM273.606 531.141H258.535V525.234H261.488V528.75H273.606V531.141ZM261.699 513.094H270.254V510.867H273.231V519.633H258.746V510.867H261.699V513.094ZM270.254 517.266V515.32H261.699V517.266H270.254ZM296.024 525.047H291.524V531.516H288.501V525.047H284.048V531.516H281.071V525.047H276.501V522.703H296.024V525.047ZM293.774 517.031H281.844V518.766H294.266V521.156H278.821V514.852H290.704V513.258H278.751V510.82H293.774V517.031Z" fill="#14151A"/>
<g clip-path="url(#clip2_210_19707)">
<rect width="130.8" height="48" transform="translate(135.2 573.16)" fill="#E5E6EB"/>
<path d="M200.09 605.051H180.871V603.199H189.332V598.887H183.074V588.082H185.301V591.691H195.614V588.082H197.817V598.887H191.535V603.199H200.09V605.051ZM195.614 597.082V593.496H185.301V597.082H195.614ZM218.548 598.629H216.321V586.676H218.548V598.629ZM218.548 607.395H204.743V599.684H218.548V607.395ZM206.946 605.59H216.368V601.465H206.946V605.59ZM207.157 587.73C208.219 587.73 209.173 587.941 210.016 588.363C210.868 588.777 211.532 589.363 212.009 590.121C212.493 590.871 212.735 591.73 212.735 592.699C212.735 593.645 212.493 594.492 212.009 595.242C211.532 595.992 210.868 596.578 210.016 597C209.173 597.414 208.219 597.621 207.157 597.621C206.094 597.621 205.137 597.414 204.286 597C203.434 596.578 202.766 595.992 202.282 595.242C201.798 594.492 201.555 593.645 201.555 592.699C201.555 591.73 201.798 590.871 202.282 590.121C202.766 589.363 203.434 588.777 204.286 588.363C205.137 587.941 206.094 587.73 207.157 587.73ZM207.157 589.605C206.493 589.605 205.903 589.734 205.387 589.992C204.872 590.242 204.466 590.602 204.169 591.07C203.88 591.539 203.735 592.082 203.735 592.699C203.735 593.293 203.88 593.82 204.169 594.281C204.466 594.742 204.872 595.102 205.387 595.359C205.911 595.617 206.501 595.746 207.157 595.746C207.805 595.746 208.387 595.617 208.903 595.359C209.419 595.102 209.821 594.742 210.11 594.281C210.407 593.82 210.555 593.293 210.555 592.699C210.555 592.082 210.411 591.543 210.122 591.082C209.833 590.613 209.43 590.25 208.915 589.992C208.399 589.734 207.813 589.605 207.157 589.605Z" fill="#474B5C"/>
<rect width="130.8" height="48" transform="translate(266 573.16)" fill="#14151A"/>
<path d="M328.57 607.488H313.874V600.363H319.921V598.184H311.601V596.074H330.913V598.184H322.546V600.363H328.57V607.488ZM316.452 605.379H326.038V602.426H316.452V605.379ZM322.593 587.59C322.593 588.363 322.898 589.121 323.507 589.863C324.124 590.605 324.984 591.246 326.085 591.785C327.195 592.316 328.46 592.668 329.882 592.84L328.968 594.855C327.21 594.621 325.656 594.137 324.304 593.402C322.96 592.66 321.948 591.746 321.269 590.66C320.581 591.746 319.562 592.656 318.21 593.391C316.859 594.125 315.304 594.613 313.546 594.855L312.585 592.84C314.023 592.66 315.296 592.309 316.406 591.785C317.515 591.254 318.374 590.621 318.984 589.887C319.601 589.145 319.913 588.379 319.921 587.59V586.77H322.593V587.59ZM343.066 587.848C343.066 589.66 342.668 591.293 341.871 592.746C341.082 594.199 339.937 595.438 338.437 596.461C336.945 597.477 335.144 598.254 333.035 598.793L332.004 596.777C333.636 596.355 335.043 595.805 336.222 595.125C337.41 594.445 338.343 593.664 339.023 592.781C339.703 591.898 340.117 590.941 340.265 589.91H333.222V587.848H343.066ZM349.511 598.441H346.886V586.582H349.511V598.441ZM349.511 607.465H335.519V599.355H349.511V607.465ZM338.097 605.402H346.957V601.418H338.097V605.402Z" fill="white"/>
</g>
<path d="M440 477.76H716C722.296 477.76 727.4 482.864 727.4 489.16V628.36C727.4 634.656 722.296 639.76 716 639.76H440C433.704 639.76 428.6 634.656 428.6 628.36V489.16C428.6 482.864 433.704 477.76 440 477.76Z" fill="#F3F4F6"/>
<path d="M440 477.76H716C722.296 477.76 727.4 482.864 727.4 489.16V628.36C727.4 634.656 722.296 639.76 716 639.76H440C433.704 639.76 428.6 634.656 428.6 628.36V489.16C428.6 482.864 433.704 477.76 440 477.76Z" stroke="#CBCDD7" stroke-width="1.2"/>
<path d="M567.453 522.281H559.203V523.863C561.078 523.996 562.531 524.391 563.562 525.047C564.601 525.703 565.125 526.578 565.133 527.672C565.125 528.484 564.824 529.176 564.23 529.746C563.636 530.324 562.785 530.762 561.676 531.059C560.566 531.363 559.242 531.516 557.703 531.516C556.14 531.516 554.801 531.363 553.683 531.059C552.566 530.762 551.711 530.324 551.117 529.746C550.523 529.176 550.226 528.484 550.226 527.672C550.226 526.57 550.75 525.691 551.797 525.035C552.843 524.379 554.32 523.984 556.226 523.852V522.281H548V519.867H567.453V522.281ZM557.703 526.055C556.218 526.07 555.105 526.211 554.363 526.477C553.629 526.742 553.265 527.141 553.273 527.672C553.258 528.188 553.625 528.582 554.375 528.855C555.125 529.129 556.234 529.266 557.703 529.266C559.14 529.266 560.234 529.129 560.984 528.855C561.734 528.582 562.117 528.188 562.133 527.672C562.109 526.617 560.633 526.078 557.703 526.055ZM565.695 513.445H559.894C560.074 513.969 560.441 514.457 560.996 514.91C561.558 515.363 562.312 515.754 563.258 516.082C564.211 516.402 565.336 516.617 566.633 516.727L565.578 519.07C563.609 518.883 561.949 518.438 560.597 517.734C559.254 517.031 558.289 516.148 557.703 515.086C557.125 516.148 556.164 517.031 554.82 517.734C553.484 518.438 551.828 518.883 549.851 519.07L548.867 516.727C550.133 516.617 551.234 516.402 552.172 516.082C553.109 515.754 553.855 515.363 554.41 514.91C554.972 514.449 555.347 513.961 555.535 513.445H549.781V511.102H565.695V513.445ZM587.762 523.477H579.723V526.922H576.77V523.477H568.238V521.133H587.762V523.477ZM585.606 531.141H570.535V525.234H573.488V528.75H585.606V531.141ZM573.699 513.094H582.254V510.867H585.231V519.633H570.746V510.867H573.699V513.094ZM582.254 517.266V515.32H573.699V517.266H582.254ZM608.024 525.047H603.524V531.516H600.501V525.047H596.048V531.516H593.071V525.047H588.501V522.703H608.024V525.047ZM605.774 517.031H593.844V518.766H606.266V521.156H590.821V514.852H602.704V513.258H590.751V510.82H605.774V517.031Z" fill="#14151A"/>
<g clip-path="url(#clip3_210_19707)">
<rect width="130.8" height="48" transform="translate(447.2 573.16)" fill="#14151A"/>
<path d="M512.16 605.191H492.801V603.059H501.145V598.934H494.934V587.965H497.535V591.434H507.356V587.965H509.957V598.934H503.723V603.059H512.16V605.191ZM507.356 596.824V593.52H497.535V596.824H507.356ZM530.712 598.582H528.087V586.582H530.712V598.582ZM530.712 607.488H516.649V599.613H530.712V607.488ZM519.227 605.379H528.157V601.676H519.227V605.379ZM519.157 587.59C520.235 587.59 521.208 587.805 522.075 588.234C522.942 588.656 523.622 589.254 524.114 590.027C524.606 590.793 524.852 591.668 524.852 592.652C524.852 593.605 524.602 594.465 524.102 595.23C523.61 595.988 522.93 596.586 522.063 597.023C521.196 597.453 520.227 597.668 519.157 597.668C518.079 597.668 517.102 597.453 516.227 597.023C515.36 596.594 514.677 595.996 514.177 595.23C513.684 594.465 513.438 593.605 513.438 592.652C513.438 591.668 513.684 590.793 514.177 590.027C514.677 589.254 515.36 588.656 516.227 588.234C517.094 587.805 518.071 587.59 519.157 587.59ZM519.157 589.793C518.54 589.793 517.989 589.91 517.505 590.145C517.028 590.379 516.653 590.711 516.38 591.141C516.114 591.57 515.985 592.074 515.993 592.652C515.985 593.215 516.114 593.711 516.38 594.141C516.653 594.562 517.028 594.891 517.505 595.125C517.989 595.352 518.54 595.465 519.157 595.465C519.766 595.465 520.305 595.352 520.774 595.125C521.251 594.891 521.622 594.562 521.887 594.141C522.161 593.711 522.298 593.215 522.298 592.652C522.298 592.074 522.165 591.57 521.899 591.141C521.634 590.711 521.262 590.379 520.786 590.145C520.309 589.91 519.766 589.793 519.157 589.793Z" fill="white"/>
<rect width="130.8" height="48" transform="translate(578 573.16)" fill="#E5E6EB"/>
<path d="M640.476 607.395H625.968V600.387H632.132V598.02H623.671V596.191H642.82V598.02H634.335V600.387H640.476V607.395ZM628.171 605.59H638.32V602.168H628.171V605.59ZM634.382 587.754C634.382 588.559 634.714 589.34 635.378 590.098C636.05 590.848 636.948 591.488 638.073 592.02C639.206 592.551 640.437 592.902 641.765 593.074L640.968 594.809C639.249 594.566 637.698 594.062 636.316 593.297C634.941 592.531 633.921 591.594 633.257 590.484C632.585 591.602 631.558 592.543 630.175 593.309C628.8 594.066 627.257 594.566 625.546 594.809L624.702 593.074C626.046 592.902 627.284 592.555 628.417 592.031C629.55 591.508 630.448 590.871 631.113 590.121C631.777 589.363 632.109 588.574 632.109 587.754V586.863H634.382V587.754ZM655.043 587.965C655.043 589.738 654.64 591.34 653.836 592.77C653.039 594.199 651.89 595.422 650.39 596.438C648.89 597.445 647.097 598.223 645.011 598.77L644.121 597.012C645.801 596.574 647.254 596 648.48 595.289C649.715 594.578 650.683 593.754 651.386 592.816C652.097 591.871 652.519 590.848 652.652 589.746H645.293V587.965H655.043ZM661.347 598.488H659.121V586.676H661.347V598.488ZM661.347 607.371H647.59V599.426H661.347V607.371ZM649.793 605.59H659.168V601.207H649.793V605.59Z" fill="#474B5C"/>
</g>
<rect x="90" y="80.1602" width="60" height="60" rx="30" fill="#333333"/>
<path d="M120.078 124.551C118.216 124.551 116.549 124.238 115.078 123.613C113.62 122.988 112.461 122.109 111.602 120.977C110.755 119.844 110.299 118.535 110.234 117.051H113.789C113.854 117.923 114.167 118.691 114.727 119.355C115.299 120.02 116.048 120.534 116.973 120.898C117.897 121.25 118.919 121.426 120.039 121.426C121.263 121.426 122.363 121.217 123.34 120.801C124.329 120.371 125.098 119.785 125.645 119.043C126.204 118.288 126.484 117.428 126.484 116.465C126.484 115.423 126.211 114.505 125.664 113.711C125.13 112.917 124.349 112.298 123.32 111.855C122.292 111.413 121.055 111.191 119.609 111.191H117.305V108.105H119.609C120.742 108.105 121.751 107.904 122.637 107.5C123.522 107.096 124.206 106.53 124.688 105.801C125.182 105.072 125.43 104.225 125.43 103.262C125.43 102.337 125.208 101.517 124.766 100.801C124.336 100.085 123.724 99.5312 122.93 99.1406C122.135 98.737 121.211 98.5352 120.156 98.5352C119.141 98.5352 118.19 98.7174 117.305 99.082C116.419 99.4466 115.697 99.9674 115.137 100.645C114.577 101.309 114.271 102.09 114.219 102.988H110.82C110.885 101.53 111.341 100.234 112.188 99.1016C113.034 97.9557 114.16 97.0703 115.566 96.4453C116.973 95.8073 118.516 95.4883 120.195 95.4883C121.94 95.4883 123.464 95.8333 124.766 96.5234C126.081 97.2005 127.09 98.1185 127.793 99.2773C128.496 100.436 128.841 101.699 128.828 103.066C128.841 104.655 128.418 106.016 127.559 107.148C126.699 108.281 125.521 109.056 124.023 109.473V109.668C125.234 109.863 126.283 110.273 127.168 110.898C128.066 111.51 128.75 112.298 129.219 113.262C129.701 114.212 129.935 115.28 129.922 116.465C129.935 117.988 129.512 119.368 128.652 120.605C127.793 121.829 126.608 122.793 125.098 123.496C123.6 124.199 121.927 124.551 120.078 124.551Z" fill="white"/>
<rect x="465" y="246.16" width="60" height="60" rx="30" fill="#333333"/>
<path d="M484.473 281.488L497.207 261.879H501.543V281.293H505.488V284.379H501.543V290.16H498.184V284.379H484.473V281.488ZM498.184 281.293V266.332H497.832L488.262 281.059V281.293H498.184Z" fill="white"/>
<rect x="301" y="522.16" width="60" height="60" rx="30" fill="#333333"/>
<path d="M330.941 566.551C329.262 566.551 327.732 566.232 326.352 565.594C324.984 564.943 323.891 564.051 323.07 562.918C322.263 561.772 321.827 560.483 321.762 559.051H325.16C325.251 559.884 325.564 560.639 326.098 561.316C326.632 561.98 327.322 562.508 328.168 562.898C329.014 563.276 329.939 563.465 330.941 563.465C332.139 563.465 333.22 563.191 334.184 562.645C335.147 562.098 335.902 561.349 336.449 560.398C336.996 559.448 337.27 558.387 337.27 557.215C337.27 556.004 336.983 554.917 336.41 553.953C335.85 552.977 335.069 552.215 334.066 551.668C333.077 551.108 331.957 550.822 330.707 550.809C328.194 550.77 326.436 551.616 325.434 553.348H322.035L324.027 537.879H339.34V541.004H326.957L325.902 549.285H326.176C326.814 548.79 327.589 548.393 328.5 548.094C329.411 547.794 330.355 547.645 331.332 547.645C333.103 547.645 334.698 548.055 336.117 548.875C337.549 549.682 338.669 550.809 339.477 552.254C340.297 553.699 340.707 555.327 340.707 557.137C340.707 558.934 340.284 560.548 339.438 561.98C338.591 563.413 337.426 564.533 335.941 565.34C334.457 566.147 332.79 566.551 330.941 566.551Z" fill="white"/>
</g>
<defs>
<clipPath id="clip0_210_19707">
<rect width="1440" height="757" fill="white" transform="translate(0 0.160156)"/>
</clipPath>
<clipPath id="clip1_210_19707">
<rect width="1296" height="72" fill="white" transform="translate(80 127.16)"/>
</clipPath>
<clipPath id="clip2_210_19707">
<rect x="135.2" y="573.16" width="261.6" height="48" rx="7.2" fill="white"/>
</clipPath>
<clipPath id="clip3_210_19707">
<rect x="447.2" y="573.16" width="261.6" height="48" rx="7.2" fill="white"/>
</clipPath>
</defs>
</svg>
