<svg width="101" height="101" viewBox="0 0 101 101" fill="none" xmlns="http://www.w3.org/2000/svg">
<g filter="url(#filter0_d_825_2082)">
<rect x="8" y="8" width="85" height="85" rx="20" fill="white" shape-rendering="crispEdges"/>
<rect x="9.5" y="9.5" width="82" height="82" rx="18.5" stroke="black" stroke-width="3" shape-rendering="crispEdges"/>
<path d="M32.6055 48.4219H34.8906V50.4785H32.6055V58.7227H30.0742V42.5508H32.6055V48.4219ZM28 46.0664H22.9551V52.7637C24.0742 52.752 25.1201 52.708 26.0928 52.6318C27.0654 52.5557 28.0469 52.4355 29.0371 52.2715L29.3008 54.3809C28.1582 54.5742 27.0244 54.7031 25.8994 54.7676C24.7744 54.8262 23.4121 54.8555 21.8125 54.8555H20.4238V44.0273H28V46.0664ZM50.0957 52.2891H44.1367V54.9434H41.5703V52.2891H35.3477V50.3027H50.0957V52.2891ZM48.4785 58.4238H37.0527V53.5547H39.6016V56.3848H48.4785V58.4238ZM42.7129 42.832C43.8789 42.8379 44.9043 42.9785 45.7891 43.2539C46.6738 43.5293 47.3594 43.9219 47.8457 44.4316C48.3379 44.9414 48.584 45.5332 48.584 46.207C48.584 46.8867 48.3408 47.4814 47.8545 47.9912C47.3682 48.4951 46.6797 48.8848 45.7891 49.1602C44.9043 49.4297 43.8789 49.5645 42.7129 49.5645C41.5469 49.5645 40.5186 49.4297 39.6279 49.1602C38.7373 48.8848 38.0459 48.4951 37.5537 47.9912C37.0674 47.4814 36.8242 46.8867 36.8242 46.207C36.8242 45.5332 37.0674 44.9414 37.5537 44.4316C38.0459 43.9219 38.7373 43.5293 39.6279 43.2539C40.5186 42.9785 41.5469 42.8379 42.7129 42.832ZM42.7129 44.8184C41.7227 44.8184 40.9492 44.9355 40.3926 45.1699C39.8359 45.4043 39.5605 45.75 39.5664 46.207C39.5605 46.6465 39.8359 46.9834 40.3926 47.2178C40.9492 47.4463 41.7227 47.5605 42.7129 47.5605C43.7031 47.5605 44.4736 47.4463 45.0244 47.2178C45.5811 46.9834 45.8594 46.6465 45.8594 46.207C45.8594 45.75 45.584 45.4043 45.0332 45.1699C44.4824 44.9355 43.709 44.8184 42.7129 44.8184ZM65.6699 56.9473H50.9219V54.8906H57.0215V52.6406H52.5742V47.0859H61.5215V45.5742H52.5566V43.5527H64.0176V49.0547H55.1055V50.6016H64.3867V52.6406H59.5176V54.8906H65.6699V56.9473ZM79.6621 51.9375H68.166V43.8516H79.5566V45.8906H70.6621V49.9336H79.6621V51.9375ZM81.2266 56.8066H66.4785V54.7148H81.2266V56.8066Z" fill="black"/>
</g>
<defs>
<filter id="filter0_d_825_2082" x="0.5" y="0.5" width="100" height="100" filterUnits="userSpaceOnUse" color-interpolation-filters="sRGB">
<feFlood flood-opacity="0" result="BackgroundImageFix"/>
<feColorMatrix in="SourceAlpha" type="matrix" values="0 0 0 0 0 0 0 0 0 0 0 0 0 0 0 0 0 0 127 0" result="hardAlpha"/>
<feOffset/>
<feGaussianBlur stdDeviation="3.75"/>
<feComposite in2="hardAlpha" operator="out"/>
<feColorMatrix type="matrix" values="0 0 0 0 0 0 0 0 0 0 0 0 0 0 0 0 0 0 0.33 0"/>
<feBlend mode="normal" in2="BackgroundImageFix" result="effect1_dropShadow_825_2082"/>
<feBlend mode="normal" in="SourceGraphic" in2="effect1_dropShadow_825_2082" result="shape"/>
</filter>
</defs>
</svg>
