<svg width="85" height="85" viewBox="0 0 85 85" fill="none" xmlns="http://www.w3.org/2000/svg">
<rect x="1.5" y="1.5" width="82" height="82" rx="18.5" fill="white"/>
<rect x="1.5" y="1.5" width="82" height="82" rx="18.5" stroke="black" stroke-width="3"/>
<path d="M24.6055 40.4219H26.8906V42.4785H24.6055V50.7227H22.0742V34.5508H24.6055V40.4219ZM20 38.0664H14.9551V44.7637C16.0742 44.752 17.1201 44.708 18.0928 44.6318C19.0654 44.5557 20.0469 44.4355 21.0371 44.2715L21.3008 46.3809C20.1582 46.5742 19.0244 46.7031 17.8994 46.7676C16.7744 46.8262 15.4121 46.8555 13.8125 46.8555H12.4238V36.0273H20V38.0664ZM42.0957 44.2891H36.1367V46.9434H33.5703V44.2891H27.3477V42.3027H42.0957V44.2891ZM40.4785 50.4238H29.0527V45.5547H31.6016V48.3848H40.4785V50.4238ZM34.7129 34.832C35.8789 34.8379 36.9043 34.9785 37.7891 35.2539C38.6738 35.5293 39.3594 35.9219 39.8457 36.4316C40.3379 36.9414 40.584 37.5332 40.584 38.207C40.584 38.8867 40.3408 39.4814 39.8545 39.9912C39.3682 40.4951 38.6797 40.8848 37.7891 41.1602C36.9043 41.4297 35.8789 41.5645 34.7129 41.5645C33.5469 41.5645 32.5186 41.4297 31.6279 41.1602C30.7373 40.8848 30.0459 40.4951 29.5537 39.9912C29.0674 39.4814 28.8242 38.8867 28.8242 38.207C28.8242 37.5332 29.0674 36.9414 29.5537 36.4316C30.0459 35.9219 30.7373 35.5293 31.6279 35.2539C32.5186 34.9785 33.5469 34.8379 34.7129 34.832ZM34.7129 36.8184C33.7227 36.8184 32.9492 36.9355 32.3926 37.1699C31.8359 37.4043 31.5605 37.75 31.5664 38.207C31.5605 38.6465 31.8359 38.9834 32.3926 39.2178C32.9492 39.4463 33.7227 39.5605 34.7129 39.5605C35.7031 39.5605 36.4736 39.4463 37.0244 39.2178C37.5811 38.9834 37.8594 38.6465 37.8594 38.207C37.8594 37.75 37.584 37.4043 37.0332 37.1699C36.4824 36.9355 35.709 36.8184 34.7129 36.8184ZM57.6699 48.9473H42.9219V46.8906H49.0215V44.6406H44.5742V39.0859H53.5215V37.5742H44.5566V35.5527H56.0176V41.0547H47.1055V42.6016H56.3867V44.6406H51.5176V46.8906H57.6699V48.9473ZM71.6621 43.9375H60.166V35.8516H71.5566V37.8906H62.6621V41.9336H71.6621V43.9375ZM73.2266 48.8066H58.4785V46.7148H73.2266V48.8066Z" fill="black"/>
</svg>
