<svg width="398" height="118" viewBox="0 0 398 118" fill="none" xmlns="http://www.w3.org/2000/svg">
<rect x="0.354858" width="397" height="118" rx="10" fill="#282828"/>
<path d="M72.6674 50.9688H64.1674V48.5781H72.6674V50.9688ZM72.6674 57.3906H64.1674V54.9844H72.6674V57.3906ZM59.1361 46.2812C60.5111 46.2604 61.7507 46.5365 62.8549 47.1094C63.9694 47.6823 64.8444 48.4792 65.4799 49.5C66.1153 50.5208 66.433 51.6875 66.433 53C66.433 54.2812 66.1153 55.4323 65.4799 56.4531C64.8444 57.474 63.9694 58.2708 62.8549 58.8438C61.7507 59.4062 60.5111 59.6875 59.1361 59.6875C57.7403 59.6875 56.4851 59.4062 55.3705 58.8438C54.2663 58.2708 53.3913 57.474 52.7455 56.4531C52.1101 55.4323 51.7924 54.2812 51.7924 53C51.7924 51.6875 52.1101 50.5208 52.7455 49.5C53.3913 48.4792 54.2663 47.6823 55.3705 47.1094C56.4851 46.5365 57.7403 46.2604 59.1361 46.2812ZM59.1361 48.8281C58.2611 48.8177 57.4799 48.9896 56.7924 49.3438C56.1153 49.6875 55.584 50.1771 55.1986 50.8125C54.8132 51.4375 54.6205 52.1667 54.6205 53C54.6205 53.8125 54.8132 54.5365 55.1986 55.1719C55.584 55.7969 56.1153 56.2865 56.7924 56.6406C57.4799 56.9948 58.2611 57.1719 59.1361 57.1719C59.9903 57.1719 60.7507 56.9948 61.4174 56.6406C62.0944 56.2865 62.6257 55.7969 63.0111 55.1719C63.3965 54.5365 63.5892 53.8125 63.5892 53C63.5892 52.1667 63.3965 51.4375 63.0111 50.8125C62.6257 50.1771 62.0944 49.6875 61.4174 49.3438C60.7507 48.9896 59.9903 48.8177 59.1361 48.8281ZM74.7299 61.1719H71.7611V44.6406H74.7299V61.1719ZM65.3392 61.8125C67.2872 61.8125 68.9694 62.026 70.3861 62.4531C71.8132 62.8698 72.9069 63.4844 73.6674 64.2969C74.4382 65.099 74.8236 66.0677 74.8236 67.2031C74.8236 68.3281 74.4382 69.2969 73.6674 70.1094C72.9069 70.9219 71.8132 71.5417 70.3861 71.9688C68.9694 72.3958 67.2872 72.6094 65.3392 72.6094C63.4017 72.6094 61.7194 72.3958 60.2924 71.9688C58.8757 71.5417 57.7872 70.9219 57.0267 70.1094C56.2663 69.2969 55.8861 68.3281 55.8861 67.2031C55.8861 66.0677 56.2663 65.099 57.0267 64.2969C57.7872 63.4844 58.8757 62.8698 60.2924 62.4531C61.7194 62.026 63.4017 61.8125 65.3392 61.8125ZM65.3392 64.0938C63.9955 64.0938 62.8288 64.2188 61.8392 64.4688C60.8497 64.7083 60.0944 65.0625 59.5736 65.5312C59.0528 65.9896 58.7924 66.5469 58.7924 67.2031C58.7924 67.8385 59.0528 68.3854 59.5736 68.8438C60.0944 69.3021 60.8497 69.6562 61.8392 69.9062C62.8288 70.1458 63.9955 70.2656 65.3392 70.2656C66.7142 70.2656 67.8965 70.1458 68.8861 69.9062C69.8757 69.6562 70.6257 69.3021 71.1361 68.8438C71.6569 68.3854 71.9174 67.8385 71.9174 67.2031C71.9174 66.5365 71.6569 65.974 71.1361 65.5156C70.6257 65.0573 69.8757 64.7083 68.8861 64.4688C67.8965 64.2188 66.7142 64.0938 65.3392 64.0938ZM88.183 48.875C88.183 50.6875 87.8705 52.3802 87.2455 53.9531C86.6205 55.526 85.7299 56.8958 84.5736 58.0625C83.4174 59.2292 82.0372 60.1146 80.433 60.7188L78.8392 58.3594C80.2663 57.8385 81.4955 57.099 82.5267 56.1406C83.5684 55.1823 84.3653 54.0781 84.9174 52.8281C85.4694 51.5781 85.7455 50.2604 85.7455 48.875V46.1094H88.183V48.875ZM88.683 49.1406C88.683 50.349 88.959 51.5208 89.5111 52.6562C90.0632 53.7812 90.8497 54.776 91.8705 55.6406C92.8913 56.4948 94.0892 57.151 95.4642 57.6094L93.8549 59.9219C92.3132 59.3802 90.9694 58.5729 89.8236 57.5C88.6778 56.4271 87.7976 55.1771 87.183 53.75C86.5788 52.3125 86.2767 50.776 86.2767 49.1406V46.1094H88.683V49.1406ZM101.042 61.5312H98.0892V44.6406H101.042V61.5312ZM105.12 54.1719H100.214V51.6875H105.12V54.1719ZM91.9955 62.2031C93.9122 62.2031 95.5684 62.4115 96.9642 62.8281C98.3601 63.2344 99.4278 63.8229 100.167 64.5938C100.917 65.3646 101.292 66.2969 101.292 67.3906C101.292 68.4844 100.917 69.4219 100.167 70.2031C99.4278 70.9844 98.3653 71.5781 96.9799 71.9844C95.5944 72.401 93.933 72.6094 91.9955 72.6094C90.0684 72.6094 88.3965 72.401 86.9799 71.9844C85.5736 71.5781 84.4903 70.9844 83.7299 70.2031C82.9799 69.4219 82.6049 68.4844 82.6049 67.3906C82.6049 66.2969 82.9799 65.3646 83.7299 64.5938C84.4903 63.8229 85.5736 63.2344 86.9799 62.8281C88.3965 62.4115 90.0684 62.2031 91.9955 62.2031ZM91.9955 64.5625C90.6726 64.5625 89.5267 64.6719 88.558 64.8906C87.5892 65.1094 86.8497 65.4375 86.3392 65.875C85.8392 66.3021 85.5892 66.8073 85.5892 67.3906C85.5892 67.9948 85.8392 68.5156 86.3392 68.9531C86.8497 69.3802 87.584 69.7031 88.5424 69.9219C89.5007 70.1406 90.6517 70.2552 91.9955 70.2656C93.3601 70.2552 94.5163 70.1406 95.4642 69.9219C96.4226 69.7031 97.1517 69.3802 97.6517 68.9531C98.1517 68.5156 98.4017 67.9948 98.4017 67.3906C98.4017 66.7865 98.1465 66.276 97.6361 65.8594C97.1361 65.4323 96.4069 65.1094 95.4486 64.8906C94.4903 64.6719 93.3392 64.5625 91.9955 64.5625ZM119.464 46.3438C121.423 46.3438 123.183 46.6719 124.745 47.3281C126.318 47.974 127.553 48.8906 128.449 50.0781C129.344 51.2552 129.792 52.6094 129.792 54.1406C129.792 55.6823 129.344 57.0521 128.449 58.25C127.553 59.4375 126.318 60.3542 124.745 61C123.183 61.6354 121.423 61.9531 119.464 61.9531C117.516 61.9531 115.756 61.6354 114.183 61C112.62 60.3542 111.386 59.4375 110.48 58.25C109.574 57.0521 109.12 55.6823 109.12 54.1406C109.12 52.6094 109.574 51.25 110.48 50.0625C111.386 48.875 112.62 47.9583 114.183 47.3125C115.756 46.6667 117.516 46.3438 119.464 46.3438ZM119.464 48.75C118.037 48.7292 116.756 48.9479 115.62 49.4062C114.485 49.8542 113.594 50.4948 112.949 51.3281C112.303 52.151 111.98 53.0885 111.98 54.1406C111.98 55.2135 112.303 56.1615 112.949 56.9844C113.594 57.7969 114.485 58.4271 115.62 58.875C116.756 59.3229 118.037 59.5469 119.464 59.5469C120.881 59.5469 122.152 59.3229 123.277 58.875C124.402 58.4271 125.287 57.7969 125.933 56.9844C126.579 56.1615 126.902 55.2135 126.902 54.1406C126.902 53.0885 126.579 52.151 125.933 51.3281C125.287 50.4948 124.402 49.8542 123.277 49.4062C122.152 48.9479 120.881 48.7292 119.464 48.75ZM132.324 69.0312H106.699V66.5938H132.324V69.0312ZM159.98 69.2969H134.355V66.8438H159.98V69.2969ZM148.558 67.8906H145.652V61.0625H148.558V67.8906ZM156.839 55.375H140.433V60.75H137.48V53H153.917V49.0625H137.433V46.6406H156.839V55.375ZM157.495 61.9062H137.48V59.4688H157.495V61.9062ZM195.449 69.1719H169.824V66.7344H195.449V69.1719ZM184.027 67.4219H181.12V60.2031H184.027V67.4219ZM175.73 51.3906H189.48V46.5625H192.402V60.9844H172.745V46.5625H175.73V51.3906ZM189.48 58.5781V53.7812H175.73V58.5781H189.48ZM220.792 72.7188H217.855V44.6406H220.792V72.7188ZM218.542 57.6406H212.73V55.1875H218.542V57.6406ZM200.714 63.5469C203.454 63.5469 205.756 63.4896 207.62 63.375C209.495 63.2604 211.391 63.026 213.308 62.6719L213.542 65.1406C211.584 65.4844 209.636 65.7188 207.699 65.8438C205.761 65.9583 203.433 66.026 200.714 66.0469H198.527V63.5469H200.714ZM211.074 57.2031H201.48V64.3281H198.527V54.7969H208.183V49.5938H198.433V47.1719H211.074V57.2031ZM254.761 72.625H251.808V44.6406H254.761V72.625ZM259.105 58.2969H253.995V55.8281H259.105V58.2969ZM247.433 47.6094C247.433 50.4115 246.995 53.0312 246.12 55.4688C245.256 57.8958 243.87 60.1354 241.964 62.1875C240.068 64.2292 237.626 65.9896 234.636 67.4688L232.98 65.1562C235.553 63.8646 237.693 62.375 239.402 60.6875C241.11 58.9896 242.391 57.099 243.245 55.0156C244.1 52.9219 244.527 50.625 244.527 48.125V47.6094H247.433ZM246.027 50.0781H234.355V47.6094H246.027V50.0781ZM283.886 72.6406H280.886V44.6406H283.886V72.6406ZM275.574 47.6562C275.574 50.5104 275.131 53.151 274.245 55.5781C273.37 57.9948 271.964 60.224 270.027 62.2656C268.089 64.2969 265.568 66.0573 262.464 67.5469L260.87 65.1406C263.568 63.8698 265.782 62.3906 267.511 60.7031C269.251 59.0156 270.537 57.1302 271.37 55.0469C272.204 52.9635 272.62 50.6615 272.62 48.1406V47.6562H275.574ZM273.902 50.0312H262.23V47.6562H273.902V50.0312Z" fill="white"/>
<g clip-path="url(#clip0_2_14)">
<path d="M346.309 46.8864C345.736 44.7216 344.04 43.017 341.889 42.4375C337.991 41.3864 322.355 41.3864 322.355 41.3864C322.355 41.3864 306.718 41.3864 302.821 42.4375C300.67 43.017 298.974 44.7216 298.4 46.8864C297.355 50.8125 297.355 59 297.355 59C297.355 59 297.355 67.1875 298.4 71.1136C298.974 73.2784 300.67 74.983 302.821 75.5625C306.721 76.6136 322.355 76.6136 322.355 76.6136C322.355 76.6136 337.991 76.6136 341.889 75.5625C344.04 74.983 345.736 73.2784 346.309 71.1136C347.355 67.1903 347.355 59 347.355 59C347.355 59 347.355 50.8125 346.309 46.8864ZM317.241 66.4347V51.5653L330.309 59L317.241 66.4347Z" fill="white"/>
</g>
<defs>
<clipPath id="clip0_2_14">
<rect width="50" height="35.2273" fill="white" transform="translate(297.355 41.3864)"/>
</clipPath>
</defs>
</svg>
